<svg width="157" height="95" viewBox="0 0 157 95" fill="none" xmlns="http://www.w3.org/2000/svg">
<path d="M99.2607 0.226562H93.0801V41.4983H99.2607V0.226562Z" fill="white"/>
<path d="M143.349 0.412109H137.168V41.6838H143.349V0.412109Z" fill="white"/>
<path d="M72.0869 53.6025H65.9062V80.8975H72.0869V53.6025Z" fill="white"/>
<path d="M90.7305 53.6025H74.7227V59.7779H90.7305V53.6025Z" fill="white"/>
<path d="M117.68 0.577148H101.898V6.75247H117.68V0.577148Z" fill="white"/>
<path d="M134.531 0.577148H123.859V6.75247H134.531V0.577148Z" fill="white"/>
<path d="M117.68 35.3438H101.898V41.5191H117.68V35.3438Z" fill="white"/>
<path d="M117.68 17.9502H101.898V24.1255H117.68V17.9502Z" fill="white"/>
<path d="M59.7462 67.085H35.209V73.2603H59.7462V67.085Z" fill="white"/>
<path d="M86.8994 41.5188H80.7188V20.1522L86.8994 13.3594V41.5188Z" fill="white"/>
<path d="M34.4062 41.4158L34.4268 32.1734L63.5377 0L63.4965 9.2424L34.4062 41.4158Z" fill="white"/>
<path d="M156.617 0.494141H145.945V6.66946H156.617V0.494141Z" fill="white"/>
<path d="M35.209 93.4128V75.8749H41.3896V93.4128H35.209ZM59.8904 75.8749V93.4128H53.7097V75.8749H59.8904ZM40.9364 57.0196L46.2311 59.819C43.8825 60.2925 42.0283 62.1245 41.472 64.4299L40.9364 57.0196ZM35.209 64.4505C35.8683 58.7486 40.5037 54.2201 46.2311 53.6025V58.337V59.8396L41.6781 60.9923L41.472 64.4505H35.209ZM53.4831 64.4505C52.9474 62.1245 51.0726 60.3131 48.724 59.8396L54.0187 57.0401L53.4831 64.4505ZM59.7462 64.4505H53.4831L53.2771 60.9923L48.724 59.8396V58.337V53.6025C54.4514 54.1995 59.0869 58.7486 59.7462 64.4505Z" fill="white"/>
<path d="M29.1933 65.891V93.5153H23.0126V65.891H29.1933ZM10.7749 65.891V82.4203H4.59428V65.891H10.7749ZM10.3217 55.8252L15.6164 58.6247C13.2678 59.0981 11.4136 60.9301 10.8573 63.2356L10.3217 55.8252ZM4.59428 63.2562C5.25355 57.5543 9.88903 53.0257 15.6164 52.4082V57.1426V58.6453L11.0634 59.798L10.8573 63.2562H4.59428ZM22.8684 63.2562C22.3327 60.9301 20.4579 59.1187 18.1093 58.6453L23.404 55.8458L22.8684 63.2562ZM29.1314 63.2562H22.8684L22.6624 59.798L18.1093 58.6453V57.1426V52.4082C23.8367 53.0052 28.4928 57.5543 29.1314 63.2562ZM0 87.1547C2.30744 86.6195 4.12043 84.7463 4.59428 82.3997L7.37557 87.6899L0 87.1547ZM0 93.4123V87.1547L3.44056 86.9488L4.59428 82.3997H6.07764H10.7749C10.1775 88.1222 5.66559 92.7742 0 93.4123Z" fill="white"/>
<path d="M28.1009 30.4239C27.4829 36.1669 22.8886 40.7367 17.1612 41.3336L28.1009 30.4239ZM3.50195 27.7891V13.7093H9.6826V27.7891H3.50195ZM14.5241 41.3336C8.77611 40.7161 4.20243 36.1464 3.58436 30.4239L14.5241 41.3336ZM9.29116 3.66416L14.5859 6.46364C12.2579 6.93708 10.3831 8.76909 9.84742 11.0951L9.29116 3.66416ZM3.58436 11.0951C4.24363 5.39325 8.87912 0.864679 14.6065 0.247147V4.98156V6.48422L10.0328 7.61636L9.84742 11.0951H3.58436ZM21.8585 11.0951C21.3022 8.76909 19.448 6.93708 17.0994 6.46364L22.3941 3.66416L21.8585 11.0951ZM28.1215 11.0951H21.8585L21.6525 7.63695L17.0994 6.46364V4.96098V0.226562C22.8268 0.844095 27.4623 5.37266 28.1215 11.0951ZM22.3941 37.8755L17.0994 35.076C19.448 34.6025 21.3022 32.7705 21.8585 30.4651L22.3941 37.8755ZM28.1009 30.4651C27.4417 36.1669 22.8062 40.6955 17.0788 41.313V36.5786V35.076L21.6318 33.9232L21.8379 30.4651H28.1009ZM9.82681 30.4651C10.3625 32.7911 12.2373 34.6025 14.5859 35.076L9.29116 37.8755L9.82681 30.4651ZM3.56376 30.4651H9.82681L10.0328 33.9232L14.5859 35.076V36.5786V41.313C8.85851 40.6955 4.22303 36.1669 3.56376 30.4651Z" fill="white"/>
<path d="M57.9961 28.4482L58.0167 19.2264L63.7853 12.7217L63.7441 21.9641L57.9961 28.4482Z" fill="white"/>
<path d="M57.9961 41.5189L58.0167 32.2765L86.9009 0.226562L86.8803 9.46896L57.9961 41.5189Z" fill="white"/>
<path d="M74.724 70.2139C75.8571 69.864 77.0726 69.6787 78.3087 69.6787C84.7572 69.6787 90.0726 74.5984 90.7112 80.8766H84.4688C83.8713 78.0154 81.3373 75.854 78.3087 75.854C76.9902 75.854 75.7541 76.2657 74.7446 76.9656L74.724 70.2139ZM65.9062 80.8766C66.3183 76.8009 68.7081 73.3016 72.0869 71.346L65.9062 80.8766ZM79.6273 88.3076C82.0377 87.793 83.9537 85.8786 84.4688 83.4703L90.7318 83.4291C90.1344 89.2751 85.4783 93.9271 79.6479 94.5447L79.6273 88.3076ZM72.1487 83.4085C72.6432 85.8375 74.5592 87.7724 76.9902 88.287V94.5241C71.1598 93.9066 66.5243 89.2751 65.9062 83.4497" fill="white"/>
</svg>
