<svg width="162" height="162" viewBox="0 0 162 162" fill="none" xmlns="http://www.w3.org/2000/svg">
<g clip-path="url(#clip0_630_1148)">
<path d="M63.7864 101C51.7399 101 41.9863 91.1543 41.9863 79.006C41.9863 66.8457 51.7399 57 63.7864 57" fill="white"/>
<path d="M89.1985 79.0059C89.1985 91.1541 79.4449 101.012 67.3984 101.012V79.0059" fill="white"/>
<path d="M67.3984 79.2101C67.3984 67.0618 77.1521 57.2041 89.1985 57.2041V79.2101" fill="white"/>
<path d="M110.997 57.2158H89.1973V101.012H110.997V57.2158Z" fill="white"/>
</g>
<path d="M36.1793 44.7994L37.9481 42.1929C39.2139 43.4144 39.9209 44.8509 40.0692 46.5024C40.2036 48.1446 39.7139 49.7862 38.6003 51.4274C37.1216 53.6063 35.2624 54.8322 33.0228 55.105C30.7694 55.3685 28.505 54.7281 26.2294 53.1839C23.9539 51.6397 22.5293 49.7767 21.9555 47.5947C21.3773 45.3895 21.8276 43.1975 23.3063 41.0185C24.3638 39.4601 25.6319 38.4374 27.1105 37.9503C28.5985 37.4494 30.105 37.5149 31.6299 38.1469L29.8611 40.7534C28.1362 40.2677 26.7029 40.8661 25.5611 42.5486C24.5784 43.9967 24.34 45.4462 24.8458 46.8973C25.3516 48.3483 26.3837 49.6026 27.9421 50.6602C29.5005 51.7177 31.0426 52.2204 32.5685 52.1682C34.1038 52.1023 35.3628 51.3453 36.3454 49.8972C36.9631 48.987 37.2547 48.0972 37.2203 47.2279C37.1814 46.3354 36.8344 45.5259 36.1793 44.7994Z" fill="white"/>
<path d="M45.203 42.6151L37.8685 32.2165L41.1576 29.8965L46.6999 32.8096L47.1902 32.4637L46.2854 26.2797L49.5541 23.9741L56.8886 34.3727L54.6414 35.9577L49.3674 28.4806L48.8771 28.8264L49.6069 34.155L47.4414 35.6824L42.6666 33.207L42.1763 33.5528L47.4503 41.03L45.203 42.6151Z" fill="white"/>
<path d="M71.3576 22.358L71.6159 23.2723L62.5698 25.8274C63.3839 28.4031 64.8977 29.3783 67.1111 28.7532C68.5065 28.359 69.2494 27.5863 69.3399 26.435L72.1066 25.6535C72.2013 26.9084 71.8831 28.0201 71.1522 28.9885C70.4167 29.941 69.2791 30.6347 67.7394 31.0696C65.8468 31.6042 64.1852 31.424 62.7548 30.5292C61.3244 29.6343 60.3351 28.2165 59.7869 26.2758C59.2432 24.3511 59.3456 22.6595 60.0941 21.2012C60.8585 19.7383 62.171 18.7441 64.0316 18.2186C65.7959 17.7202 67.3293 17.8759 68.6318 18.6857C69.9458 19.4749 70.8544 20.699 71.3576 22.358ZM64.6191 20.3906C62.8548 20.889 62.0215 22.0163 62.1193 23.7725L68.2542 22.0396C67.9541 21.3451 67.4898 20.8354 66.8612 20.5107C66.2326 20.186 65.4852 20.146 64.6191 20.3906Z" fill="white"/>
<path d="M77.0277 18.5636L77.0915 16.1644L88.4875 16.4671L88.4237 18.8663L84.1502 18.7528L83.8761 29.0741L81.0521 28.9991L81.3262 18.6778L77.0277 18.5636Z" fill="white"/>
<path d="M103.247 33.72L100.579 32.7929L102.326 27.7628L96.5168 25.7445L94.7693 30.7746L92.1007 29.8475L96.2768 17.8273L98.9454 18.7544L97.3045 23.4774L103.114 25.4958L104.755 20.7727L107.423 21.6998L103.247 33.72Z" fill="white"/>
<path d="M114.986 41.586L115.704 40.6558L115.229 40.2892C113.985 40.5921 112.69 40.2243 111.344 39.1856C110.235 38.3303 109.602 37.3365 109.445 36.2042C109.297 35.0587 109.58 34.0242 110.292 33.1006C110.995 32.1902 111.936 31.6531 113.115 31.4893C114.294 31.3255 115.556 31.7629 116.902 32.8016L119.871 35.0927L120.1 34.7958C121.047 33.5687 120.815 32.4104 119.403 31.3209C118.149 30.3535 117.145 30.263 116.391 31.0494L114.175 29.3387C114.95 28.4426 115.923 28.0143 117.093 28.0537C118.285 28.0902 119.482 28.5717 120.683 29.4983C122.042 30.5471 122.87 31.6703 123.167 32.8678C123.477 34.0756 123.164 35.2864 122.227 36.5002L117.064 43.1898L114.986 41.586ZM113.442 37.8994C114.194 38.4798 115.015 38.7245 115.907 38.6334C116.798 38.5423 117.514 38.1472 118.053 37.4479L118.649 36.676L116.076 34.6904C114.651 33.5906 113.511 33.5949 112.656 34.7033C112.258 35.2178 112.126 35.7577 112.258 36.3229C112.401 36.875 112.795 37.4004 113.442 37.8994Z" fill="white"/>
<path d="M134.094 44.0496L137.706 49.3332L127.2 56.5141L125.606 54.1818L129.424 51.5719L127.732 49.0952C127.506 48.765 127.343 48.5126 127.244 48.3381L122.404 49.4968L120.795 47.1439L126.287 45.8737C126.126 44.4286 126.7 43.2593 128.007 42.3658C129.067 41.6416 130.127 41.4213 131.189 41.7049C132.251 41.9884 133.219 42.77 134.094 44.0496ZM131.241 50.3304L134.213 48.2989L132.322 45.5333C131.476 44.2949 130.557 44.0143 129.567 44.6915C128.576 45.3687 128.504 46.3264 129.35 47.5648L131.241 50.3304Z" fill="white"/>
<path d="M132.266 69.6017L134.933 69.4044L134.966 69.8532C135.032 70.7342 135.427 71.3317 136.152 71.6457C136.877 71.9598 138.17 72.048 140.032 71.9104L145.168 71.5307L145.927 81.8027L133.237 82.7408L133.029 79.9235L143.325 79.1623L142.966 74.3006L140.149 74.5088C137.406 74.7116 135.44 74.4558 134.251 73.7415C133.08 73.0427 132.429 71.8123 132.299 70.0504L132.266 69.6017Z" fill="white"/>
<path d="M130.742 96.3104L131.882 96.5966L132.028 96.0147C131.253 94.9952 131.072 93.661 131.487 92.0122C131.828 90.6544 132.485 89.6769 133.46 89.0797C134.451 88.4865 135.513 88.332 136.644 88.6162C137.759 88.8963 138.628 89.544 139.249 90.5593C139.871 91.5746 139.974 92.9066 139.56 94.5554L138.647 98.1925L139.011 98.2838C140.514 98.6614 141.483 97.9853 141.917 96.2557C142.303 94.72 141.984 93.7637 140.962 93.3867L141.644 90.671C142.776 91.0239 143.557 91.7443 143.988 92.8321C144.432 93.9402 144.469 95.2297 144.099 96.7007C143.681 98.3656 142.983 99.5735 142.004 100.324C141.021 101.091 139.785 101.288 138.298 100.915L130.103 98.8563L130.742 96.3104ZM133.504 93.4211C133.273 94.3425 133.377 95.1935 133.817 95.9741C134.256 96.7548 134.905 97.2527 135.761 97.4678L136.707 97.7053L137.499 94.5532C137.937 92.8074 137.477 91.764 136.12 91.423C135.489 91.2647 134.941 91.3591 134.476 91.7062C134.027 92.0574 133.703 92.629 133.504 93.4211Z" fill="white"/>
<path d="M135.241 115.777C134.264 117.328 132.979 118.243 131.387 118.521C129.785 118.812 128.195 118.461 126.615 117.467C125.049 116.482 124.074 115.168 123.688 113.528C123.294 111.901 123.616 110.263 124.655 108.612C125.756 106.863 127.172 105.864 128.905 105.615C130.637 105.366 132.568 105.912 134.698 107.253C135.685 107.874 136.536 108.478 137.249 109.065C137.954 109.666 138.598 110.348 139.183 111.109C139.772 111.894 140.132 112.731 140.261 113.62C140.382 114.523 140.238 115.456 139.828 116.419L138.523 119.526C138.331 119.957 138.24 120.274 138.25 120.477C138.259 120.68 138.397 120.884 138.661 121.09L137.369 123.143C136.648 122.63 136.155 122.083 135.89 121.503C135.617 120.937 135.674 120.205 136.062 119.307L137.669 115.533C138.048 114.649 138.105 113.838 137.841 113.101C137.59 112.372 137.051 111.648 136.223 110.93L135.904 111.438C136.412 112.821 136.191 114.268 135.241 115.777ZM126.7 109.87C126.078 110.857 125.935 111.82 126.269 112.759C126.604 113.699 127.251 114.47 128.21 115.074C129.169 115.677 130.137 115.922 131.114 115.809C132.092 115.695 132.891 115.145 133.513 114.158C134.143 113.156 134.298 112.19 133.978 111.26C133.657 110.33 133.017 109.563 132.058 108.959C131.099 108.355 130.124 108.106 129.132 108.21C128.141 108.315 127.33 108.868 126.7 109.87Z" fill="white"/>
<path d="M124.83 126.747C124.722 128.453 123.909 129.931 122.39 131.18C120.871 132.429 119.27 132.936 117.588 132.701C115.904 132.489 114.437 131.624 113.188 130.105C111.928 128.573 111.352 126.954 111.459 125.247C111.564 123.564 112.376 122.098 113.895 120.849C115.414 119.6 117.016 119.081 118.701 119.293C120.383 119.528 121.854 120.412 123.113 121.944C124.362 123.463 124.935 125.064 124.83 126.747ZM118.264 121.95C117.269 121.711 116.321 121.962 115.42 122.703C114.519 123.444 114.089 124.326 114.131 125.348C114.184 126.383 114.597 127.371 115.37 128.311C116.132 129.238 117.011 129.821 118.006 130.06C119.011 130.312 119.965 130.067 120.866 129.326C121.767 128.585 122.191 127.697 122.138 126.662C122.096 125.639 121.694 124.665 120.931 123.738C120.159 122.798 119.269 122.202 118.264 121.95Z" fill="white"/>
<path d="M103.359 139.521C104.45 139.108 105.131 138.413 105.402 137.436C105.658 136.466 105.57 135.412 105.139 134.274C104.702 133.121 104.065 132.266 103.23 131.709C102.38 131.159 101.409 131.09 100.318 131.504C99.274 131.9 98.6104 132.57 98.3272 133.516C98.0499 134.476 98.1388 135.557 98.5939 136.757C99.0491 137.957 99.696 138.816 100.535 139.336C101.374 139.856 102.315 139.917 103.359 139.521ZM109.962 139.236L107.414 140.202L106.98 139.057L106.419 139.27C106.006 140.532 105.021 141.458 103.462 142.049C101.888 142.646 100.42 142.535 99.0574 141.715C97.6791 140.9 96.6441 139.582 95.9526 137.759C95.2551 135.92 95.1522 134.239 95.6439 132.715C96.12 131.198 97.145 130.14 98.7189 129.543C100.262 128.958 101.582 129.01 102.681 129.698L103.242 129.485L101.035 123.665L103.676 122.663L109.962 139.236Z" fill="white"/>
<path d="M80.3092 133.093L80.3567 134.267L80.9562 134.243C81.7151 133.211 82.9439 132.661 84.6425 132.592C86.0413 132.536 87.1649 132.89 88.0133 133.657C88.8623 134.44 89.3105 135.414 89.3576 136.58C89.4042 137.729 89.0283 138.745 88.23 139.628C87.4318 140.511 86.1833 140.987 84.4847 141.056L80.7378 141.207L80.753 141.582C80.8157 143.131 81.738 143.869 83.5198 143.797C85.1019 143.733 85.9293 143.157 86.002 142.07L88.7997 141.957C88.781 143.142 88.3108 144.095 87.3892 144.816C86.4517 145.555 85.2252 145.955 83.7098 146.016C81.9945 146.085 80.6384 145.757 79.6415 145.03C78.628 144.304 78.0902 143.174 78.0282 141.642L77.6863 133.199L80.3092 133.093ZM83.8612 134.926C82.912 134.964 82.1251 135.305 81.5006 135.947C80.8761 136.59 80.5817 137.352 80.6174 138.235L80.6569 139.209L83.9042 139.077C85.7028 139.005 86.5737 138.269 86.5171 136.87C86.4908 136.22 86.2454 135.722 85.7809 135.374C85.3171 135.042 84.6772 134.893 83.8612 134.926Z" fill="white"/>
<path d="M71.0005 142.821L70.3981 145.144L59.3631 142.283L59.9655 139.96L64.1036 141.033L66.6952 131.038L69.4297 131.748L66.8382 141.742L71.0005 142.821Z" fill="white"/>
<path d="M51.8021 137.262C50.1523 137.711 48.4912 137.418 46.8187 136.383C45.1463 135.348 44.1499 133.997 43.8297 132.329C43.4865 130.666 43.8322 128.999 44.867 127.326C45.9105 125.64 47.2572 124.572 48.907 124.123C50.5339 123.679 52.1835 123.974 53.856 125.009C55.5284 126.044 56.5362 127.393 56.8794 129.055C57.1997 130.723 56.8381 132.401 55.7946 134.087C54.7598 135.76 53.429 136.818 51.8021 137.262ZM54.2235 129.499C54.1288 128.48 53.5853 127.664 52.5932 127.05C51.6011 126.436 50.628 126.314 49.6739 126.684C48.711 127.069 47.9095 127.778 47.2694 128.813C46.638 129.833 46.3697 130.853 46.4644 131.872C46.5503 132.905 47.0894 133.728 48.0815 134.342C49.0736 134.956 50.0511 135.071 51.014 134.687C51.9681 134.317 52.7608 133.621 53.3922 132.601C54.0323 131.566 54.3094 130.532 54.2235 129.499Z" fill="white"/>
<path d="M32.7276 121.001C33.4685 121.902 34.345 122.325 35.3568 122.27C36.3581 122.202 37.3287 121.781 38.2684 121.009C39.2211 120.225 39.8275 119.349 40.0878 118.38C40.3376 117.398 40.0919 116.456 39.351 115.555C38.6417 114.692 37.7941 114.278 36.8079 114.312C35.8089 114.357 34.8138 114.787 33.8225 115.602C32.8313 116.417 32.2237 117.305 31.9997 118.266C31.7757 119.227 32.0183 120.138 32.7276 121.001ZM35.1102 127.166L33.3795 125.061L34.3257 124.283L33.9446 123.819C32.6172 123.832 31.4242 123.195 30.3657 121.907C29.2965 120.607 28.9325 119.18 29.2734 117.627C29.6038 116.061 30.5221 114.658 32.0283 113.42C33.5474 112.171 35.1072 111.535 36.7079 111.514C38.2979 111.479 39.6275 112.112 40.6966 113.413C41.7446 114.687 42.1183 115.955 41.8176 117.216L42.1987 117.68L47.0069 113.726L48.8012 115.908L35.1102 127.166Z" fill="white"/>
<path d="M33.3473 102.13L34.4604 105.13L22.53 109.557L21.5734 106.978L29.4489 104.056L29.2402 103.494L19.5472 101.517L18.408 98.4466L30.3384 94.0203L31.295 96.5986L23.4195 99.5205L23.6282 100.083L33.3473 102.13Z" fill="white"/>
<path d="M16.2842 83.5151L16.0965 77.1178L28.816 76.7447L28.8989 79.5684L24.2758 79.7041L24.3638 82.7028C24.3756 83.1026 24.376 83.4027 24.3652 83.6031L29.0653 85.241L29.1489 88.0898L23.841 86.1946C23.1956 87.4974 22.0816 88.1721 20.4989 88.2185C19.2161 88.2561 18.2044 87.869 17.4636 87.057C16.7228 86.2451 16.3296 85.0644 16.2842 83.5151ZM22.0768 79.7686L18.4783 79.8742L18.5766 83.2227C18.6206 84.7221 19.2423 85.4542 20.4418 85.419C21.6413 85.3838 22.219 84.6165 22.175 83.1172L22.0768 79.7686Z" fill="white"/>
<defs>
<clipPath id="clip0_630_1148">
<rect width="69" height="44" fill="white" transform="translate(41.9863 57)"/>
</clipPath>
</defs>
</svg>
