<svg width="131" height="142" viewBox="0 0 131 142" fill="none" xmlns="http://www.w3.org/2000/svg">
<path d="M43.1451 113.328H45.2871C45.0831 114.507 44.5448 115.453 43.6721 116.167C42.7995 116.87 41.6888 117.221 40.3401 117.221C38.5495 117.221 37.1498 116.643 36.1411 115.487C35.1325 114.32 34.6281 112.801 34.6281 110.931C34.6281 109.061 35.1325 107.548 36.1411 106.392C37.1611 105.225 38.5665 104.641 40.3571 104.641C41.6378 104.641 42.6975 104.964 43.5361 105.61C44.3861 106.256 44.9245 107.129 45.1511 108.228H43.0091C42.6238 107.072 41.7398 106.494 40.3571 106.494C39.1671 106.494 38.2605 106.913 37.6371 107.752C37.0138 108.591 36.7021 109.65 36.7021 110.931C36.7021 112.212 37.0081 113.271 37.6201 114.11C38.2435 114.949 39.1501 115.368 40.3401 115.368C41.0881 115.368 41.7001 115.192 42.1761 114.841C42.6635 114.478 42.9865 113.974 43.1451 113.328ZM47.4383 117V108.347H50.1753L52.1133 112.138H52.5213L54.4423 108.347H57.1623V117H55.2923V110.778H54.8843L53.2013 114.025H51.3993L49.7163 110.778H49.3083V117H47.4383ZM67.5925 112.189V112.835H61.2005C61.2571 114.671 62.0675 115.589 63.6315 115.589C64.6175 115.589 65.2465 115.221 65.5185 114.484H67.4735C67.3035 115.323 66.8898 115.991 66.2325 116.49C65.5751 116.977 64.7025 117.221 63.6145 117.221C62.2771 117.221 61.2231 116.796 60.4525 115.946C59.6818 115.096 59.2965 113.985 59.2965 112.614C59.2965 111.254 59.6761 110.166 60.4355 109.35C61.2061 108.534 62.2488 108.126 63.5635 108.126C64.8101 108.126 65.7848 108.511 66.4875 109.282C67.2015 110.041 67.5698 111.01 67.5925 112.189ZM63.5465 109.656C62.2998 109.656 61.5461 110.24 61.2855 111.407H65.6205C65.5525 110.897 65.3428 110.478 64.9915 110.149C64.6401 109.82 64.1585 109.656 63.5465 109.656ZM68.6194 109.979V108.347H76.3714V109.979H73.4644V117H71.5434V109.979H68.6194ZM86.225 117H84.304V113.379H80.122V117H78.201V108.347H80.122V111.747H84.304V108.347H86.225V117ZM94.2818 117V116.201H93.8738C93.3298 116.881 92.4798 117.221 91.3238 117.221C90.3718 117.221 89.6181 116.949 89.0628 116.405C88.5075 115.85 88.2298 115.175 88.2298 114.382C88.2298 113.6 88.5131 112.92 89.0798 112.342C89.6465 111.764 90.5078 111.475 91.6638 111.475H94.2138V111.22C94.2138 110.166 93.6075 109.639 92.3948 109.639C91.3181 109.639 90.7401 110.007 90.6608 110.744H88.7568C88.8021 109.939 89.1478 109.305 89.7938 108.84C90.4511 108.364 91.2955 108.126 92.3268 108.126C93.4941 108.126 94.4065 108.387 95.0638 108.908C95.7325 109.429 96.0668 110.211 96.0668 111.254V117H94.2818ZM91.9188 115.657C92.5648 115.657 93.1088 115.447 93.5508 115.028C93.9928 114.609 94.2138 114.099 94.2138 113.498V112.835H92.0038C90.7798 112.835 90.1678 113.311 90.1678 114.263C90.1678 114.705 90.3208 115.051 90.6268 115.3C90.9328 115.538 91.3635 115.657 91.9188 115.657ZM101.596 108.347H105.948V117H104.027V113.855H101.987C101.715 113.855 101.511 113.849 101.375 113.838L100.168 117H98.2303L99.6243 113.43C98.7517 112.965 98.3153 112.195 98.3153 111.118C98.3153 110.245 98.5987 109.565 99.1653 109.078C99.732 108.591 100.542 108.347 101.596 108.347ZM104.027 112.359V109.911H101.749C100.729 109.911 100.219 110.319 100.219 111.135C100.219 111.951 100.729 112.359 101.749 112.359H104.027ZM14.8524 138V136.181H15.1584C15.7591 136.181 16.1841 135.943 16.4334 135.467C16.6828 134.991 16.8074 134.118 16.8074 132.849V129.347H23.8114V138H21.8904V130.979H18.5754V132.9C18.5754 134.77 18.3034 136.09 17.7594 136.861C17.2268 137.62 16.3598 138 15.1584 138H14.8524ZM31.8682 138V137.201H31.4602C30.9162 137.881 30.0662 138.221 28.9102 138.221C27.9582 138.221 27.2046 137.949 26.6492 137.405C26.0939 136.85 25.8162 136.175 25.8162 135.382C25.8162 134.6 26.0996 133.92 26.6662 133.342C27.2329 132.764 28.0942 132.475 29.2502 132.475H31.8002V132.22C31.8002 131.166 31.1939 130.639 29.9812 130.639C28.9046 130.639 28.3266 131.007 28.2472 131.744H26.3432C26.3886 130.939 26.7342 130.305 27.3802 129.84C28.0376 129.364 28.8819 129.126 29.9132 129.126C31.0806 129.126 31.9929 129.387 32.6502 129.908C33.3189 130.429 33.6532 131.211 33.6532 132.254V138H31.8682ZM29.5052 136.657C30.1512 136.657 30.6952 136.447 31.1372 136.028C31.5792 135.609 31.8002 135.099 31.8002 134.498V133.835H29.5902C28.3662 133.835 27.7542 134.311 27.7542 135.263C27.7542 135.705 27.9072 136.051 28.2132 136.3C28.5192 136.538 28.9499 136.657 29.5052 136.657ZM40.3897 129.534C41.6364 129.534 42.6281 129.942 43.3647 130.758C44.1127 131.574 44.4867 132.617 44.4867 133.886C44.4867 135.144 44.0844 136.181 43.2797 136.997C42.4864 137.813 41.4267 138.221 40.1007 138.221C38.6954 138.221 37.6074 137.768 36.8367 136.861C36.0661 135.954 35.6807 134.645 35.6807 132.934C35.6807 132.141 35.7204 131.432 35.7997 130.809C35.8904 130.186 36.0491 129.568 36.2757 128.956C36.5137 128.333 36.8651 127.823 37.3297 127.426C37.8057 127.029 38.3951 126.774 39.0977 126.661L41.3587 126.287C41.6761 126.242 41.8914 126.179 42.0047 126.1C42.1181 126.021 42.1861 125.868 42.2087 125.641H43.8577C43.8237 126.242 43.6877 126.723 43.4497 127.086C43.2231 127.449 42.7811 127.681 42.1237 127.783L39.3697 128.225C38.7237 128.327 38.2364 128.588 37.9077 129.007C37.5791 129.415 37.3581 129.987 37.2447 130.724H37.6527C38.2647 129.931 39.1771 129.534 40.3897 129.534ZM40.0837 136.589C40.8771 136.589 41.4834 136.323 41.9027 135.79C42.3221 135.257 42.5317 134.606 42.5317 133.835C42.5317 133.064 42.3221 132.418 41.9027 131.897C41.4834 131.376 40.8771 131.115 40.0837 131.115C39.2791 131.115 38.6671 131.376 38.2477 131.897C37.8284 132.418 37.6187 133.064 37.6187 133.835C37.6187 134.606 37.8284 135.257 38.2477 135.79C38.6671 136.323 39.2791 136.589 40.0837 136.589ZM47.2961 130.401C48.0895 129.551 49.1548 129.126 50.4921 129.126C51.8295 129.126 52.8891 129.551 53.6711 130.401C54.4645 131.24 54.8611 132.328 54.8611 133.665C54.8611 135.014 54.4645 136.113 53.6711 136.963C52.8891 137.802 51.8295 138.221 50.4921 138.221C49.1548 138.221 48.0895 137.802 47.2961 136.963C46.5141 136.113 46.1231 135.014 46.1231 133.665C46.1231 132.328 46.5141 131.24 47.2961 130.401ZM48.6731 135.756C49.0925 136.311 49.6988 136.589 50.4921 136.589C51.2855 136.589 51.8918 136.311 52.3111 135.756C52.7305 135.189 52.9401 134.492 52.9401 133.665C52.9401 132.849 52.7305 132.163 52.3111 131.608C51.8918 131.041 51.2855 130.758 50.4921 130.758C49.6988 130.758 49.0925 131.041 48.6731 131.608C48.2538 132.163 48.0441 132.849 48.0441 133.665C48.0441 134.492 48.2538 135.189 48.6731 135.756ZM61.2761 130.758C60.4828 130.758 59.8821 131.036 59.4741 131.591C59.0774 132.146 58.8791 132.838 58.8791 133.665C58.8791 134.504 59.0774 135.201 59.4741 135.756C59.8821 136.311 60.4828 136.589 61.2761 136.589C62.0354 136.589 62.6191 136.323 63.0271 135.79C63.4351 135.246 63.6391 134.538 63.6391 133.665C63.6391 132.792 63.4351 132.09 63.0271 131.557C62.6191 131.024 62.0354 130.758 61.2761 130.758ZM57.0091 129.347H58.8621V130.18H59.2701C59.8368 129.477 60.6868 129.126 61.8201 129.126C62.9648 129.126 63.8714 129.551 64.5401 130.401C65.2201 131.251 65.5601 132.339 65.5601 133.665C65.5601 135.002 65.2201 136.096 64.5401 136.946C63.8714 137.796 62.9648 138.221 61.8201 138.221C60.6981 138.221 59.8708 137.87 59.3381 137.167H58.9301V141.4H57.0091V129.347ZM73.1065 138V137.201H72.6985C72.1545 137.881 71.3045 138.221 70.1485 138.221C69.1965 138.221 68.4428 137.949 67.8875 137.405C67.3322 136.85 67.0545 136.175 67.0545 135.382C67.0545 134.6 67.3378 133.92 67.9045 133.342C68.4712 132.764 69.3325 132.475 70.4885 132.475H73.0385V132.22C73.0385 131.166 72.4322 130.639 71.2195 130.639C70.1428 130.639 69.5648 131.007 69.4855 131.744H67.5815C67.6268 130.939 67.9725 130.305 68.6185 129.84C69.2758 129.364 70.1202 129.126 71.1515 129.126C72.3188 129.126 73.2312 129.387 73.8885 129.908C74.5572 130.429 74.8915 131.211 74.8915 132.254V138H73.1065ZM70.7435 136.657C71.3895 136.657 71.9335 136.447 72.3755 136.028C72.8175 135.609 73.0385 135.099 73.0385 134.498V133.835H70.8285C69.6045 133.835 68.9925 134.311 68.9925 135.263C68.9925 135.705 69.1455 136.051 69.4515 136.3C69.7575 136.538 70.1882 136.657 70.7435 136.657ZM76.613 130.979V129.347H84.365V130.979H81.458V138H79.537V130.979H76.613ZM86.7746 130.401C87.568 129.551 88.6333 129.126 89.9706 129.126C91.308 129.126 92.3676 129.551 93.1496 130.401C93.943 131.24 94.3396 132.328 94.3396 133.665C94.3396 135.014 93.943 136.113 93.1496 136.963C92.3676 137.802 91.308 138.221 89.9706 138.221C88.6333 138.221 87.568 137.802 86.7746 136.963C85.9926 136.113 85.6016 135.014 85.6016 133.665C85.6016 132.328 85.9926 131.24 86.7746 130.401ZM88.1516 135.756C88.571 136.311 89.1773 136.589 89.9706 136.589C90.764 136.589 91.3703 136.311 91.7896 135.756C92.209 135.189 92.4186 134.492 92.4186 133.665C92.4186 132.849 92.209 132.163 91.7896 131.608C91.3703 131.041 90.764 130.758 89.9706 130.758C89.1773 130.758 88.571 131.041 88.1516 131.608C87.7323 132.163 87.5226 132.849 87.5226 133.665C87.5226 134.492 87.7323 135.189 88.1516 135.756ZM100.755 130.758C99.9613 130.758 99.3606 131.036 98.9526 131.591C98.556 132.146 98.3576 132.838 98.3576 133.665C98.3576 134.504 98.556 135.201 98.9526 135.756C99.3606 136.311 99.9613 136.589 100.755 136.589C101.514 136.589 102.098 136.323 102.506 135.79C102.914 135.246 103.118 134.538 103.118 133.665C103.118 132.792 102.914 132.09 102.506 131.557C102.098 131.024 101.514 130.758 100.755 130.758ZM96.4876 129.347H98.3406V130.18H98.7486C99.3153 129.477 100.165 129.126 101.299 129.126C102.443 129.126 103.35 129.551 104.019 130.401C104.699 131.251 105.039 132.339 105.039 133.665C105.039 135.002 104.699 136.096 104.019 136.946C103.35 137.796 102.443 138.221 101.299 138.221C100.177 138.221 99.3493 137.87 98.8166 137.167H98.4086V141.4H96.4876V129.347ZM109.355 138H107.179V129.347H109.049V135.059H109.457L113.01 129.347H115.237V138H113.367V132.288H112.959L109.355 138ZM120.879 129.347H125.231V138H123.31V134.855H121.27C120.998 134.855 120.794 134.849 120.658 134.838L119.451 138H117.513L118.907 134.43C118.034 133.965 117.598 133.195 117.598 132.118C117.598 131.245 117.881 130.565 118.448 130.078C119.015 129.591 119.825 129.347 120.879 129.347ZM123.31 133.359V130.911H121.032C120.012 130.911 119.502 131.319 119.502 132.135C119.502 132.951 120.012 133.359 121.032 133.359H123.31Z" fill="white"/>
<g clip-path="url(#clip0_630_1119)">
<path d="M25.776 0.683594V50.8534C11.9102 50.8671 0.683594 39.6271 0.683594 25.7754C0.683594 11.9236 11.9102 0.683594 25.776 0.683594Z" stroke="white" stroke-miterlimit="10" stroke-linecap="round"/>
<path d="M66.5667 67.4673V74.9606C61.9448 74.9606 57.6237 73.7163 53.9043 71.5421" stroke="white" stroke-miterlimit="10" stroke-linecap="round"/>
<path d="M63.5182 25.8984C63.5182 39.7502 52.2915 50.9902 38.4258 50.9902V25.8984" stroke="white" stroke-miterlimit="10" stroke-linecap="round"/>
<path d="M38.4258 26.1445C38.4258 12.2927 49.6524 1.05273 63.5182 1.05273" stroke="white" stroke-miterlimit="10" stroke-linecap="round"/>
<path d="M63.5176 26.5V50.9901H88.5963V1.05273H63.5176" stroke="white" stroke-miterlimit="10" stroke-linecap="round"/>
<path d="M95.4598 69.833C91.1661 73.2652 85.7237 75.3026 79.8164 75.3026" stroke="white" stroke-miterlimit="10" stroke-linecap="round"/>
<path d="M89.0885 1.13477L130.317 24.9412V74.7555L104.964 75.2888L63.7227 51.4824" stroke="white" stroke-miterlimit="10" stroke-linecap="round"/>
<path d="M88.7051 51.291L129.947 75.0974" stroke="white" stroke-miterlimit="10" stroke-linecap="round"/>
<path d="M38.4258 50.9902L79.7906 75.2889" stroke="white" stroke-miterlimit="10" stroke-linecap="round"/>
<path d="M25.7754 50.8672L66.6616 74.9744" stroke="white" stroke-miterlimit="10" stroke-linecap="round"/>
<path d="M13.1543 47.4214L54.0405 71.5286" stroke="white" stroke-miterlimit="10" stroke-linecap="round"/>
<path d="M25.7754 0.683594L43.5794 11.1579" stroke="white" stroke-miterlimit="10" stroke-linecap="round"/>
</g>
<defs>
<clipPath id="clip0_630_1119">
<rect width="131" height="76" fill="white"/>
</clipPath>
</defs>
</svg>
