<svg width="224" height="156" viewBox="0 0 224 156" fill="none" xmlns="http://www.w3.org/2000/svg">
<path d="M165.827 0.226562H159.646V41.4983H165.827V0.226562Z" fill="white"/>
<path d="M209.915 0.411621H203.734V41.6834H209.915V0.411621Z" fill="white"/>
<path d="M138.653 53.6018H132.473V80.8967H138.653V53.6018Z" fill="white"/>
<path d="M157.297 53.6018H141.289V59.7771H157.297V53.6018Z" fill="white"/>
<path d="M184.244 0.576416H168.463V6.75174H184.244V0.576416Z" fill="white"/>
<path d="M201.098 0.576416H190.426V6.75174H201.098V0.576416Z" fill="white"/>
<path d="M184.244 35.3435H168.463V41.5188H184.244V35.3435Z" fill="white"/>
<path d="M184.244 17.9497H168.463V24.125H184.244V17.9497Z" fill="white"/>
<path d="M126.313 67.0845H101.775V73.2598H126.313V67.0845Z" fill="white"/>
<path d="M153.466 41.5188H147.285V20.1522L153.466 13.3594V41.5188Z" fill="white"/>
<path d="M100.971 41.4158L100.991 32.1734L130.102 0L130.061 9.2424L100.971 41.4158Z" fill="white"/>
<path d="M158.534 104.939H0.927734V107.574H158.534V104.939Z" fill="white"/>
<path d="M51.0879 155.494L51.0879 0.226074L48.4508 0.226074L48.4508 155.494H51.0879Z" fill="white"/>
<path d="M48.8889 105.207L0 153.642L1.8748 155.495L50.7637 107.08L48.8889 105.207Z" fill="white"/>
<path d="M223.184 0.494141H212.512V6.66946H223.184V0.494141Z" fill="white"/>
<path d="M101.775 93.4121V75.8741H107.956V93.4121H101.775ZM126.457 75.8741V93.4121H120.276V75.8741H126.457ZM107.503 57.0188L112.798 59.8183C110.449 60.2917 108.595 62.1237 108.038 64.4292L107.503 57.0188ZM101.775 64.4498C102.435 58.7479 107.07 54.2193 112.798 53.6018V58.3362V59.8389L108.244 60.9916L108.038 64.4498H101.775ZM120.05 64.4498C119.514 62.1237 117.639 60.3123 115.29 59.8389L120.585 57.0394L120.05 64.4498ZM126.313 64.4498H120.05L119.843 60.9916L115.29 59.8389V58.3362V53.6018C121.018 54.1988 125.674 58.7479 126.313 64.4498Z" fill="white"/>
<path d="M95.7596 65.8907V93.515H89.579V65.8907H95.7596ZM77.3413 65.8907V82.42H71.1607V65.8907H77.3413ZM76.8881 55.825L82.1828 58.6245C79.8342 59.0979 77.98 60.9299 77.4237 63.2354L76.8881 55.825ZM71.1607 63.2559C71.8199 57.5541 76.4554 53.0255 82.1828 52.408V57.1424V58.645L77.6297 59.7978L77.4237 63.2559H71.1607ZM89.4348 63.2559C88.8991 60.9299 87.0243 59.1185 84.6757 58.645L89.9704 55.8456L89.4348 63.2559ZM95.6978 63.2559H89.4348L89.2288 59.7978L84.6757 58.645V57.1424V52.408C90.4031 53.0049 95.0592 57.5541 95.6978 63.2559ZM66.5664 87.1544C68.8738 86.6193 70.6868 84.7461 71.1607 82.3994L73.942 87.6896L66.5664 87.1544ZM66.5664 93.4121V87.1544L70.007 86.9486L71.1607 82.3994H72.644H77.3413C76.7439 88.1219 72.232 92.774 66.5664 93.4121Z" fill="white"/>
<path d="M94.6673 30.4239C94.0493 36.1669 89.455 40.7367 83.7276 41.3336L94.6673 30.4239ZM70.0684 27.7891V13.7093H76.249V27.7891H70.0684ZM81.0905 41.3336C75.3425 40.7161 70.7689 36.1464 70.1508 30.4239L81.0905 41.3336ZM75.8576 3.66416L81.1523 6.46364C78.8037 6.93708 76.9495 8.76909 76.3932 11.0745L75.8576 3.66416ZM70.1508 11.0951C70.8101 5.39325 75.4455 0.864679 81.1729 0.247147V4.98156V6.48422L76.6199 7.63695L76.4138 11.0951H70.1508ZM88.4249 11.0951C87.8892 8.76909 86.0144 6.95766 83.6658 6.48422L88.9605 3.68474L88.4249 11.0951ZM94.6879 11.0951H88.4249L88.2189 7.63695L83.6658 6.48422V4.96098V0.226562C89.3932 0.844095 94.0287 5.37266 94.6879 11.0951ZM88.9605 37.8754L83.6658 35.076C86.0144 34.6025 87.8686 32.7705 88.4249 30.4651L88.9605 37.8754ZM94.6673 30.4651C94.0081 36.1669 89.3726 40.6955 83.6452 41.313V36.5786V35.076L88.1983 33.9232L88.4043 30.4651H94.6673ZM76.3932 30.4651C76.9289 32.7911 78.8037 34.6025 81.1523 35.076L75.8576 37.8754L76.3932 30.4651ZM70.1302 30.4651H76.3932L76.5992 33.9232L81.1523 35.076V36.5786V41.313C75.4249 40.6955 70.7894 36.1669 70.1302 30.4651Z" fill="white"/>
<path d="M124.561 28.4477L124.581 19.2259L130.35 12.7212L130.309 21.9636L124.561 28.4477Z" fill="white"/>
<path d="M124.561 41.5189L124.581 32.2765L153.465 0.226562L153.445 9.46896L124.561 41.5189Z" fill="white"/>
<path d="M141.29 70.2134C142.423 69.8635 143.639 69.6782 144.875 69.6782C151.324 69.6782 156.639 74.5979 157.278 80.8761H151.035C150.438 78.0149 147.904 75.8535 144.875 75.8535C143.557 75.8535 142.32 76.2652 141.311 76.9651L141.29 70.2134ZM132.473 80.8761C132.885 76.8004 135.275 73.3011 138.653 71.3456L132.473 80.8761ZM146.194 88.3071C148.604 87.7925 150.52 85.8782 151.035 83.4698L157.298 83.4286C156.701 89.2746 152.045 93.9267 146.214 94.5442L146.194 88.3071ZM138.715 83.408C139.21 85.837 141.126 87.7719 143.557 88.2865V94.5236C137.726 93.9061 133.091 89.2746 132.473 83.4492" fill="white"/>
</svg>
