<svg width="155" height="139" viewBox="0 0 155 139" fill="none" xmlns="http://www.w3.org/2000/svg">
<path d="M60.1451 110.328H62.2871C62.0831 111.507 61.5448 112.453 60.6721 113.167C59.7995 113.87 58.6888 114.221 57.3401 114.221C55.5495 114.221 54.1498 113.643 53.1411 112.487C52.1325 111.32 51.6281 109.801 51.6281 107.931C51.6281 106.061 52.1325 104.548 53.1411 103.392C54.1611 102.225 55.5665 101.641 57.3571 101.641C58.6378 101.641 59.6975 101.964 60.5361 102.61C61.3861 103.256 61.9245 104.129 62.1511 105.228H60.0091C59.6238 104.072 58.7398 103.494 57.3571 103.494C56.1671 103.494 55.2605 103.913 54.6371 104.752C54.0138 105.591 53.7021 106.65 53.7021 107.931C53.7021 109.212 54.0081 110.271 54.6201 111.11C55.2435 111.949 56.1501 112.368 57.3401 112.368C58.0881 112.368 58.7001 112.192 59.1761 111.841C59.6635 111.478 59.9865 110.974 60.1451 110.328ZM64.4383 114V105.347H67.1753L69.1133 109.138H69.5213L71.4423 105.347H74.1623V114H72.2923V107.778H71.8843L70.2013 111.025H68.3993L66.7163 107.778H66.3083V114H64.4383ZM84.5925 109.189V109.835H78.2005C78.2571 111.671 79.0675 112.589 80.6315 112.589C81.6175 112.589 82.2465 112.221 82.5185 111.484H84.4735C84.3035 112.323 83.8898 112.991 83.2325 113.49C82.5751 113.977 81.7025 114.221 80.6145 114.221C79.2771 114.221 78.2231 113.796 77.4525 112.946C76.6818 112.096 76.2965 110.985 76.2965 109.614C76.2965 108.254 76.6761 107.166 77.4355 106.35C78.2061 105.534 79.2488 105.126 80.5635 105.126C81.8101 105.126 82.7848 105.511 83.4875 106.282C84.2015 107.041 84.5698 108.01 84.5925 109.189ZM80.5465 106.656C79.2998 106.656 78.5461 107.24 78.2855 108.407H82.6205C82.5525 107.897 82.3428 107.478 81.9915 107.149C81.6401 106.82 81.1585 106.656 80.5465 106.656ZM85.6194 106.979V105.347H93.3714V106.979H90.4644V114H88.5434V106.979H85.6194ZM103.225 114H101.304V110.379H97.122V114H95.201V105.347H97.122V108.747H101.304V105.347H103.225V114ZM111.282 114V113.201H110.874C110.33 113.881 109.48 114.221 108.324 114.221C107.372 114.221 106.618 113.949 106.063 113.405C105.507 112.85 105.23 112.175 105.23 111.382C105.23 110.6 105.513 109.92 106.08 109.342C106.646 108.764 107.508 108.475 108.664 108.475H111.214V108.22C111.214 107.166 110.607 106.639 109.395 106.639C108.318 106.639 107.74 107.007 107.661 107.744H105.757C105.802 106.939 106.148 106.305 106.794 105.84C107.451 105.364 108.295 105.126 109.327 105.126C110.494 105.126 111.406 105.387 112.064 105.908C112.732 106.429 113.067 107.211 113.067 108.254V114H111.282ZM108.919 112.657C109.565 112.657 110.109 112.447 110.551 112.028C110.993 111.609 111.214 111.099 111.214 110.498V109.835H109.004C107.78 109.835 107.168 110.311 107.168 111.263C107.168 111.705 107.321 112.051 107.627 112.3C107.933 112.538 108.363 112.657 108.919 112.657ZM118.596 105.347H122.948V114H121.027V110.855H118.987C118.715 110.855 118.511 110.849 118.375 110.838L117.168 114H115.23L116.624 110.43C115.752 109.965 115.315 109.195 115.315 108.118C115.315 107.245 115.599 106.565 116.165 106.078C116.732 105.591 117.542 105.347 118.596 105.347ZM121.027 109.359V106.911H118.749C117.729 106.911 117.219 107.319 117.219 108.135C117.219 108.951 117.729 109.359 118.749 109.359H121.027ZM31.8524 135V133.181H32.1584C32.7591 133.181 33.1841 132.943 33.4334 132.467C33.6828 131.991 33.8074 131.118 33.8074 129.849V126.347H40.8114V135H38.8904V127.979H35.5754V129.9C35.5754 131.77 35.3034 133.09 34.7594 133.861C34.2268 134.62 33.3598 135 32.1584 135H31.8524ZM48.8682 135V134.201H48.4602C47.9162 134.881 47.0662 135.221 45.9102 135.221C44.9582 135.221 44.2046 134.949 43.6492 134.405C43.0939 133.85 42.8162 133.175 42.8162 132.382C42.8162 131.6 43.0996 130.92 43.6662 130.342C44.2329 129.764 45.0942 129.475 46.2502 129.475H48.8002V129.22C48.8002 128.166 48.1939 127.639 46.9812 127.639C45.9046 127.639 45.3266 128.007 45.2472 128.744H43.3432C43.3886 127.939 43.7342 127.305 44.3802 126.84C45.0376 126.364 45.8819 126.126 46.9132 126.126C48.0806 126.126 48.9929 126.387 49.6502 126.908C50.3189 127.429 50.6532 128.211 50.6532 129.254V135H48.8682ZM46.5052 133.657C47.1512 133.657 47.6952 133.447 48.1372 133.028C48.5792 132.609 48.8002 132.099 48.8002 131.498V130.835H46.5902C45.3662 130.835 44.7542 131.311 44.7542 132.263C44.7542 132.705 44.9072 133.051 45.2132 133.3C45.5192 133.538 45.9499 133.657 46.5052 133.657ZM57.3897 126.534C58.6364 126.534 59.6281 126.942 60.3647 127.758C61.1127 128.574 61.4867 129.617 61.4867 130.886C61.4867 132.144 61.0844 133.181 60.2797 133.997C59.4864 134.813 58.4267 135.221 57.1007 135.221C55.6954 135.221 54.6074 134.768 53.8367 133.861C53.0661 132.954 52.6807 131.645 52.6807 129.934C52.6807 129.141 52.7204 128.432 52.7997 127.809C52.8904 127.186 53.0491 126.568 53.2757 125.956C53.5137 125.333 53.8651 124.823 54.3297 124.426C54.8057 124.029 55.3951 123.774 56.0977 123.661L58.3587 123.287C58.6761 123.242 58.8914 123.179 59.0047 123.1C59.1181 123.021 59.1861 122.868 59.2087 122.641H60.8577C60.8237 123.242 60.6877 123.723 60.4497 124.086C60.2231 124.449 59.7811 124.681 59.1237 124.783L56.3697 125.225C55.7237 125.327 55.2364 125.588 54.9077 126.007C54.5791 126.415 54.3581 126.987 54.2447 127.724H54.6527C55.2647 126.931 56.1771 126.534 57.3897 126.534ZM57.0837 133.589C57.8771 133.589 58.4834 133.323 58.9027 132.79C59.3221 132.257 59.5317 131.606 59.5317 130.835C59.5317 130.064 59.3221 129.418 58.9027 128.897C58.4834 128.376 57.8771 128.115 57.0837 128.115C56.2791 128.115 55.6671 128.376 55.2477 128.897C54.8284 129.418 54.6187 130.064 54.6187 130.835C54.6187 131.606 54.8284 132.257 55.2477 132.79C55.6671 133.323 56.2791 133.589 57.0837 133.589ZM64.2961 127.401C65.0895 126.551 66.1548 126.126 67.4921 126.126C68.8295 126.126 69.8891 126.551 70.6711 127.401C71.4645 128.24 71.8611 129.328 71.8611 130.665C71.8611 132.014 71.4645 133.113 70.6711 133.963C69.8891 134.802 68.8295 135.221 67.4921 135.221C66.1548 135.221 65.0895 134.802 64.2961 133.963C63.5141 133.113 63.1231 132.014 63.1231 130.665C63.1231 129.328 63.5141 128.24 64.2961 127.401ZM65.6731 132.756C66.0925 133.311 66.6988 133.589 67.4921 133.589C68.2855 133.589 68.8918 133.311 69.3111 132.756C69.7305 132.189 69.9401 131.492 69.9401 130.665C69.9401 129.849 69.7305 129.163 69.3111 128.608C68.8918 128.041 68.2855 127.758 67.4921 127.758C66.6988 127.758 66.0925 128.041 65.6731 128.608C65.2538 129.163 65.0441 129.849 65.0441 130.665C65.0441 131.492 65.2538 132.189 65.6731 132.756ZM78.2761 127.758C77.4828 127.758 76.8821 128.036 76.4741 128.591C76.0774 129.146 75.8791 129.838 75.8791 130.665C75.8791 131.504 76.0774 132.201 76.4741 132.756C76.8821 133.311 77.4828 133.589 78.2761 133.589C79.0354 133.589 79.6191 133.323 80.0271 132.79C80.4351 132.246 80.6391 131.538 80.6391 130.665C80.6391 129.792 80.4351 129.09 80.0271 128.557C79.6191 128.024 79.0354 127.758 78.2761 127.758ZM74.0091 126.347H75.8621V127.18H76.2701C76.8368 126.477 77.6868 126.126 78.8201 126.126C79.9648 126.126 80.8714 126.551 81.5401 127.401C82.2201 128.251 82.5601 129.339 82.5601 130.665C82.5601 132.002 82.2201 133.096 81.5401 133.946C80.8714 134.796 79.9648 135.221 78.8201 135.221C77.6981 135.221 76.8708 134.87 76.3381 134.167H75.9301V138.4H74.0091V126.347ZM90.1065 135V134.201H89.6985C89.1545 134.881 88.3045 135.221 87.1485 135.221C86.1965 135.221 85.4428 134.949 84.8875 134.405C84.3322 133.85 84.0545 133.175 84.0545 132.382C84.0545 131.6 84.3378 130.92 84.9045 130.342C85.4712 129.764 86.3325 129.475 87.4885 129.475H90.0385V129.22C90.0385 128.166 89.4322 127.639 88.2195 127.639C87.1428 127.639 86.5648 128.007 86.4855 128.744H84.5815C84.6268 127.939 84.9725 127.305 85.6185 126.84C86.2758 126.364 87.1202 126.126 88.1515 126.126C89.3188 126.126 90.2312 126.387 90.8885 126.908C91.5572 127.429 91.8915 128.211 91.8915 129.254V135H90.1065ZM87.7435 133.657C88.3895 133.657 88.9335 133.447 89.3755 133.028C89.8175 132.609 90.0385 132.099 90.0385 131.498V130.835H87.8285C86.6045 130.835 85.9925 131.311 85.9925 132.263C85.9925 132.705 86.1455 133.051 86.4515 133.3C86.7575 133.538 87.1882 133.657 87.7435 133.657ZM93.613 127.979V126.347H101.365V127.979H98.458V135H96.537V127.979H93.613ZM103.775 127.401C104.568 126.551 105.633 126.126 106.971 126.126C108.308 126.126 109.368 126.551 110.15 127.401C110.943 128.24 111.34 129.328 111.34 130.665C111.34 132.014 110.943 133.113 110.15 133.963C109.368 134.802 108.308 135.221 106.971 135.221C105.633 135.221 104.568 134.802 103.775 133.963C102.993 133.113 102.602 132.014 102.602 130.665C102.602 129.328 102.993 128.24 103.775 127.401ZM105.152 132.756C105.571 133.311 106.177 133.589 106.971 133.589C107.764 133.589 108.37 133.311 108.79 132.756C109.209 132.189 109.419 131.492 109.419 130.665C109.419 129.849 109.209 129.163 108.79 128.608C108.37 128.041 107.764 127.758 106.971 127.758C106.177 127.758 105.571 128.041 105.152 128.608C104.732 129.163 104.523 129.849 104.523 130.665C104.523 131.492 104.732 132.189 105.152 132.756ZM117.755 127.758C116.961 127.758 116.361 128.036 115.953 128.591C115.556 129.146 115.358 129.838 115.358 130.665C115.358 131.504 115.556 132.201 115.953 132.756C116.361 133.311 116.961 133.589 117.755 133.589C118.514 133.589 119.098 133.323 119.506 132.79C119.914 132.246 120.118 131.538 120.118 130.665C120.118 129.792 119.914 129.09 119.506 128.557C119.098 128.024 118.514 127.758 117.755 127.758ZM113.488 126.347H115.341V127.18H115.749C116.315 126.477 117.165 126.126 118.299 126.126C119.443 126.126 120.35 126.551 121.019 127.401C121.699 128.251 122.039 129.339 122.039 130.665C122.039 132.002 121.699 133.096 121.019 133.946C120.35 134.796 119.443 135.221 118.299 135.221C117.177 135.221 116.349 134.87 115.817 134.167H115.409V138.4H113.488V126.347ZM126.355 135H124.179V126.347H126.049V132.059H126.457L130.01 126.347H132.237V135H130.367V129.288H129.959L126.355 135ZM137.879 126.347H142.231V135H140.31V131.855H138.27C137.998 131.855 137.794 131.849 137.658 131.838L136.451 135H134.513L135.907 131.43C135.034 130.965 134.598 130.195 134.598 129.118C134.598 128.245 134.881 127.565 135.448 127.078C136.015 126.591 136.825 126.347 137.879 126.347ZM140.31 130.359V127.911H138.032C137.012 127.911 136.502 128.319 136.502 129.135C136.502 129.951 137.012 130.359 138.032 130.359H140.31Z" fill="white"/>
<g clip-path="url(#clip0_630_1134)">
<path d="M78.9176 88.9183L30.2404 60.1198L14.9316 55.9917L63.7234 84.8721C68.1768 87.4767 73.3507 88.9674 78.8848 88.9674V79.9904" fill="url(#paint0_linear_630_1134)"/>
<path d="M30.0446 0V60.1032C13.4423 60.1032 0 46.6541 0 30.0598C0 13.4491 13.4423 0 30.0446 0Z" fill="url(#paint1_linear_630_1134)"/>
<path d="M79.0004 88.9999L30.0449 60.1031V0.0981445L72.7622 25.0142L78.9349 80.0392L79.0004 88.9999Z" fill="url(#paint2_linear_630_1134)"/>
</g>
<g clip-path="url(#clip1_630_1134)">
<g clip-path="url(#clip2_630_1134)">
<path d="M74.9089 30.5026V59.8578H104.818V0H74.9089C58.3816 0 45 13.4565 45 30.0764V29.7814V59.8578C61.511 59.8578 74.9089 46.4013 74.9089 29.7814" fill="#4080DF"/>
<path d="M94.3375 88.9998C101.395 88.9998 107.882 86.5413 112.984 82.4437H113L74.9089 59.8249V29.7812C74.9089 46.3847 61.5273 59.8577 45 59.8577L94.2397 88.9835" fill="#4080DF"/>
</g>
<path d="M75.0372 30.5026V59.8578H105.074V0H75.0372C58.439 0 45 13.4565 45 30.0764V29.7814V59.8578C61.5818 59.8578 75.0372 46.4013 75.0372 29.7814" fill="url(#paint3_linear_630_1134)"/>
<path d="M94.5491 88.9998C101.637 88.9998 108.152 86.5413 113.275 82.4437H113.292L75.0372 59.8249V29.7812C75.0372 46.3847 61.5982 59.8577 45 59.8577L94.4509 88.9835" fill="url(#paint4_linear_630_1134)"/>
<path d="M155.001 88.328V28.6341L105.059 0V59.4317V59.8742L155.001 88.328Z" fill="url(#paint5_linear_630_1134)"/>
<path d="M75.0527 59.8741L123.996 88.7704L154.999 88.3279L105.008 59.8413L75.0527 59.8741Z" fill="url(#paint6_linear_630_1134)"/>
</g>
<defs>
<linearGradient id="paint0_linear_630_1134" x1="27.4994" y1="60.0002" x2="86.9994" y2="95.0002" gradientUnits="userSpaceOnUse">
<stop stop-color="#3B3B3B"/>
<stop offset="1" stop-color="#4080DF"/>
</linearGradient>
<linearGradient id="paint1_linear_630_1134" x1="24" y1="60" x2="26.5" y2="-2" gradientUnits="userSpaceOnUse">
<stop stop-color="white"/>
<stop offset="1" stop-color="white" stop-opacity="0"/>
</linearGradient>
<linearGradient id="paint2_linear_630_1134" x1="30.0004" y1="57.4999" x2="74.5004" y2="24.4999" gradientUnits="userSpaceOnUse">
<stop stop-color="#3B3B3B"/>
<stop offset="1" stop-color="#4080DF"/>
</linearGradient>
<linearGradient id="paint3_linear_630_1134" x1="71" y1="60" x2="71" y2="-7" gradientUnits="userSpaceOnUse">
<stop stop-color="white"/>
<stop offset="1" stop-color="white" stop-opacity="0"/>
</linearGradient>
<linearGradient id="paint4_linear_630_1134" x1="64.5" y1="54.9998" x2="121" y2="92.4998" gradientUnits="userSpaceOnUse">
<stop stop-color="#3B3B3B"/>
<stop offset="1" stop-color="#4080DF"/>
</linearGradient>
<linearGradient id="paint5_linear_630_1134" x1="105.001" y1="59.5" x2="155.001" y2="29" gradientUnits="userSpaceOnUse">
<stop stop-color="white"/>
<stop offset="1" stop-color="white" stop-opacity="0"/>
</linearGradient>
<linearGradient id="paint6_linear_630_1134" x1="105.999" y1="59.9999" x2="147.999" y2="108.5" gradientUnits="userSpaceOnUse">
<stop stop-color="#3B3B3B"/>
<stop offset="1" stop-color="#4080DF"/>
</linearGradient>
<clipPath id="clip0_630_1134">
<rect width="79" height="89" fill="white"/>
</clipPath>
<clipPath id="clip1_630_1134">
<rect width="110" height="89" fill="white" transform="translate(45)"/>
</clipPath>
<clipPath id="clip2_630_1134">
<rect width="68" height="89" fill="white" transform="translate(45)"/>
</clipPath>
</defs>
</svg>
