<svg width="279" height="80" viewBox="0 0 279 80" fill="none" xmlns="http://www.w3.org/2000/svg">
<path d="M105.825 26.6H108.975C108.675 28.3333 107.883 29.725 106.6 30.775C105.317 31.8083 103.683 32.325 101.7 32.325C99.0667 32.325 97.0083 31.475 95.525 29.775C94.0417 28.0583 93.3 25.825 93.3 23.075C93.3 20.325 94.0417 18.1 95.525 16.4C97.025 14.6833 99.0917 13.825 101.725 13.825C103.608 13.825 105.167 14.3 106.4 15.25C107.65 16.2 108.442 17.4833 108.775 19.1H105.625C105.058 17.4 103.758 16.55 101.725 16.55C99.975 16.55 98.6417 17.1667 97.725 18.4C96.8083 19.6333 96.35 21.1917 96.35 23.075C96.35 24.9583 96.8 26.5167 97.7 27.75C98.6167 28.9833 99.95 29.6 101.7 29.6C102.8 29.6 103.7 29.3417 104.4 28.825C105.117 28.2917 105.592 27.55 105.825 26.6ZM112.138 32V19.275H116.163L119.013 24.85H119.613L122.438 19.275H126.438V32H123.688V22.85H123.088L120.613 27.625H117.963L115.488 22.85H114.888V32H112.138ZM141.777 24.925V25.875H132.377C132.46 28.575 133.652 29.925 135.952 29.925C137.402 29.925 138.327 29.3833 138.727 28.3H141.602C141.352 29.5333 140.744 30.5167 139.777 31.25C138.81 31.9667 137.527 32.325 135.927 32.325C133.96 32.325 132.41 31.7 131.277 30.45C130.144 29.2 129.577 27.5667 129.577 25.55C129.577 23.55 130.135 21.95 131.252 20.75C132.385 19.55 133.919 18.95 135.852 18.95C137.685 18.95 139.119 19.5167 140.152 20.65C141.202 21.7667 141.744 23.1917 141.777 24.925ZM135.827 21.2C133.994 21.2 132.885 22.0583 132.502 23.775H138.877C138.777 23.025 138.469 22.4083 137.952 21.925C137.435 21.4417 136.727 21.2 135.827 21.2ZM143.287 21.675V19.275H154.687V21.675H150.412V32H147.587V21.675H143.287ZM169.178 32H166.353V26.675H160.203V32H157.378V19.275H160.203V24.275H166.353V19.275H169.178V32ZM181.026 32V30.825H180.426C179.626 31.825 178.376 32.325 176.676 32.325C175.276 32.325 174.168 31.925 173.351 31.125C172.534 30.3083 172.126 29.3167 172.126 28.15C172.126 27 172.543 26 173.376 25.15C174.209 24.3 175.476 23.875 177.176 23.875H180.926V23.5C180.926 21.95 180.034 21.175 178.251 21.175C176.668 21.175 175.818 21.7167 175.701 22.8H172.901C172.968 21.6167 173.476 20.6833 174.426 20C175.393 19.3 176.634 18.95 178.151 18.95C179.868 18.95 181.209 19.3333 182.176 20.1C183.159 20.8667 183.651 22.0167 183.651 23.55V32H181.026ZM177.551 30.025C178.501 30.025 179.301 29.7167 179.951 29.1C180.601 28.4833 180.926 27.7333 180.926 26.85V25.875H177.676C175.876 25.875 174.976 26.575 174.976 27.975C174.976 28.625 175.201 29.1333 175.651 29.5C176.101 29.85 176.734 30.025 177.551 30.025ZM191.783 19.275H198.183V32H195.358V27.375H192.358C191.958 27.375 191.658 27.3667 191.458 27.35L189.683 32H186.833L188.883 26.75C187.599 26.0667 186.958 24.9333 186.958 23.35C186.958 22.0667 187.374 21.0667 188.208 20.35C189.041 19.6333 190.233 19.275 191.783 19.275ZM195.358 25.175V21.575H192.008C190.508 21.575 189.758 22.175 189.758 23.375C189.758 24.575 190.508 25.175 192.008 25.175H195.358ZM92.575 63V60.325H93.025C93.9083 60.325 94.5333 59.975 94.9 59.275C95.2667 58.575 95.45 57.2917 95.45 55.425V50.275H105.75V63H102.925V52.675H98.05V55.5C98.05 58.25 97.65 60.1917 96.85 61.325C96.0667 62.4417 94.7917 63 93.025 63H92.575ZM117.598 63V61.825H116.998C116.198 62.825 114.948 63.325 113.248 63.325C111.848 63.325 110.74 62.925 109.923 62.125C109.107 61.3083 108.698 60.3167 108.698 59.15C108.698 58 109.115 57 109.948 56.15C110.782 55.3 112.048 54.875 113.748 54.875H117.498V54.5C117.498 52.95 116.607 52.175 114.823 52.175C113.24 52.175 112.39 52.7167 112.273 53.8H109.473C109.54 52.6167 110.048 51.6833 110.998 51C111.965 50.3 113.207 49.95 114.723 49.95C116.44 49.95 117.782 50.3333 118.748 51.1C119.732 51.8667 120.223 53.0167 120.223 54.55V63H117.598ZM114.123 61.025C115.073 61.025 115.873 60.7167 116.523 60.1C117.173 59.4833 117.498 58.7333 117.498 57.85V56.875H114.248C112.448 56.875 111.548 57.575 111.548 58.975C111.548 59.625 111.773 60.1333 112.223 60.5C112.673 60.85 113.307 61.025 114.123 61.025ZM130.13 50.55C131.963 50.55 133.422 51.15 134.505 52.35C135.605 53.55 136.155 55.0833 136.155 56.95C136.155 58.8 135.563 60.325 134.38 61.525C133.213 62.725 131.655 63.325 129.705 63.325C127.638 63.325 126.038 62.6583 124.905 61.325C123.772 59.9917 123.205 58.0667 123.205 55.55C123.205 54.3833 123.263 53.3417 123.38 52.425C123.513 51.5083 123.747 50.6 124.08 49.7C124.43 48.7833 124.947 48.0333 125.63 47.45C126.33 46.8667 127.197 46.4917 128.23 46.325L131.555 45.775C132.022 45.7083 132.338 45.6167 132.505 45.5C132.672 45.3833 132.772 45.1583 132.805 44.825H135.23C135.18 45.7083 134.98 46.4167 134.63 46.95C134.297 47.4833 133.647 47.825 132.68 47.975L128.63 48.625C127.68 48.775 126.963 49.1583 126.48 49.775C125.997 50.375 125.672 51.2167 125.505 52.3H126.105C127.005 51.1333 128.347 50.55 130.13 50.55ZM129.68 60.925C130.847 60.925 131.738 60.5333 132.355 59.75C132.972 58.9667 133.28 58.0083 133.28 56.875C133.28 55.7417 132.972 54.7917 132.355 54.025C131.738 53.2583 130.847 52.875 129.68 52.875C128.497 52.875 127.597 53.2583 126.98 54.025C126.363 54.7917 126.055 55.7417 126.055 56.875C126.055 58.0083 126.363 58.9667 126.98 59.75C127.597 60.5333 128.497 60.925 129.68 60.925ZM140.286 51.825C141.453 50.575 143.02 49.95 144.986 49.95C146.953 49.95 148.511 50.575 149.661 51.825C150.828 53.0583 151.411 54.6583 151.411 56.625C151.411 58.6083 150.828 60.225 149.661 61.475C148.511 62.7083 146.953 63.325 144.986 63.325C143.02 63.325 141.453 62.7083 140.286 61.475C139.136 60.225 138.561 58.6083 138.561 56.625C138.561 54.6583 139.136 53.0583 140.286 51.825ZM142.311 59.7C142.928 60.5167 143.82 60.925 144.986 60.925C146.153 60.925 147.045 60.5167 147.661 59.7C148.278 58.8667 148.586 57.8417 148.586 56.625C148.586 55.425 148.278 54.4167 147.661 53.6C147.045 52.7667 146.153 52.35 144.986 52.35C143.82 52.35 142.928 52.7667 142.311 53.6C141.695 54.4167 141.386 55.425 141.386 56.625C141.386 57.8417 141.695 58.8667 142.311 59.7ZM160.845 52.35C159.678 52.35 158.795 52.7583 158.195 53.575C157.612 54.3917 157.32 55.4083 157.32 56.625C157.32 57.8583 157.612 58.8833 158.195 59.7C158.795 60.5167 159.678 60.925 160.845 60.925C161.962 60.925 162.82 60.5333 163.42 59.75C164.02 58.95 164.32 57.9083 164.32 56.625C164.32 55.3417 164.02 54.3083 163.42 53.525C162.82 52.7417 161.962 52.35 160.845 52.35ZM154.57 50.275H157.295V51.5H157.895C158.728 50.4667 159.978 49.95 161.645 49.95C163.328 49.95 164.662 50.575 165.645 51.825C166.645 53.075 167.145 54.675 167.145 56.625C167.145 58.5917 166.645 60.2 165.645 61.45C164.662 62.7 163.328 63.325 161.645 63.325C159.995 63.325 158.778 62.8083 157.995 61.775H157.395V68H154.57V50.275ZM178.243 63V61.825H177.643C176.843 62.825 175.593 63.325 173.893 63.325C172.493 63.325 171.384 62.925 170.568 62.125C169.751 61.3083 169.343 60.3167 169.343 59.15C169.343 58 169.759 57 170.593 56.15C171.426 55.3 172.693 54.875 174.393 54.875H178.143V54.5C178.143 52.95 177.251 52.175 175.468 52.175C173.884 52.175 173.034 52.7167 172.918 53.8H170.118C170.184 52.6167 170.693 51.6833 171.643 51C172.609 50.3 173.851 49.95 175.368 49.95C177.084 49.95 178.426 50.3333 179.393 51.1C180.376 51.8667 180.868 53.0167 180.868 54.55V63H178.243ZM174.768 61.025C175.718 61.025 176.518 60.7167 177.168 60.1C177.818 59.4833 178.143 58.7333 178.143 57.85V56.875H174.893C173.093 56.875 172.193 57.575 172.193 58.975C172.193 59.625 172.418 60.1333 172.868 60.5C173.318 60.85 173.951 61.025 174.768 61.025ZM183.399 52.675V50.275H194.799V52.675H190.524V63H187.699V52.675H183.399ZM198.343 51.825C199.51 50.575 201.076 49.95 203.043 49.95C205.01 49.95 206.568 50.575 207.718 51.825C208.885 53.0583 209.468 54.6583 209.468 56.625C209.468 58.6083 208.885 60.225 207.718 61.475C206.568 62.7083 205.01 63.325 203.043 63.325C201.076 63.325 199.51 62.7083 198.343 61.475C197.193 60.225 196.618 58.6083 196.618 56.625C196.618 54.6583 197.193 53.0583 198.343 51.825ZM200.368 59.7C200.985 60.5167 201.876 60.925 203.043 60.925C204.21 60.925 205.101 60.5167 205.718 59.7C206.335 58.8667 206.643 57.8417 206.643 56.625C206.643 55.425 206.335 54.4167 205.718 53.6C205.101 52.7667 204.21 52.35 203.043 52.35C201.876 52.35 200.985 52.7667 200.368 53.6C199.751 54.4167 199.443 55.425 199.443 56.625C199.443 57.8417 199.751 58.8667 200.368 59.7ZM218.902 52.35C217.735 52.35 216.852 52.7583 216.252 53.575C215.668 54.3917 215.377 55.4083 215.377 56.625C215.377 57.8583 215.668 58.8833 216.252 59.7C216.852 60.5167 217.735 60.925 218.902 60.925C220.018 60.925 220.877 60.5333 221.477 59.75C222.077 58.95 222.377 57.9083 222.377 56.625C222.377 55.3417 222.077 54.3083 221.477 53.525C220.877 52.7417 220.018 52.35 218.902 52.35ZM212.627 50.275H215.352V51.5H215.952C216.785 50.4667 218.035 49.95 219.702 49.95C221.385 49.95 222.718 50.575 223.702 51.825C224.702 53.075 225.202 54.675 225.202 56.625C225.202 58.5917 224.702 60.2 223.702 61.45C222.718 62.7 221.385 63.325 219.702 63.325C218.052 63.325 216.835 62.8083 216.052 61.775H215.452V68H212.627V50.275ZM231.549 63H228.349V50.275H231.099V58.675H231.699L236.924 50.275H240.199V63H237.449V54.6H236.849L231.549 63ZM248.496 50.275H254.896V63H252.071V58.375H249.071C248.671 58.375 248.371 58.3667 248.171 58.35L246.396 63H243.546L245.596 57.75C244.313 57.0667 243.671 55.9333 243.671 54.35C243.671 53.0667 244.088 52.0667 244.921 51.35C245.755 50.6333 246.946 50.275 248.496 50.275ZM252.071 56.175V52.575H248.721C247.221 52.575 246.471 53.175 246.471 54.375C246.471 55.575 247.221 56.175 248.721 56.175H252.071Z" fill="white"/>
<g clip-path="url(#clip0_630_946)">
<path d="M66.6673 53.3332C74.0311 53.3332 80.0006 47.3636 80.0006 39.9998C80.0006 32.636 74.0311 26.6665 66.6673 26.6665C59.3035 26.6665 53.334 32.636 53.334 39.9998C53.334 47.3636 59.3035 53.3332 66.6673 53.3332Z" fill="white"/>
<path d="M66.6673 46.6668H40.0007C36.3207 46.6668 33.334 43.6802 33.334 40.0002C33.334 36.3202 36.3207 33.3335 40.0007 33.3335H66.6673C70.3473 33.3335 73.334 36.3202 73.334 40.0002C73.334 43.6802 70.3473 46.6668 66.6673 46.6668Z" fill="#202224"/>
<path d="M39.9993 26.6667C47.3631 26.6667 53.3327 20.6971 53.3327 13.3333C53.3327 5.96954 47.3631 0 39.9993 0C32.6356 0 26.666 5.96954 26.666 13.3333C26.666 20.6971 32.6356 26.6667 39.9993 26.6667Z" fill="white"/>
<path d="M33.334 39.9998V13.3332C33.334 9.65317 36.3207 6.6665 40.0007 6.6665C43.6806 6.6665 46.6673 9.65317 46.6673 13.3332V39.9998C46.6673 43.6798 43.6806 46.6665 40.0007 46.6665C36.3207 46.6665 33.334 43.6798 33.334 39.9998Z" fill="#202224"/>
<path d="M39.9993 80.0002C47.3631 80.0002 53.3327 74.0306 53.3327 66.6668C53.3327 59.303 47.3631 53.3335 39.9993 53.3335C32.6356 53.3335 26.666 59.303 26.666 66.6668C26.666 74.0306 32.6356 80.0002 39.9993 80.0002Z" fill="white"/>
<path d="M33.334 40.0002V66.6668C33.334 70.3468 36.3207 73.3335 40.0007 73.3335C43.6806 73.3335 46.6673 70.3468 46.6673 66.6668V40.0002C46.6673 36.3202 43.6806 33.3335 40.0007 33.3335C36.3207 33.3335 33.334 36.3202 33.334 40.0002Z" fill="#202224"/>
<path d="M13.3333 53.3332C20.6971 53.3332 26.6667 47.3636 26.6667 39.9998C26.6667 32.636 20.6971 26.6665 13.3333 26.6665C5.96954 26.6665 0 32.636 0 39.9998C0 47.3636 5.96954 53.3332 13.3333 53.3332Z" fill="white"/>
<path d="M39.9993 53.3332C47.3631 53.3332 53.3327 47.3636 53.3327 39.9998C53.3327 32.636 47.3631 26.6665 39.9993 26.6665C32.6356 26.6665 26.666 32.636 26.666 39.9998C26.666 47.3636 32.6356 53.3332 39.9993 53.3332Z" fill="white"/>
<path d="M39.9993 46.6668H13.3327C9.65268 46.6668 6.66602 43.6802 6.66602 40.0002C6.66602 36.3202 9.65268 33.3335 13.3327 33.3335H39.9993C43.6793 33.3335 46.666 36.3202 46.666 40.0002C46.666 43.6802 43.6793 46.6668 39.9993 46.6668Z" fill="#202224"/>
</g>
<defs>
<clipPath id="clip0_630_946">
<rect width="80" height="80" fill="white"/>
</clipPath>
</defs>
</svg>
