<svg width="179" height="179" viewBox="0 0 179 179" fill="none" xmlns="http://www.w3.org/2000/svg">
<g clip-path="url(#clip0_630_673)">
<path d="M89.4897 178.979C138.913 178.979 178.979 138.913 178.979 89.4897C178.979 40.0659 138.913 0 89.4897 0C40.0659 0 0 40.0659 0 89.4897C0 138.913 40.0659 178.979 89.4897 178.979Z" fill="white"/>
<path d="M63.2878 125.087C42.3227 125.087 25.3105 108.095 25.3105 87.1095C25.3105 66.1445 42.302 49.1323 63.2878 49.1323" fill="#3B3B3B"/>
<path d="M107.557 87.1096C107.557 108.075 90.5659 125.087 69.5801 125.087V87.1096" fill="#4180DF"/>
<path d="M69.5801 87.4821C69.5801 66.517 86.5715 49.5049 107.557 49.5049V87.4821" fill="#4180DF"/>
<path d="M145.534 49.5049H107.557V125.087H145.534V49.5049Z" fill="#4180DF"/>
</g>
<defs>
<clipPath id="clip0_630_673">
<rect width="179" height="179" fill="white"/>
</clipPath>
</defs>
</svg>
