<svg width="279" height="80" viewBox="0 0 279 80" fill="none" xmlns="http://www.w3.org/2000/svg">
<path d="M105.825 31.6H108.975C108.675 33.3333 107.883 34.725 106.6 35.775C105.317 36.8083 103.683 37.325 101.7 37.325C99.0667 37.325 97.0083 36.475 95.525 34.775C94.0417 33.0583 93.3 30.825 93.3 28.075C93.3 25.325 94.0417 23.1 95.525 21.4C97.025 19.6833 99.0917 18.825 101.725 18.825C103.608 18.825 105.167 19.3 106.4 20.25C107.65 21.2 108.442 22.4833 108.775 24.1H105.625C105.058 22.4 103.758 21.55 101.725 21.55C99.975 21.55 98.6417 22.1667 97.725 23.4C96.8083 24.6333 96.35 26.1917 96.35 28.075C96.35 29.9583 96.8 31.5167 97.7 32.75C98.6167 33.9833 99.95 34.6 101.7 34.6C102.8 34.6 103.7 34.3417 104.4 33.825C105.117 33.2917 105.592 32.55 105.825 31.6ZM112.138 37V24.275H116.163L119.013 29.85H119.613L122.438 24.275H126.438V37H123.688V27.85H123.088L120.613 32.625H117.963L115.488 27.85H114.888V37H112.138ZM141.777 29.925V30.875H132.377C132.46 33.575 133.652 34.925 135.952 34.925C137.402 34.925 138.327 34.3833 138.727 33.3H141.602C141.352 34.5333 140.744 35.5167 139.777 36.25C138.81 36.9667 137.527 37.325 135.927 37.325C133.96 37.325 132.41 36.7 131.277 35.45C130.144 34.2 129.577 32.5667 129.577 30.55C129.577 28.55 130.135 26.95 131.252 25.75C132.385 24.55 133.919 23.95 135.852 23.95C137.685 23.95 139.119 24.5167 140.152 25.65C141.202 26.7667 141.744 28.1917 141.777 29.925ZM135.827 26.2C133.994 26.2 132.885 27.0583 132.502 28.775H138.877C138.777 28.025 138.469 27.4083 137.952 26.925C137.435 26.4417 136.727 26.2 135.827 26.2ZM143.287 26.675V24.275H154.687V26.675H150.412V37H147.587V26.675H143.287ZM169.178 37H166.353V31.675H160.203V37H157.378V24.275H160.203V29.275H166.353V24.275H169.178V37ZM181.026 37V35.825H180.426C179.626 36.825 178.376 37.325 176.676 37.325C175.276 37.325 174.168 36.925 173.351 36.125C172.534 35.3083 172.126 34.3167 172.126 33.15C172.126 32 172.543 31 173.376 30.15C174.209 29.3 175.476 28.875 177.176 28.875H180.926V28.5C180.926 26.95 180.034 26.175 178.251 26.175C176.668 26.175 175.818 26.7167 175.701 27.8H172.901C172.968 26.6167 173.476 25.6833 174.426 25C175.393 24.3 176.634 23.95 178.151 23.95C179.868 23.95 181.209 24.3333 182.176 25.1C183.159 25.8667 183.651 27.0167 183.651 28.55V37H181.026ZM177.551 35.025C178.501 35.025 179.301 34.7167 179.951 34.1C180.601 33.4833 180.926 32.7333 180.926 31.85V30.875H177.676C175.876 30.875 174.976 31.575 174.976 32.975C174.976 33.625 175.201 34.1333 175.651 34.5C176.101 34.85 176.734 35.025 177.551 35.025ZM191.783 24.275H198.183V37H195.358V32.375H192.358C191.958 32.375 191.658 32.3667 191.458 32.35L189.683 37H186.833L188.883 31.75C187.599 31.0667 186.958 29.9333 186.958 28.35C186.958 27.0667 187.374 26.0667 188.208 25.35C189.041 24.6333 190.233 24.275 191.783 24.275ZM195.358 30.175V26.575H192.008C190.508 26.575 189.758 27.175 189.758 28.375C189.758 29.575 190.508 30.175 192.008 30.175H195.358ZM92.575 68V65.325H93.025C93.9083 65.325 94.5333 64.975 94.9 64.275C95.2667 63.575 95.45 62.2917 95.45 60.425V55.275H105.75V68H102.925V57.675H98.05V60.5C98.05 63.25 97.65 65.1917 96.85 66.325C96.0667 67.4417 94.7917 68 93.025 68H92.575ZM117.598 68V66.825H116.998C116.198 67.825 114.948 68.325 113.248 68.325C111.848 68.325 110.74 67.925 109.923 67.125C109.107 66.3083 108.698 65.3167 108.698 64.15C108.698 63 109.115 62 109.948 61.15C110.782 60.3 112.048 59.875 113.748 59.875H117.498V59.5C117.498 57.95 116.607 57.175 114.823 57.175C113.24 57.175 112.39 57.7167 112.273 58.8H109.473C109.54 57.6167 110.048 56.6833 110.998 56C111.965 55.3 113.207 54.95 114.723 54.95C116.44 54.95 117.782 55.3333 118.748 56.1C119.732 56.8667 120.223 58.0167 120.223 59.55V68H117.598ZM114.123 66.025C115.073 66.025 115.873 65.7167 116.523 65.1C117.173 64.4833 117.498 63.7333 117.498 62.85V61.875H114.248C112.448 61.875 111.548 62.575 111.548 63.975C111.548 64.625 111.773 65.1333 112.223 65.5C112.673 65.85 113.307 66.025 114.123 66.025ZM130.13 55.55C131.963 55.55 133.422 56.15 134.505 57.35C135.605 58.55 136.155 60.0833 136.155 61.95C136.155 63.8 135.563 65.325 134.38 66.525C133.213 67.725 131.655 68.325 129.705 68.325C127.638 68.325 126.038 67.6583 124.905 66.325C123.772 64.9917 123.205 63.0667 123.205 60.55C123.205 59.3833 123.263 58.3417 123.38 57.425C123.513 56.5083 123.747 55.6 124.08 54.7C124.43 53.7833 124.947 53.0333 125.63 52.45C126.33 51.8667 127.197 51.4917 128.23 51.325L131.555 50.775C132.022 50.7083 132.338 50.6167 132.505 50.5C132.672 50.3833 132.772 50.1583 132.805 49.825H135.23C135.18 50.7083 134.98 51.4167 134.63 51.95C134.297 52.4833 133.647 52.825 132.68 52.975L128.63 53.625C127.68 53.775 126.963 54.1583 126.48 54.775C125.997 55.375 125.672 56.2167 125.505 57.3H126.105C127.005 56.1333 128.347 55.55 130.13 55.55ZM129.68 65.925C130.847 65.925 131.738 65.5333 132.355 64.75C132.972 63.9667 133.28 63.0083 133.28 61.875C133.28 60.7417 132.972 59.7917 132.355 59.025C131.738 58.2583 130.847 57.875 129.68 57.875C128.497 57.875 127.597 58.2583 126.98 59.025C126.363 59.7917 126.055 60.7417 126.055 61.875C126.055 63.0083 126.363 63.9667 126.98 64.75C127.597 65.5333 128.497 65.925 129.68 65.925ZM140.286 56.825C141.453 55.575 143.02 54.95 144.986 54.95C146.953 54.95 148.511 55.575 149.661 56.825C150.828 58.0583 151.411 59.6583 151.411 61.625C151.411 63.6083 150.828 65.225 149.661 66.475C148.511 67.7083 146.953 68.325 144.986 68.325C143.02 68.325 141.453 67.7083 140.286 66.475C139.136 65.225 138.561 63.6083 138.561 61.625C138.561 59.6583 139.136 58.0583 140.286 56.825ZM142.311 64.7C142.928 65.5167 143.82 65.925 144.986 65.925C146.153 65.925 147.045 65.5167 147.661 64.7C148.278 63.8667 148.586 62.8417 148.586 61.625C148.586 60.425 148.278 59.4167 147.661 58.6C147.045 57.7667 146.153 57.35 144.986 57.35C143.82 57.35 142.928 57.7667 142.311 58.6C141.695 59.4167 141.386 60.425 141.386 61.625C141.386 62.8417 141.695 63.8667 142.311 64.7ZM160.845 57.35C159.678 57.35 158.795 57.7583 158.195 58.575C157.612 59.3917 157.32 60.4083 157.32 61.625C157.32 62.8583 157.612 63.8833 158.195 64.7C158.795 65.5167 159.678 65.925 160.845 65.925C161.962 65.925 162.82 65.5333 163.42 64.75C164.02 63.95 164.32 62.9083 164.32 61.625C164.32 60.3417 164.02 59.3083 163.42 58.525C162.82 57.7417 161.962 57.35 160.845 57.35ZM154.57 55.275H157.295V56.5H157.895C158.728 55.4667 159.978 54.95 161.645 54.95C163.328 54.95 164.662 55.575 165.645 56.825C166.645 58.075 167.145 59.675 167.145 61.625C167.145 63.5917 166.645 65.2 165.645 66.45C164.662 67.7 163.328 68.325 161.645 68.325C159.995 68.325 158.778 67.8083 157.995 66.775H157.395V73H154.57V55.275ZM178.243 68V66.825H177.643C176.843 67.825 175.593 68.325 173.893 68.325C172.493 68.325 171.384 67.925 170.568 67.125C169.751 66.3083 169.343 65.3167 169.343 64.15C169.343 63 169.759 62 170.593 61.15C171.426 60.3 172.693 59.875 174.393 59.875H178.143V59.5C178.143 57.95 177.251 57.175 175.468 57.175C173.884 57.175 173.034 57.7167 172.918 58.8H170.118C170.184 57.6167 170.693 56.6833 171.643 56C172.609 55.3 173.851 54.95 175.368 54.95C177.084 54.95 178.426 55.3333 179.393 56.1C180.376 56.8667 180.868 58.0167 180.868 59.55V68H178.243ZM174.768 66.025C175.718 66.025 176.518 65.7167 177.168 65.1C177.818 64.4833 178.143 63.7333 178.143 62.85V61.875H174.893C173.093 61.875 172.193 62.575 172.193 63.975C172.193 64.625 172.418 65.1333 172.868 65.5C173.318 65.85 173.951 66.025 174.768 66.025ZM183.399 57.675V55.275H194.799V57.675H190.524V68H187.699V57.675H183.399ZM198.343 56.825C199.51 55.575 201.076 54.95 203.043 54.95C205.01 54.95 206.568 55.575 207.718 56.825C208.885 58.0583 209.468 59.6583 209.468 61.625C209.468 63.6083 208.885 65.225 207.718 66.475C206.568 67.7083 205.01 68.325 203.043 68.325C201.076 68.325 199.51 67.7083 198.343 66.475C197.193 65.225 196.618 63.6083 196.618 61.625C196.618 59.6583 197.193 58.0583 198.343 56.825ZM200.368 64.7C200.985 65.5167 201.876 65.925 203.043 65.925C204.21 65.925 205.101 65.5167 205.718 64.7C206.335 63.8667 206.643 62.8417 206.643 61.625C206.643 60.425 206.335 59.4167 205.718 58.6C205.101 57.7667 204.21 57.35 203.043 57.35C201.876 57.35 200.985 57.7667 200.368 58.6C199.751 59.4167 199.443 60.425 199.443 61.625C199.443 62.8417 199.751 63.8667 200.368 64.7ZM218.902 57.35C217.735 57.35 216.852 57.7583 216.252 58.575C215.668 59.3917 215.377 60.4083 215.377 61.625C215.377 62.8583 215.668 63.8833 216.252 64.7C216.852 65.5167 217.735 65.925 218.902 65.925C220.018 65.925 220.877 65.5333 221.477 64.75C222.077 63.95 222.377 62.9083 222.377 61.625C222.377 60.3417 222.077 59.3083 221.477 58.525C220.877 57.7417 220.018 57.35 218.902 57.35ZM212.627 55.275H215.352V56.5H215.952C216.785 55.4667 218.035 54.95 219.702 54.95C221.385 54.95 222.718 55.575 223.702 56.825C224.702 58.075 225.202 59.675 225.202 61.625C225.202 63.5917 224.702 65.2 223.702 66.45C222.718 67.7 221.385 68.325 219.702 68.325C218.052 68.325 216.835 67.8083 216.052 66.775H215.452V73H212.627V55.275ZM231.549 68H228.349V55.275H231.099V63.675H231.699L236.924 55.275H240.199V68H237.449V59.6H236.849L231.549 68ZM248.496 55.275H254.896V68H252.071V63.375H249.071C248.671 63.375 248.371 63.3667 248.171 63.35L246.396 68H243.546L245.596 62.75C244.313 62.0667 243.671 60.9333 243.671 59.35C243.671 58.0667 244.088 57.0667 244.921 56.35C245.755 55.6333 246.946 55.275 248.496 55.275ZM252.071 61.175V57.575H248.721C247.221 57.575 246.471 58.175 246.471 59.375C246.471 60.575 247.221 61.175 248.721 61.175H252.071Z" fill="white"/>
<g clip-path="url(#clip0_630_933)">
<path d="M66.6673 53.3332C74.0311 53.3332 80.0006 47.3636 80.0006 39.9998C80.0006 32.636 74.0311 26.6665 66.6673 26.6665C59.3035 26.6665 53.334 32.636 53.334 39.9998C53.334 47.3636 59.3035 53.3332 66.6673 53.3332Z" fill="#202224"/>
<path d="M66.6673 46.6668H40.0007C36.3207 46.6668 33.334 43.6802 33.334 40.0002C33.334 36.3202 36.3207 33.3335 40.0007 33.3335H66.6673C70.3473 33.3335 73.334 36.3202 73.334 40.0002C73.334 43.6802 70.3473 46.6668 66.6673 46.6668Z" fill="white"/>
<path d="M39.9993 26.6667C47.3631 26.6667 53.3327 20.6971 53.3327 13.3333C53.3327 5.96954 47.3631 0 39.9993 0C32.6356 0 26.666 5.96954 26.666 13.3333C26.666 20.6971 32.6356 26.6667 39.9993 26.6667Z" fill="#202224"/>
<path d="M33.334 39.9998V13.3332C33.334 9.65317 36.3207 6.6665 40.0007 6.6665C43.6806 6.6665 46.6673 9.65317 46.6673 13.3332V39.9998C46.6673 43.6798 43.6806 46.6665 40.0007 46.6665C36.3207 46.6665 33.334 43.6798 33.334 39.9998Z" fill="white"/>
<path d="M39.9993 80.0002C47.3631 80.0002 53.3327 74.0306 53.3327 66.6668C53.3327 59.303 47.3631 53.3335 39.9993 53.3335C32.6356 53.3335 26.666 59.303 26.666 66.6668C26.666 74.0306 32.6356 80.0002 39.9993 80.0002Z" fill="#202224"/>
<path d="M33.334 40.0002V66.6668C33.334 70.3468 36.3207 73.3335 40.0007 73.3335C43.6806 73.3335 46.6673 70.3468 46.6673 66.6668V40.0002C46.6673 36.3202 43.6806 33.3335 40.0007 33.3335C36.3207 33.3335 33.334 36.3202 33.334 40.0002Z" fill="white"/>
<path d="M13.3333 53.3332C20.6971 53.3332 26.6667 47.3636 26.6667 39.9998C26.6667 32.636 20.6971 26.6665 13.3333 26.6665C5.96954 26.6665 0 32.636 0 39.9998C0 47.3636 5.96954 53.3332 13.3333 53.3332Z" fill="#202224"/>
<path d="M39.9993 53.3332C47.3631 53.3332 53.3327 47.3636 53.3327 39.9998C53.3327 32.636 47.3631 26.6665 39.9993 26.6665C32.6356 26.6665 26.666 32.636 26.666 39.9998C26.666 47.3636 32.6356 53.3332 39.9993 53.3332Z" fill="#202224"/>
<path d="M39.9993 46.6668H13.3327C9.65268 46.6668 6.66602 43.6802 6.66602 40.0002C6.66602 36.3202 9.65268 33.3335 13.3327 33.3335H39.9993C43.6793 33.3335 46.666 36.3202 46.666 40.0002C46.666 43.6802 43.6793 46.6668 39.9993 46.6668Z" fill="white"/>
</g>
<defs>
<clipPath id="clip0_630_933">
<rect width="80" height="80" fill="white"/>
</clipPath>
</defs>
</svg>
