<svg width="195" height="154" viewBox="0 0 195 154" fill="none" xmlns="http://www.w3.org/2000/svg">
<path d="M74.1317 153.36C63.8417 153.36 55.5117 145.02 55.5117 134.74V100.12C55.5117 89.83 63.8517 81.5 74.1317 81.5C84.4217 81.5 92.7517 89.84 92.7517 100.12V134.73C92.7517 145.02 84.4117 153.36 74.1317 153.36Z" fill="white" stroke="white" stroke-width="0.5"/>
<path d="M136.502 117.68V134.8C136.502 145.06 128.162 153.38 117.882 153.38C107.592 153.38 99.2617 145.06 99.2617 134.8V117.82" fill="white"/>
<path d="M136.502 117.68V134.8C136.502 145.06 128.162 153.38 117.882 153.38C107.592 153.38 99.2617 145.06 99.2617 134.8V117.82" stroke="white" stroke-width="0.5"/>
<path d="M29.9197 73.2902C14.8797 73.2902 2.67969 61.0902 2.67969 46.0502V28.6702C2.67969 13.6302 14.8797 1.43018 29.9197 1.43018" fill="white"/>
<path d="M29.9197 73.2902C14.8797 73.2902 2.67969 61.0902 2.67969 46.0502V28.6702C2.67969 13.6302 14.8797 1.43018 29.9197 1.43018" stroke="white" stroke-width="0.5"/>
<path d="M45.8214 1.47998C58.9614 1.51998 69.5814 12.2 69.5414 25.34L45.6914 25.27L45.8214 1.47998Z" fill="white" stroke="white" stroke-width="0.5"/>
<path d="M24.86 129.64C24.82 142.78 14.14 153.4 1 153.36L1.07 129.51L24.86 129.64Z" fill="white" stroke="white" stroke-width="0.5"/>
<path d="M95.39 1.52002C82.25 1.56002 71.63 12.24 71.67 25.38L95.43 25.31L95.39 1.52002Z" fill="white" stroke="white" stroke-width="0.5"/>
<path d="M16.6102 50.3499H32.3202V24.6099H16.6102C9.50025 24.6099 3.74025 30.3699 3.74025 37.4799C3.73025 44.5899 9.50025 50.3499 16.6102 50.3499Z" fill="#828282"/>
<path d="M138.551 73.1C123.511 73.1 111.311 60.9 111.311 45.86V28.49C111.311 13.45 123.511 1.25 138.551 1.25" fill="white"/>
<path d="M138.551 73.1C123.511 73.1 111.311 60.9 111.311 45.86V28.49C111.311 13.45 123.511 1.25 138.551 1.25" stroke="white" stroke-width="0.5"/>
<path d="M125.229 50.1699H140.939V24.4199H125.229C118.119 24.4199 112.359 30.1799 112.359 37.2899C112.359 44.3999 118.119 50.1699 125.229 50.1699Z" fill="#828282"/>
<path d="M24.9965 105.097L15.3965 105.046L15.2656 130.056L24.8656 130.107L24.9965 105.097Z" fill="white" stroke="white" stroke-width="0.5"/>
<path d="M104.979 1.52002H95.3789V73.49H104.979V1.52002Z" fill="white" stroke="white" stroke-width="0.5"/>
<path d="M45.8207 1.49023H36.2207V73.4602H45.8207V1.49023Z" fill="white" stroke="white" stroke-width="0.5"/>
<path d="M39.14 81.3799C26 81.4199 15.38 92.0999 15.42 105.24L39.18 105.17L39.14 81.3799Z" fill="white" stroke="white" stroke-width="0.5"/>
<path d="M48.7289 81.3799H39.1289V153.35H48.7289V81.3799Z" fill="white" stroke="white" stroke-width="0.5"/>
<path d="M108.773 81.4V91H135.563V81.4H108.773Z" fill="white" stroke="white" stroke-width="0.5"/>
<path d="M108.791 135.49H99.1914V153.36H108.791V135.49Z" fill="white" stroke="white" stroke-width="0.5"/>
<path d="M116.24 117.78L99.25 117.82V81.4199H116.24V117.78Z" fill="white" stroke="white" stroke-width="0.5"/>
<path d="M92.8109 130.38H83.2109V153.39H92.8109V130.38Z" fill="white" stroke="white" stroke-width="0.5"/>
<path d="M75.2914 25.3101H65.6914V72.6401H75.2914V25.3101Z" fill="white" stroke="white" stroke-width="0.5"/>
<path d="M144.941 1C158.081 1.04 168.701 11.72 168.661 24.86L144.811 24.79L144.941 1Z" fill="white" stroke="white" stroke-width="0.5"/>
<path d="M194.509 1.04004C181.369 1.08004 170.749 11.76 170.789 24.9L194.549 24.83L194.509 1.04004Z" fill="white" stroke="white" stroke-width="0.5"/>
<path d="M174.411 24.8301H164.811V72.1601H174.411V24.8301Z" fill="white" stroke="white" stroke-width="0.5"/>
<path d="M111.855 32.1734V41.7734H138.795V32.1734H111.855Z" fill="white" stroke="white" stroke-width="0.5"/>
<path d="M73.9217 130.77C81.3279 130.77 87.3317 124.766 87.3317 117.36C87.3317 109.954 81.3279 103.95 73.9217 103.95C66.5156 103.95 60.5117 109.954 60.5117 117.36C60.5117 124.766 66.5156 130.77 73.9217 130.77Z" fill="#828282" stroke="white" stroke-width="0.5"/>
<path d="M117.881 148.9C125.287 148.9 131.291 142.896 131.291 135.49C131.291 128.084 125.287 122.08 117.881 122.08C110.475 122.08 104.471 128.084 104.471 135.49C104.471 142.896 110.475 148.9 117.881 148.9Z" fill="#828282" stroke="white" stroke-width="0.5"/>
<path d="M112.811 117.73L142.001 117.73V91.0801L112.811 91.0802C105.701 91.0802 99.9414 96.8402 99.9414 103.95V104.85C99.9414 111.96 105.701 117.73 112.811 117.73Z" fill="#828282"/>
</svg>
