<svg width="119" height="100" viewBox="0 0 119 100" fill="none" xmlns="http://www.w3.org/2000/svg">
<path d="M118.154 48.7026H0.927734V51.3374H118.154V48.7026Z" fill="white"/>
<path d="M51.0742 99.2492L51.0742 0.773438L48.4371 0.773437L48.4371 99.2492H51.0742Z" fill="white"/>
<path d="M48.8683 48.9702L0 97.3847L1.85418 99.2579L50.7431 50.8228L48.8683 48.9702Z" fill="white"/>
<path d="M117.205 13.4828V41.1071H111.024V13.4828H117.205ZM98.7866 13.4828V30.0121H92.606V13.4828H98.7866ZM98.3128 3.43761L103.608 6.23709C101.259 6.71053 99.4047 8.54254 98.8484 10.848L98.3128 3.43761ZM92.606 10.848C93.2653 5.14611 97.9007 0.617533 103.628 0V4.73442V6.23709L99.0751 7.38981L98.869 10.848H92.606ZM110.88 10.848C110.344 8.52196 108.47 6.71053 106.121 6.23709L111.416 3.43761L110.88 10.848ZM117.143 10.848H110.88L110.674 7.38981L106.121 6.23709V4.73442V0C111.848 0.617533 116.484 5.14611 117.143 10.848ZM88.0117 34.7671C90.3192 34.2319 92.1321 32.3587 92.606 30.0121L95.3873 35.3023L88.0117 34.7671ZM88.0117 41.0248V34.7671L91.4523 34.5613L92.606 30.0121H94.0893H98.7866C98.1686 35.7346 93.6773 40.3661 88.0117 41.0248Z" fill="white"/>
<path d="M83.3978 30.959C82.7797 36.702 78.1854 41.2717 72.4581 41.8687L83.3978 30.959ZM58.7988 28.3447V14.265H64.9795V28.3447H58.7988ZM69.821 41.8893C64.073 41.2717 59.4993 36.702 58.8812 30.9795L69.821 41.8893ZM64.588 4.19923L69.8828 6.99871C67.5341 7.47215 65.6799 9.30417 65.1237 11.6096L64.588 4.19923ZM58.8812 11.6302C59.5405 5.92832 64.176 1.39976 69.9034 0.782227V5.51663V7.0193L65.3503 8.17202L65.1443 11.6302H58.8812ZM77.1553 11.6302C76.6197 9.30416 74.7449 7.49274 72.3962 7.0193L77.691 4.21982L77.1553 11.6302ZM83.4184 11.6302H77.1553L76.9493 8.17202L72.3962 7.0193V5.51663V0.782227C78.1236 1.37917 82.7591 5.92832 83.4184 11.6302ZM77.691 38.4311L72.3962 35.6316C74.7449 35.1582 76.5991 33.3262 77.1553 31.0207L77.691 38.4311ZM83.3978 31.0001C82.7385 36.702 78.103 41.2306 72.3756 41.8481V37.1137V35.611L76.9287 34.4583L77.1347 31.0001H83.3978ZM65.1237 31.0001C65.6593 33.3262 67.5341 35.1376 69.8828 35.611L64.588 38.4105L65.1237 31.0001ZM58.8606 31.0001H65.1237L65.3297 34.4583L69.8828 35.611V37.1137V41.8481C64.1554 41.2512 59.5199 36.702 58.8606 31.0001Z" fill="white"/>
</svg>
