<svg width="268" height="68" viewBox="0 0 268 68" fill="none" xmlns="http://www.w3.org/2000/svg">
<path d="M94.825 22.6H97.975C97.675 24.3333 96.8833 25.725 95.6 26.775C94.3167 27.8083 92.6833 28.325 90.7 28.325C88.0667 28.325 86.0083 27.475 84.525 25.775C83.0417 24.0583 82.3 21.825 82.3 19.075C82.3 16.325 83.0417 14.1 84.525 12.4C86.025 10.6833 88.0917 9.825 90.725 9.825C92.6083 9.825 94.1667 10.3 95.4 11.25C96.65 12.2 97.4417 13.4833 97.775 15.1H94.625C94.0583 13.4 92.7583 12.55 90.725 12.55C88.975 12.55 87.6417 13.1667 86.725 14.4C85.8083 15.6333 85.35 17.1917 85.35 19.075C85.35 20.9583 85.8 22.5167 86.7 23.75C87.6167 24.9833 88.95 25.6 90.7 25.6C91.8 25.6 92.7 25.3417 93.4 24.825C94.1167 24.2917 94.5917 23.55 94.825 22.6ZM101.138 28V15.275H105.163L108.013 20.85H108.613L111.438 15.275H115.438V28H112.688V18.85H112.088L109.613 23.625H106.963L104.488 18.85H103.888V28H101.138ZM130.777 20.925V21.875H121.377C121.46 24.575 122.652 25.925 124.952 25.925C126.402 25.925 127.327 25.3833 127.727 24.3H130.602C130.352 25.5333 129.744 26.5167 128.777 27.25C127.81 27.9667 126.527 28.325 124.927 28.325C122.96 28.325 121.41 27.7 120.277 26.45C119.144 25.2 118.577 23.5667 118.577 21.55C118.577 19.55 119.135 17.95 120.252 16.75C121.385 15.55 122.919 14.95 124.852 14.95C126.685 14.95 128.119 15.5167 129.152 16.65C130.202 17.7667 130.744 19.1917 130.777 20.925ZM124.827 17.2C122.994 17.2 121.885 18.0583 121.502 19.775H127.877C127.777 19.025 127.469 18.4083 126.952 17.925C126.435 17.4417 125.727 17.2 124.827 17.2ZM132.287 17.675V15.275H143.687V17.675H139.412V28H136.587V17.675H132.287ZM158.178 28H155.353V22.675H149.203V28H146.378V15.275H149.203V20.275H155.353V15.275H158.178V28ZM170.026 28V26.825H169.426C168.626 27.825 167.376 28.325 165.676 28.325C164.276 28.325 163.168 27.925 162.351 27.125C161.534 26.3083 161.126 25.3167 161.126 24.15C161.126 23 161.543 22 162.376 21.15C163.209 20.3 164.476 19.875 166.176 19.875H169.926V19.5C169.926 17.95 169.034 17.175 167.251 17.175C165.668 17.175 164.818 17.7167 164.701 18.8H161.901C161.968 17.6167 162.476 16.6833 163.426 16C164.393 15.3 165.634 14.95 167.151 14.95C168.868 14.95 170.209 15.3333 171.176 16.1C172.159 16.8667 172.651 18.0167 172.651 19.55V28H170.026ZM166.551 26.025C167.501 26.025 168.301 25.7167 168.951 25.1C169.601 24.4833 169.926 23.7333 169.926 22.85V21.875H166.676C164.876 21.875 163.976 22.575 163.976 23.975C163.976 24.625 164.201 25.1333 164.651 25.5C165.101 25.85 165.734 26.025 166.551 26.025ZM180.783 15.275H187.183V28H184.358V23.375H181.358C180.958 23.375 180.658 23.3667 180.458 23.35L178.683 28H175.833L177.883 22.75C176.599 22.0667 175.958 20.9333 175.958 19.35C175.958 18.0667 176.374 17.0667 177.208 16.35C178.041 15.6333 179.233 15.275 180.783 15.275ZM184.358 21.175V17.575H181.008C179.508 17.575 178.758 18.175 178.758 19.375C178.758 20.575 179.508 21.175 181.008 21.175H184.358ZM81.575 59V56.325H82.025C82.9083 56.325 83.5333 55.975 83.9 55.275C84.2667 54.575 84.45 53.2917 84.45 51.425V46.275H94.75V59H91.925V48.675H87.05V51.5C87.05 54.25 86.65 56.1917 85.85 57.325C85.0667 58.4417 83.7917 59 82.025 59H81.575ZM106.598 59V57.825H105.998C105.198 58.825 103.948 59.325 102.248 59.325C100.848 59.325 99.7399 58.925 98.9232 58.125C98.1066 57.3083 97.6982 56.3167 97.6982 55.15C97.6982 54 98.1149 53 98.9482 52.15C99.7816 51.3 101.048 50.875 102.748 50.875H106.498V50.5C106.498 48.95 105.607 48.175 103.823 48.175C102.24 48.175 101.39 48.7167 101.273 49.8H98.4732C98.5399 48.6167 99.0482 47.6833 99.9982 47C100.965 46.3 102.207 45.95 103.723 45.95C105.44 45.95 106.782 46.3333 107.748 47.1C108.732 47.8667 109.223 49.0167 109.223 50.55V59H106.598ZM103.123 57.025C104.073 57.025 104.873 56.7167 105.523 56.1C106.173 55.4833 106.498 54.7333 106.498 53.85V52.875H103.248C101.448 52.875 100.548 53.575 100.548 54.975C100.548 55.625 100.773 56.1333 101.223 56.5C101.673 56.85 102.307 57.025 103.123 57.025ZM119.13 46.55C120.963 46.55 122.422 47.15 123.505 48.35C124.605 49.55 125.155 51.0833 125.155 52.95C125.155 54.8 124.563 56.325 123.38 57.525C122.213 58.725 120.655 59.325 118.705 59.325C116.638 59.325 115.038 58.6583 113.905 57.325C112.772 55.9917 112.205 54.0667 112.205 51.55C112.205 50.3833 112.263 49.3417 112.38 48.425C112.513 47.5083 112.747 46.6 113.08 45.7C113.43 44.7833 113.947 44.0333 114.63 43.45C115.33 42.8667 116.197 42.4917 117.23 42.325L120.555 41.775C121.022 41.7083 121.338 41.6167 121.505 41.5C121.672 41.3833 121.772 41.1583 121.805 40.825H124.23C124.18 41.7083 123.98 42.4167 123.63 42.95C123.297 43.4833 122.647 43.825 121.68 43.975L117.63 44.625C116.68 44.775 115.963 45.1583 115.48 45.775C114.997 46.375 114.672 47.2167 114.505 48.3H115.105C116.005 47.1333 117.347 46.55 119.13 46.55ZM118.68 56.925C119.847 56.925 120.738 56.5333 121.355 55.75C121.972 54.9667 122.28 54.0083 122.28 52.875C122.28 51.7417 121.972 50.7917 121.355 50.025C120.738 49.2583 119.847 48.875 118.68 48.875C117.497 48.875 116.597 49.2583 115.98 50.025C115.363 50.7917 115.055 51.7417 115.055 52.875C115.055 54.0083 115.363 54.9667 115.98 55.75C116.597 56.5333 117.497 56.925 118.68 56.925ZM129.286 47.825C130.453 46.575 132.02 45.95 133.986 45.95C135.953 45.95 137.511 46.575 138.661 47.825C139.828 49.0583 140.411 50.6583 140.411 52.625C140.411 54.6083 139.828 56.225 138.661 57.475C137.511 58.7083 135.953 59.325 133.986 59.325C132.02 59.325 130.453 58.7083 129.286 57.475C128.136 56.225 127.561 54.6083 127.561 52.625C127.561 50.6583 128.136 49.0583 129.286 47.825ZM131.311 55.7C131.928 56.5167 132.82 56.925 133.986 56.925C135.153 56.925 136.045 56.5167 136.661 55.7C137.278 54.8667 137.586 53.8417 137.586 52.625C137.586 51.425 137.278 50.4167 136.661 49.6C136.045 48.7667 135.153 48.35 133.986 48.35C132.82 48.35 131.928 48.7667 131.311 49.6C130.695 50.4167 130.386 51.425 130.386 52.625C130.386 53.8417 130.695 54.8667 131.311 55.7ZM149.845 48.35C148.678 48.35 147.795 48.7583 147.195 49.575C146.612 50.3917 146.32 51.4083 146.32 52.625C146.32 53.8583 146.612 54.8833 147.195 55.7C147.795 56.5167 148.678 56.925 149.845 56.925C150.962 56.925 151.82 56.5333 152.42 55.75C153.02 54.95 153.32 53.9083 153.32 52.625C153.32 51.3417 153.02 50.3083 152.42 49.525C151.82 48.7417 150.962 48.35 149.845 48.35ZM143.57 46.275H146.295V47.5H146.895C147.728 46.4667 148.978 45.95 150.645 45.95C152.328 45.95 153.662 46.575 154.645 47.825C155.645 49.075 156.145 50.675 156.145 52.625C156.145 54.5917 155.645 56.2 154.645 57.45C153.662 58.7 152.328 59.325 150.645 59.325C148.995 59.325 147.778 58.8083 146.995 57.775H146.395V64H143.57V46.275ZM167.243 59V57.825H166.643C165.843 58.825 164.593 59.325 162.893 59.325C161.493 59.325 160.384 58.925 159.568 58.125C158.751 57.3083 158.343 56.3167 158.343 55.15C158.343 54 158.759 53 159.593 52.15C160.426 51.3 161.693 50.875 163.393 50.875H167.143V50.5C167.143 48.95 166.251 48.175 164.468 48.175C162.884 48.175 162.034 48.7167 161.918 49.8H159.118C159.184 48.6167 159.693 47.6833 160.643 47C161.609 46.3 162.851 45.95 164.368 45.95C166.084 45.95 167.426 46.3333 168.393 47.1C169.376 47.8667 169.868 49.0167 169.868 50.55V59H167.243ZM163.768 57.025C164.718 57.025 165.518 56.7167 166.168 56.1C166.818 55.4833 167.143 54.7333 167.143 53.85V52.875H163.893C162.093 52.875 161.193 53.575 161.193 54.975C161.193 55.625 161.418 56.1333 161.868 56.5C162.318 56.85 162.951 57.025 163.768 57.025ZM172.399 48.675V46.275H183.799V48.675H179.524V59H176.699V48.675H172.399ZM187.343 47.825C188.51 46.575 190.076 45.95 192.043 45.95C194.01 45.95 195.568 46.575 196.718 47.825C197.885 49.0583 198.468 50.6583 198.468 52.625C198.468 54.6083 197.885 56.225 196.718 57.475C195.568 58.7083 194.01 59.325 192.043 59.325C190.076 59.325 188.51 58.7083 187.343 57.475C186.193 56.225 185.618 54.6083 185.618 52.625C185.618 50.6583 186.193 49.0583 187.343 47.825ZM189.368 55.7C189.985 56.5167 190.876 56.925 192.043 56.925C193.21 56.925 194.101 56.5167 194.718 55.7C195.335 54.8667 195.643 53.8417 195.643 52.625C195.643 51.425 195.335 50.4167 194.718 49.6C194.101 48.7667 193.21 48.35 192.043 48.35C190.876 48.35 189.985 48.7667 189.368 49.6C188.751 50.4167 188.443 51.425 188.443 52.625C188.443 53.8417 188.751 54.8667 189.368 55.7ZM207.902 48.35C206.735 48.35 205.852 48.7583 205.252 49.575C204.668 50.3917 204.377 51.4083 204.377 52.625C204.377 53.8583 204.668 54.8833 205.252 55.7C205.852 56.5167 206.735 56.925 207.902 56.925C209.018 56.925 209.877 56.5333 210.477 55.75C211.077 54.95 211.377 53.9083 211.377 52.625C211.377 51.3417 211.077 50.3083 210.477 49.525C209.877 48.7417 209.018 48.35 207.902 48.35ZM201.627 46.275H204.352V47.5H204.952C205.785 46.4667 207.035 45.95 208.702 45.95C210.385 45.95 211.718 46.575 212.702 47.825C213.702 49.075 214.202 50.675 214.202 52.625C214.202 54.5917 213.702 56.2 212.702 57.45C211.718 58.7 210.385 59.325 208.702 59.325C207.052 59.325 205.835 58.8083 205.052 57.775H204.452V64H201.627V46.275ZM220.549 59H217.349V46.275H220.099V54.675H220.699L225.924 46.275H229.199V59H226.449V50.6H225.849L220.549 59ZM237.496 46.275H243.896V59H241.071V54.375H238.071C237.671 54.375 237.371 54.3667 237.171 54.35L235.396 59H232.546L234.596 53.75C233.313 53.0667 232.671 51.9333 232.671 50.35C232.671 49.0667 233.088 48.0667 233.921 47.35C234.755 46.6333 235.946 46.275 237.496 46.275ZM241.071 52.175V48.575H237.721C236.221 48.575 235.471 49.175 235.471 50.375C235.471 51.575 236.221 52.175 237.721 52.175H241.071Z" fill="white"/>
<g clip-path="url(#clip0_630_922)">
<path d="M17 34C26.3888 34 34 26.3888 34 17C34 7.61116 26.3888 0 17 0C7.61116 0 0 7.61116 0 17C0 26.3888 7.61116 34 17 34Z" fill="white"/>
<path d="M51 25.5H17C12.3042 25.5 8.5 21.6958 8.5 17C8.5 12.3042 12.3042 8.5 17 8.5H51C55.6958 8.5 59.5 12.3042 59.5 17C59.5 21.6958 55.6958 25.5 51 25.5Z" fill="#202224"/>
<path d="M51 34C60.3888 34 68 26.3888 68 17C68 7.61116 60.3888 0 51 0C41.6112 0 34 7.61116 34 17C34 26.3888 41.6112 34 51 34Z" fill="white"/>
<path d="M42.5 51V17C42.5 12.3042 46.3042 8.5 51 8.5C55.6958 8.5 59.5 12.3042 59.5 17V51C59.5 55.6958 55.6958 59.5 51 59.5C46.3042 59.5 42.5 55.6958 42.5 51Z" fill="#202224"/>
<path d="M17 68C26.3888 68 34 60.3888 34 51C34 41.6112 26.3888 34 17 34C7.61116 34 0 41.6112 0 51C0 60.3888 7.61116 68 17 68Z" fill="white"/>
<path d="M51 68C60.3888 68 68 60.3888 68 51C68 41.6112 60.3888 34 51 34C41.6112 34 34 41.6112 34 51C34 60.3888 41.6112 68 51 68Z" fill="white"/>
<path d="M51 59.5H17C12.3042 59.5 8.5 55.6958 8.5 51C8.5 46.3042 12.3042 42.5 17 42.5H51C55.6958 42.5 59.5 46.3042 59.5 51C59.5 55.6958 55.6958 59.5 51 59.5Z" fill="#202224"/>
</g>
<defs>
<clipPath id="clip0_630_922">
<rect width="68" height="68" fill="white"/>
</clipPath>
</defs>
</svg>
