<svg width="77" height="70" viewBox="0 0 77 70" fill="none" xmlns="http://www.w3.org/2000/svg">
<path d="M24.1406 24.3668C25.416 23.0311 26.7727 21.6846 28.2 20.3381C39.6074 9.60394 51.1234 3.29322 53.9237 6.24579C56.724 9.19836 49.7449 20.2948 38.3375 31.029C34.0991 35.0198 29.8443 38.3996 26.0292 40.9142" fill="#1E1E1E"/>
<path d="M75.1433 34.1763C78.1118 38.1347 73.1787 48.0793 63.3071 57.375C53.4355 66.6708 42.7282 71.3484 39.3906 67.828" stroke="black" stroke-miterlimit="10" stroke-linejoin="round"/>
<path d="M75.1423 34.1763L60.4082 14.4763" stroke="black" stroke-miterlimit="10" stroke-linejoin="round"/>
<path d="M29.8712 59.9004L25.3506 56.1367" stroke="black" stroke-miterlimit="10" stroke-linejoin="round"/>
<path d="M56.7619 31C59.6548 31 62 28.7569 62 25.9898C62 23.3763 59.9079 21.2301 57.2381 21L52 28.0799C52.8282 29.8034 54.649 31 56.7619 31Z" fill="#1E1E1E"/>
<path d="M39.3905 67.828L38.2617 66.8871" stroke="black" stroke-miterlimit="10" stroke-linejoin="round"/>
<path d="M40.0909 26.4444L42 27.2593V27.5309L39.8182 29.7037L37.3636 31.8765L35.7273 33.5062L33.2727 35.679L25.9091 41.1111V53.8765V54.4198L25.6364 55.7778L24.8182 57.1358L23.7273 57.9506L22.3636 58.7654L21.2727 59.037H20.1818L19.0909 58.7654L18 58.2222L16.9091 57.679L16.3636 57.1358L16.0909 56.5926L15.5455 55.7778L15.2727 55.2346L15 53.8765V53.0617L14.4545 52.5185L13.9091 51.9753H13.0909H12.5455L12 52.2469L11.4545 52.7901L11.1818 53.3333V64.1975L10.9091 65.2839L10.3636 66.3704L9.81818 66.9136L8.72727 67.7284L7.90909 68H6.54545L5.45455 67.7284L4.63636 67.1852L3.81818 66.3704L3.27273 65.2839L3 63.6543V44.0988L5.18182 34.321L13.3636 27.8025L19.0909 24.2716L20.1818 24.5432L21.2727 24.8148L23.1818 24.5432L26.4545 24.2716L28.9091 24L31.0909 24.2716L33.2727 24.5432L35.4545 24.8148L37.9091 25.6296L40.0909 26.4444Z" fill="white"/>
<path d="M24.1406 24.3668C25.416 23.0311 26.7727 21.6846 28.2 20.3381C39.6074 9.60394 51.1234 3.29322 53.9237 6.24579C56.724 9.19836 49.7449 20.2948 38.3375 31.029C34.0991 35.0198 29.8443 38.3996 26.0292 40.9142" stroke="black" stroke-miterlimit="10" stroke-linejoin="round"/>
<path d="M19.0176 24.1992C21.0798 21.809 23.3917 19.3918 25.9206 17.0124C38.5654 5.11564 51.9482 -1.42219 56.6425 1.83321" stroke="black" stroke-miterlimit="10" stroke-linejoin="round"/>
<path d="M60.2138 14.4871C57.6957 20.9762 51.5795 29.4121 43.1623 37.3343C37.4043 42.7528 31.4618 47.0897 26.1543 49.972" stroke="black" stroke-miterlimit="10" stroke-linejoin="round"/>
<path d="M56.6426 1.77368C59.2746 3.5582 61.0275 6.72708 61.0275 10.3448C61.0275 11.9833 60.6694 13.5353 60.029 14.9034" stroke="black" stroke-miterlimit="10" stroke-linejoin="round"/>
<path d="M54.3794 52.903C55.4377 55.0498 54.8516 57.7049 52.8599 59.192C48.1602 62.7016 42.1254 65.6812 35.4231 67.8064C34.913 67.9686 34.392 68.0443 33.8819 68.0443C31.722 68.0443 29.7194 66.6654 29.0356 64.5077C28.1836 61.8364 29.6652 58.9865 32.3461 58.1375C37.9792 56.353 42.9612 53.9088 46.7654 51.0752C48.2524 49.9612 50.1573 49.7882 51.7582 50.4479" fill="#1E1E1E"/>
<path d="M54.3794 52.903C55.4377 55.0498 54.8516 57.7049 52.8599 59.192C48.1602 62.7016 42.1254 65.6812 35.4231 67.8064C34.913 67.9686 34.392 68.0443 33.8819 68.0443C31.722 68.0443 29.7194 66.6654 29.0356 64.5077C28.1836 61.8364 29.6652 58.9865 32.3461 58.1375C37.9792 56.353 42.9612 53.9088 46.7654 51.0752C48.2524 49.9612 50.1573 49.7882 51.7582 50.4479" stroke="black" stroke-miterlimit="10"/>
<path d="M50.0322 52.2162C53.4295 49.0635 56.029 45.4404 57.326 41.336C58.9216 36.2799 58.3789 31.3373 55.7956 27.4276C55.2747 26.6381 55.4917 25.5728 56.2895 25.0536C57.0818 24.5345 58.1509 24.7508 58.6719 25.5457C61.8358 30.3369 62.525 36.3069 60.6148 42.3689C59.1712 46.9546 56.3546 51.1725 52.534 54.5685" fill="white"/>
<path d="M50.0322 52.2162C53.4295 49.0635 56.029 45.4404 57.326 41.336C58.9216 36.2799 58.3789 31.3373 55.7956 27.4276C55.2747 26.6381 55.4917 25.5728 56.2895 25.0536C57.0818 24.5345 58.1509 24.7508 58.6719 25.5457C61.8358 30.3369 62.525 36.3069 60.6148 42.3689C59.1712 46.9546 56.3546 51.1725 52.534 54.5685" stroke="black" stroke-miterlimit="10"/>
<path d="M52.523 54.5685C51.9586 55.0552 51.0469 55.0336 50.3848 54.4928C49.6467 53.8926 49.4893 52.8759 50.0266 52.2162" fill="white"/>
<path d="M52.523 54.5685C51.9586 55.0552 51.0469 55.0336 50.3848 54.4928C49.6467 53.8926 49.4893 52.8759 50.0266 52.2162" stroke="black" stroke-miterlimit="10"/>
<path d="M22.8223 58.2782C24.5589 59.7545 26.6645 60.8468 29.0632 61.512" stroke="black" stroke-miterlimit="10"/>
<path d="M29.1389 65.0702C24.4663 64.0048 20.6295 61.6093 17.9648 58.1213" stroke="black" stroke-miterlimit="10"/>
<path d="M57.4947 31.0129C57.1962 31.0669 56.8869 31.094 56.5721 31.094C54.4556 31.094 52.6322 29.8502 51.791 28.0603" stroke="black" stroke-miterlimit="10"/>
<path d="M57.1094 20.6085C59.7686 20.8789 61.8417 23.1177 61.8417 25.8377C61.8417 27.1572 61.3532 28.3631 60.5501 29.2878" stroke="black" stroke-miterlimit="10"/>
<path d="M3.24089 44.0507C3.23004 44.294 3.22461 44.5428 3.22461 44.7861" stroke="black" stroke-miterlimit="10" stroke-linecap="round" stroke-linejoin="round"/>
<path d="M41.9358 27.3519C38.023 25.2807 33.3613 24.0748 28.363 24.0748C25.9535 24.0748 23.6199 24.356 21.4111 24.8752" stroke="black" stroke-miterlimit="10" stroke-linecap="round" stroke-linejoin="round"/>
<path d="M11.2515 53.6871V63.8913C11.2515 66.0976 9.45517 67.8876 7.24098 67.8876C5.02679 67.8876 3.23047 66.0976 3.23047 63.8913V44.7861" stroke="black" stroke-miterlimit="10" stroke-linecap="round" stroke-linejoin="round"/>
<path d="M26.0347 40.9192L26.1215 53.2923C26.1215 56.3314 23.6468 58.7972 20.5969 58.7972C17.5469 58.7972 15.0723 56.3314 15.0723 53.2923" stroke="black" stroke-miterlimit="10" stroke-linecap="round"/>
<path d="M11.2568 53.687C11.2568 52.638 12.1143 51.7836 13.1671 51.7836C14.2199 51.7836 15.0774 52.638 15.0774 53.687" stroke="black" stroke-miterlimit="10"/>
<path d="M5.35801 34.3602C5.01611 33.6518 4.82617 32.8622 4.82617 32.0295C4.82617 29.0444 7.25744 26.6218 10.2531 26.6218C11.5122 26.6218 12.6735 27.049 13.5961 27.7682" fill="white"/>
<path d="M5.35801 34.3602C5.01611 33.6518 4.82617 32.8622 4.82617 32.0295C4.82617 29.0444 7.25744 26.6218 10.2531 26.6218C11.5122 26.6218 12.6735 27.049 13.5961 27.7682" stroke="#020304" stroke-miterlimit="10" stroke-linecap="round" stroke-linejoin="round"/>
<path d="M13.5957 27.7629C14.3446 25.6647 16.3526 24.1614 18.7133 24.1614C18.8273 24.1614 18.9358 24.1668 19.0443 24.1722C19.9018 24.2263 20.705 24.475 21.4105 24.8752" fill="white"/>
<path d="M13.5957 27.7629C14.3446 25.6647 16.3526 24.1614 18.7133 24.1614C18.8273 24.1614 18.9358 24.1668 19.0443 24.1722C19.9018 24.2263 20.705 24.475 21.4105 24.8752" stroke="#020304" stroke-miterlimit="10" stroke-linecap="round" stroke-linejoin="round"/>
<path d="M3.24133 44.0506C1.88459 43.0665 1 41.4712 1 39.6705C1 37.0586 2.86144 34.8739 5.33612 34.371" fill="white"/>
<path d="M3.24133 44.0506C1.88459 43.0665 1 41.4712 1 39.6705C1 37.0586 2.86144 34.8739 5.33612 34.371" stroke="#020304" stroke-miterlimit="10" stroke-linecap="round" stroke-linejoin="round"/>
</svg>
