<svg width="62" height="90" viewBox="0 0 62 90" fill="none" xmlns="http://www.w3.org/2000/svg">
<g clip-path="url(#clip0_156_960)">
<path d="M11 20.5V24.5L21 68L20.5 70L21.5 72.5L23.5 75L26.5 76L28.5 74.5L42.5 68.5L44 71L47 75L51 77L55 76L58 72.5L59.5 68.5L60.5 63.5L59.5 59L57.5 55L56 49L55.5 42.5L56.5 38L58 31.5L60 26V22.5L59 17.5L46 4.5L38.5 2.5H33.5L28 3.5L23 5.5L18 8.5L14 13L12.5 16.5L11 20.5Z" fill="#1E1E1E"/>
<path d="M29.5237 89.3113V67.9887H21.0666C14.9411 67.9887 9.92622 63.0911 9.72617 56.9205L9.03636 35.8553H9.02946C5.01478 36.7527 1.54504 35.9944 0.662085 33.7891C-0.358832 31.236 2.45559 27.6602 7.04282 25.4966H7.03592L26.8472 17.4476H26.7782C28.3924 23.6044 34.2351 28.1611 41.1883 28.1611C41.9954 28.1611 42.7818 28.0985 43.5544 27.9802V36.2449L39.9053 41.5738C40.0571 38.4711 42.1817 36.0501 44.6581 36.1684C47.1345 36.2936 49.0177 38.9093 48.8728 42.0121C48.728 45.1148 46.5964 47.5358 44.12 47.4175C43.0715 47.3688 42.1334 46.8679 41.4022 46.0748L42.7335 47.0627V83.6832" fill="white"/>
<path d="M9.05681 36.057C5.04212 36.9545 1.57238 36.1962 0.689429 33.9909C-0.331488 31.4377 2.48293 27.8619 7.07016 25.6984" stroke="black" stroke-miterlimit="10" stroke-linecap="round" stroke-linejoin="round"/>
<path d="M26.8748 17.6494L7.06348 25.6984" stroke="black" stroke-miterlimit="10" stroke-linecap="round" stroke-linejoin="round"/>
<path d="M41.4227 46.2696C42.147 47.0627 43.092 47.5636 44.1405 47.6123C46.6169 47.7375 48.7484 45.3166 48.8933 42.2069C49.0381 39.0972 47.155 36.4814 44.6786 36.3632C42.2021 36.2379 40.0706 38.6589 39.9258 41.7686" stroke="black" stroke-miterlimit="10" stroke-linecap="round" stroke-linejoin="round"/>
<path d="M29.5449 89.513V68.1904H21.0878C14.9623 68.1904 9.94741 63.2928 9.74736 57.1222L9.06445 36.057" stroke="black" stroke-miterlimit="10" stroke-linecap="round" stroke-linejoin="round"/>
<path d="M42.7539 47.2644V83.885" stroke="black" stroke-miterlimit="10" stroke-linecap="round" stroke-linejoin="round"/>
<path d="M25.7578 33.8586V38.9301" stroke="black" stroke-miterlimit="10" stroke-linecap="round" stroke-linejoin="round"/>
<path d="M26.7988 17.6494C28.413 23.8062 34.2557 28.3629 41.2089 28.3629C42.016 28.3629 42.8024 28.3003 43.575 28.182V36.4397" stroke="black" stroke-miterlimit="10" stroke-linecap="round" stroke-linejoin="round"/>
<path d="M10.6787 23.5765C10.6787 11.9308 21.7294 2.49048 35.3601 2.49048C48.9907 2.49048 60.0414 11.9308 60.0414 23.5765C60.0414 26.401 59.393 29.0932 58.2134 31.5559" stroke="black" stroke-miterlimit="10" stroke-linecap="round" stroke-linejoin="round"/>
<path d="M59.0684 57.4422C57.068 53.3795 55.916 48.6419 55.916 43.5982C55.916 38.9302 56.8955 34.5335 58.627 30.6794" stroke="black" stroke-miterlimit="10" stroke-linecap="round" stroke-linejoin="round"/>
<path d="M58.8609 56.9969C59.8336 59.0283 60.3992 61.491 60.3992 64.1416C60.3992 71.1262 56.4466 76.789 51.5766 76.789C46.6996 76.789 42.7539 71.1262 42.7539 64.1416" stroke="black" stroke-miterlimit="10" stroke-linecap="round" stroke-linejoin="round"/>
<path d="M29.4479 74.0828C28.5236 75.189 27.3647 75.8499 26.1024 75.8499C23.2466 75.8499 20.9012 72.4689 20.7012 68.1835" stroke="black" stroke-miterlimit="10" stroke-linecap="round" stroke-linejoin="round"/>
<path d="M57.3366 10.5117L49.3555 12.6822" stroke="#010202" stroke-miterlimit="10"/>
<path d="M42.547 8.00724L49.3485 12.6822L47.6033 4.5358C47.5206 4.11143 47.355 3.68707 47.0998 3.30445C46.072 1.76699 44.0094 1.3635 42.4849 2.39311C40.9605 3.42967 40.5604 5.50975 41.5813 7.0472C41.8503 7.45069 42.1745 7.77071 42.547 8.00724Z" fill="white" stroke="#010202" stroke-miterlimit="10"/>
<path d="M47.6105 4.57758L49.3557 12.6892L53.6463 5.5724C53.8808 5.20369 54.0395 4.78629 54.1154 4.32714C54.4189 2.4975 53.1979 0.772218 51.3837 0.46612C49.5833 0.160021 47.8657 1.39137 47.5622 3.21405C47.4863 3.68016 47.507 4.14626 47.6105 4.57758Z" fill="white" stroke="#010202" stroke-miterlimit="10"/>
<path d="M56.5778 16.6128C56.971 16.8145 57.3297 17.0998 57.6332 17.4615C58.8059 18.8877 58.6059 21.0025 57.1918 22.1852C55.7776 23.3678 53.6806 23.1661 52.508 21.7399C52.2182 21.3851 52.0044 20.9817 51.8802 20.5642L49.3486 12.6335L49.3555 12.6752L53.6392 5.58627C53.86 5.19669 54.1566 4.84885 54.5291 4.56362C55.9984 3.45054 58.0816 3.74968 59.1853 5.23148C60.289 6.71327 59.9924 8.81422 58.5231 9.92731C58.1575 10.2056 57.7505 10.3934 57.3297 10.4978L57.2952 10.5047L49.3486 12.6752L56.6192 16.6337C56.9917 16.8493 57.4194 16.9954 57.8747 17.0441C59.6958 17.2598 61.3513 15.938 61.5582 14.1014C61.7721 12.2648 60.4614 10.5952 58.6404 10.3865C58.1713 10.3308 57.716 10.3795 57.2952 10.5047L49.3486 12.6752" fill="white"/>
<path d="M56.5778 16.6128C56.971 16.8145 57.3297 17.0998 57.6332 17.4615C58.8059 18.8877 58.6059 21.0025 57.1918 22.1852C55.7776 23.3678 53.6806 23.1661 52.508 21.7399C52.2182 21.3851 52.0044 20.9817 51.8802 20.5642L49.3486 12.6335L49.3555 12.6752L53.6392 5.58627C53.86 5.19669 54.1566 4.84885 54.5291 4.56362C55.9984 3.45054 58.0816 3.74968 59.1853 5.23148C60.289 6.71327 59.9924 8.81422 58.5231 9.92731C58.1575 10.2056 57.7505 10.3934 57.3297 10.4978L57.2952 10.5047L49.3486 12.6752L56.6192 16.6337C56.9917 16.8493 57.4194 16.9954 57.8747 17.0441C59.6958 17.2598 61.3513 15.938 61.5582 14.1014C61.7721 12.2648 60.4614 10.5952 58.6404 10.3865C58.1713 10.3308 57.716 10.3795 57.2952 10.5047L49.3486 12.6752" stroke="#010202" stroke-miterlimit="10"/>
<path d="M49.3485 15.6875C51.0172 15.6875 52.3699 14.3233 52.3699 12.6405C52.3699 10.9576 51.0172 9.59338 49.3485 9.59338C47.6799 9.59338 46.3271 10.9576 46.3271 12.6405C46.3271 14.3233 47.6799 15.6875 49.3485 15.6875Z" fill="white" stroke="#010202" stroke-miterlimit="10"/>
<path d="M20 51L32.8183 51.0967C32.8183 54.9629 29.9083 58.0967 26.3183 58.0967C24.0025 58.0967 21.9696 56.7927 20.8183 54.8291" stroke="black" stroke-miterlimit="10"/>
</g>
<defs>
<clipPath id="clip0_156_960">
<rect width="62" height="90" fill="white"/>
</clipPath>
</defs>
</svg>
