<svg width="79" height="52" viewBox="0 0 79 52" fill="none" xmlns="http://www.w3.org/2000/svg">
<path d="M73.2602 29.496C72.707 37.0788 70.4983 42.7428 67.8578 42.7428C64.8025 42.7428 62.3213 35.1517 62.3213 25.7884C62.3213 16.4252 64.7983 8.83411 67.8578 8.83411C70.3641 8.83411 72.4849 13.9409 73.1638 20.9414" fill="#1E1E1E"/>
<path d="M73.2602 29.496C72.707 37.0788 70.4983 42.7428 67.8578 42.7428C64.8025 42.7428 62.3213 35.1517 62.3213 25.7884C62.3213 16.4252 64.7983 8.83411 67.8578 8.83411C70.3641 8.83411 72.4849 13.9409 73.1638 20.9414" stroke="black" stroke-miterlimit="10" stroke-linejoin="round"/>
<path d="M73.2429 29.496C72.455 39.1693 68.6284 46.509 64.0307 46.509C58.863 46.509 54.6719 37.2338 54.6719 25.7884C54.6719 14.3431 58.863 5.06787 64.0307 5.06787C68.4608 5.06787 72.17 11.8798 73.1423 21.0293" stroke="black" stroke-miterlimit="10" stroke-linejoin="round"/>
<path d="M6.51557 20.9371H2.39566C1.62448 20.9371 1 22.8517 1 25.2187C1 27.5856 1.62448 29.5002 2.39566 29.5002H6.31858" fill="white"/>
<path d="M6.51557 20.9371H2.39566C1.62448 20.9371 1 22.8517 1 25.2187C1 27.5856 1.62448 29.5002 2.39566 29.5002H6.31858" stroke="black" stroke-miterlimit="10" stroke-linejoin="round"/>
<path d="M76.0553 20.9371H68.1046C67.3335 20.9371 66.709 22.8517 66.709 25.2187C66.709 27.5856 67.3335 29.5002 68.1046 29.5002H76.181" fill="white"/>
<path d="M76.0553 20.9371H68.1046C67.3335 20.9371 66.709 22.8517 66.709 25.2187C66.709 27.5856 67.3335 29.5002 68.1046 29.5002H76.181" stroke="black" stroke-miterlimit="10" stroke-linejoin="round"/>
<path d="M76.1808 29.496C76.9516 29.496 77.5765 27.5791 77.5765 25.2145C77.5765 22.8499 76.9516 20.933 76.1808 20.933C75.41 20.933 74.7852 22.8499 74.7852 25.2145C74.7852 27.5791 75.41 29.496 76.1808 29.496Z" fill="#1E1E1E" stroke="black" stroke-miterlimit="10" stroke-linejoin="round"/>
<path d="M57.4841 47.15C52.6475 47.15 48.7246 37.5857 48.7246 25.7927C48.7246 13.9996 52.6475 4.4353 57.4841 4.4353" stroke="black" stroke-miterlimit="10" stroke-linejoin="round"/>
<path d="M18.0118 5.75489C17.249 5.30663 16.4443 5.07202 15.6186 5.07202C10.4509 5.07202 6.25977 14.3473 6.25977 25.7926C6.25977 37.2379 10.4509 46.5132 15.6186 46.5132C16.2641 46.5132 16.8969 46.3665 17.5047 46.0942" stroke="black" stroke-miterlimit="10" stroke-linejoin="round"/>
<path d="M35.5901 20.9372C34.5716 9.56724 30.041 1 24.605 1C18.4189 1 13.4062 12.0976 13.4062 25.7884C13.4062 39.4793 18.4189 50.5769 24.605 50.5769C30.2379 50.5769 34.8985 41.377 35.6865 29.3955" fill="white"/>
<path d="M35.5901 20.9372C34.5716 9.56724 30.041 1 24.605 1C18.4189 1 13.4062 12.0976 13.4062 25.7884C13.4062 39.4793 18.4189 50.5769 24.605 50.5769C30.2379 50.5769 34.8985 41.377 35.6865 29.3955" stroke="black" stroke-miterlimit="10" stroke-linejoin="round"/>
<path d="M35.6066 20.9414C34.8187 11.4818 31.7843 4.43115 28.1547 4.43115C23.93 4.43115 20.5059 13.9955 20.5059 25.7885C20.5059 37.5816 23.93 47.1459 28.1547 47.1459C31.9184 47.1459 35.0492 39.5464 35.6862 29.538" fill="#1E1E1E"/>
<path d="M35.6066 20.9414C34.8187 11.4818 31.7843 4.43115 28.1547 4.43115C23.93 4.43115 20.5059 13.9955 20.5059 25.7885C20.5059 37.5815 23.93 47.1459 28.1547 47.1459C31.9184 47.1459 35.0492 39.5464 35.6862 29.538" stroke="black" stroke-miterlimit="10" stroke-linejoin="round"/>
<path d="M43.8461 20.9371H28.3556C27.5844 20.9371 26.96 22.8517 26.96 25.2187C26.96 27.5856 27.5844 29.5002 28.3556 29.5002H43.9719" fill="white"/>
<path d="M43.8461 20.9371H28.3556C27.5844 20.9371 26.96 22.8517 26.96 25.2187C26.96 27.5856 27.5844 29.5002 28.3556 29.5002H43.9719" stroke="black" stroke-miterlimit="10" stroke-linejoin="round"/>
<path d="M61.6414 45.8261C59.7931 48.8173 57.5131 50.5811 55.0445 50.5811C48.8583 50.5811 43.8457 39.4835 43.8457 25.7926C43.8457 12.1018 48.8583 1 55.0445 1C57.5089 1 59.7889 2.76372 61.6414 5.75492" stroke="black" stroke-miterlimit="10" stroke-linejoin="round"/>
</svg>
