<svg width="99" height="84" viewBox="0 0 99 84" fill="none" xmlns="http://www.w3.org/2000/svg">
<path d="M68.2326 23.2119L67.2818 23.7994C67.9139 23.2229 68.6998 22.9373 69.4857 23.0801C71.0576 23.3601 72.036 25.2326 71.6732 27.2644C71.3105 29.2961 69.7441 30.7183 68.1777 30.4383C67.1939 30.2626 66.4464 29.4664 66.1111 28.3956L68.0732 30.4163C66.4024 33.7385 65.4626 37.511 65.4626 41.5086L67.2433 45.1987L64.2534 47.8509L59.6312 50.5032L56.4269 52.0352L52.0135 53.1444V42.0247V40.4652H53.2667C45.5281 39.0924 40.8454 29.0545 42.802 18.0501C43.0603 16.6114 43.4176 15.2222 43.8573 13.9098L43.9122 13.8219C39.3065 10.8786 36.7948 6.67237 38.2512 4.11347C39.8011 1.37885 45.2808 1.54907 50.4966 4.49785" fill="white"/>
<path d="M67.238 45.2042L73.685 53.15L80.3243 59.344L86.8977 64.5058L89.8161 68.1904L93.0973 74.8347L94.246 82.5883L74.0917 82.7256V77.2399H70.03L67.7766 78.0086L66.3202 79.343H48.0675L42.1317 61.7766L39.9717 55.8406L38.7516 55.5661H30.2051L33.9699 51.1567L38.801 47.17L46.5231 43.3537L52.0082 42.0303V53.15L57.0097 51.8321L61.0219 49.9815L67.238 45.2042Z" fill="#1E1E1E"/>
<path d="M70.5692 23.5686C71.1518 23.1403 71.6904 22.6406 72.1686 22.0695C74.8177 18.9231 75.032 14.4862 73.0754 10.8565V10.862C73.1963 10.6917 73.2898 10.5105 73.3557 10.3183C74.1307 7.87475 69.6678 4.28351 63.3912 2.2902C57.1146 0.296893 51.3932 0.664804 50.6182 3.1029C49.8433 5.54648 51.8274 20.2904 58.104 22.2837" fill="white"/>
<path d="M82.8311 61.3701C89.6243 65.4007 94.2465 73.3904 94.2465 82.5881" stroke="black" stroke-miterlimit="10" stroke-linecap="round" stroke-linejoin="round"/>
<path d="M67.3154 45.2039C72.7511 52.8256 78.599 58.7122 83.584 61.8257" stroke="black" stroke-miterlimit="10" stroke-linecap="round" stroke-linejoin="round"/>
<path d="M67.2386 45.204C63.2264 49.3169 57.9336 52.1778 52.0088 53.1498V40.1576" stroke="black" stroke-miterlimit="10" stroke-linecap="round" stroke-linejoin="round"/>
<path d="M52.0082 42.0303C43.2584 43.3482 35.6517 48.1694 30.6777 55.017" stroke="black" stroke-miterlimit="10" stroke-linecap="round" stroke-linejoin="round"/>
<path d="M67.8262 40.1576H75.4768C78.9558 40.1576 81.7699 42.9746 81.7699 46.445V57.411" stroke="black" stroke-miterlimit="10" stroke-linecap="round" stroke-linejoin="round"/>
<path d="M34.415 46.4505C34.415 42.9746 37.2346 40.1631 40.7081 40.1631H46.523" stroke="black" stroke-miterlimit="10" stroke-linecap="round" stroke-linejoin="round"/>
<path d="M68.0677 30.4161C66.3969 33.7383 65.457 37.5108 65.457 41.5084" stroke="black" stroke-miterlimit="10" stroke-linecap="round" stroke-linejoin="round"/>
<path d="M66.1064 28.3955C66.4417 29.4663 67.1947 30.2626 68.173 30.4383C69.7449 30.7183 71.3113 29.2961 71.6685 27.2644C72.0258 25.2326 71.0475 23.3601 69.4811 23.0801C68.6951 22.9428 67.9092 23.2283 67.2771 23.7994" stroke="black" stroke-miterlimit="10" stroke-linecap="round" stroke-linejoin="round"/>
<path d="M43.8525 13.9097C43.4073 15.2276 43.05 16.6113 42.7972 18.05C40.8406 29.0544 45.5233 39.0923 53.2618 40.4651" stroke="black" stroke-miterlimit="10" stroke-linecap="round" stroke-linejoin="round"/>
<path d="M50.4911 4.49785C45.2808 1.54907 39.7957 1.37885 38.2457 4.11346C36.7948 6.67786 39.3065 10.8786 43.9068 13.8219" stroke="black" stroke-miterlimit="10" stroke-linecap="round" stroke-linejoin="round"/>
<path d="M50.343 26.748C49.8703 29.4003 51.6401 31.9372 54.3002 32.4095C56.9548 32.8817 59.494 31.1136 59.9667 28.4558" stroke="black" stroke-miterlimit="10" stroke-linecap="round" stroke-linejoin="round"/>
<path d="M65.5723 82.5882C65.5723 79.6339 67.9686 77.2397 70.9255 77.2397H74.0913V82.7255" fill="white"/>
<path d="M65.5723 82.5882C65.5723 79.6339 67.9686 77.2397 70.9255 77.2397H74.0913V82.7255" stroke="black" stroke-miterlimit="10" stroke-linecap="round" stroke-linejoin="round"/>
<path d="M66.6718 79.3428H48.0674" stroke="black" stroke-miterlimit="10" stroke-linecap="round" stroke-linejoin="round"/>
<path d="M61.0163 18.2972L60.5381 20.9989" stroke="black" stroke-miterlimit="10"/>
<path d="M73.0808 10.8566C73.2017 10.6864 73.2951 10.5052 73.3611 10.313C74.136 7.86938 69.6731 4.27814 63.3966 2.28483C57.12 0.291522 51.3985 0.659433 50.6236 3.09753C49.8486 5.54111 54.3115 9.13236 60.588 11.1257C62.8195 11.834 64.9795 12.2459 66.8756 12.3667" stroke="black" stroke-miterlimit="10" stroke-linecap="round" stroke-linejoin="round"/>
<path d="M66.87 12.3665C65.2157 15.7765 65.7433 19.9992 68.2331 23.2061" stroke="black" stroke-miterlimit="10" stroke-linecap="round" stroke-linejoin="round"/>
<path d="M70.5684 23.5687C71.1509 23.1404 71.6896 22.6407 72.1677 22.0696C74.8169 18.9231 75.0312 14.4863 73.0746 10.8566" stroke="black" stroke-miterlimit="10" stroke-linecap="round" stroke-linejoin="round"/>
<path d="M65 82.7998C65 78.4915 68.6568 75 73.169 75H78V83" fill="white"/>
<path d="M65 82.7998C65 78.4915 68.6568 75 73.169 75H78V83" stroke="black" stroke-miterlimit="10" stroke-linecap="round" stroke-linejoin="round"/>
<path d="M49.2604 82.7255L40.4281 56.7686C40.1862 56.0493 39.5102 55.566 38.7518 55.566H2.98293C1.76829 55.566 0.916386 56.7576 1.30661 57.9053L9.74867 82.72" stroke="black" stroke-miterlimit="10" stroke-linecap="round" stroke-linejoin="round"/>
<path d="M97 83L4 83" stroke="black" stroke-miterlimit="10" stroke-linecap="round" stroke-linejoin="round"/>
</svg>
