<svg width="86" height="86" viewBox="0 0 86 86" fill="none" xmlns="http://www.w3.org/2000/svg">
<g clip-path="url(#clip0_156_929)">
<path d="M85.6733 44.0264L44.403 67.9685C42.3143 69.1806 39.7361 69.1806 37.6475 67.975L6.55278 50.0542C5.16906 49.2527 5.16253 47.2586 6.54626 46.4571L30.2067 32.733" stroke="black" stroke-miterlimit="10" stroke-linecap="round"/>
<path d="M24.5806 82.6309V76.9744C24.5806 76.8702 24.5219 76.7659 24.4305 76.7138L10.8674 68.8938C10.665 68.7765 10.417 68.9199 10.417 69.1545V74.8109C10.417 74.9152 10.4757 75.0194 10.5671 75.0716L24.1303 82.8915C24.3326 83.0088 24.5806 82.8655 24.5806 82.6309Z" fill="#1E1E1E" stroke="black" stroke-miterlimit="10" stroke-linecap="round"/>
<path d="M85.6735 59.1906L77.5473 63.9086M60.1267 74.0159L53.9521 77.6L60.1267 74.0159Z" stroke="black" stroke-miterlimit="10"/>
<path d="M5.51562 47.8972V57.2812" stroke="black" stroke-miterlimit="10"/>
<path d="M5.51546 53.1757L1.17499 55.6911C0.633251 56.0039 0.352589 56.5382 0.333008 57.0856" stroke="black" stroke-miterlimit="10" stroke-linecap="round"/>
<path d="M5.52194 57.2812C5.45667 57.9068 5.73733 58.565 6.3574 58.9234L32.1587 73.9247C36.3556 76.3554 41.538 76.3554 45.7414 73.9247L51.1393 70.7967" stroke="black" stroke-miterlimit="10" stroke-linecap="round"/>
<path d="M24.5811 79.151L32.6876 83.8495C36.8845 86.2802 42.0669 86.2802 46.2703 83.8495L53.9526 79.3986" stroke="black" stroke-miterlimit="10" stroke-linecap="round"/>
<path d="M0.326172 64.1301C0.326172 64.6971 0.606834 65.2705 1.16816 65.5964L10.4235 70.953" stroke="black" stroke-miterlimit="10"/>
<path d="M53.9521 72.4259V79.3987" stroke="black" stroke-miterlimit="10" stroke-linecap="round"/>
<path d="M0.326172 56.799V64.28" stroke="black" stroke-miterlimit="10"/>
<path d="M51.1396 70.8032L53.9528 72.4258" stroke="black" stroke-miterlimit="10" stroke-linecap="round"/>
<path d="M12.3232 62.2859V53.3777" stroke="black" stroke-miterlimit="10" stroke-linecap="round"/>
<path d="M39.7891 68.7635V75.7364" stroke="black" stroke-miterlimit="10"/>
<path d="M28.7061 62.8203V71.7025" stroke="black" stroke-miterlimit="10"/>
<path d="M30.207 32.7265L37.7131 18.9764C38.4768 17.5753 39.6386 16.4349 41.0484 15.692L69.1864 0.892758C70.0414 0.44311 71.0009 0.254128 71.9604 0.345361L80.8959 1.19904" stroke="black" stroke-miterlimit="10" stroke-linecap="round"/>
<path d="M85.2628 8.61496L70.8838 0.325806" stroke="black" stroke-miterlimit="10" stroke-linecap="round"/>
<path d="M67.7961 54.3944L30.207 32.7266" stroke="black" stroke-miterlimit="10" stroke-linecap="round"/>
<path d="M64.7675 79.8678L57.3789 75.606" stroke="black" stroke-miterlimit="10" stroke-linecap="round"/>
<path d="M42.3014 18.051C41.5116 18.7027 40.8458 19.5042 40.3498 20.4166L33.751 32.5831L65.9488 51.1425L70.2892 36.1282C70.4459 35.5808 70.6939 35.066 71.0072 34.5968L42.3014 18.051Z" stroke="black" stroke-miterlimit="10" stroke-linecap="round" stroke-linejoin="round"/>
<path d="M70.7529 50.4192L74.1339 39.4778C74.6169 37.9138 75.6939 36.5909 77.1298 35.8024L85.6737 31.0974" stroke="black" stroke-miterlimit="10" stroke-linecap="round"/>
<path d="M70.7529 50.4192L85.6737 41.8237" stroke="black" stroke-miterlimit="10" stroke-linecap="round"/>
<path d="M60.1528 74.3352C59.9308 72.2043 60.0483 69.8453 60.564 67.4145C62.1957 59.6402 68.1549 54.2444 72.7368 55.2089" stroke="black" stroke-miterlimit="10"/>
<path d="M69.6564 79.542C67.4764 80.7998 65.4922 80.6434 64.0432 79.3531C62.7051 78.167 61.8305 76.0166 61.6934 73.1362C61.6804 72.8886 61.6739 72.6409 61.6739 72.3803C61.6673 69.1285 62.555 65.6681 63.991 62.7161C65.4269 59.7575 67.4046 57.3203 69.5846 56.0626C70.6746 55.437 71.7124 55.1568 72.6654 55.2024C73.6183 55.248 74.4733 55.6064 75.1978 56.2516C76.6468 57.5419 77.5541 59.9661 77.5606 63.2179C77.5606 63.446 77.5606 63.6675 77.5476 63.8956C77.4431 66.9454 76.5816 70.132 75.2435 72.882C73.8076 75.8471 71.8364 78.2843 69.6564 79.542Z" stroke="black" stroke-miterlimit="10"/>
<path d="M69.1928 74.1919C67.9331 74.9218 66.7843 74.8305 65.9423 74.0811C65.1069 73.3317 64.5782 71.9306 64.5782 70.0473C64.5717 68.164 65.0873 66.1634 65.9162 64.456C66.7517 62.7422 67.8939 61.3346 69.1536 60.6047C70.4133 59.8748 71.5621 59.9661 72.4041 60.7155C73.2395 61.4584 73.7682 62.866 73.7682 64.7493C73.7747 66.6326 73.2591 68.6332 72.4302 70.3406C71.5947 72.0544 70.4525 73.4685 69.1928 74.1919Z" fill="#1E1E1E" stroke="black" stroke-miterlimit="10"/>
</g>
<defs>
<clipPath id="clip0_156_929">
<rect width="86" height="86" fill="white"/>
</clipPath>
</defs>
</svg>
