<svg width="65" height="118" viewBox="0 0 65 118" fill="none" xmlns="http://www.w3.org/2000/svg">
<g clip-path="url(#clip0_156_881)">
<path d="M30.1939 104.057V82.2035H21.4988C15.202 82.2035 10.0386 77.1848 9.83552 70.8553L9.12786 49.2589H9.12131C4.99328 50.1744 1.42221 49.3972 0.517979 47.1381C-0.530408 44.5233 2.36576 40.8548 7.07695 38.6418H7.0704L27.4484 30.3892H27.3763C29.0341 36.6988 35.0427 41.3685 42.1979 41.3685C43.0235 41.3685 43.8426 41.3026 44.6354 41.1841V49.6541L40.8809 55.1141C41.0381 51.9329 43.2267 49.4499 45.7755 49.575C48.3244 49.7002 50.264 52.3808 50.1067 55.5686C49.9494 58.7563 47.7609 61.2328 45.212 61.1076C44.1374 61.0549 43.1677 60.5412 42.4207 59.7311L43.7836 60.7454V98.2872" fill="white"/>
<path d="M43.613 99.565C48.239 111.203 55.8594 119.08 60.6296 117.15C64.6528 115.524 65.367 107.455 62.7198 97.9843H62.7657C61.1866 92.6494 60.0726 86.4122 59.6205 79.7205C58.867 68.4975 60.1513 58.315 62.7788 51.3204V51.3006C65.0983 45.676 64.122 37.3114 59.686 29.5725C54.6669 20.8061 46.7516 15.5173 40.2385 15.9191L40.2319 15.8993C39.924 15.2802 39.5963 14.6611 39.2425 14.0486C33.0243 3.18779 22.3569 -2.34469 15.4179 1.6927C8.47889 5.7301 7.89572 17.8094 14.1205 28.6702C15.1493 30.4616 16.9577 33.2345 18.1896 34.7164L27.2712 30.5604H27.1991C28.8504 36.8569 34.8262 41.52 41.9421 41.52C42.7677 41.52 43.5736 41.4607 44.3665 41.3356V49.7858L43.5212 60.8508L43.5278 98.307" fill="white"/>
<path d="M9.1467 49.4631C5.01867 50.3785 1.4476 49.6014 0.54337 47.3423C-0.505017 44.7275 2.39115 41.0589 7.10234 38.8459" stroke="black" stroke-miterlimit="10" stroke-linecap="round" stroke-linejoin="round"/>
<path d="M27.4679 30.5933L7.08984 38.8459" stroke="black" stroke-miterlimit="10" stroke-linecap="round" stroke-linejoin="round"/>
<path d="M37.8471 44.2928L33.778 41.5924L33.1621 42.1259L36.4318 47.2039L38.0961 47.0854L37.7357 45.5903L39.1641 45.0634L37.8471 44.2928Z" fill="white"/>
<path d="M51.7441 60.9759L52.3208 62.1614C53.1333 62.8991 54.3848 62.8332 55.1186 62.0165C55.8525 61.1998 55.787 59.9418 54.9745 59.2042L53.7557 58.7102L53.3953 59.7245L52.5697 60.5544L51.7441 60.9759Z" fill="white"/>
<path d="M49.1367 59.27L52.3277 62.1614C53.1402 62.8991 54.3918 62.8332 55.1256 62.0165C55.8595 61.1998 55.794 59.9418 54.9815 59.2042L50.0737 54.7584" stroke="black" stroke-miterlimit="10" stroke-linecap="round" stroke-linejoin="round"/>
<path d="M50.4736 60.4687C51.2861 61.2064 52.5376 61.1405 53.2715 60.3238C54.0054 59.5071 53.9399 58.2491 53.1274 57.5115" stroke="black" stroke-miterlimit="10" stroke-linecap="round" stroke-linejoin="round"/>
<path d="M41.5554 52.4137L36.3659 47.7177L32.0806 41.217C31.9103 40.9601 32.2051 40.644 32.4738 40.8021L39.0131 44.7604L44.6482 49.8582" stroke="black" stroke-miterlimit="10" stroke-linecap="round" stroke-linejoin="round"/>
<path d="M39.5959 45.2807L37.5318 45.2412L38.2657 47.632L35.9658 47.0985" stroke="black" stroke-miterlimit="10" stroke-linecap="round" stroke-linejoin="round"/>
<path d="M33.9673 41.8756L33.0762 42.7187L32.3096 41.0194L33.9673 41.8756Z" fill="black"/>
<path d="M42.4402 59.9353C43.1872 60.7454 44.1569 61.2591 45.2315 61.3118C47.7804 61.4369 49.9689 58.9539 50.1262 55.7727C50.2835 52.5915 48.3439 49.9043 45.795 49.7792C43.2462 49.654 41.0576 52.1371 40.9004 55.3183" stroke="black" stroke-miterlimit="10" stroke-linecap="round" stroke-linejoin="round"/>
<path d="M30.22 104.261V82.4076H21.5184C15.2216 82.4076 10.0582 77.3889 9.85512 71.0595L9.14746 49.463" stroke="black" stroke-miterlimit="10" stroke-linecap="round" stroke-linejoin="round"/>
<path d="M33.1618 108.45L43.8553 99.8087L43.8029 98.4915L30.2197 104.261L33.1618 108.45Z" fill="#1E1E1E" stroke="black" stroke-miterlimit="10" stroke-linecap="round" stroke-linejoin="round"/>
<path d="M43.8027 60.9496V98.4914" stroke="black" stroke-miterlimit="10" stroke-linecap="round" stroke-linejoin="round"/>
<path d="M37.7809 59.2568C37.7809 63.5116 34.354 66.9562 30.1211 66.9562" stroke="black" stroke-miterlimit="10" stroke-linecap="round" stroke-linejoin="round"/>
<path d="M26.3213 47.204V52.4137" stroke="black" stroke-miterlimit="10" stroke-linecap="round" stroke-linejoin="round"/>
<path d="M17.665 33.6296C16.4266 32.1411 15.2733 30.4945 14.2381 28.6964C7.98705 17.8093 8.57677 5.70369 15.5485 1.65312C22.5203 -2.39745 33.2532 3.14821 39.5042 14.0288C39.858 14.6413 40.1922 15.267 40.5002 15.8861" stroke="black" stroke-miterlimit="10" stroke-linecap="round" stroke-linejoin="round"/>
<path d="M40.5068 15.9059C47.0593 15.4976 55.0139 20.7995 60.0658 29.5856C64.5214 37.3443 65.5043 45.7286 63.1717 51.3665" stroke="black" stroke-miterlimit="10" stroke-linecap="round" stroke-linejoin="round"/>
<path d="M63.1001 98.1687C65.7604 107.66 65.0396 115.748 60.9902 117.381C56.1938 119.311 48.5275 111.42 43.8818 99.756" stroke="black" stroke-miterlimit="10" stroke-linecap="round" stroke-linejoin="round"/>
<path d="M63.1455 98.1687C61.5598 92.8206 60.4394 86.5702 59.9872 79.8588C59.2337 68.6094 60.5245 58.4006 63.1717 51.3862" stroke="black" stroke-miterlimit="10" stroke-linecap="round" stroke-linejoin="round"/>
<path d="M27.3955 30.5933C29.0533 36.9029 35.0618 41.5726 42.2171 41.5726C43.0427 41.5726 43.8617 41.5067 44.6546 41.3882V49.8582" stroke="black" stroke-miterlimit="10" stroke-linecap="round" stroke-linejoin="round"/>
</g>
<defs>
<clipPath id="clip0_156_881">
<rect width="65" height="118" fill="white"/>
</clipPath>
</defs>
</svg>
