<svg width="368" height="69" viewBox="0 0 368 69" fill="none" xmlns="http://www.w3.org/2000/svg">
<path d="M330.488 35.1745C329.522 36.0533 328.458 36.9158 327.313 37.7294C320.342 42.6766 312.847 44.1249 310.588 40.9679C308.33 37.8108 312.143 31.2526 319.114 26.3054" stroke="#333333" stroke-width="2" stroke-miterlimit="10" stroke-linecap="round" stroke-linejoin="round"/>
<path d="M330.471 35.1744C332.271 33.5633 333.171 31.8383 332.828 30.2272C332.01 26.4355 324.564 24.8081 316.201 26.5819L307.201 28.4208" stroke="#333333" stroke-width="2" stroke-miterlimit="10" stroke-linecap="round" stroke-linejoin="round"/>
<path d="M319.114 26.2891L322.911 23.783" stroke="#333333" stroke-width="2" stroke-miterlimit="10" stroke-linecap="round" stroke-linejoin="round"/>
<path d="M346.165 21.3421C345.854 22.286 345.56 23.2461 345.298 24.2551C342.859 33.9541 344.643 42.7581 349.274 43.9135C353.349 44.9225 358.275 39.7312 361.073 31.8874L339 32.4998" stroke="#333333" stroke-width="2" stroke-miterlimit="10" stroke-linecap="round" stroke-linejoin="round"/>
<path d="M351.434 1C352.253 1.29292 353.055 1.60212 353.824 1.91132C361.695 5.10093 366.637 9.20186 365.934 12.603C365.148 16.411 357.489 18.2337 347.409 17.5176" stroke="#333333" stroke-width="2" stroke-miterlimit="10" stroke-linecap="round" stroke-linejoin="round"/>
<path d="M352.384 5.03583C349.683 11.0082 347.589 16.6389 346.247 21.1955" stroke="#333333" stroke-width="2" stroke-miterlimit="10" stroke-linecap="round" stroke-linejoin="round"/>
<path d="M279.577 25.6397C290.181 24.582 299.133 27.2834 299.575 31.661C300.017 36.0548 291.785 40.4649 281.181 41.5227L266.714 42.6293" stroke="#333333" stroke-width="2" stroke-miterlimit="10" stroke-linecap="round" stroke-linejoin="round"/>
<path d="M287.481 30.1315C280.428 34.0208 269.333 48.8298 259.743 68" stroke="#333333" stroke-width="2" stroke-miterlimit="10" stroke-linecap="round" stroke-linejoin="round"/>
<path d="M265.831 47.6888C246.21 47.6888 230.287 43.9296 230.287 39.2754C230.287 36.102 237.7 33.3518 248.648 31.9197" stroke="#333333" stroke-width="2" stroke-miterlimit="10" stroke-linecap="round" stroke-linejoin="round"/>
<path d="M248.615 31.9197C245.031 34.7839 240.875 37.7294 236.342 40.5935C234.525 41.7327 232.725 42.823 230.941 43.832" stroke="#333333" stroke-width="2" stroke-miterlimit="10" stroke-linecap="round" stroke-linejoin="round"/>
<path d="M42.0929 36.8018C40.5367 40.7261 38.9064 44.5278 37.1835 48.1932" stroke="#333333" stroke-width="2" stroke-miterlimit="10" stroke-linecap="round" stroke-linejoin="round"/>
<path d="M101.464 25.6133C99.7294 32.432 97.8147 38.9739 95.7855 45.1741" stroke="#333333" stroke-width="2" stroke-miterlimit="10" stroke-linecap="round" stroke-linejoin="round"/>
<path d="M114.212 24.7834C112.477 31.602 110.563 38.144 108.534 44.3442" stroke="#333333" stroke-width="2" stroke-miterlimit="10" stroke-linecap="round" stroke-linejoin="round"/>
<path d="M84.3302 40.5361C100.482 33.8802 115.014 31.9436 116.798 36.2236" stroke="#333333" stroke-width="2" stroke-miterlimit="10" stroke-linecap="round" stroke-linejoin="round"/>
<path d="M157.824 47.6725C138.186 47.6725 122.28 43.9133 122.28 39.2754C122.28 36.102 129.693 33.3518 140.641 31.9197" stroke="#333333" stroke-width="2" stroke-miterlimit="10" stroke-linecap="round" stroke-linejoin="round"/>
<path d="M140.625 31.9197C137.041 34.7839 132.884 37.7294 128.351 40.5935C126.535 41.7327 124.735 42.823 122.951 43.832" stroke="#333333" stroke-width="2" stroke-miterlimit="10" stroke-linecap="round" stroke-linejoin="round"/>
<path d="M85.312 44.3768C65.6908 44.3768 49.7679 40.6177 49.7679 35.9634C49.7679 32.7901 57.1811 30.0399 68.1291 28.6078" stroke="#333333" stroke-width="2" stroke-miterlimit="10" stroke-linecap="round" stroke-linejoin="round"/>
<path d="M68.0964 28.6241C64.5125 31.4882 60.3559 34.4337 55.8229 37.2979C54.0064 38.437 52.2063 39.5274 50.4225 40.5363" stroke="#333333" stroke-width="2" stroke-miterlimit="10" stroke-linecap="round" stroke-linejoin="round"/>
<path d="M179.245 25.4016C179.033 26.3617 178.787 27.3544 178.476 28.3471C175.563 37.9159 169.492 44.5555 164.91 43.1885C160.884 41.9843 159.346 35.003 160.999 26.8499L182.96 24.9785" stroke="#333333" stroke-width="2" stroke-miterlimit="10" stroke-linecap="round" stroke-linejoin="round"/>
<path d="M166.89 21.039C169.328 10.2822 174.254 2.24302 177.871 3.0567C181.487 3.87038 182.453 13.2439 180.014 24.0007" stroke="#333333" stroke-width="2" stroke-miterlimit="10" stroke-linecap="round" stroke-linejoin="round"/>
<path d="M42.7966 27.5825C41.9129 30.0724 40.6692 32.725 39.1146 35.4101C33.7469 44.6535 26.6283 50.5445 23.2081 48.5754C19.7879 46.6063 21.3589 37.5257 26.7265 28.2823C26.9883 27.8266 27.2502 27.3873 27.5284 26.9479" stroke="#333333" stroke-width="2" stroke-miterlimit="10" stroke-linecap="round" stroke-linejoin="round"/>
<path d="M27.5284 26.9642C26.3174 28.9007 24.9591 30.8698 23.4372 32.8389C14.9112 43.9049 4.94509 50.5608 1.18121 47.6967" stroke="#333333" stroke-width="2" stroke-miterlimit="10" stroke-linecap="round" stroke-linejoin="round"/>
<path d="M211.615 28.0869C209.88 34.9055 207.965 41.4475 205.936 47.6477" stroke="#333333" stroke-width="2" stroke-miterlimit="10" stroke-linecap="round" stroke-linejoin="round"/>
<path d="M188.393 20.1453L228.061 49.6817" stroke="#333333" stroke-width="2" stroke-miterlimit="10" stroke-linecap="round" stroke-linejoin="round"/>
<path d="M174.401 50.0237C175.972 52.4973 189.015 47.241 206.362 37.6233C207.393 37.0537 208.456 36.4516 209.52 35.8495" stroke="#333333" stroke-width="2" stroke-miterlimit="10" stroke-linecap="round" stroke-linejoin="round"/>
<path d="M209.504 35.8657L224.215 28.0869" stroke="#333333" stroke-width="2" stroke-miterlimit="10" stroke-linecap="round" stroke-linejoin="round"/>
</svg>
