<svg width="73" height="15" viewBox="0 0 73 15" fill="none" xmlns="http://www.w3.org/2000/svg">
<path d="M69.91 8.41997C69.32 8.95997 68.67 9.48997 67.97 9.98997C63.71 13.03 59.13 13.92 57.75 11.98C56.37 10.04 58.7 6.00997 62.96 2.96997" stroke="black" stroke-width="1.5" stroke-miterlimit="10" stroke-linecap="round" stroke-linejoin="round"/>
<path d="M69.91 8.41999C71.01 7.42999 71.56 6.36999 71.35 5.37999C70.85 3.04999 66.3 2.04999 61.19 3.13999L55.69 4.26999" stroke="black" stroke-width="1.5" stroke-miterlimit="10" stroke-linecap="round" stroke-linejoin="round"/>
<path d="M62.96 2.95998L65.29 1.41998" stroke="black" stroke-width="1.5" stroke-miterlimit="10" stroke-linecap="round" stroke-linejoin="round"/>
<path d="M4.47 1.20001C3.41 5.39001 2.25 9.41001 1 13.22" stroke="black" stroke-width="1.5" stroke-miterlimit="10" stroke-linecap="round" stroke-linejoin="round"/>
<path d="M3.66003 6.57001C11.6 11.6 18.85 14.37 19.87 12.76" stroke="black" stroke-width="1.5" stroke-miterlimit="10" stroke-linecap="round" stroke-linejoin="round"/>
<path d="M14.86 3.29001C14.1 1.99001 8.82999 3.61001 2.92999 6.92001" stroke="black" stroke-width="1.5" stroke-miterlimit="10" stroke-linecap="round" stroke-linejoin="round"/>
<path d="M26.97 1C25.91 5.19 24.74 9.21 23.5 13.02" stroke="black" stroke-width="1.5" stroke-miterlimit="10" stroke-linecap="round" stroke-linejoin="round"/>
<path d="M23.11 10.34C23.73 9.56998 24.37 8.82998 25.01 8.13998C29.97 2.77998 35.25 -0.0500191 37.43 1.70998C38.85 2.84998 38.65 5.67998 37.19 9.16998C36.68 10.39 36.02 11.69 35.21 13.02" stroke="black" stroke-width="1.5" stroke-miterlimit="10" stroke-linecap="round" stroke-linejoin="round"/>
<path d="M36.47 10.74C37.09 9.97 37.73 9.23001 38.37 8.54001C43.33 3.18001 48.61 0.350005 50.79 2.11001C52.21 3.25001 52.01 6.08 50.55 9.57C50.04 10.79 49.38 12.09 48.57 13.42" stroke="black" stroke-width="1.5" stroke-miterlimit="10" stroke-linecap="round" stroke-linejoin="round"/>
</svg>
