<svg width="100" height="100" viewBox="0 0 100 100" fill="none" xmlns="http://www.w3.org/2000/svg">
<path d="M0 43.28C0 7.63892 7.63892 0 43.28 0H56.72C92.3611 0 100 7.63892 100 43.28V56.72C100 92.3611 92.3611 100 56.72 100H43.28C7.63892 100 0 92.3611 0 56.72V43.28Z" fill="white"/>
<g clip-path="url(#clip0_643_7)">
<path d="M42.2779 74.882C43.4657 73.6974 41.4911 69.8073 37.8675 66.1934C34.2439 62.5794 30.3434 60.6101 29.1556 61.7947C27.9678 62.9794 29.9424 66.8694 33.566 70.4834C37.1896 74.0973 41.0901 76.0667 42.2779 74.882Z" fill="#333333" stroke="#333333" stroke-miterlimit="10" stroke-linecap="round"/>
<path d="M44.9537 77.5536C42.7718 79.7297 36.8751 77.3595 31.7652 72.2713C26.6553 67.1831 24.2869 61.2941 26.4688 59.1181" stroke="#333333" stroke-miterlimit="10" stroke-linecap="round"/>
<path d="M29.2021 56.4C31.384 54.2239 37.2807 56.5941 42.3906 61.6823C47.5005 66.7705 49.8689 72.6595 47.687 74.8355" stroke="#333333" stroke-miterlimit="10" stroke-linecap="round"/>
<path d="M63.1631 22.6594C65.6369 21.2438 70.7306 23.3309 75.0862 27.6667C79.2552 31.8247 81.3479 36.6702 80.2691 39.2345" stroke="#333333" stroke-miterlimit="10" stroke-linecap="round"/>
<path d="M63.1631 22.6514C50.4532 30.2554 38.8546 41.8635 29.4053 56.4082" stroke="#333333" stroke-miterlimit="10" stroke-linecap="round"/>
<path d="M29.2021 56.4001L26.4688 59.1181" stroke="#333333" stroke-miterlimit="10" stroke-linecap="round"/>
<path d="M47.6875 74.8355L44.9541 77.5535" stroke="#333333" stroke-miterlimit="10" stroke-linecap="round"/>
<path d="M80.2687 39.2265C72.1415 53.9329 60.9402 66.1882 47.7031 74.8114" stroke="#333333" stroke-miterlimit="10" stroke-linecap="round"/>
<path d="M79.1007 32.8843C71.0709 47.1701 60.121 59.1099 47.2246 67.5875" stroke="#333333" stroke-miterlimit="10" stroke-linecap="round"/>
<path d="M82.483 18.8898C80.8608 18.5824 79.1737 18.4287 77.4461 18.4287C72.0604 18.4287 67.1046 19.9818 63.2275 22.5785" stroke="#333333" stroke-miterlimit="10" stroke-linecap="round"/>
<path d="M80.3018 39.1536C83.6921 31.857 84.4221 24.3501 82.4755 18.8898" stroke="#333333" stroke-miterlimit="10" stroke-linecap="round"/>
<path d="M76.419 51.24C79.1045 47.3831 78.7132 42.4778 75.5452 40.2837C72.3771 38.0896 67.6319 39.4375 64.9464 43.2944C62.261 47.1512 62.6522 52.0565 65.8203 54.2506C68.9883 56.4447 73.7335 55.0968 76.419 51.24Z" fill="#EFF2F7" stroke="#333333" stroke-miterlimit="10"/>
<path d="M74.3624 49.5146C76.2302 46.832 76.1247 43.5356 74.1267 42.1519C72.1287 40.7682 68.9949 41.821 67.1271 44.5036C65.2593 47.1861 65.3648 50.4825 67.3628 51.8663C69.3607 53.25 72.4946 52.1971 74.3624 49.5146Z" stroke="#333333" stroke-miterlimit="10" stroke-linecap="round"/>
<path d="M72.9452 41.6371C74.0159 43.2711 73.8131 45.8759 72.2801 48.0681C70.7553 50.2603 68.3787 51.3685 66.4727 50.9398L67.0729 51.6274L67.9407 52.1774L69.1979 52.4687L70.9499 52.2017L72.8884 51.1097L74.3079 49.597L75.3217 47.6555L75.7029 45.5038L75.4596 43.9587L74.5755 42.5188L73.6022 41.8474L72.9452 41.6371Z" fill="#333333"/>
<path d="M34.1012 49.6617L21.3021 48.327C20.6938 44.0477 24.1491 40.27 28.4803 40.4884L41.0361 41.1841" stroke="#333333"/>
<path d="M55.6113 69.0355L57.2092 79.6325C61.5242 80.0451 65.1498 76.4292 64.7362 72.1257L63.7385 61.6014" stroke="#333333"/>
<path d="M28.6792 85.3455C27.6485 86.3735 25.3027 87.5811 22.8224 88.1591C21.5917 88.446 20.3613 88.5694 19.276 88.4514C18.1905 88.3333 17.2862 87.9787 16.6517 87.3441C16.0169 86.7093 15.6624 85.8064 15.5444 84.724C15.4265 83.6416 15.5499 82.4151 15.837 81.1884C16.4155 78.7163 17.6241 76.3792 18.6546 75.3514C19.6389 74.3698 21.0837 73.98 22.6708 74.1994C24.2579 74.4188 25.955 75.2473 27.3653 76.6538C28.7756 78.0604 29.608 79.7546 29.8298 81.339C30.0516 82.923 29.6628 84.3646 28.6792 85.3455Z" stroke="#333333"/>
</g>
<defs>
<clipPath id="clip0_643_7">
<rect width="69" height="71" fill="white" transform="translate(15 18)"/>
</clipPath>
</defs>
</svg>
