<svg width="381" height="452" viewBox="0 0 381 452" fill="none" xmlns="http://www.w3.org/2000/svg">
<g filter="url(#filter0_b_111_348)">
<rect width="375" height="413" rx="40" fill="#EFFA35"/>
</g>
<g filter="url(#filter1_b_111_348)">
<path d="M0 289C0 274.088 12.0883 262 27 262H348C362.912 262 375 274.088 375 289V462C375 484.091 357.091 502 335 502H40C17.9086 502 0 484.091 0 462V289Z" fill="white"/>
</g>
<path d="M20.04 302.208C21.96 302.208 22.84 301.264 23.48 299.792L27.608 290.4H25.096L22.488 297.088L19.576 290.4H17.08L21.32 299.456L21.144 299.728C20.824 300.224 20.488 300.352 19.864 300.352H18.68V302.208H20.04ZM31.4581 302.208C33.6501 302.208 35.6821 300.752 35.6821 297.984C35.6821 295.296 33.9061 293.904 31.8741 293.904C30.7061 293.904 29.5861 294.368 28.9461 295.392C29.2981 293.392 30.1141 292.848 31.7621 292.592L34.9301 292.128V290.352L31.6981 290.784C28.1781 291.248 27.2661 293.392 27.2181 296.512V297.12C27.2181 300.56 29.1381 302.208 31.4581 302.208ZM31.4581 300.48C30.3061 300.48 29.4261 299.584 29.4261 297.984C29.4261 296.288 30.3861 295.504 31.4741 295.504C32.5461 295.504 33.4421 296.304 33.4421 297.984C33.4421 299.648 32.6101 300.48 31.4581 300.48ZM40.9548 294.928C42.1708 294.928 43.0348 295.904 43.0348 297.712C43.0348 299.52 42.1708 300.48 40.9548 300.48C39.7388 300.48 38.8748 299.52 38.8748 297.712C38.8748 295.904 39.7388 294.928 40.9548 294.928ZM40.9548 302.208C43.1308 302.208 45.2748 300.72 45.2748 297.712C45.2748 294.688 43.1308 293.2 40.9548 293.2C38.7788 293.2 36.6348 294.688 36.6348 297.712C36.6348 300.72 38.7788 302.208 40.9548 302.208ZM50.9355 300.512C49.7195 300.512 48.9195 299.472 48.9195 297.696C48.9195 295.968 49.7195 294.896 50.9355 294.896C52.0875 294.896 52.9035 296.032 52.9035 297.712C52.9035 299.392 52.0875 300.512 50.9355 300.512ZM48.9995 304.8V300.912C49.5595 301.872 50.5675 302.208 51.4635 302.208C53.5115 302.208 55.2235 300.448 55.2235 297.696C55.2235 294.992 53.5595 293.2 51.4795 293.2C50.3915 293.2 49.4635 293.68 48.9995 294.496V293.392H46.7915V304.8H48.9995ZM58.9843 302V297.776H59.0003L62.1203 302H64.6643L61.2723 297.632L64.5203 293.392H62.0243L59.0003 297.568H58.9843V293.392H56.7603V302H58.9843ZM70.6649 298.704C70.6649 299.968 70.0889 300.704 68.6969 300.704C67.6889 300.704 67.2089 300.192 67.2089 299.568C67.2089 298.608 68.1849 298.32 70.6649 298.064V298.704ZM70.8569 300.928C70.9049 301.36 70.9369 301.728 71.0009 302H73.0329C72.8569 301.28 72.7769 300.512 72.7769 299.152C72.7769 298.384 72.8089 297.216 72.8089 296.96C72.8089 294.064 71.1289 293.168 69.0969 293.168C66.8729 293.168 65.4969 294.416 65.3209 296.112H67.3849C67.4329 295.152 68.1369 294.72 68.9849 294.72C69.8809 294.72 70.6009 295.184 70.6009 296.512V296.656C67.2089 297.04 64.9369 297.648 64.9369 299.68C64.9369 301.248 66.3929 302.208 68.0409 302.208C69.3369 302.208 70.2329 301.824 70.8569 300.928ZM80.5936 302V297.776H80.6096L83.7296 302H86.2736L82.8816 297.632L86.1296 293.392H83.6336L80.6096 297.568H80.5936V293.392H78.3696V302H80.5936ZM91.8954 302C93.8954 302 95.3514 301.264 95.3514 299.376C95.3514 298.288 94.7434 297.68 93.9114 297.408C94.6314 297.072 94.9994 296.48 94.9994 295.632C94.9994 293.84 93.5434 293.392 91.7034 293.392H87.4634V302H91.8954ZM89.6714 298.304H91.6554C92.6794 298.304 93.2074 298.592 93.2074 299.28C93.2074 299.936 92.6954 300.272 91.6714 300.272H89.6714V298.304ZM89.6714 295.12H91.5274C92.3754 295.12 92.8714 295.296 92.8714 295.952C92.8714 296.592 92.3754 296.864 91.5434 296.864H89.6714V295.12ZM102.227 298.704C102.227 299.968 101.651 300.704 100.259 300.704C99.2514 300.704 98.7714 300.192 98.7714 299.568C98.7714 298.608 99.7474 298.32 102.227 298.064V298.704ZM102.419 300.928C102.467 301.36 102.499 301.728 102.563 302H104.595C104.419 301.28 104.339 300.512 104.339 299.152C104.339 298.384 104.371 297.216 104.371 296.96C104.371 294.064 102.691 293.168 100.659 293.168C98.4354 293.168 97.0594 294.416 96.8834 296.112H98.9474C98.9954 295.152 99.6994 294.72 100.547 294.72C101.443 294.72 102.163 295.184 102.163 296.512V296.656C98.7714 297.04 96.4994 297.648 96.4994 299.68C96.4994 301.248 97.9554 302.208 99.6034 302.208C100.899 302.208 101.795 301.824 102.419 300.928ZM110.467 300.512C109.251 300.512 108.451 299.472 108.451 297.696C108.451 295.968 109.251 294.896 110.467 294.896C111.619 294.896 112.435 296.032 112.435 297.712C112.435 299.392 111.619 300.512 110.467 300.512ZM108.531 304.8V300.912C109.091 301.872 110.099 302.208 110.995 302.208C113.043 302.208 114.755 300.448 114.755 297.696C114.755 294.992 113.091 293.2 111.011 293.2C109.923 293.2 108.995 293.68 108.531 294.496V293.392H106.323V304.8H108.531ZM120.248 302V295.136H123.048V293.392H115.24V295.136H118.04V302H120.248ZM126.593 302L130.385 296.336V302H132.545V293.392H130.337L126.545 299.264V293.392H124.385V302H126.593ZM138.904 300.512C137.688 300.512 136.888 299.472 136.888 297.696C136.888 295.968 137.688 294.896 138.904 294.896C140.056 294.896 140.872 296.032 140.872 297.712C140.872 299.392 140.056 300.512 138.904 300.512ZM136.968 304.8V300.912C137.528 301.872 138.536 302.208 139.432 302.208C141.48 302.208 143.192 300.448 143.192 297.696C143.192 294.992 141.528 293.2 139.448 293.2C138.36 293.2 137.432 293.68 136.968 294.496V293.392H134.76V304.8H136.968ZM148.361 302C150.617 302 151.769 301.264 151.769 299.056C151.769 297.12 150.729 296.192 148.281 296.192H146.937V293.392H144.729V302H148.361ZM146.937 297.92H148.089C149.129 297.92 149.641 298.208 149.641 299.024C149.641 299.984 149.129 300.272 148.105 300.272H146.937V297.92ZM155.241 302V293.392H153.017V302H155.241Z" fill="#333333"/>
<path d="M243.92 352.48C237.56 352.48 233.44 356.44 233.56 362.28H238.32C238.32 357.76 240.96 356.12 243.72 356.12C246.6 356.12 248.4 357.72 248.4 360.56C248.4 365.36 242.6 370.56 232.92 378.08V382H254.04V377.84H238.84C247.6 371.76 253.36 366.16 253.36 360.16C253.36 355.2 249.28 352.48 243.92 352.48ZM266.248 382V353H262.728C261.248 356.16 259.208 356.52 255.008 356.64V359.92H261.488V382H266.248ZM283.906 359.2V371.08H274.786L283.906 359.2ZM293.786 371.08H288.666V353H283.946L269.586 371.24V375.2H283.906V382H288.666V375.2H293.786V371.08ZM305.99 378.84C302.15 378.84 300.39 376.48 299.95 373.12H295.35C295.67 378.12 299.19 382.52 305.91 382.52C311.67 382.52 316.63 379.08 316.63 372.6C316.63 366.08 312.03 362.68 307.07 362.68C304.47 362.68 302.47 363.36 301.07 364.48L301.99 357.2H315.43V353H298.07L296.15 369.12L300.63 369.36C301.23 367.64 303.15 366.32 305.87 366.32C308.75 366.32 311.71 368.36 311.71 372.68C311.71 376.56 309.19 378.84 305.99 378.84ZM327.451 371.12H331.651C339.011 371.12 344.171 368.92 344.171 362.04C344.171 354.84 339.011 353 331.651 353H322.371V366.92H319.011V371.12H322.371V374.08H319.011V377.28H322.371V382H327.451V377.28H336.331V374.08H327.451V371.12ZM327.451 366.92V357.24H331.851C335.771 357.24 338.931 358 338.931 362.04C338.931 366.12 335.771 366.92 331.851 366.92H327.451Z" fill="#333333"/>
<path d="M25.606 364V354.575H18.248V364H19.574V355.719H24.28V364H25.606ZM28.5936 360.529C28.5936 358.618 29.6076 357.929 30.6866 357.929C31.7656 357.929 32.7796 358.657 32.7796 360.529C32.7796 362.323 31.7656 363.129 30.6866 363.129C29.6076 363.129 28.5936 362.401 28.5936 360.529ZM30.6866 356.889C29.0616 356.889 27.3326 357.994 27.3326 360.529C27.3326 363.064 29.0616 364.169 30.6866 364.169C32.3116 364.169 34.0406 363.064 34.0406 360.529C34.0406 357.994 32.3116 356.889 30.6866 356.889ZM38.4561 356.889C36.3891 356.889 35.0761 358.436 35.0761 360.516C35.0761 362.648 36.3241 364.169 38.3391 364.169C39.9771 364.169 41.2121 363.038 41.4591 361.725H40.2371C40.0681 362.453 39.3791 363.129 38.3781 363.129C37.3381 363.129 36.3631 362.271 36.3631 360.503C36.3631 358.748 37.3381 357.929 38.3781 357.929C39.3011 357.929 40.0161 358.514 40.1851 359.346H41.3811C41.2121 358.15 40.1721 356.889 38.4561 356.889ZM48.3834 357.006H43.7164L43.6124 359.398C43.4694 362.297 42.8714 362.973 42.2474 362.973H42.1174V364H42.3384C43.9634 364 44.5744 362.544 44.7434 359.723L44.8474 358.033H47.2004V364H48.3834V357.006ZM56.4967 360.893C56.6397 358.67 55.3787 356.889 53.2337 356.889C51.3227 356.889 49.8407 358.293 49.8407 360.516C49.8407 362.583 51.0627 364.169 53.2727 364.169C54.9757 364.169 56.0937 363.168 56.4057 361.972H55.1837C54.8847 362.661 54.3127 363.129 53.2727 363.129C52.2457 363.129 51.1537 362.401 51.1147 360.893H56.4967ZM53.2337 357.903C54.4947 357.903 55.2097 358.891 55.2487 359.879H51.1277C51.2317 358.475 52.1937 357.903 53.2337 357.903ZM65.8351 364H67.0181V357.006H65.8351L62.2211 362.284V357.006H61.0381V364H62.2211L65.8351 358.722V364ZM71.8575 356.889C69.7905 356.889 68.4775 358.436 68.4775 360.516C68.4775 362.648 69.7255 364.169 71.7405 364.169C73.3785 364.169 74.6135 363.038 74.8605 361.725H73.6385C73.4695 362.453 72.7805 363.129 71.7795 363.129C70.7395 363.129 69.7645 362.271 69.7645 360.503C69.7645 358.748 70.7395 357.929 71.7795 357.929C72.7025 357.929 73.4175 358.514 73.5865 359.346H74.7825C74.6135 358.15 73.5735 356.889 71.8575 356.889ZM81.1923 358.033V357.006H75.2253V358.033H77.6173V364H78.8003V358.033H81.1923ZM88.2731 360.893C88.4161 358.67 87.1551 356.889 85.0101 356.889C83.0991 356.889 81.6171 358.293 81.6171 360.516C81.6171 362.583 82.8391 364.169 85.0491 364.169C86.7521 364.169 87.8701 363.168 88.1821 361.972H86.9601C86.6611 362.661 86.0891 363.129 85.0491 363.129C84.0221 363.129 82.9301 362.401 82.8911 360.893H88.2731ZM85.0101 357.903C86.2711 357.903 86.9861 358.891 87.0251 359.879H82.9041C83.0081 358.475 83.9701 357.903 85.0101 357.903ZM94.8775 364V357.006H93.6945V360.191C93.0445 360.347 92.4985 360.425 92.0435 360.425C91.0555 360.425 90.5615 360.074 90.5615 359.034V357.006H89.3785V359.281C89.3785 360.802 90.1455 361.452 91.6145 361.452C92.2515 361.452 92.8755 361.361 93.6945 361.166V364H94.8775ZM102.987 360.893C103.13 358.67 101.869 356.889 99.724 356.889C97.813 356.889 96.331 358.293 96.331 360.516C96.331 362.583 97.553 364.169 99.763 364.169C101.466 364.169 102.584 363.168 102.896 361.972H101.674C101.375 362.661 100.803 363.129 99.763 363.129C98.736 363.129 97.644 362.401 97.605 360.893H102.987ZM99.724 357.903C100.985 357.903 101.7 358.891 101.739 359.879H97.618C97.722 358.475 98.684 357.903 99.724 357.903ZM110.267 364V357.006H109.084V359.918H105.626V357.006H104.443V364H105.626V360.945H109.084V364H110.267ZM117.061 364H118.244V357.006H117.061L113.447 362.284V357.006H112.264V364H113.447L117.061 358.722V364ZM125.423 357.006H122.68C121.068 357.006 120.08 357.721 120.08 359.164C120.08 360.204 120.678 360.88 121.562 361.179L119.443 364H120.912L122.81 361.504C122.875 361.517 122.94 361.517 123.005 361.517H124.24V364H125.423V357.006ZM124.24 358.033V360.49H122.849C122.03 360.49 121.289 360.191 121.289 359.242C121.289 358.397 121.874 358.033 122.745 358.033H124.24ZM25.645 372.006H23.955L21.862 377.388L19.691 372.006H18.001V379H19.158V373.462L21.394 379H22.239L24.488 373.384V379H25.645V372.006ZM32.4464 379H33.6294V372.006H32.4464L28.8324 377.284V372.006H27.6494V379H28.8324L32.4464 373.722V379ZM41.4588 379V372.006H40.2758V374.918H36.8178V372.006H35.6348V379H36.8178V375.945H40.2758V379H41.4588ZM48.2521 379H49.4351V372.006H48.2521L44.6381 377.284V372.006H43.4551V379H44.6381L48.2521 373.722V379ZM59.0845 372.006H57.3945L55.3015 377.388L53.1305 372.006H51.4405V379H52.5975V373.462L54.8335 379H55.6785L57.9275 373.384V379H59.0845V372.006ZM65.4309 376.075C65.4309 377.726 64.3779 378.233 63.2729 378.233C62.4279 378.233 61.9209 377.791 61.9209 377.128C61.9209 376.166 63.2859 375.841 65.4309 375.633V376.075ZM63.0129 379.169C64.2609 379.169 64.9759 378.766 65.4049 378.038C65.4179 378.454 65.4569 378.74 65.4959 379H66.6919C66.5489 378.337 66.4969 377.544 66.5099 376.361L66.5229 374.749C66.5359 372.773 65.6779 371.863 63.7409 371.863C62.3889 371.863 61.0369 372.708 60.9329 374.216H62.1549C62.2069 373.345 62.7659 372.825 63.7539 372.825C64.6379 372.825 65.3399 373.241 65.3399 374.528V374.697C62.4799 375.009 60.6079 375.503 60.6079 377.154C60.6079 378.441 61.6999 379.169 63.0129 379.169ZM73.8756 372.006H69.2086L69.1046 374.398C68.9616 377.297 68.3636 377.973 67.7396 377.973H67.6096V379H67.8306C69.4556 379 70.0666 377.544 70.2356 374.723L70.3396 373.033H72.6926V379H73.8756V372.006ZM77.0619 374.476V372.006H75.8789V379H78.7129C80.3249 379 81.3389 378.415 81.3389 376.686C81.3389 375.191 80.5589 374.476 78.7259 374.476H77.0619ZM77.0619 377.973V375.503H78.5829C79.6359 375.503 80.1819 375.763 80.1819 376.686C80.1819 377.622 79.6489 377.973 78.6089 377.973H77.0619ZM88.4949 379V372.006H87.3119V374.918H83.8539V372.006H82.6709V379H83.8539V375.945H87.3119V379H88.4949ZM91.2322 375.529C91.2322 373.618 92.2462 372.929 93.3252 372.929C94.4042 372.929 95.4182 373.657 95.4182 375.529C95.4182 377.323 94.4042 378.129 93.3252 378.129C92.2462 378.129 91.2322 377.401 91.2322 375.529ZM93.3252 371.889C91.7002 371.889 89.9712 372.994 89.9712 375.529C89.9712 378.064 91.7002 379.169 93.3252 379.169C94.9502 379.169 96.6792 378.064 96.6792 375.529C96.6792 372.994 94.9502 371.889 93.3252 371.889ZM102.618 373.033V372.006H98.1592V379H99.3422V373.033H102.618ZM104.258 375.529C104.258 373.618 105.272 372.929 106.351 372.929C107.43 372.929 108.444 373.657 108.444 375.529C108.444 377.323 107.43 378.129 106.351 378.129C105.272 378.129 104.258 377.401 104.258 375.529ZM106.351 371.889C104.726 371.889 102.997 372.994 102.997 375.529C102.997 378.064 104.726 379.169 106.351 379.169C107.976 379.169 109.705 378.064 109.705 375.529C109.705 372.994 107.976 371.889 106.351 371.889ZM114.27 372.006V379H117.52C119.015 379 120.146 378.415 120.146 376.959C120.146 376.023 119.613 375.529 118.885 375.321C119.535 375.048 119.86 374.528 119.86 373.787C119.86 372.37 118.716 372.006 117.312 372.006H114.27ZM115.453 374.944V373.033H117.195C118.079 373.033 118.625 373.189 118.625 373.917C118.625 374.71 118.105 374.944 117.234 374.944H115.453ZM115.453 375.919H117.299C118.391 375.919 118.911 376.166 118.911 376.946C118.911 377.674 118.378 377.973 117.338 377.973H115.453V375.919ZM121.531 372.006V381.275H122.714V377.947C123.143 378.688 123.871 379.169 125.002 379.169C126.614 379.169 127.992 377.856 127.992 375.529C127.992 373.241 126.614 371.889 125.002 371.889C123.871 371.889 123.143 372.37 122.714 373.111V372.006H121.531ZM122.662 375.529C122.662 373.683 123.65 372.903 124.703 372.903C125.912 372.903 126.705 373.852 126.705 375.529C126.705 377.206 125.912 378.155 124.703 378.155C123.65 378.155 122.662 377.375 122.662 375.529ZM135.665 375.893C135.808 373.67 134.547 371.889 132.402 371.889C130.491 371.889 129.009 373.293 129.009 375.516C129.009 377.583 130.231 379.169 132.441 379.169C134.144 379.169 135.262 378.168 135.574 376.972H134.352C134.053 377.661 133.481 378.129 132.441 378.129C131.414 378.129 130.322 377.401 130.283 375.893H135.665ZM132.402 372.903C133.663 372.903 134.378 373.891 134.417 374.879H130.296C130.4 373.475 131.362 372.903 132.402 372.903ZM144.765 372.006H143.075L140.982 377.388L138.811 372.006H137.121V379H138.278V373.462L140.514 379H141.359L143.608 373.384V379H144.765V372.006ZM152.88 375.893C153.023 373.67 151.762 371.889 149.617 371.889C147.706 371.889 146.224 373.293 146.224 375.516C146.224 377.583 147.446 379.169 149.656 379.169C151.359 379.169 152.477 378.168 152.789 376.972H151.567C151.268 377.661 150.696 378.129 149.656 378.129C148.629 378.129 147.537 377.401 147.498 375.893H152.88ZM149.617 372.903C150.878 372.903 151.593 373.891 151.632 374.879H147.511C147.615 373.475 148.577 372.903 149.617 372.903ZM160.16 379V372.006H158.977V374.918H155.519V372.006H154.336V379H155.519V375.945H158.977V379H160.16ZM166.953 379H168.136V372.006H166.953L163.339 377.284V372.006H162.156V379H163.339L166.953 373.722V379ZM24.54 392.973H23.565V387.006H18.846L18.755 389.255C18.651 391.933 18.235 392.973 17.442 392.973H17.13V395.547H18.274V394H23.396V395.547H24.54V392.973ZM22.382 392.973H18.976C19.522 392.453 19.821 391.439 19.925 389.372L19.99 388.033H22.382V392.973ZM26.4734 390.529C26.4734 388.618 27.4874 387.929 28.5664 387.929C29.6454 387.929 30.6594 388.657 30.6594 390.529C30.6594 392.323 29.6454 393.129 28.5664 393.129C27.4874 393.129 26.4734 392.401 26.4734 390.529ZM28.5664 386.889C26.9414 386.889 25.2124 387.994 25.2124 390.529C25.2124 393.064 26.9414 394.169 28.5664 394.169C30.1914 394.169 31.9204 393.064 31.9204 390.529C31.9204 387.994 30.1914 386.889 28.5664 386.889ZM39.1594 387.006H33.4004V394H34.5834V388.033H37.9764V394H39.1594V387.006ZM41.8983 390.529C41.8983 388.618 42.9123 387.929 43.9913 387.929C45.0703 387.929 46.0843 388.657 46.0843 390.529C46.0843 392.323 45.0703 393.129 43.9913 393.129C42.9123 393.129 41.8983 392.401 41.8983 390.529ZM43.9913 386.889C42.3663 386.889 40.6373 387.994 40.6373 390.529C40.6373 393.064 42.3663 394.169 43.9913 394.169C45.6163 394.169 47.3453 393.064 47.3453 390.529C47.3453 387.994 45.6163 386.889 43.9913 386.889ZM54.2487 387.006H49.5817L49.4777 389.398C49.3347 392.297 48.7367 392.973 48.1127 392.973H47.9827V394H48.2037C49.8287 394 50.4397 392.544 50.6087 389.723L50.7127 388.033H53.0657V394H54.2487V387.006ZM62.076 394V387.006H60.893V389.918H57.435V387.006H56.252V394H57.435V390.945H60.893V394H62.076ZM68.8693 394H70.0523V387.006H68.8693L65.2553 392.284V387.006H64.0723V394H65.2553L68.8693 388.722V394ZM77.2186 388.033V387.006H71.2516V388.033H73.6436V394H74.8266V388.033H77.2186ZM84.2995 390.893C84.4425 388.67 83.1815 386.889 81.0365 386.889C79.1255 386.889 77.6435 388.293 77.6435 390.516C77.6435 392.583 78.8655 394.169 81.0755 394.169C82.7785 394.169 83.8965 393.168 84.2085 391.972H82.9865C82.6875 392.661 82.1155 393.129 81.0755 393.129C80.0485 393.129 78.9565 392.401 78.9175 390.893H84.2995ZM81.0365 387.903C82.2975 387.903 83.0125 388.891 83.0515 389.879H78.9305C79.0345 388.475 79.9965 387.903 81.0365 387.903ZM91.2809 387.006H86.6139L86.5099 389.398C86.3669 392.297 85.7689 392.973 85.1449 392.973H85.0149V394H85.2359C86.8609 394 87.4719 392.544 87.6409 389.723L87.7449 388.033H90.0979V394H91.2809V387.006ZM94.4672 389.476V387.006H93.2842V394H96.1182C97.7302 394 98.7442 393.415 98.7442 391.686C98.7442 390.191 97.9642 389.476 96.1312 389.476H94.4672ZM94.4672 392.973V390.503H95.9882C97.0412 390.503 97.5872 390.763 97.5872 391.686C97.5872 392.622 97.0542 392.973 96.0142 392.973H94.4672ZM105.9 394V387.006H104.717V389.918H101.259V387.006H100.076V394H101.259V390.945H104.717V394H105.9ZM108.638 390.529C108.638 388.618 109.652 387.929 110.731 387.929C111.81 387.929 112.824 388.657 112.824 390.529C112.824 392.323 111.81 393.129 110.731 393.129C109.652 393.129 108.638 392.401 108.638 390.529ZM110.731 386.889C109.106 386.889 107.377 387.994 107.377 390.529C107.377 393.064 109.106 394.169 110.731 394.169C112.356 394.169 114.085 393.064 114.085 390.529C114.085 387.994 112.356 386.889 110.731 386.889ZM121.776 390.893C121.919 388.67 120.658 386.889 118.513 386.889C116.602 386.889 115.12 388.293 115.12 390.516C115.12 392.583 116.342 394.169 118.552 394.169C120.255 394.169 121.373 393.168 121.685 391.972H120.463C120.164 392.661 119.592 393.129 118.552 393.129C117.525 393.129 116.433 392.401 116.394 390.893H121.776ZM118.513 387.903C119.774 387.903 120.489 388.891 120.528 389.879H116.407C116.511 388.475 117.473 387.903 118.513 387.903ZM126.317 387.006V394H129.567C131.062 394 132.193 393.415 132.193 391.959C132.193 391.023 131.66 390.529 130.932 390.321C131.582 390.048 131.907 389.528 131.907 388.787C131.907 387.37 130.763 387.006 129.359 387.006H126.317ZM127.5 389.944V388.033H129.242C130.126 388.033 130.672 388.189 130.672 388.917C130.672 389.71 130.152 389.944 129.281 389.944H127.5ZM127.5 390.919H129.346C130.438 390.919 130.958 391.166 130.958 391.946C130.958 392.674 130.425 392.973 129.385 392.973H127.5V390.919ZM139.026 387.006H137.7L135.984 389.411L134.281 387.006H132.864L135.282 390.399L132.708 394H134.06L135.945 391.335L137.843 394H139.26L136.647 390.347L139.026 387.006ZM140.884 390.529C140.884 388.618 141.898 387.929 142.977 387.929C144.056 387.929 145.07 388.657 145.07 390.529C145.07 392.323 144.056 393.129 142.977 393.129C141.898 393.129 140.884 392.401 140.884 390.529ZM142.977 386.889C141.352 386.889 139.623 387.994 139.623 390.529C139.623 393.064 141.352 394.169 142.977 394.169C144.602 394.169 146.331 393.064 146.331 390.529C146.331 387.994 144.602 386.889 142.977 386.889ZM154.223 392.973H153.248V387.006H148.529L148.438 389.255C148.334 391.933 147.918 392.973 147.125 392.973H146.813V395.547H147.957V394H153.079V395.547H154.223V392.973ZM152.065 392.973H148.659C149.205 392.453 149.504 391.439 149.608 389.372L149.673 388.033H152.065V392.973ZM160.212 394H161.395V387.006H160.212L156.598 392.284V387.006H155.415V394H156.598L160.212 388.722V394ZM168.561 388.033V387.006H162.594V388.033H164.986V394H166.169V388.033H168.561ZM18.001 402.006V409H21.251C22.746 409 23.877 408.415 23.877 406.959C23.877 406.023 23.344 405.529 22.616 405.321C23.266 405.048 23.591 404.528 23.591 403.787C23.591 402.37 22.447 402.006 21.043 402.006H18.001ZM19.184 404.944V403.033H20.926C21.81 403.033 22.356 403.189 22.356 403.917C22.356 404.71 21.836 404.944 20.965 404.944H19.184ZM19.184 405.919H21.03C22.122 405.919 22.642 406.166 22.642 406.946C22.642 407.674 22.109 407.973 21.069 407.973H19.184V405.919ZM33.4957 409V402.006H32.3127V405.191C31.6627 405.347 31.1167 405.425 30.6617 405.425C29.6737 405.425 29.1797 405.074 29.1797 404.034V402.006H27.9967V404.281C27.9967 405.802 28.7637 406.452 30.2327 406.452C30.8697 406.452 31.4937 406.361 32.3127 406.166V409H33.4957ZM41.6051 405.893C41.7481 403.67 40.4871 401.889 38.3421 401.889C36.4311 401.889 34.9491 403.293 34.9491 405.516C34.9491 407.583 36.1711 409.169 38.3811 409.169C40.0841 409.169 41.2021 408.168 41.5141 406.972H40.2921C39.9931 407.661 39.4211 408.129 38.3811 408.129C37.3541 408.129 36.2621 407.401 36.2231 405.893H41.6051ZM38.3421 402.903C39.6031 402.903 40.3181 403.891 40.3571 404.879H36.2361C36.3401 403.475 37.3021 402.903 38.3421 402.903ZM47.5595 409H49.0285L46.1165 405.308L48.7555 402.006H47.3515L45.1285 404.866H44.2575V402.006H43.0615V409H44.2575V405.893H45.1545L47.5595 409ZM53.2432 402.006V409H56.4932C57.9882 409 59.1192 408.415 59.1192 406.959C59.1192 406.023 58.5862 405.529 57.8582 405.321C58.5082 405.048 58.8332 404.528 58.8332 403.787C58.8332 402.37 57.6892 402.006 56.2852 402.006H53.2432ZM54.4262 404.944V403.033H56.1682C57.0522 403.033 57.5982 403.189 57.5982 403.917C57.5982 404.71 57.0782 404.944 56.2072 404.944H54.4262ZM54.4262 405.919H56.2722C57.3642 405.919 57.8842 406.166 57.8842 406.946C57.8842 407.674 57.3512 407.973 56.3112 407.973H54.4262V405.919ZM63.0269 409C64.6259 409 65.6529 408.415 65.6529 406.686C65.6529 405.191 64.8599 404.476 63.0399 404.476H61.6879V402.006H60.5049V409H63.0269ZM61.6879 405.503H62.8839C63.9759 405.503 64.4959 405.75 64.4959 406.686C64.4959 407.635 63.9629 407.973 62.9229 407.973H61.6879V405.503ZM67.9929 409V402.006H66.8099V409H67.9929ZM75.76 402.006H70.001V409H71.184V403.033H74.577V409H75.76V402.006ZM78.4988 405.529C78.4988 403.618 79.5128 402.929 80.5918 402.929C81.6708 402.929 82.6848 403.657 82.6848 405.529C82.6848 407.323 81.6708 408.129 80.5918 408.129C79.5128 408.129 78.4988 407.401 78.4988 405.529ZM80.5918 401.889C78.9668 401.889 77.2378 402.994 77.2378 405.529C77.2378 408.064 78.9668 409.169 80.5918 409.169C82.2168 409.169 83.9458 408.064 83.9458 405.529C83.9458 402.994 82.2168 401.889 80.5918 401.889ZM90.8492 402.006H86.1822L86.0782 404.398C85.9352 407.297 85.3372 407.973 84.7132 407.973H84.5832V409H84.8042C86.4292 409 87.0402 407.544 87.2092 404.723L87.3132 403.033H89.6662V409H90.8492V402.006ZM98.6766 409V402.006H97.4936V404.918H94.0356V402.006H92.8526V409H94.0356V405.945H97.4936V409H98.6766ZM106.783 405.893C106.926 403.67 105.665 401.889 103.52 401.889C101.609 401.889 100.127 403.293 100.127 405.516C100.127 407.583 101.349 409.169 103.559 409.169C105.262 409.169 106.38 408.168 106.692 406.972H105.47C105.171 407.661 104.599 408.129 103.559 408.129C102.532 408.129 101.44 407.401 101.401 405.893H106.783ZM103.52 402.903C104.781 402.903 105.496 403.891 105.535 404.879H101.414C101.518 403.475 102.48 402.903 103.52 402.903ZM114.063 409V402.006H112.88V404.918H109.422V402.006H108.239V409H109.422V405.945H112.88V409H114.063ZM121.884 409V402.006H120.701V404.918H117.243V402.006H116.06V409H117.243V405.945H120.701V409H121.884ZM124.621 405.529C124.621 403.618 125.635 402.929 126.714 402.929C127.793 402.929 128.807 403.657 128.807 405.529C128.807 407.323 127.793 408.129 126.714 408.129C125.635 408.129 124.621 407.401 124.621 405.529ZM126.714 401.889C125.089 401.889 123.36 402.994 123.36 405.529C123.36 408.064 125.089 409.169 126.714 409.169C128.339 409.169 130.068 408.064 130.068 405.529C130.068 402.994 128.339 401.889 126.714 401.889ZM135.734 399.575C135.682 399.991 135.357 400.368 134.59 400.368C133.823 400.368 133.511 399.991 133.459 399.575H132.536C132.601 400.355 133.147 401.148 134.577 401.148C136.059 401.148 136.553 400.355 136.657 399.575H135.734ZM136.345 409H137.528V402.006H136.345L132.731 407.284V402.006H131.548V409H132.731L136.345 403.722V409ZM18.001 417.006V426.275H19.184V422.947C19.613 423.688 20.341 424.169 21.472 424.169C23.084 424.169 24.462 422.856 24.462 420.529C24.462 418.241 23.084 416.889 21.472 416.889C20.341 416.889 19.613 417.37 19.184 418.111V417.006H18.001ZM19.132 420.529C19.132 418.683 20.12 417.903 21.173 417.903C22.382 417.903 23.175 418.852 23.175 420.529C23.175 422.206 22.382 423.155 21.173 423.155C20.12 423.155 19.132 422.375 19.132 420.529ZM30.2649 421.075C30.2649 422.726 29.2119 423.233 28.1069 423.233C27.2619 423.233 26.7549 422.791 26.7549 422.128C26.7549 421.166 28.1199 420.841 30.2649 420.633V421.075ZM27.8469 424.169C29.0949 424.169 29.8099 423.766 30.2389 423.038C30.2519 423.454 30.2909 423.74 30.3299 424H31.5259C31.3829 423.337 31.3309 422.544 31.3439 421.361L31.3569 419.749C31.3699 417.773 30.5119 416.863 28.5749 416.863C27.2229 416.863 25.8709 417.708 25.7669 419.216H26.9889C27.0409 418.345 27.5999 417.825 28.5879 417.825C29.4719 417.825 30.1739 418.241 30.1739 419.528V419.697C27.3139 420.009 25.4419 420.503 25.4419 422.154C25.4419 423.441 26.5339 424.169 27.8469 424.169ZM36.3306 417.409C35.2906 417.409 34.3546 417.864 33.8866 418.839C34.0556 417.097 34.8746 416.46 36.5776 416.083L38.8136 415.602V414.549L36.5126 415.004C33.7046 415.563 32.8726 417.032 32.8336 419.554V420.36C32.8336 422.908 34.3156 424.169 36.1226 424.169C37.8386 424.169 39.2816 422.973 39.2816 420.724C39.2816 418.514 37.9166 417.409 36.3306 417.409ZM36.1226 423.142C34.9396 423.142 34.1076 422.219 34.1076 420.737C34.1076 419.164 35.0696 418.436 36.1356 418.436C37.2146 418.436 38.0206 419.216 38.0206 420.75C38.0206 422.271 37.2666 423.142 36.1226 423.142ZM41.4158 420.529C41.4158 418.618 42.4298 417.929 43.5088 417.929C44.5878 417.929 45.6018 418.657 45.6018 420.529C45.6018 422.323 44.5878 423.129 43.5088 423.129C42.4298 423.129 41.4158 422.401 41.4158 420.529ZM43.5088 416.889C41.8838 416.889 40.1548 417.994 40.1548 420.529C40.1548 423.064 41.8838 424.169 43.5088 424.169C45.1338 424.169 46.8628 423.064 46.8628 420.529C46.8628 417.994 45.1338 416.889 43.5088 416.889ZM53.2753 418.033V417.006H47.3083V418.033H49.7003V424H50.8833V418.033H53.2753ZM56.9966 424C58.5956 424 59.6226 423.415 59.6226 421.686C59.6226 420.191 58.8296 419.476 57.0096 419.476H55.6576V417.006H54.4746V424H56.9966ZM55.6576 420.503H56.8536C57.9456 420.503 58.4656 420.75 58.4656 421.686C58.4656 422.635 57.9326 422.973 56.8926 422.973H55.6576V420.503ZM61.9626 424V417.006H60.7796V424H61.9626Z" fill="#999999"/>
<line x1="17" y1="332.5" x2="381" y2="332.5" stroke="#747476"/>
<rect x="17" y="137" width="337" height="56" rx="28" fill="#353535"/>
<rect x="17" y="198" width="337" height="56" rx="28" fill="#353535"/>
<path d="M124.178 164.192C124.178 161.472 125.682 160.016 127.49 160.016C129.298 160.016 130.802 161.472 130.802 164.192C130.802 166.928 129.298 168.384 127.49 168.384C125.682 168.384 124.178 166.928 124.178 164.192ZM133.17 164.192C133.17 160.592 130.946 158.192 127.49 158.192C124.034 158.192 121.81 160.592 121.81 164.192C121.81 167.792 124.034 170.208 127.49 170.208C130.946 170.208 133.17 167.792 133.17 164.192ZM143.75 172V168.352H142.422V161.392H140.214V168.256H137.062V161.392H134.854V170H141.702V172H143.75ZM152.914 166.304C152.994 163.264 151.346 161.2 148.69 161.2C146.146 161.2 144.37 163.104 144.37 165.664C144.37 168.144 145.986 170.208 148.754 170.208C151.106 170.208 152.354 168.784 152.818 167.504H150.546C150.098 168.256 149.426 168.496 148.738 168.496C147.682 168.496 146.69 167.776 146.562 166.304H152.914ZM148.674 162.816C149.602 162.816 150.626 163.328 150.674 164.784H146.594C146.77 163.328 147.842 162.816 148.674 162.816ZM156.656 170V166.464H160.24V170H162.448V161.392H160.24V164.72H156.656V161.392H154.448V170H156.656ZM166.859 170L170.651 164.336V170H172.811V161.392H170.603L166.811 167.264V161.392H164.651V170H166.859ZM179.17 170V163.136H181.97V161.392H174.162V163.136H176.962V170H179.17ZM187.371 170C189.627 170 190.747 169.264 190.747 167.056C190.747 165.12 189.723 164.192 187.291 164.192H185.515V161.392H183.307V170H187.371ZM185.515 165.92H187.083C188.107 165.92 188.619 166.208 188.619 167.024C188.619 167.936 188.123 168.272 187.099 168.272H185.515V165.92ZM200.045 168.512C198.829 168.512 198.029 167.472 198.029 165.696C198.029 163.968 198.829 162.896 200.045 162.896C201.197 162.896 202.013 164.032 202.013 165.712C202.013 167.392 201.197 168.512 200.045 168.512ZM198.109 172.8V168.912C198.669 169.872 199.677 170.208 200.573 170.208C202.621 170.208 204.333 168.448 204.333 165.696C204.333 162.992 202.669 161.2 200.589 161.2C199.501 161.2 198.573 161.68 198.109 162.496V161.392H195.901V172.8H198.109ZM211.056 166.704C211.056 167.968 210.48 168.704 209.088 168.704C208.08 168.704 207.6 168.192 207.6 167.568C207.6 166.608 208.576 166.32 211.056 166.064V166.704ZM211.248 168.928C211.296 169.36 211.328 169.728 211.392 170H213.424C213.248 169.28 213.168 168.512 213.168 167.152C213.168 166.384 213.2 165.216 213.2 164.96C213.2 162.064 211.52 161.168 209.488 161.168C207.264 161.168 205.888 162.416 205.712 164.112H207.776C207.824 163.152 208.528 162.72 209.376 162.72C210.272 162.72 210.992 163.184 210.992 164.512V164.656C207.6 165.04 205.328 165.648 205.328 167.68C205.328 169.248 206.784 170.208 208.432 170.208C209.728 170.208 210.624 169.824 211.248 168.928ZM218.771 170.208C220.963 170.208 222.995 168.752 222.995 165.984C222.995 163.296 221.219 161.904 219.187 161.904C218.019 161.904 216.899 162.368 216.259 163.392C216.611 161.392 217.427 160.848 219.075 160.592L222.243 160.128V158.352L219.011 158.784C215.491 159.248 214.579 161.392 214.531 164.512V165.12C214.531 168.56 216.451 170.208 218.771 170.208ZM218.771 168.48C217.619 168.48 216.739 167.584 216.739 165.984C216.739 164.288 217.699 163.504 218.787 163.504C219.859 163.504 220.755 164.304 220.755 165.984C220.755 167.648 219.923 168.48 218.771 168.48ZM228.267 162.928C229.483 162.928 230.347 163.904 230.347 165.712C230.347 167.52 229.483 168.48 228.267 168.48C227.051 168.48 226.187 167.52 226.187 165.712C226.187 163.904 227.051 162.928 228.267 162.928ZM228.267 170.208C230.443 170.208 232.587 168.72 232.587 165.712C232.587 162.688 230.443 161.2 228.267 161.2C226.091 161.2 223.947 162.688 223.947 165.712C223.947 168.72 226.091 170.208 228.267 170.208ZM238.061 170V163.136H240.861V161.392H233.053V163.136H235.853V170H238.061ZM242.982 172.8C245.126 172.8 245.558 172.416 246.582 169.744L249.734 161.392H247.494L245.494 167.6L243.542 161.392H241.126L244.422 169.968L244.326 170.208C243.942 171.12 243.622 171.104 242.886 171.104H242.054V172.8H242.982Z" fill="white"/>
<path d="M118.803 225.192C118.803 222.472 120.307 221.016 122.115 221.016C123.923 221.016 125.427 222.472 125.427 225.192C125.427 227.928 123.923 229.384 122.115 229.384C120.307 229.384 118.803 227.928 118.803 225.192ZM127.795 225.192C127.795 221.592 125.571 219.192 122.115 219.192C118.659 219.192 116.435 221.592 116.435 225.192C116.435 228.792 118.659 231.208 122.115 231.208C125.571 231.208 127.795 228.792 127.795 225.192ZM133.283 222.2C130.707 222.2 128.963 224.088 128.963 226.712C128.963 229.32 130.611 231.208 133.187 231.208C134.979 231.208 136.755 230.424 137.267 228.072H135.155C134.851 229.096 134.067 229.496 133.299 229.496C132.083 229.496 131.219 228.488 131.219 226.68C131.219 224.888 132.131 223.912 133.283 223.912C134.131 223.912 134.899 224.504 135.075 225.336H137.187C136.883 223.208 135.091 222.2 133.283 222.2ZM142.467 231V224.136H145.267V222.392H137.459V224.136H140.259V231H142.467ZM151.587 227.704C151.587 228.968 151.011 229.704 149.619 229.704C148.611 229.704 148.131 229.192 148.131 228.568C148.131 227.608 149.107 227.32 151.587 227.064V227.704ZM151.779 229.928C151.827 230.36 151.859 230.728 151.923 231H153.955C153.779 230.28 153.699 229.512 153.699 228.152C153.699 227.384 153.731 226.216 153.731 225.96C153.731 223.064 152.051 222.168 150.019 222.168C147.795 222.168 146.419 223.416 146.243 225.112H148.307C148.355 224.152 149.059 223.72 149.907 223.72C150.803 223.72 151.523 224.184 151.523 225.512V225.656C148.131 226.04 145.859 226.648 145.859 228.68C145.859 230.248 147.315 231.208 148.963 231.208C150.259 231.208 151.155 230.824 151.779 229.928ZM160.114 231C162.114 231 163.57 230.264 163.57 228.376C163.57 227.288 162.962 226.68 162.13 226.408C162.85 226.072 163.218 225.48 163.218 224.632C163.218 222.84 161.762 222.392 159.922 222.392H155.682V231H160.114ZM157.89 227.304H159.874C160.898 227.304 161.426 227.592 161.426 228.28C161.426 228.936 160.914 229.272 159.89 229.272H157.89V227.304ZM157.89 224.12H159.746C160.594 224.12 161.09 224.296 161.09 224.952C161.09 225.592 160.594 225.864 159.762 225.864H157.89V224.12ZM167.515 231L171.307 225.336V231H173.467V222.392H171.259L167.467 228.264V222.392H165.307V231H167.515ZM179.826 231V224.136H182.626V222.392H174.818V224.136H177.618V231H179.826ZM188.027 231C190.283 231 191.403 230.264 191.403 228.056C191.403 226.12 190.379 225.192 187.947 225.192H186.171V222.392H183.963V231H188.027ZM186.171 226.92H187.739C188.763 226.92 189.275 227.208 189.275 228.024C189.275 228.936 188.779 229.272 187.755 229.272H186.171V226.92ZM203.517 231V222.392H201.309V226.152C200.749 226.296 200.317 226.36 199.869 226.36C198.717 226.36 198.301 225.88 198.301 224.968V222.392H196.093V225.352C196.093 227.256 197.133 228.104 198.989 228.104C199.773 228.104 200.413 227.992 201.309 227.784V231H203.517ZM210.993 227.704C210.993 228.968 210.417 229.704 209.025 229.704C208.017 229.704 207.537 229.192 207.537 228.568C207.537 227.608 208.513 227.32 210.993 227.064V227.704ZM211.185 229.928C211.233 230.36 211.265 230.728 211.329 231H213.361C213.185 230.28 213.105 229.512 213.105 228.152C213.105 227.384 213.137 226.216 213.137 225.96C213.137 223.064 211.457 222.168 209.425 222.168C207.201 222.168 205.825 223.416 205.649 225.112H207.713C207.761 224.152 208.465 223.72 209.313 223.72C210.209 223.72 210.929 224.184 210.929 225.512V225.656C207.537 226.04 205.265 226.648 205.265 228.68C205.265 230.248 206.721 231.208 208.369 231.208C209.665 231.208 210.561 230.824 211.185 229.928ZM222.96 227.304C223.04 224.264 221.392 222.2 218.736 222.2C216.192 222.2 214.416 224.104 214.416 226.664C214.416 229.144 216.032 231.208 218.8 231.208C221.152 231.208 222.4 229.784 222.864 228.504H220.592C220.144 229.256 219.472 229.496 218.784 229.496C217.728 229.496 216.736 228.776 216.608 227.304H222.96ZM218.72 223.816C219.648 223.816 220.672 224.328 220.72 225.784H216.64C216.816 224.328 217.888 223.816 218.72 223.816ZM228.927 231C230.927 231 232.383 230.264 232.383 228.376C232.383 227.288 231.775 226.68 230.943 226.408C231.663 226.072 232.031 225.48 232.031 224.632C232.031 222.84 230.575 222.392 228.735 222.392H224.495V231H228.927ZM226.703 227.304H228.687C229.711 227.304 230.239 227.592 230.239 228.28C230.239 228.936 229.727 229.272 228.703 229.272H226.703V227.304ZM226.703 224.12H228.559C229.407 224.12 229.903 224.296 229.903 224.952C229.903 225.592 229.407 225.864 228.575 225.864H226.703V224.12ZM237.752 231C240.008 231 241.16 230.264 241.16 228.056C241.16 226.12 240.12 225.192 237.672 225.192H236.328V222.392H234.12V231H237.752ZM236.328 226.92H237.48C238.52 226.92 239.032 227.208 239.032 228.024C239.032 228.984 238.52 229.272 237.496 229.272H236.328V226.92ZM244.632 231V222.392H242.408V231H244.632ZM254.71 227.304C254.79 224.264 253.142 222.2 250.486 222.2C247.942 222.2 246.166 224.104 246.166 226.664C246.166 229.144 247.782 231.208 250.55 231.208C252.902 231.208 254.15 229.784 254.614 228.504H252.342C251.894 229.256 251.222 229.496 250.534 229.496C249.478 229.496 248.486 228.776 248.358 227.304H254.71ZM250.47 223.816C251.398 223.816 252.422 224.328 252.47 225.784H248.39C248.566 224.328 249.638 223.816 250.47 223.816Z" fill="white"/>
<line x1="172.5" y1="12.5" x2="208.5" y2="12.5" stroke="#353535" stroke-width="3" stroke-linecap="round"/>
<path d="M39.92 40H20.4V69H25.48V44.24H39.92V40ZM42.6913 58.28C42.6913 53.32 45.3313 50.88 48.3713 50.88C51.4113 50.88 54.0513 53.32 54.0513 58.28C54.0513 63.24 51.4113 65.64 48.3713 65.64C45.3313 65.64 42.6913 63.24 42.6913 58.28ZM48.3713 47C43.1313 47 37.7713 50.52 37.7713 58.28C37.7713 66.08 43.1313 69.52 48.3713 69.52C53.6113 69.52 58.9713 66.08 58.9713 58.28C58.9713 50.52 53.6113 47 48.3713 47ZM79.54 51.24V47.48H60.1V51.24H67.46V69H72.22V51.24H79.54ZM85.6991 58.28C85.6991 53.32 88.3391 50.88 91.3791 50.88C94.4191 50.88 97.0591 53.32 97.0591 58.28C97.0591 63.24 94.4191 65.64 91.3791 65.64C88.3391 65.64 85.6991 63.24 85.6991 58.28ZM91.3791 47C86.1391 47 80.7791 50.52 80.7791 58.28C80.7791 66.08 86.1391 69.52 91.3791 69.52C96.6191 69.52 101.979 66.08 101.979 58.28C101.979 50.52 96.6191 47 91.3791 47ZM106.091 47.48V69H116.731C121.571 69 125.171 67.16 125.171 62.56C125.171 59.72 123.571 58.24 121.451 57.6C123.331 56.76 124.291 55.24 124.291 53.04C124.291 48.6 120.691 47.48 116.211 47.48H106.091ZM110.851 56.28V51.2H115.811C118.171 51.2 119.571 51.8 119.571 53.68C119.571 55.6 118.211 56.28 115.851 56.28H110.851ZM110.851 59.72H116.131C119.011 59.72 120.411 60.36 120.411 62.4C120.411 64.32 119.011 65.28 116.171 65.28H110.851V59.72ZM132.769 58.28C132.769 53.32 135.409 50.88 138.449 50.88C141.489 50.88 144.129 53.32 144.129 58.28C144.129 63.24 141.489 65.64 138.449 65.64C135.409 65.64 132.769 63.24 132.769 58.28ZM138.449 47C133.209 47 127.849 50.52 127.849 58.28C127.849 66.08 133.209 69.52 138.449 69.52C143.689 69.52 149.049 66.08 149.049 58.28C149.049 50.52 143.689 47 138.449 47ZM156.681 60.48L157.481 47.96V40H152.681V47.96L153.561 60.48H156.681ZM157.801 69V63.56H152.361V69H157.801Z" fill="#333333"/>
<path d="M22.536 87.4V99H24.168V94.408H26.168C29 94.408 30.984 93.784 30.984 90.904C30.984 88.04 29 87.4 26.168 87.4H22.536ZM26.296 88.776C28.008 88.776 29.32 89.016 29.32 90.904C29.32 92.808 28.008 92.984 26.296 92.984H24.168V88.776H26.296ZM37.1541 95.4C37.1541 97.432 35.8581 98.056 34.4981 98.056C33.4581 98.056 32.8341 97.512 32.8341 96.696C32.8341 95.512 34.5141 95.112 37.1541 94.856V95.4ZM34.1781 99.208C35.7141 99.208 36.5941 98.712 37.1221 97.816C37.1381 98.328 37.1861 98.68 37.2341 99H38.7061C38.5301 98.184 38.4661 97.208 38.4821 95.752L38.4981 93.768C38.5141 91.336 37.4581 90.216 35.0741 90.216C33.4101 90.216 31.7461 91.256 31.6181 93.112H33.1221C33.1861 92.04 33.8741 91.4 35.0901 91.4C36.1781 91.4 37.0421 91.912 37.0421 93.496V93.704C33.5221 94.088 31.2181 94.696 31.2181 96.728C31.2181 98.312 32.5621 99.208 34.1781 99.208ZM44.6196 90.888C43.3396 90.888 42.1876 91.448 41.6116 92.648C41.8196 90.504 42.8276 89.72 44.9236 89.256L47.6756 88.664V87.368L44.8436 87.928C41.3876 88.616 40.3636 90.424 40.3156 93.528V94.52C40.3156 97.656 42.1396 99.208 44.3636 99.208C46.4756 99.208 48.2516 97.736 48.2516 94.968C48.2516 92.248 46.5716 90.888 44.6196 90.888ZM44.3636 97.944C42.9076 97.944 41.8836 96.808 41.8836 94.984C41.8836 93.048 43.0676 92.152 44.3796 92.152C45.7076 92.152 46.6996 93.112 46.6996 95C46.6996 96.872 45.7716 97.944 44.3636 97.944ZM50.8784 94.728C50.8784 92.376 52.1264 91.528 53.4544 91.528C54.7824 91.528 56.0304 92.424 56.0304 94.728C56.0304 96.936 54.7824 97.928 53.4544 97.928C52.1264 97.928 50.8784 97.032 50.8784 94.728ZM53.4544 90.248C51.4544 90.248 49.3264 91.608 49.3264 94.728C49.3264 97.848 51.4544 99.208 53.4544 99.208C55.4544 99.208 57.5824 97.848 57.5824 94.728C57.5824 91.608 55.4544 90.248 53.4544 90.248ZM65.4746 91.656V90.392H58.1306V91.656H61.0746V99H62.5306V91.656H65.4746ZM71.8416 95.4C71.8416 97.432 70.5456 98.056 69.1856 98.056C68.1456 98.056 67.5216 97.512 67.5216 96.696C67.5216 95.512 69.2016 95.112 71.8416 94.856V95.4ZM68.8656 99.208C70.4016 99.208 71.2816 98.712 71.8096 97.816C71.8256 98.328 71.8736 98.68 71.9216 99H73.3936C73.2176 98.184 73.1536 97.208 73.1696 95.752L73.1856 93.768C73.2016 91.336 72.1456 90.216 69.7616 90.216C68.0976 90.216 66.4336 91.256 66.3056 93.112H67.8096C67.8736 92.04 68.5616 91.4 69.7776 91.4C70.8656 91.4 71.7296 91.912 71.7296 93.496V93.704C68.2096 94.088 65.9056 94.696 65.9056 96.728C65.9056 98.312 67.2496 99.208 68.8656 99.208ZM83.84 94.488C84.608 94.12 85.2 93.512 85.2 92.632C85.2 91.016 83.632 90.2 81.936 90.2C80.128 90.2 78.736 91.176 78.432 93.048H79.936C80.128 91.88 80.944 91.48 82.016 91.48C82.96 91.48 83.696 91.848 83.696 92.664C83.696 93.56 83.088 94.008 82.08 94.008H80.784V95.208H82.16C83.376 95.208 84.032 95.608 84.032 96.616C84.032 97.432 83.264 97.992 82.048 97.992C80.816 97.992 80 97.48 79.76 96.376H78.288C78.592 98.344 80.112 99.208 81.952 99.208C83.872 99.208 85.584 98.408 85.584 96.552C85.584 95.4 84.752 94.744 83.84 94.488ZM92.6541 95.4C92.6541 97.432 91.3581 98.056 89.9981 98.056C88.9581 98.056 88.3341 97.512 88.3341 96.696C88.3341 95.512 90.0141 95.112 92.6541 94.856V95.4ZM89.6781 99.208C91.2141 99.208 92.0941 98.712 92.6221 97.816C92.6381 98.328 92.6861 98.68 92.7341 99H94.2061C94.0301 98.184 93.9661 97.208 93.9821 95.752L93.9981 93.768C94.0141 91.336 92.9581 90.216 90.5741 90.216C88.9101 90.216 87.2461 91.256 87.1181 93.112H88.6221C88.6861 92.04 89.3741 91.4 90.5901 91.4C91.6781 91.4 92.5421 91.912 92.5421 93.496V93.704C89.0221 94.088 86.7181 94.696 86.7181 96.728C86.7181 98.312 88.0621 99.208 89.6781 99.208ZM103.416 99V90.392H101.96V93.976H97.7036V90.392H96.2476V99H97.7036V95.24H101.96V99H103.416ZM112.241 90.392H108.865C106.881 90.392 105.665 91.272 105.665 93.048C105.665 94.328 106.401 95.16 107.489 95.528L104.881 99H106.689L109.025 95.928C109.105 95.944 109.185 95.944 109.265 95.944H110.785V99H112.241V90.392ZM110.785 91.656V94.68H109.073C108.065 94.68 107.153 94.312 107.153 93.144C107.153 92.104 107.873 91.656 108.945 91.656H110.785ZM121.501 90.392H115.757L115.629 93.336C115.453 96.904 114.717 97.736 113.949 97.736H113.789V99H114.061C116.061 99 116.813 97.208 117.021 93.736L117.149 91.656H120.045V99H121.501V90.392ZM129.31 95.4C129.31 97.432 128.014 98.056 126.654 98.056C125.614 98.056 124.99 97.512 124.99 96.696C124.99 95.512 126.67 95.112 129.31 94.856V95.4ZM126.334 99.208C127.87 99.208 128.75 98.712 129.278 97.816C129.294 98.328 129.342 98.68 129.39 99H130.862C130.686 98.184 130.622 97.208 130.638 95.752L130.654 93.768C130.67 91.336 129.614 90.216 127.23 90.216C125.566 90.216 123.902 91.256 123.774 93.112H125.278C125.342 92.04 126.03 91.4 127.246 91.4C128.334 91.4 129.198 91.912 129.198 93.496V93.704C125.678 94.088 123.374 94.696 123.374 96.728C123.374 98.312 124.718 99.208 126.334 99.208ZM140.301 97.992C138.685 97.992 137.917 97.112 137.677 95.64H136.173C136.381 97.512 137.629 99.208 140.301 99.208C142.461 99.208 144.429 97.832 144.429 95.176C144.429 92.616 142.653 91.176 140.621 91.176C139.661 91.176 138.749 91.464 138.125 92.056L138.525 88.76H143.997V87.4H137.341L136.589 93.64L138.045 93.72C138.301 93.144 139.085 92.44 140.285 92.44C141.549 92.44 142.893 93.272 142.893 95.192C142.893 96.984 141.693 97.992 140.301 97.992ZM152.468 91.112C152.468 92.696 151.46 93.848 149.94 93.848C148.452 93.848 147.412 92.696 147.412 91.112C147.412 89.528 148.452 88.408 149.956 88.408C151.492 88.408 152.468 89.512 152.468 91.112ZM149.796 97.992C148.596 97.992 147.828 97.352 147.636 96.312H146.052C146.308 97.784 147.364 99.208 149.636 99.208C152.964 99.208 154.164 96.056 154.164 92.792C154.164 89.208 152.836 87.192 149.94 87.192C147.46 87.192 145.86 89.032 145.86 91.176C145.86 93.528 147.444 95.128 149.588 95.128C151.124 95.128 152.132 94.424 152.66 93.512C152.58 96.2 151.588 97.992 149.796 97.992ZM169.39 90.392H167.31L164.734 97.016L162.062 90.392H159.982V99H161.406V92.184L164.158 99H165.198L167.966 92.088V99H169.39V90.392ZM177.761 99H179.217V90.392H177.761L173.313 96.888V90.392H171.857V99H173.313L177.761 92.504V99ZM188.853 99V90.392H187.397V93.976H183.141V90.392H181.685V99H183.141V95.24H187.397V99H188.853ZM190.798 101.8H191.55C193.486 101.8 193.902 101.224 194.542 99.368L197.614 90.392H196.094L193.966 97.032L191.774 90.392H190.158L193.262 99L193.198 99.176C192.814 100.52 192.35 100.584 191.39 100.584H190.798V101.8ZM205.272 91.656V90.392H197.928V91.656H200.872V99H202.328V91.656H205.272ZM204.962 99H205.746L204.898 101.224H205.826L206.802 99.128V97.16H204.962V99ZM22.232 109.392V118H26.232C28.072 118 29.464 117.28 29.464 115.488C29.464 114.336 28.808 113.728 27.912 113.472C28.712 113.136 29.112 112.496 29.112 111.584C29.112 109.84 27.704 109.392 25.976 109.392H22.232ZM23.688 113.008V110.656H25.832C26.92 110.656 27.592 110.848 27.592 111.744C27.592 112.72 26.952 113.008 25.88 113.008H23.688ZM23.688 114.208H25.96C27.304 114.208 27.944 114.512 27.944 115.472C27.944 116.368 27.288 116.736 26.008 116.736H23.688V114.208ZM34.2735 118C36.2415 118 37.5055 117.28 37.5055 115.152C37.5055 113.312 36.5295 112.432 34.2895 112.432H32.6255V109.392H31.1695V118H34.2735ZM32.6255 113.696H34.0975C35.4415 113.696 36.0815 114 36.0815 115.152C36.0815 116.32 35.4255 116.736 34.1455 116.736H32.6255V113.696ZM40.3855 118V109.392H38.9295V118H40.3855ZM49.945 109.392H42.857V118H44.313V110.656H48.489V118H49.945V109.392ZM53.3159 113.728C53.3159 111.376 54.5639 110.528 55.8919 110.528C57.2199 110.528 58.4679 111.424 58.4679 113.728C58.4679 115.936 57.2199 116.928 55.8919 116.928C54.5639 116.928 53.3159 116.032 53.3159 113.728ZM55.8919 109.248C53.8919 109.248 51.7639 110.608 51.7639 113.728C51.7639 116.848 53.8919 118.208 55.8919 118.208C57.8919 118.208 60.0199 116.848 60.0199 113.728C60.0199 110.608 57.8919 109.248 55.8919 109.248ZM68.5164 109.392H62.7724L62.6444 112.336C62.4684 115.904 61.7324 116.736 60.9644 116.736H60.8044V118H61.0764C63.0764 118 63.8284 116.208 64.0364 112.736L64.1644 110.656H67.0604V118H68.5164V109.392ZM78.15 118V109.392H76.694V112.976H72.438V109.392H70.982V118H72.438V114.24H76.694V118H78.15ZM86.511 118H87.967V109.392H86.511L82.063 115.888V109.392H80.607V118H82.063L86.511 111.504V118ZM97.2351 109.392H91.4911L91.3631 112.336C91.1871 115.904 90.4511 116.736 89.6831 116.736H89.5231V118H89.7951C91.7951 118 92.5471 116.208 92.7551 112.736L92.8831 110.656H95.7791V118H97.2351V109.392ZM102.346 118H104.01L104.906 115.488H110.234L111.146 118H112.906L108.538 106.4H106.65L102.346 118ZM107.546 108.048L109.722 114.096H105.402L107.546 108.048ZM121.016 109.392H115.272L115.144 112.336C114.968 115.904 114.232 116.736 113.464 116.736H113.304V118H113.576C115.576 118 116.328 116.208 116.536 112.736L116.664 110.656H119.56V118H121.016V109.392ZM131.002 114.176C131.178 111.44 129.626 109.248 126.986 109.248C124.634 109.248 122.81 110.976 122.81 113.712C122.81 116.256 124.314 118.208 127.034 118.208C129.13 118.208 130.506 116.976 130.89 115.504H129.386C129.018 116.352 128.314 116.928 127.034 116.928C125.77 116.928 124.426 116.032 124.378 114.176H131.002ZM126.986 110.496C128.538 110.496 129.418 111.712 129.466 112.928H124.394C124.522 111.2 125.706 110.496 126.986 110.496ZM138.331 118H140.139L136.555 113.456L139.803 109.392H138.075L135.339 112.912H134.267V109.392H132.795V118H134.267V114.176H135.371L138.331 118ZM144.704 109.248C142.16 109.248 140.544 111.152 140.544 113.712C140.544 116.336 142.08 118.208 144.56 118.208C146.576 118.208 148.096 116.816 148.4 115.2H146.896C146.688 116.096 145.84 116.928 144.608 116.928C143.328 116.928 142.128 115.872 142.128 113.696C142.128 111.536 143.328 110.528 144.608 110.528C145.744 110.528 146.624 111.248 146.832 112.272H148.304C148.096 110.8 146.816 109.248 144.704 109.248ZM155.467 114.4C155.467 116.432 154.171 117.056 152.811 117.056C151.771 117.056 151.147 116.512 151.147 115.696C151.147 114.512 152.827 114.112 155.467 113.856V114.4ZM152.491 118.208C154.027 118.208 154.907 117.712 155.435 116.816C155.451 117.328 155.499 117.68 155.547 118H157.019C156.843 117.184 156.779 116.208 156.795 114.752L156.811 112.768C156.827 110.336 155.771 109.216 153.387 109.216C151.723 109.216 150.059 110.256 149.931 112.112H151.435C151.499 111.04 152.187 110.4 153.403 110.4C154.491 110.4 155.355 110.912 155.355 112.496V112.704C151.835 113.088 149.531 113.696 149.531 115.728C149.531 117.312 150.875 118.208 152.491 118.208ZM166.228 118V109.392H164.772V112.976H160.516V109.392H159.06V118H160.516V114.24H164.772V118H166.228ZM176.733 116.736H175.533V109.392H169.725L169.613 112.16C169.485 115.456 168.973 116.736 167.997 116.736H167.613V119.904H169.021V118H175.325V119.904H176.733V116.736ZM174.077 116.736H169.885C170.557 116.096 170.925 114.848 171.053 112.304L171.133 110.656H174.077V116.736ZM178.201 109.392V120.8H179.657V116.704C180.185 117.616 181.081 118.208 182.473 118.208C184.457 118.208 186.153 116.592 186.153 113.728C186.153 110.912 184.457 109.248 182.473 109.248C181.081 109.248 180.185 109.84 179.657 110.752V109.392H178.201ZM179.593 113.728C179.593 111.456 180.809 110.496 182.105 110.496C183.593 110.496 184.569 111.664 184.569 113.728C184.569 115.792 183.593 116.96 182.105 116.96C180.809 116.96 179.593 116 179.593 113.728ZM199.284 106.4H192.052V118H193.684V107.808H199.284V106.4ZM198.876 120.8H199.628C201.564 120.8 201.98 120.224 202.62 118.368L205.692 109.392H204.172L202.044 116.032L199.852 109.392H198.236L201.34 118L201.276 118.176C200.892 119.52 200.428 119.584 199.468 119.584H198.876V120.8ZM210.588 109.888C209.308 109.888 208.156 110.448 207.58 111.648C207.788 109.504 208.796 108.72 210.892 108.256L213.644 107.664V106.368L210.812 106.928C207.356 107.616 206.332 109.424 206.284 112.528V113.52C206.284 116.656 208.108 118.208 210.332 118.208C212.444 118.208 214.22 116.736 214.22 113.968C214.22 111.248 212.54 109.888 210.588 109.888ZM210.332 116.944C208.876 116.944 207.852 115.808 207.852 113.984C207.852 112.048 209.036 111.152 210.348 111.152C211.676 111.152 212.668 112.112 212.668 114C212.668 115.872 211.74 116.944 210.332 116.944ZM221.839 118H223.295V109.392H221.839L217.391 115.888V109.392H215.935V118H217.391L221.839 111.504V118ZM232.931 118V109.392H231.475V112.976H227.219V109.392H225.763V118H227.219V114.24H231.475V118H232.931ZM235.196 118H235.98L235.132 120.224H236.06L237.036 118.128V116.16H235.196V118ZM248.643 118H250.451L246.867 113.456L250.115 109.392H248.387L245.651 112.912H244.579V109.392H243.107V118H244.579V114.176H245.683L248.643 118ZM258.641 109.392H252.897L252.769 112.336C252.593 115.904 251.857 116.736 251.089 116.736H250.929V118H251.201C253.201 118 253.953 116.208 254.161 112.736L254.289 110.656H257.185V118H258.641V109.392ZM267.011 118H268.467V109.392H267.011L262.563 115.888V109.392H261.107V118H262.563L267.011 111.504V118ZM278.103 118V109.392H276.647V112.976H272.391V109.392H270.935V118H272.391V114.24H276.647V118H278.103ZM286.464 118H287.92V109.392H286.464L282.016 115.888V109.392H280.56V118H282.016L286.464 111.504V118ZM297.556 118V109.392H296.1V112.976H291.844V109.392H290.388V118H291.844V114.24H296.1V118H297.556ZM305.501 110.656V109.392H300.013V118H301.469V110.656H305.501Z" fill="#333333"/>
<path d="M102.266 119.76H234.163V120.88H102.266V119.76Z" fill="#333333"/>
<path d="M237.066 280.192C234.586 280.192 232.986 281.712 233.034 284.016H234.538C234.586 282.096 235.786 281.408 237.034 281.408C238.426 281.408 239.21 282.208 239.21 283.424C239.21 285.488 236.81 287.664 232.714 290.688V292H241.066V290.64H234.698C237.946 288.288 240.746 285.92 240.746 283.232C240.746 281.264 239.21 280.192 237.066 280.192ZM249.912 286.192C249.912 289.44 248.792 290.992 246.952 290.992C245.112 290.992 243.992 289.44 243.992 286.192C243.992 282.976 245.112 281.408 246.952 281.408C248.76 281.408 249.912 282.976 249.912 286.192ZM251.464 286.192C251.464 282.528 250.04 280.192 246.952 280.192C243.864 280.192 242.44 282.528 242.44 286.192C242.44 289.856 243.864 292.208 246.952 292.208C250.04 292.208 251.464 289.856 251.464 286.192ZM260.49 286.192C260.49 289.44 259.37 290.992 257.53 290.992C255.69 290.992 254.57 289.44 254.57 286.192C254.57 282.976 255.69 281.408 257.53 281.408C259.338 281.408 260.49 282.976 260.49 286.192ZM262.042 286.192C262.042 282.528 260.618 280.192 257.53 280.192C254.442 280.192 253.018 282.528 253.018 286.192C253.018 289.856 254.442 292.208 257.53 292.208C260.618 292.208 262.042 289.856 262.042 286.192ZM271.068 286.192C271.068 289.44 269.948 290.992 268.108 290.992C266.268 290.992 265.148 289.44 265.148 286.192C265.148 282.976 266.268 281.408 268.108 281.408C269.916 281.408 271.068 282.976 271.068 286.192ZM272.62 286.192C272.62 282.528 271.196 280.192 268.108 280.192C265.02 280.192 263.596 282.528 263.596 286.192C263.596 289.856 265.02 292.208 268.108 292.208C271.196 292.208 272.62 289.856 272.62 286.192ZM276.814 287.44H278.622C281.502 287.44 283.518 286.64 283.518 283.92C283.518 281.104 281.502 280.4 278.622 280.4H275.182V286.032H273.726V287.44H275.182V288.672H273.726V289.872H275.182V292H276.814V289.872H280.51V288.672H276.814V287.44ZM276.814 286.032V281.808H278.702C280.446 281.808 281.854 282.16 281.854 283.92C281.854 285.68 280.446 286.032 278.702 286.032H276.814ZM285.331 292L289.907 280.4H288.435L283.875 292H285.331ZM294.418 290.992C292.77 290.992 291.954 290 291.778 288.576H290.274C290.45 290.512 291.65 292.208 294.402 292.208C296.626 292.208 298.594 291.072 298.594 288.736C298.594 287.504 298.114 286.384 296.386 285.824C297.602 285.328 298.274 284.336 298.274 283.136C298.274 281.008 296.514 280.192 294.514 280.192C292.082 280.192 290.626 281.616 290.45 283.664H291.954C292.082 282.336 292.93 281.408 294.482 281.408C295.714 281.408 296.738 282.064 296.738 283.296C296.738 284.656 295.682 285.216 293.65 285.216H293.458V286.544H293.698C295.554 286.544 297.042 287.088 297.042 288.752C297.042 290.208 295.954 290.992 294.418 290.992ZM307.537 286.192C307.537 289.44 306.417 290.992 304.577 290.992C302.737 290.992 301.617 289.44 301.617 286.192C301.617 282.976 302.737 281.408 304.577 281.408C306.385 281.408 307.537 282.976 307.537 286.192ZM309.089 286.192C309.089 282.528 307.665 280.192 304.577 280.192C301.489 280.192 300.065 282.528 300.065 286.192C300.065 289.856 301.489 292.208 304.577 292.208C307.665 292.208 309.089 289.856 309.089 286.192ZM324.312 283.392H322.232L319.656 290.016L316.984 283.392H314.904V292H316.328V285.184L319.08 292H320.12L322.888 285.088V292H324.312V283.392ZM332.683 292H334.139V283.392H332.683L328.235 289.888V283.392H326.779V292H328.235L332.683 285.504V292ZM343.775 292V283.392H342.319V286.976H338.063V283.392H336.607V292H338.063V288.24H342.319V292H343.775Z" fill="#333333"/>
<path d="M273.082 311V307.384H276.698V306.008H273.082V302.488H271.626V306.008H268.01V307.384H271.626V311H273.082ZM282.598 309.992C280.982 309.992 280.214 309.112 279.974 307.64H278.47C278.678 309.512 279.926 311.208 282.598 311.208C284.758 311.208 286.726 309.832 286.726 307.176C286.726 304.616 284.95 303.176 282.918 303.176C281.958 303.176 281.046 303.464 280.422 304.056L280.822 300.76H286.294V299.4H279.638L278.886 305.64L280.342 305.72C280.598 305.144 281.382 304.44 282.582 304.44C283.846 304.44 285.19 305.272 285.19 307.192C285.19 308.984 283.99 309.992 282.598 309.992ZM290.892 306.44H292.7C295.58 306.44 297.596 305.64 297.596 302.92C297.596 300.104 295.58 299.4 292.7 299.4H289.26V305.032H287.804V306.44H289.26V307.672H287.804V308.872H289.26V311H290.892V308.872H294.588V307.672H290.892V306.44ZM290.892 305.032V300.808H292.78C294.524 300.808 295.932 301.16 295.932 302.92C295.932 304.68 294.524 305.032 292.78 305.032H290.892ZM299.409 311L303.985 299.4H302.513L297.953 311H299.409ZM308.32 311V299.4H307.328C306.704 300.648 305.824 300.888 304.176 300.936V301.928H306.864V311H308.32ZM324.312 302.392H322.232L319.656 309.016L316.984 302.392H314.904V311H316.328V304.184L319.08 311H320.12L322.888 304.088V311H324.312V302.392ZM332.683 311H334.139V302.392H332.683L328.235 308.888V302.392H326.779V311H328.235L332.683 304.504V311ZM343.775 311V302.392H342.319V305.976H338.063V302.392H336.607V311H338.063V307.24H342.319V311H343.775Z" fill="#999999"/>
<defs>
<filter id="filter0_b_111_348" x="-42" y="-42" width="459" height="497" filterUnits="userSpaceOnUse" color-interpolation-filters="sRGB">
<feFlood flood-opacity="0" result="BackgroundImageFix"/>
<feGaussianBlur in="BackgroundImage" stdDeviation="21"/>
<feComposite in2="SourceAlpha" operator="in" result="effect1_backgroundBlur_111_348"/>
<feBlend mode="normal" in="SourceGraphic" in2="effect1_backgroundBlur_111_348" result="shape"/>
</filter>
<filter id="filter1_b_111_348" x="-42" y="220" width="459" height="324" filterUnits="userSpaceOnUse" color-interpolation-filters="sRGB">
<feFlood flood-opacity="0" result="BackgroundImageFix"/>
<feGaussianBlur in="BackgroundImage" stdDeviation="21"/>
<feComposite in2="SourceAlpha" operator="in" result="effect1_backgroundBlur_111_348"/>
<feBlend mode="normal" in="SourceGraphic" in2="effect1_backgroundBlur_111_348" result="shape"/>
</filter>
</defs>
</svg>
