<svg width="381" height="734" viewBox="0 0 381 734" fill="none" xmlns="http://www.w3.org/2000/svg">
<g filter="url(#filter0_b_130_713)">
<rect width="375" height="273" rx="40" fill="#333333"/>
</g>
<g filter="url(#filter1_b_130_713)">
<path d="M0 232C0 217.088 12.0883 205 27 205H348C362.912 205 375 217.088 375 232V694C375 716.091 357.091 734 335 734H40C17.9086 734 0 716.091 0 694V232Z" fill="white"/>
</g>
<path d="M20.04 245.208C21.96 245.208 22.84 244.264 23.48 242.792L27.608 233.4H25.096L22.488 240.088L19.576 233.4H17.08L21.32 242.456L21.144 242.728C20.824 243.224 20.488 243.352 19.864 243.352H18.68V245.208H20.04ZM31.4581 245.208C33.6501 245.208 35.6821 243.752 35.6821 240.984C35.6821 238.296 33.9061 236.904 31.8741 236.904C30.7061 236.904 29.5861 237.368 28.9461 238.392C29.2981 236.392 30.1141 235.848 31.7621 235.592L34.9301 235.128V233.352L31.6981 233.784C28.1781 234.248 27.2661 236.392 27.2181 239.512V240.12C27.2181 243.56 29.1381 245.208 31.4581 245.208ZM31.4581 243.48C30.3061 243.48 29.4261 242.584 29.4261 240.984C29.4261 239.288 30.3861 238.504 31.4741 238.504C32.5461 238.504 33.4421 239.304 33.4421 240.984C33.4421 242.648 32.6101 243.48 31.4581 243.48ZM40.9548 237.928C42.1708 237.928 43.0348 238.904 43.0348 240.712C43.0348 242.52 42.1708 243.48 40.9548 243.48C39.7388 243.48 38.8748 242.52 38.8748 240.712C38.8748 238.904 39.7388 237.928 40.9548 237.928ZM40.9548 245.208C43.1308 245.208 45.2748 243.72 45.2748 240.712C45.2748 237.688 43.1308 236.2 40.9548 236.2C38.7788 236.2 36.6348 237.688 36.6348 240.712C36.6348 243.72 38.7788 245.208 40.9548 245.208ZM50.9355 243.512C49.7195 243.512 48.9195 242.472 48.9195 240.696C48.9195 238.968 49.7195 237.896 50.9355 237.896C52.0875 237.896 52.9035 239.032 52.9035 240.712C52.9035 242.392 52.0875 243.512 50.9355 243.512ZM48.9995 247.8V243.912C49.5595 244.872 50.5675 245.208 51.4635 245.208C53.5115 245.208 55.2235 243.448 55.2235 240.696C55.2235 237.992 53.5595 236.2 51.4795 236.2C50.3915 236.2 49.4635 236.68 48.9995 237.496V236.392H46.7915V247.8H48.9995ZM58.9843 245V240.776H59.0003L62.1203 245H64.6643L61.2723 240.632L64.5203 236.392H62.0243L59.0003 240.568H58.9843V236.392H56.7603V245H58.9843ZM70.6649 241.704C70.6649 242.968 70.0889 243.704 68.6969 243.704C67.6889 243.704 67.2089 243.192 67.2089 242.568C67.2089 241.608 68.1849 241.32 70.6649 241.064V241.704ZM70.8569 243.928C70.9049 244.36 70.9369 244.728 71.0009 245H73.0329C72.8569 244.28 72.7769 243.512 72.7769 242.152C72.7769 241.384 72.8089 240.216 72.8089 239.96C72.8089 237.064 71.1289 236.168 69.0969 236.168C66.8729 236.168 65.4969 237.416 65.3209 239.112H67.3849C67.4329 238.152 68.1369 237.72 68.9849 237.72C69.8809 237.72 70.6009 238.184 70.6009 239.512V239.656C67.2089 240.04 64.9369 240.648 64.9369 242.68C64.9369 244.248 66.3929 245.208 68.0409 245.208C69.3369 245.208 70.2329 244.824 70.8569 243.928ZM80.5936 245V240.776H80.6096L83.7296 245H86.2736L82.8816 240.632L86.1296 236.392H83.6336L80.6096 240.568H80.5936V236.392H78.3696V245H80.5936ZM91.8954 245C93.8954 245 95.3514 244.264 95.3514 242.376C95.3514 241.288 94.7434 240.68 93.9114 240.408C94.6314 240.072 94.9994 239.48 94.9994 238.632C94.9994 236.84 93.5434 236.392 91.7034 236.392H87.4634V245H91.8954ZM89.6714 241.304H91.6554C92.6794 241.304 93.2074 241.592 93.2074 242.28C93.2074 242.936 92.6954 243.272 91.6714 243.272H89.6714V241.304ZM89.6714 238.12H91.5274C92.3754 238.12 92.8714 238.296 92.8714 238.952C92.8714 239.592 92.3754 239.864 91.5434 239.864H89.6714V238.12ZM102.227 241.704C102.227 242.968 101.651 243.704 100.259 243.704C99.2514 243.704 98.7714 243.192 98.7714 242.568C98.7714 241.608 99.7474 241.32 102.227 241.064V241.704ZM102.419 243.928C102.467 244.36 102.499 244.728 102.563 245H104.595C104.419 244.28 104.339 243.512 104.339 242.152C104.339 241.384 104.371 240.216 104.371 239.96C104.371 237.064 102.691 236.168 100.659 236.168C98.4354 236.168 97.0594 237.416 96.8834 239.112H98.9474C98.9954 238.152 99.6994 237.72 100.547 237.72C101.443 237.72 102.163 238.184 102.163 239.512V239.656C98.7714 240.04 96.4994 240.648 96.4994 242.68C96.4994 244.248 97.9554 245.208 99.6034 245.208C100.899 245.208 101.795 244.824 102.419 243.928ZM110.467 243.512C109.251 243.512 108.451 242.472 108.451 240.696C108.451 238.968 109.251 237.896 110.467 237.896C111.619 237.896 112.435 239.032 112.435 240.712C112.435 242.392 111.619 243.512 110.467 243.512ZM108.531 247.8V243.912C109.091 244.872 110.099 245.208 110.995 245.208C113.043 245.208 114.755 243.448 114.755 240.696C114.755 237.992 113.091 236.2 111.011 236.2C109.923 236.2 108.995 236.68 108.531 237.496V236.392H106.323V247.8H108.531ZM120.248 245V238.136H123.048V236.392H115.24V238.136H118.04V245H120.248ZM126.593 245L130.385 239.336V245H132.545V236.392H130.337L126.545 242.264V236.392H124.385V245H126.593ZM138.904 243.512C137.688 243.512 136.888 242.472 136.888 240.696C136.888 238.968 137.688 237.896 138.904 237.896C140.056 237.896 140.872 239.032 140.872 240.712C140.872 242.392 140.056 243.512 138.904 243.512ZM136.968 247.8V243.912C137.528 244.872 138.536 245.208 139.432 245.208C141.48 245.208 143.192 243.448 143.192 240.696C143.192 237.992 141.528 236.2 139.448 236.2C138.36 236.2 137.432 236.68 136.968 237.496V236.392H134.76V247.8H136.968ZM148.361 245C150.617 245 151.769 244.264 151.769 242.056C151.769 240.12 150.729 239.192 148.281 239.192H146.937V236.392H144.729V245H148.361ZM146.937 240.92H148.089C149.129 240.92 149.641 241.208 149.641 242.024C149.641 242.984 149.129 243.272 148.105 243.272H146.937V240.92ZM155.241 245V236.392H153.017V245H155.241Z" fill="#333333"/>
<path d="M236.92 296.48C230.56 296.48 226.44 300.44 226.56 306.28H231.32C231.32 301.76 233.96 300.12 236.72 300.12C239.6 300.12 241.4 301.72 241.4 304.56C241.4 309.36 235.6 314.56 225.92 322.08V326H247.04V321.84H231.84C240.6 315.76 246.36 310.16 246.36 304.16C246.36 299.2 242.28 296.48 236.92 296.48ZM261.128 322.84C256.968 322.84 254.568 318.84 254.568 311.48C254.568 304.12 256.968 300.12 261.128 300.12C265.328 300.12 267.728 304.12 267.728 311.48C267.728 318.84 265.328 322.84 261.128 322.84ZM261.128 326.52C268.888 326.52 272.688 320.4 272.688 311.48C272.688 302.64 268.888 296.48 261.128 296.48C253.448 296.48 249.608 302.64 249.608 311.48C249.608 320.4 253.448 326.52 261.128 326.52ZM287.378 322.84C283.218 322.84 280.818 318.84 280.818 311.48C280.818 304.12 283.218 300.12 287.378 300.12C291.578 300.12 293.978 304.12 293.978 311.48C293.978 318.84 291.578 322.84 287.378 322.84ZM287.378 326.52C295.138 326.52 298.938 320.4 298.938 311.48C298.938 302.64 295.138 296.48 287.378 296.48C279.698 296.48 275.858 302.64 275.858 311.48C275.858 320.4 279.698 326.52 287.378 326.52ZM313.628 322.84C309.468 322.84 307.068 318.84 307.068 311.48C307.068 304.12 309.468 300.12 313.628 300.12C317.828 300.12 320.228 304.12 320.228 311.48C320.228 318.84 317.828 322.84 313.628 322.84ZM313.628 326.52C321.388 326.52 325.188 320.4 325.188 311.48C325.188 302.64 321.388 296.48 313.628 296.48C305.948 296.48 302.108 302.64 302.108 311.48C302.108 320.4 305.948 326.52 313.628 326.52ZM335.998 315.12H340.198C347.558 315.12 352.718 312.92 352.718 306.04C352.718 298.84 347.558 297 340.198 297H330.918V310.92H327.558V315.12H330.918V318.08H327.558V321.28H330.918V326H335.998V321.28H344.878V318.08H335.998V315.12ZM335.998 310.92V301.24H340.398C344.318 301.24 347.478 302 347.478 306.04C347.478 310.12 344.318 310.92 340.398 310.92H335.998Z" fill="#333333"/>
<path d="M17.08 407H18.744L19.64 404.488H24.968L25.88 407H27.64L23.272 395.4H21.384L17.08 407ZM22.28 397.048L24.456 403.096H20.136L22.28 397.048ZM36.9988 405.736H35.7987V398.392H29.9908L29.8788 401.16C29.7508 404.456 29.2388 405.736 28.2628 405.736H27.8788V408.904H29.2868V407H35.5908V408.904H36.9988V405.736ZM34.3428 405.736H30.1508C30.8228 405.096 31.1908 403.848 31.3188 401.304L31.3988 399.656H34.3428V405.736ZM38.4664 398.392V409.8H39.9224V405.704C40.4504 406.616 41.3464 407.208 42.7384 407.208C44.7224 407.208 46.4184 405.592 46.4184 402.728C46.4184 399.912 44.7224 398.248 42.7384 398.248C41.3464 398.248 40.4504 398.84 39.9224 399.752V398.392H38.4664ZM39.8584 402.728C39.8584 400.456 41.0744 399.496 42.3704 399.496C43.8584 399.496 44.8344 400.664 44.8344 402.728C44.8344 404.792 43.8584 405.96 42.3704 405.96C41.0744 405.96 39.8584 405 39.8584 402.728ZM55.8614 403.176C56.0374 400.44 54.4854 398.248 51.8454 398.248C49.4934 398.248 47.6694 399.976 47.6694 402.712C47.6694 405.256 49.1734 407.208 51.8934 407.208C53.9894 407.208 55.3654 405.976 55.7494 404.504H54.2454C53.8774 405.352 53.1734 405.928 51.8934 405.928C50.6294 405.928 49.2854 405.032 49.2374 403.176H55.8614ZM51.8454 399.496C53.3974 399.496 54.2774 400.712 54.3254 401.928H49.2534C49.3814 400.2 50.5654 399.496 51.8454 399.496ZM61.22 398.248C58.676 398.248 57.06 400.152 57.06 402.712C57.06 405.336 58.596 407.208 61.076 407.208C63.092 407.208 64.612 405.816 64.916 404.2H63.412C63.204 405.096 62.356 405.928 61.124 405.928C59.844 405.928 58.644 404.872 58.644 402.696C58.644 400.536 59.844 399.528 61.124 399.528C62.26 399.528 63.14 400.248 63.348 401.272H64.82C64.612 399.8 63.332 398.248 61.22 398.248Z" fill="#999999"/>
<path d="M18.536 499H23.112C25.432 499 27.272 498.04 27.272 495.576C27.272 494.152 26.616 493.288 25.512 492.824C26.328 492.36 26.792 491.368 26.792 490.264C26.792 487.96 24.872 487.4 22.712 487.4H18.536V499ZM20.168 493.656H23.032C24.776 493.656 25.592 494.232 25.592 495.592C25.592 496.92 24.792 497.624 23.128 497.624H20.168V493.656ZM20.168 488.776H22.968C24.264 488.776 25.144 489.288 25.144 490.488C25.144 491.848 24.312 492.36 22.968 492.36H20.168V488.776ZM29.1695 490.392V501.8H30.6255V497.704C31.1535 498.616 32.0495 499.208 33.4415 499.208C35.4255 499.208 37.1215 497.592 37.1215 494.728C37.1215 491.912 35.4255 490.248 33.4415 490.248C32.0495 490.248 31.1535 490.84 30.6255 491.752V490.392H29.1695ZM30.5615 494.728C30.5615 492.456 31.7775 491.496 33.0735 491.496C34.5615 491.496 35.5375 492.664 35.5375 494.728C35.5375 496.792 34.5615 497.96 33.0735 497.96C31.7775 497.96 30.5615 497 30.5615 494.728ZM46.5645 495.176C46.7405 492.44 45.1885 490.248 42.5485 490.248C40.1965 490.248 38.3725 491.976 38.3725 494.712C38.3725 497.256 39.8765 499.208 42.5965 499.208C44.6925 499.208 46.0685 497.976 46.4525 496.504H44.9485C44.5805 497.352 43.8765 497.928 42.5965 497.928C41.3325 497.928 39.9885 497.032 39.9405 495.176H46.5645ZM42.5485 491.496C44.1005 491.496 44.9805 492.712 45.0285 493.928H39.9565C40.0845 492.2 41.2685 491.496 42.5485 491.496ZM57.765 490.392H55.685L53.109 497.016L50.437 490.392H48.357V499H49.781V492.184L52.533 499H53.573L56.341 492.088V499H57.765V490.392ZM66.6 490.392H63.224C61.24 490.392 60.024 491.272 60.024 493.048C60.024 494.328 60.76 495.16 61.848 495.528L59.24 499H61.048L63.384 495.928C63.464 495.944 63.544 495.944 63.624 495.944H65.144V499H66.6V490.392ZM65.144 491.656V494.68H63.432C62.424 494.68 61.512 494.312 61.512 493.144C61.512 492.104 62.232 491.656 63.304 491.656H65.144Z" fill="#999999"/>
<path d="M19.48 564.192C19.48 561.2 21.144 559.568 23.256 559.568C25.368 559.568 27.032 561.2 27.032 564.192C27.032 567.184 25.368 568.832 23.256 568.832C21.144 568.832 19.48 567.184 19.48 564.192ZM28.696 564.192C28.696 560.688 26.6 558.192 23.256 558.192C19.912 558.192 17.816 560.688 17.816 564.192C17.816 567.696 19.912 570.208 23.256 570.208C26.6 570.208 28.696 567.696 28.696 564.192ZM37.8356 561.392H30.7476V570H32.2036V562.656H36.3796V570H37.8356V561.392ZM47.0945 561.392H41.3505L41.2225 564.336C41.0465 567.904 40.3105 568.736 39.5425 568.736H39.3825V570H39.6545C41.6545 570 42.4065 568.208 42.6145 564.736L42.7425 562.656H45.6385V570H47.0945V561.392ZM54.9041 566.4C54.9041 568.432 53.6081 569.056 52.2481 569.056C51.2081 569.056 50.5841 568.512 50.5841 567.696C50.5841 566.512 52.2641 566.112 54.9041 565.856V566.4ZM51.9281 570.208C53.4641 570.208 54.3441 569.712 54.8721 568.816C54.8881 569.328 54.9361 569.68 54.9841 570H56.4561C56.2801 569.184 56.2161 568.208 56.2321 566.752L56.2481 564.768C56.2641 562.336 55.2081 561.216 52.8241 561.216C51.1601 561.216 49.4961 562.256 49.3681 564.112H50.8721C50.9361 563.04 51.6241 562.4 52.8401 562.4C53.9281 562.4 54.7921 562.912 54.7921 564.496V564.704C51.2721 565.088 48.9681 565.696 48.9681 567.728C48.9681 569.312 50.3121 570.208 51.9281 570.208ZM64.3965 562.656V561.392H57.0525V562.656H59.9965V570H61.4525V562.656H64.3965ZM70.7635 566.4C70.7635 568.432 69.4675 569.056 68.1075 569.056C67.0675 569.056 66.4435 568.512 66.4435 567.696C66.4435 566.512 68.1235 566.112 70.7635 565.856V566.4ZM67.7875 570.208C69.3235 570.208 70.2035 569.712 70.7315 568.816C70.7475 569.328 70.7955 569.68 70.8435 570H72.3155C72.1395 569.184 72.0755 568.208 72.0915 566.752L72.1075 564.768C72.1235 562.336 71.0675 561.216 68.6835 561.216C67.0195 561.216 65.3555 562.256 65.2275 564.112H66.7315C66.7955 563.04 67.4835 562.4 68.6995 562.4C69.7875 562.4 70.6515 562.912 70.6515 564.496V564.704C67.1315 565.088 64.8275 565.696 64.8275 567.728C64.8275 569.312 66.1715 570.208 67.7875 570.208Z" fill="#999999"/>
<path d="M23.72 429.656V428.392H18.232V437H19.688V429.656H23.72ZM25.1613 437V435.16H23.3213V437H25.1613ZM38.096 437L41.296 426.888V437H42.928V425.4H40.192L37.232 435.064L34.272 425.4H31.536V437H33.168V426.888L36.368 437H38.096ZM46.6128 432.728C46.6128 430.376 47.8608 429.528 49.1888 429.528C50.5168 429.528 51.7648 430.424 51.7648 432.728C51.7648 434.936 50.5168 435.928 49.1888 435.928C47.8608 435.928 46.6128 435.032 46.6128 432.728ZM49.1888 428.248C47.1888 428.248 45.0608 429.608 45.0608 432.728C45.0608 435.848 47.1888 437.208 49.1888 437.208C51.1888 437.208 53.3168 435.848 53.3168 432.728C53.3168 429.608 51.1888 428.248 49.1888 428.248ZM58.7513 428.248C56.2073 428.248 54.5913 430.152 54.5913 432.712C54.5913 435.336 56.1273 437.208 58.6073 437.208C60.6233 437.208 62.1433 435.816 62.4473 434.2H60.9433C60.7353 435.096 59.8873 435.928 58.6553 435.928C57.3753 435.928 56.1753 434.872 56.1753 432.696C56.1753 430.536 57.3753 429.528 58.6553 429.528C59.7913 429.528 60.6713 430.248 60.8793 431.272H62.3513C62.1433 429.8 60.8633 428.248 58.7513 428.248ZM69.7055 437H71.5135L67.9295 432.456L71.1775 428.392H69.4495L66.7135 431.912H65.6415V428.392H64.1695V437H65.6415V433.176H66.7455L69.7055 437ZM72.9039 428.392V437H76.9039C78.7439 437 80.1359 436.28 80.1359 434.488C80.1359 433.336 79.4799 432.728 78.5839 432.472C79.3839 432.136 79.7839 431.496 79.7839 430.584C79.7839 428.84 78.3759 428.392 76.6479 428.392H72.9039ZM74.3599 432.008V429.656H76.5039C77.5919 429.656 78.2639 429.848 78.2639 430.744C78.2639 431.72 77.6239 432.008 76.5519 432.008H74.3599ZM74.3599 433.208H76.6319C77.9759 433.208 78.6159 433.512 78.6159 434.472C78.6159 435.368 77.9599 435.736 76.6799 435.736H74.3599V433.208ZM87.1854 433.4C87.1854 435.432 85.8894 436.056 84.5294 436.056C83.4894 436.056 82.8654 435.512 82.8654 434.696C82.8654 433.512 84.5454 433.112 87.1854 432.856V433.4ZM84.2094 437.208C85.7454 437.208 86.6254 436.712 87.1534 435.816C87.1694 436.328 87.2174 436.68 87.2654 437H88.7374C88.5614 436.184 88.4974 435.208 88.5134 433.752L88.5294 431.768C88.5454 429.336 87.4894 428.216 85.1054 428.216C83.4414 428.216 81.7774 429.256 81.6494 431.112H83.1534C83.2174 430.04 83.9054 429.4 85.1214 429.4C86.2094 429.4 87.0734 429.912 87.0734 431.496V431.704C83.5534 432.088 81.2494 432.696 81.2494 434.728C81.2494 436.312 82.5934 437.208 84.2094 437.208ZM90.5869 437H91.3709L90.5229 439.224H91.4509L92.4269 437.128V435.16H90.5869V437ZM97.9856 439.8H98.7376C100.674 439.8 101.09 439.224 101.73 437.368L104.802 428.392H103.282L101.154 435.032L98.9616 428.392H97.3456L100.45 437L100.386 437.176C100.002 438.52 99.5376 438.584 98.5776 438.584H97.9856V439.8ZM112.423 428.392H106.679L106.551 431.336C106.375 434.904 105.639 435.736 104.871 435.736H104.711V437H104.983C106.983 437 107.735 435.208 107.943 431.736L108.071 429.656H110.967V437H112.423V428.392ZM116.536 437V435.16H114.696V437H116.536ZM122.911 437H130.783V435.592H124.543V431.736H130.415V430.328H124.543V426.808H130.783V425.4H122.911V437ZM136.298 428.248C133.754 428.248 132.138 430.152 132.138 432.712C132.138 435.336 133.674 437.208 136.154 437.208C138.17 437.208 139.69 435.816 139.994 434.2H138.49C138.282 435.096 137.434 435.928 136.202 435.928C134.922 435.928 133.722 434.872 133.722 432.696C133.722 430.536 134.922 429.528 136.202 429.528C137.338 429.528 138.218 430.248 138.426 431.272H139.898C139.69 429.8 138.41 428.248 136.298 428.248ZM149.315 433.176C149.491 430.44 147.939 428.248 145.299 428.248C142.947 428.248 141.123 429.976 141.123 432.712C141.123 435.256 142.627 437.208 145.347 437.208C147.443 437.208 148.819 435.976 149.203 434.504H147.699C147.331 435.352 146.627 435.928 145.347 435.928C144.083 435.928 142.739 435.032 142.691 433.176H149.315ZM145.299 429.496C146.851 429.496 147.731 430.712 147.779 431.928H142.707C142.835 430.2 144.019 429.496 145.299 429.496ZM158.275 437V428.392H156.819V431.976H152.563V428.392H151.107V437H152.563V433.24H156.819V437H158.275ZM166.636 437H168.092V428.392H166.636L162.188 434.888V428.392H160.732V437H162.188L166.636 430.504V437ZM177.728 437V428.392H176.272V431.976H172.016V428.392H170.56V437H172.016V433.24H176.272V437H177.728ZM185.529 433.4C185.529 435.432 184.233 436.056 182.873 436.056C181.833 436.056 181.209 435.512 181.209 434.696C181.209 433.512 182.889 433.112 185.529 432.856V433.4ZM182.553 437.208C184.089 437.208 184.969 436.712 185.497 435.816C185.513 436.328 185.561 436.68 185.609 437H187.081C186.905 436.184 186.841 435.208 186.857 433.752L186.873 431.768C186.889 429.336 185.833 428.216 183.449 428.216C181.785 428.216 180.121 429.256 179.993 431.112H181.497C181.561 430.04 182.249 429.4 183.465 429.4C184.553 429.4 185.417 429.912 185.417 431.496V431.704C181.897 432.088 179.593 432.696 179.593 434.728C179.593 436.312 180.937 437.208 182.553 437.208ZM188.931 437H189.715L188.867 439.224H189.795L190.771 437.128V435.16H188.931V437ZM204.889 435.736H203.689V428.392H197.881L197.769 431.16C197.641 434.456 197.129 435.736 196.153 435.736H195.769V438.904H197.177V437H203.481V438.904H204.889V435.736ZM202.233 435.736H198.041C198.713 435.096 199.081 433.848 199.209 431.304L199.289 429.656H202.233V435.736ZM208.005 437V435.16H206.165V437H208.005ZM218.876 427.4V432.76H214.732L218.876 427.4ZM222.476 432.76H220.348V425.4H218.86L213.116 432.76V434.136H218.876V437H220.348V434.136H222.476V432.76ZM223.004 426.76H229.34C226.444 429.272 224.62 432.824 224.364 437H226.124C226.396 432.648 228.156 429.08 231.036 426.76V425.4H223.004V426.76ZM231.505 437V435.16H229.665V437H231.505ZM246.936 437V425.4H237.88V437H239.512V426.808H245.304V437H246.936ZM250.613 432.728C250.613 430.376 251.861 429.528 253.189 429.528C254.517 429.528 255.765 430.424 255.765 432.728C255.765 434.936 254.517 435.928 253.189 435.928C251.861 435.928 250.613 435.032 250.613 432.728ZM253.189 428.248C251.189 428.248 249.061 429.608 249.061 432.728C249.061 435.848 251.189 437.208 253.189 437.208C255.189 437.208 257.317 435.848 257.317 432.728C257.317 429.608 255.189 428.248 253.189 428.248ZM267.03 435.736H265.83V428.392H260.022L259.91 431.16C259.782 434.456 259.27 435.736 258.294 435.736H257.91V438.904H259.318V437H265.622V438.904H267.03V435.736ZM264.374 435.736H260.182C260.854 435.096 261.222 433.848 261.35 431.304L261.43 429.656H264.374V435.736ZM271.189 431.432V428.392H267.381V429.656H269.733V437H272.853C274.821 437 276.085 436.28 276.085 434.152C276.085 432.312 275.109 431.432 272.853 431.432H271.189ZM271.189 435.736V432.696H272.677C274.021 432.696 274.661 433 274.661 434.152C274.661 435.32 274.005 435.736 272.725 435.736H271.189ZM285.361 433.176C285.537 430.44 283.985 428.248 281.345 428.248C278.993 428.248 277.169 429.976 277.169 432.712C277.169 435.256 278.673 437.208 281.393 437.208C283.489 437.208 284.865 435.976 285.249 434.504H283.745C283.377 435.352 282.673 435.928 281.393 435.928C280.129 435.928 278.785 435.032 278.737 433.176H285.361ZM281.345 429.496C282.897 429.496 283.777 430.712 283.825 431.928H278.753C278.881 430.2 280.065 429.496 281.345 429.496ZM291.84 432.488C292.608 432.12 293.2 431.512 293.2 430.632C293.2 429.016 291.632 428.2 289.936 428.2C288.128 428.2 286.736 429.176 286.432 431.048H287.936C288.128 429.88 288.944 429.48 290.016 429.48C290.96 429.48 291.696 429.848 291.696 430.664C291.696 431.56 291.088 432.008 290.08 432.008H288.784V433.208H290.16C291.376 433.208 292.032 433.608 292.032 434.616C292.032 435.432 291.264 435.992 290.048 435.992C288.816 435.992 288 435.48 287.76 434.376H286.288C286.592 436.344 288.112 437.208 289.952 437.208C291.872 437.208 293.584 436.408 293.584 434.552C293.584 433.4 292.752 432.744 291.84 432.488ZM303.358 435.736H302.158V428.392H296.35L296.238 431.16C296.11 434.456 295.598 435.736 294.622 435.736H294.238V438.904H295.646V437H301.95V438.904H303.358V435.736ZM300.702 435.736H296.51C297.182 435.096 297.55 433.848 297.678 431.304L297.758 429.656H300.702V435.736ZM311.727 437V425.4H310.735C310.111 426.648 309.231 426.888 307.583 426.936V427.928H310.271V437H311.727ZM314.321 437H315.105L314.257 439.224H315.185L316.161 437.128V435.16H314.321V437ZM23.768 456H25.576L21.992 451.456L25.24 447.392H23.512L20.776 450.912H19.704V447.392H18.232V456H19.704V452.176H20.808L23.768 456ZM26.9664 447.392V456H30.9664C32.8064 456 34.1984 455.28 34.1984 453.488C34.1984 452.336 33.5424 451.728 32.6464 451.472C33.4464 451.136 33.8464 450.496 33.8464 449.584C33.8464 447.84 32.4384 447.392 30.7104 447.392H26.9664ZM28.4224 451.008V448.656H30.5664C31.6544 448.656 32.3264 448.848 32.3264 449.744C32.3264 450.72 31.6864 451.008 30.6144 451.008H28.4224ZM28.4224 452.208H30.6944C32.0384 452.208 32.6784 452.512 32.6784 453.472C32.6784 454.368 32.0224 454.736 30.7424 454.736H28.4224V452.208ZM37.5519 456V454.16H35.7119V456H37.5519ZM44.8386 452.288C44.8386 450.704 45.8626 449.536 47.3826 449.536C48.8706 449.536 49.9106 450.704 49.9106 452.288C49.9106 453.872 48.8386 454.992 47.3666 454.992C45.8306 454.992 44.8386 453.888 44.8386 452.288ZM47.5106 445.408C48.7106 445.408 49.4946 446.048 49.6866 447.088H51.2706C51.0146 445.616 49.9586 444.192 47.6866 444.192C44.3106 444.192 43.1586 447.344 43.1586 450.608C43.1586 454.192 44.4866 456.208 47.3826 456.208C49.8626 456.208 51.4626 454.368 51.4626 452.208C51.4626 449.888 49.8786 448.272 47.7186 448.272C46.1826 448.272 45.1906 448.976 44.6626 449.888C44.7426 447.2 45.7026 445.408 47.5106 445.408ZM52.4104 445.76H58.7464C55.8504 448.272 54.0264 451.824 53.7704 456H55.5304C55.8024 451.648 57.5624 448.08 60.4424 445.76V444.4H52.4104V445.76Z" fill="#353535"/>
<path d="M21.832 517.192C19.352 517.192 17.752 518.712 17.8 521.016H19.304C19.352 519.096 20.552 518.408 21.8 518.408C23.192 518.408 23.976 519.208 23.976 520.424C23.976 522.488 21.576 524.664 17.48 527.688V529H25.832V527.64H19.464C22.712 525.288 25.512 522.92 25.512 520.232C25.512 518.264 23.976 517.192 21.832 517.192ZM38.6344 529V520.392H37.1784V523.976H32.9224V520.392H31.4664V529H32.9224V525.24H37.1784V529H38.6344ZM42.0034 524.728C42.0034 522.376 43.2514 521.528 44.5794 521.528C45.9074 521.528 47.1554 522.424 47.1554 524.728C47.1554 526.936 45.9074 527.928 44.5794 527.928C43.2514 527.928 42.0034 527.032 42.0034 524.728ZM44.5794 520.248C42.5794 520.248 40.4514 521.608 40.4514 524.728C40.4514 527.848 42.5794 529.208 44.5794 529.208C46.5794 529.208 48.7074 527.848 48.7074 524.728C48.7074 521.608 46.5794 520.248 44.5794 520.248ZM56.8969 520.392H53.5209C51.5369 520.392 50.3209 521.272 50.3209 523.048C50.3209 524.328 51.0569 525.16 52.1449 525.528L49.5369 529H51.3449L53.6809 525.928C53.7609 525.944 53.8409 525.944 53.9209 525.944H55.4409V529H56.8969V520.392ZM55.4409 521.656V524.68H53.7289C52.7209 524.68 51.8089 524.312 51.8089 523.144C51.8089 522.104 52.5289 521.656 53.6009 521.656H55.4409ZM63.229 520.888C61.949 520.888 60.797 521.448 60.221 522.648C60.429 520.504 61.437 519.72 63.533 519.256L66.285 518.664V517.368L63.453 517.928C59.997 518.616 58.973 520.424 58.925 523.528V524.52C58.925 527.656 60.749 529.208 62.973 529.208C65.085 529.208 66.861 527.736 66.861 524.968C66.861 522.248 65.181 520.888 63.229 520.888ZM62.973 527.944C61.517 527.944 60.493 526.808 60.493 524.984C60.493 523.048 61.677 522.152 62.989 522.152C64.317 522.152 65.309 523.112 65.309 525C65.309 526.872 64.381 527.944 62.973 527.944ZM68.5758 520.392V531.8H70.0318V527.704C70.5598 528.616 71.4557 529.208 72.8478 529.208C74.8318 529.208 76.5278 527.592 76.5278 524.728C76.5278 521.912 74.8318 520.248 72.8478 520.248C71.4557 520.248 70.5598 520.84 70.0318 521.752V520.392H68.5758ZM69.9678 524.728C69.9678 522.456 71.1838 521.496 72.4798 521.496C73.9678 521.496 74.9438 522.664 74.9438 524.728C74.9438 526.792 73.9678 527.96 72.4798 527.96C71.1838 527.96 69.9678 527 69.9678 524.728ZM84.6938 520.392H81.3177C79.3338 520.392 78.1178 521.272 78.1178 523.048C78.1178 524.328 78.8538 525.16 79.9418 525.528L77.3338 529H79.1418L81.4778 525.928C81.5578 525.944 81.6378 525.944 81.7178 525.944H83.2378V529H84.6938V520.392ZM83.2378 521.656V524.68H81.5258C80.5178 524.68 79.6058 524.312 79.6058 523.144C79.6058 522.104 80.3258 521.656 81.3978 521.656H83.2378ZM86.9619 529H87.7459L86.8979 531.224H87.8259L88.8019 529.128V527.16H86.9619V529ZM97.9766 529V517.4H96.9846C96.3606 518.648 95.4806 518.888 93.8326 518.936V519.928H96.5206V529H97.9766ZM105.563 519.4V524.76H101.419L105.563 519.4ZM109.163 524.76H107.035V517.4H105.547L99.8033 524.76V526.136H105.563V529H107.035V526.136H109.163V524.76ZM112.396 522.232V520.392H110.556V522.232H112.396ZM112.396 529V527.16H110.556V529H112.396ZM118.27 517.192C115.789 517.192 114.19 518.712 114.238 521.016H115.742C115.789 519.096 116.99 518.408 118.238 518.408C119.63 518.408 120.414 519.208 120.414 520.424C120.414 522.488 118.014 524.664 113.918 527.688V529H122.27V527.64H115.902C119.15 525.288 121.95 522.92 121.95 520.232C121.95 518.264 120.414 517.192 118.27 517.192ZM128.423 519.4V524.76H124.279L128.423 519.4ZM132.023 524.76H129.895V517.4H128.407L122.663 524.76V526.136H128.423V529H129.895V526.136H132.023V524.76Z" fill="#353535"/>
<path d="M25.416 600H27.368L22.728 593.888L27.208 588.4H25.24L21.336 593.312H20.168V588.4H18.536V600H20.168V594.72H21.384L25.416 600ZM33.951 596.4C33.951 598.432 32.655 599.056 31.295 599.056C30.255 599.056 29.631 598.512 29.631 597.696C29.631 596.512 31.311 596.112 33.951 595.856V596.4ZM30.975 600.208C32.511 600.208 33.391 599.712 33.919 598.816C33.935 599.328 33.983 599.68 34.031 600H35.503C35.327 599.184 35.263 598.208 35.279 596.752L35.295 594.768C35.311 592.336 34.255 591.216 31.871 591.216C30.207 591.216 28.543 592.256 28.415 594.112H29.919C29.983 593.04 30.671 592.4 31.887 592.4C32.975 592.4 33.839 592.912 33.839 594.496V594.704C30.319 595.088 28.015 595.696 28.015 597.728C28.015 599.312 29.359 600.208 30.975 600.208ZM37.5445 591.392V602.8H39.0005V598.704C39.5285 599.616 40.4245 600.208 41.8165 600.208C43.8005 600.208 45.4965 598.592 45.4965 595.728C45.4965 592.912 43.8005 591.248 41.8165 591.248C40.4245 591.248 39.5285 591.84 39.0005 592.752V591.392H37.5445ZM38.9365 595.728C38.9365 593.456 40.1525 592.496 41.4485 592.496C42.9365 592.496 43.9125 593.664 43.9125 595.728C43.9125 597.792 42.9365 598.96 41.4485 598.96C40.1525 598.96 38.9365 598 38.9365 595.728ZM53.3653 592.656V591.392H46.0213V592.656H48.9653V600H50.4213V592.656H53.3653ZM59.7323 596.4C59.7323 598.432 58.4363 599.056 57.0763 599.056C56.0363 599.056 55.4123 598.512 55.4123 597.696C55.4123 596.512 57.0923 596.112 59.7323 595.856V596.4ZM56.7563 600.208C58.2923 600.208 59.1723 599.712 59.7003 598.816C59.7163 599.328 59.7643 599.68 59.8123 600H61.2843C61.1083 599.184 61.0443 598.208 61.0603 596.752L61.0763 594.768C61.0923 592.336 60.0363 591.216 57.6523 591.216C55.9883 591.216 54.3243 592.256 54.1963 594.112H55.7003C55.7643 593.04 56.4523 592.4 57.6683 592.4C58.7563 592.4 59.6203 592.912 59.6203 594.496V594.704C56.1003 595.088 53.7963 595.696 53.7963 597.728C53.7963 599.312 55.1403 600.208 56.7563 600.208ZM68.3386 596.288C68.3386 594.704 69.3626 593.536 70.8826 593.536C72.3706 593.536 73.4106 594.704 73.4106 596.288C73.4106 597.872 72.3386 598.992 70.8666 598.992C69.3306 598.992 68.3386 597.888 68.3386 596.288ZM71.0106 589.408C72.2106 589.408 72.9946 590.048 73.1866 591.088H74.7706C74.5146 589.616 73.4586 588.192 71.1866 588.192C67.8106 588.192 66.6586 591.344 66.6586 594.608C66.6586 598.192 67.9866 600.208 70.8826 600.208C73.3626 600.208 74.9626 598.368 74.9626 596.208C74.9626 593.888 73.3786 592.272 71.2186 592.272C69.6826 592.272 68.6906 592.976 68.1626 593.888C68.2426 591.2 69.2026 589.408 71.0106 589.408ZM75.9104 589.76H82.2464C79.3504 592.272 77.5264 595.824 77.2704 600H79.0304C79.3024 595.648 81.0624 592.08 83.9424 589.76V588.4H75.9104V589.76ZM88.3758 590.4V595.76H84.2318L88.3758 590.4ZM91.9758 595.76H89.8478V588.4H88.3598L82.6158 595.76V597.136H88.3758V600H89.8478V597.136H91.9758V595.76ZM97.3361 588.192C94.9681 588.192 93.4641 589.44 93.4641 591.152C93.4641 592.112 93.9121 593.184 95.0641 593.824C93.5441 594.416 93.0961 595.696 93.0961 596.736C93.0961 598.96 94.9521 600.208 97.3361 600.208C99.7041 600.208 101.56 598.96 101.56 596.736C101.56 595.68 101.096 594.416 99.6081 593.824C100.76 593.184 101.208 592.112 101.208 591.152C101.208 589.44 99.7041 588.192 97.3361 588.192ZM97.3361 594.432C98.9841 594.432 100.024 595.376 100.024 596.736C100.024 598.096 98.9841 598.992 97.3361 598.992C95.6721 598.992 94.6481 598.096 94.6481 596.736C94.6481 595.376 95.6721 594.432 97.3361 594.432ZM99.7361 591.328C99.7361 592.496 98.7921 593.36 97.3361 593.36C95.8801 593.36 94.9201 592.496 94.9201 591.328C94.9201 590.176 95.8641 589.408 97.3361 589.408C98.7921 589.408 99.7361 590.176 99.7361 591.328ZM109.421 588.4H108.445V590.304L106.637 589.616L106.317 590.512L108.125 591.152L107.005 592.72L107.853 593.264L108.941 591.648L110.125 593.264L110.861 592.704L109.757 591.152L111.597 590.512L111.229 589.616L109.421 590.304V588.4ZM115.046 588.4H114.07V590.304L112.262 589.616L111.942 590.512L113.75 591.152L112.63 592.72L113.478 593.264L114.566 591.648L115.75 593.264L116.486 592.704L115.382 591.152L117.222 590.512L116.854 589.616L115.046 590.304V588.4ZM120.671 588.4H119.695V590.304L117.887 589.616L117.567 590.512L119.375 591.152L118.255 592.72L119.103 593.264L120.191 591.648L121.375 593.264L122.111 592.704L121.007 591.152L122.847 590.512L122.479 589.616L120.671 590.304V588.4ZM126.296 588.4H125.32V590.304L123.512 589.616L123.192 590.512L125 591.152L123.88 592.72L124.728 593.264L125.816 591.648L127 593.264L127.736 592.704L126.632 591.152L128.472 590.512L128.104 589.616L126.296 590.304V588.4ZM132.614 589.76H138.95C136.054 592.272 134.23 595.824 133.974 600H135.734C136.006 595.648 137.766 592.08 140.646 589.76V588.4H132.614V589.76ZM145.649 588.192C143.281 588.192 141.777 589.44 141.777 591.152C141.777 592.112 142.225 593.184 143.377 593.824C141.857 594.416 141.409 595.696 141.409 596.736C141.409 598.96 143.265 600.208 145.649 600.208C148.017 600.208 149.873 598.96 149.873 596.736C149.873 595.68 149.409 594.416 147.921 593.824C149.073 593.184 149.521 592.112 149.521 591.152C149.521 589.44 148.017 588.192 145.649 588.192ZM145.649 594.432C147.297 594.432 148.337 595.376 148.337 596.736C148.337 598.096 147.297 598.992 145.649 598.992C143.985 598.992 142.961 598.096 142.961 596.736C142.961 595.376 143.985 594.432 145.649 594.432ZM148.049 591.328C148.049 592.496 147.105 593.36 145.649 593.36C144.193 593.36 143.233 592.496 143.233 591.328C143.233 590.176 144.177 589.408 145.649 589.408C147.105 589.408 148.049 590.176 148.049 591.328ZM155.168 598.992C153.52 598.992 152.704 598 152.528 596.576H151.024C151.2 598.512 152.4 600.208 155.152 600.208C157.376 600.208 159.344 599.072 159.344 596.736C159.344 595.504 158.864 594.384 157.136 593.824C158.352 593.328 159.024 592.336 159.024 591.136C159.024 589.008 157.264 588.192 155.264 588.192C152.832 588.192 151.376 589.616 151.2 591.664H152.704C152.832 590.336 153.68 589.408 155.232 589.408C156.464 589.408 157.488 590.064 157.488 591.296C157.488 592.656 156.432 593.216 154.4 593.216H154.208V594.544H154.448C156.304 594.544 157.792 595.088 157.792 596.752C157.792 598.208 156.704 598.992 155.168 598.992ZM167.327 592.112C167.327 593.696 166.319 594.848 164.799 594.848C163.311 594.848 162.271 593.696 162.271 592.112C162.271 590.528 163.311 589.408 164.815 589.408C166.351 589.408 167.327 590.512 167.327 592.112ZM164.655 598.992C163.455 598.992 162.687 598.352 162.495 597.312H160.911C161.167 598.784 162.223 600.208 164.495 600.208C167.823 600.208 169.023 597.056 169.023 593.792C169.023 590.208 167.695 588.192 164.799 588.192C162.319 588.192 160.719 590.032 160.719 592.176C160.719 594.528 162.303 596.128 164.447 596.128C165.983 596.128 166.991 595.424 167.519 594.512C167.439 597.2 166.447 598.992 164.655 598.992Z" fill="#353535"/>
<path d="M25.606 307V297.575H18.248V307H19.574V298.719H24.28V307H25.606ZM28.5936 303.529C28.5936 301.618 29.6076 300.929 30.6866 300.929C31.7656 300.929 32.7796 301.657 32.7796 303.529C32.7796 305.323 31.7656 306.129 30.6866 306.129C29.6076 306.129 28.5936 305.401 28.5936 303.529ZM30.6866 299.889C29.0616 299.889 27.3326 300.994 27.3326 303.529C27.3326 306.064 29.0616 307.169 30.6866 307.169C32.3116 307.169 34.0406 306.064 34.0406 303.529C34.0406 300.994 32.3116 299.889 30.6866 299.889ZM38.4561 299.889C36.3891 299.889 35.0761 301.436 35.0761 303.516C35.0761 305.648 36.3241 307.169 38.3391 307.169C39.9771 307.169 41.2121 306.038 41.4591 304.725H40.2371C40.0681 305.453 39.3791 306.129 38.3781 306.129C37.3381 306.129 36.3631 305.271 36.3631 303.503C36.3631 301.748 37.3381 300.929 38.3781 300.929C39.3011 300.929 40.0161 301.514 40.1851 302.346H41.3811C41.2121 301.15 40.1721 299.889 38.4561 299.889ZM48.3834 300.006H43.7164L43.6124 302.398C43.4694 305.297 42.8714 305.973 42.2474 305.973H42.1174V307H42.3384C43.9634 307 44.5744 305.544 44.7434 302.723L44.8474 301.033H47.2004V307H48.3834V300.006ZM56.4967 303.893C56.6397 301.67 55.3787 299.889 53.2337 299.889C51.3227 299.889 49.8407 301.293 49.8407 303.516C49.8407 305.583 51.0627 307.169 53.2727 307.169C54.9757 307.169 56.0937 306.168 56.4057 304.972H55.1837C54.8847 305.661 54.3127 306.129 53.2727 306.129C52.2457 306.129 51.1537 305.401 51.1147 303.893H56.4967ZM53.2337 300.903C54.4947 300.903 55.2097 301.891 55.2487 302.879H51.1277C51.2317 301.475 52.1937 300.903 53.2337 300.903ZM65.8351 307H67.0181V300.006H65.8351L62.2211 305.284V300.006H61.0381V307H62.2211L65.8351 301.722V307ZM71.8575 299.889C69.7905 299.889 68.4775 301.436 68.4775 303.516C68.4775 305.648 69.7255 307.169 71.7405 307.169C73.3785 307.169 74.6135 306.038 74.8605 304.725H73.6385C73.4695 305.453 72.7805 306.129 71.7795 306.129C70.7395 306.129 69.7645 305.271 69.7645 303.503C69.7645 301.748 70.7395 300.929 71.7795 300.929C72.7025 300.929 73.4175 301.514 73.5865 302.346H74.7825C74.6135 301.15 73.5735 299.889 71.8575 299.889ZM81.1923 301.033V300.006H75.2253V301.033H77.6173V307H78.8003V301.033H81.1923ZM88.2731 303.893C88.4161 301.67 87.1551 299.889 85.0101 299.889C83.0991 299.889 81.6171 301.293 81.6171 303.516C81.6171 305.583 82.8391 307.169 85.0491 307.169C86.7521 307.169 87.8701 306.168 88.1821 304.972H86.9601C86.6611 305.661 86.0891 306.129 85.0491 306.129C84.0221 306.129 82.9301 305.401 82.8911 303.893H88.2731ZM85.0101 300.903C86.2711 300.903 86.9861 301.891 87.0251 302.879H82.9041C83.0081 301.475 83.9701 300.903 85.0101 300.903ZM94.8775 307V300.006H93.6945V303.191C93.0445 303.347 92.4985 303.425 92.0435 303.425C91.0555 303.425 90.5615 303.074 90.5615 302.034V300.006H89.3785V302.281C89.3785 303.802 90.1455 304.452 91.6145 304.452C92.2515 304.452 92.8755 304.361 93.6945 304.166V307H94.8775ZM102.987 303.893C103.13 301.67 101.869 299.889 99.724 299.889C97.813 299.889 96.331 301.293 96.331 303.516C96.331 305.583 97.553 307.169 99.763 307.169C101.466 307.169 102.584 306.168 102.896 304.972H101.674C101.375 305.661 100.803 306.129 99.763 306.129C98.736 306.129 97.644 305.401 97.605 303.893H102.987ZM99.724 300.903C100.985 300.903 101.7 301.891 101.739 302.879H97.618C97.722 301.475 98.684 300.903 99.724 300.903ZM110.267 307V300.006H109.084V302.918H105.626V300.006H104.443V307H105.626V303.945H109.084V307H110.267ZM117.061 307H118.244V300.006H117.061L113.447 305.284V300.006H112.264V307H113.447L117.061 301.722V307ZM125.423 300.006H122.68C121.068 300.006 120.08 300.721 120.08 302.164C120.08 303.204 120.678 303.88 121.562 304.179L119.443 307H120.912L122.81 304.504C122.875 304.517 122.94 304.517 123.005 304.517H124.24V307H125.423V300.006ZM124.24 301.033V303.49H122.849C122.03 303.49 121.289 303.191 121.289 302.242C121.289 301.397 121.874 301.033 122.745 301.033H124.24ZM25.645 315.006H23.955L21.862 320.388L19.691 315.006H18.001V322H19.158V316.462L21.394 322H22.239L24.488 316.384V322H25.645V315.006ZM32.4464 322H33.6294V315.006H32.4464L28.8324 320.284V315.006H27.6494V322H28.8324L32.4464 316.722V322ZM41.4588 322V315.006H40.2758V317.918H36.8178V315.006H35.6348V322H36.8178V318.945H40.2758V322H41.4588ZM48.2521 322H49.4351V315.006H48.2521L44.6381 320.284V315.006H43.4551V322H44.6381L48.2521 316.722V322ZM59.0845 315.006H57.3945L55.3015 320.388L53.1305 315.006H51.4405V322H52.5975V316.462L54.8335 322H55.6785L57.9275 316.384V322H59.0845V315.006ZM65.4309 319.075C65.4309 320.726 64.3779 321.233 63.2729 321.233C62.4279 321.233 61.9209 320.791 61.9209 320.128C61.9209 319.166 63.2859 318.841 65.4309 318.633V319.075ZM63.0129 322.169C64.2609 322.169 64.9759 321.766 65.4049 321.038C65.4179 321.454 65.4569 321.74 65.4959 322H66.6919C66.5489 321.337 66.4969 320.544 66.5099 319.361L66.5229 317.749C66.5359 315.773 65.6779 314.863 63.7409 314.863C62.3889 314.863 61.0369 315.708 60.9329 317.216H62.1549C62.2069 316.345 62.7659 315.825 63.7539 315.825C64.6379 315.825 65.3399 316.241 65.3399 317.528V317.697C62.4799 318.009 60.6079 318.503 60.6079 320.154C60.6079 321.441 61.6999 322.169 63.0129 322.169ZM73.8756 315.006H69.2086L69.1046 317.398C68.9616 320.297 68.3636 320.973 67.7396 320.973H67.6096V322H67.8306C69.4556 322 70.0666 320.544 70.2356 317.723L70.3396 316.033H72.6926V322H73.8756V315.006ZM77.0619 317.476V315.006H75.8789V322H78.7129C80.3249 322 81.3389 321.415 81.3389 319.686C81.3389 318.191 80.5589 317.476 78.7259 317.476H77.0619ZM77.0619 320.973V318.503H78.5829C79.6359 318.503 80.1819 318.763 80.1819 319.686C80.1819 320.622 79.6489 320.973 78.6089 320.973H77.0619ZM88.4949 322V315.006H87.3119V317.918H83.8539V315.006H82.6709V322H83.8539V318.945H87.3119V322H88.4949ZM91.2322 318.529C91.2322 316.618 92.2462 315.929 93.3252 315.929C94.4042 315.929 95.4182 316.657 95.4182 318.529C95.4182 320.323 94.4042 321.129 93.3252 321.129C92.2462 321.129 91.2322 320.401 91.2322 318.529ZM93.3252 314.889C91.7002 314.889 89.9712 315.994 89.9712 318.529C89.9712 321.064 91.7002 322.169 93.3252 322.169C94.9502 322.169 96.6792 321.064 96.6792 318.529C96.6792 315.994 94.9502 314.889 93.3252 314.889ZM102.618 316.033V315.006H98.1592V322H99.3422V316.033H102.618ZM104.258 318.529C104.258 316.618 105.272 315.929 106.351 315.929C107.43 315.929 108.444 316.657 108.444 318.529C108.444 320.323 107.43 321.129 106.351 321.129C105.272 321.129 104.258 320.401 104.258 318.529ZM106.351 314.889C104.726 314.889 102.997 315.994 102.997 318.529C102.997 321.064 104.726 322.169 106.351 322.169C107.976 322.169 109.705 321.064 109.705 318.529C109.705 315.994 107.976 314.889 106.351 314.889ZM114.27 315.006V322H117.52C119.015 322 120.146 321.415 120.146 319.959C120.146 319.023 119.613 318.529 118.885 318.321C119.535 318.048 119.86 317.528 119.86 316.787C119.86 315.37 118.716 315.006 117.312 315.006H114.27ZM115.453 317.944V316.033H117.195C118.079 316.033 118.625 316.189 118.625 316.917C118.625 317.71 118.105 317.944 117.234 317.944H115.453ZM115.453 318.919H117.299C118.391 318.919 118.911 319.166 118.911 319.946C118.911 320.674 118.378 320.973 117.338 320.973H115.453V318.919ZM121.531 315.006V324.275H122.714V320.947C123.143 321.688 123.871 322.169 125.002 322.169C126.614 322.169 127.992 320.856 127.992 318.529C127.992 316.241 126.614 314.889 125.002 314.889C123.871 314.889 123.143 315.37 122.714 316.111V315.006H121.531ZM122.662 318.529C122.662 316.683 123.65 315.903 124.703 315.903C125.912 315.903 126.705 316.852 126.705 318.529C126.705 320.206 125.912 321.155 124.703 321.155C123.65 321.155 122.662 320.375 122.662 318.529ZM135.665 318.893C135.808 316.67 134.547 314.889 132.402 314.889C130.491 314.889 129.009 316.293 129.009 318.516C129.009 320.583 130.231 322.169 132.441 322.169C134.144 322.169 135.262 321.168 135.574 319.972H134.352C134.053 320.661 133.481 321.129 132.441 321.129C131.414 321.129 130.322 320.401 130.283 318.893H135.665ZM132.402 315.903C133.663 315.903 134.378 316.891 134.417 317.879H130.296C130.4 316.475 131.362 315.903 132.402 315.903ZM144.765 315.006H143.075L140.982 320.388L138.811 315.006H137.121V322H138.278V316.462L140.514 322H141.359L143.608 316.384V322H144.765V315.006ZM152.88 318.893C153.023 316.67 151.762 314.889 149.617 314.889C147.706 314.889 146.224 316.293 146.224 318.516C146.224 320.583 147.446 322.169 149.656 322.169C151.359 322.169 152.477 321.168 152.789 319.972H151.567C151.268 320.661 150.696 321.129 149.656 321.129C148.629 321.129 147.537 320.401 147.498 318.893H152.88ZM149.617 315.903C150.878 315.903 151.593 316.891 151.632 317.879H147.511C147.615 316.475 148.577 315.903 149.617 315.903ZM160.16 322V315.006H158.977V317.918H155.519V315.006H154.336V322H155.519V318.945H158.977V322H160.16ZM166.953 322H168.136V315.006H166.953L163.339 320.284V315.006H162.156V322H163.339L166.953 316.722V322ZM24.54 335.973H23.565V330.006H18.846L18.755 332.255C18.651 334.933 18.235 335.973 17.442 335.973H17.13V338.547H18.274V337H23.396V338.547H24.54V335.973ZM22.382 335.973H18.976C19.522 335.453 19.821 334.439 19.925 332.372L19.99 331.033H22.382V335.973ZM26.4734 333.529C26.4734 331.618 27.4874 330.929 28.5664 330.929C29.6454 330.929 30.6594 331.657 30.6594 333.529C30.6594 335.323 29.6454 336.129 28.5664 336.129C27.4874 336.129 26.4734 335.401 26.4734 333.529ZM28.5664 329.889C26.9414 329.889 25.2124 330.994 25.2124 333.529C25.2124 336.064 26.9414 337.169 28.5664 337.169C30.1914 337.169 31.9204 336.064 31.9204 333.529C31.9204 330.994 30.1914 329.889 28.5664 329.889ZM39.1594 330.006H33.4004V337H34.5834V331.033H37.9764V337H39.1594V330.006ZM41.8983 333.529C41.8983 331.618 42.9123 330.929 43.9913 330.929C45.0703 330.929 46.0843 331.657 46.0843 333.529C46.0843 335.323 45.0703 336.129 43.9913 336.129C42.9123 336.129 41.8983 335.401 41.8983 333.529ZM43.9913 329.889C42.3663 329.889 40.6373 330.994 40.6373 333.529C40.6373 336.064 42.3663 337.169 43.9913 337.169C45.6163 337.169 47.3453 336.064 47.3453 333.529C47.3453 330.994 45.6163 329.889 43.9913 329.889ZM54.2487 330.006H49.5817L49.4777 332.398C49.3347 335.297 48.7367 335.973 48.1127 335.973H47.9827V337H48.2037C49.8287 337 50.4397 335.544 50.6087 332.723L50.7127 331.033H53.0657V337H54.2487V330.006ZM62.076 337V330.006H60.893V332.918H57.435V330.006H56.252V337H57.435V333.945H60.893V337H62.076ZM68.8693 337H70.0523V330.006H68.8693L65.2553 335.284V330.006H64.0723V337H65.2553L68.8693 331.722V337ZM77.2186 331.033V330.006H71.2516V331.033H73.6436V337H74.8266V331.033H77.2186ZM84.2995 333.893C84.4425 331.67 83.1815 329.889 81.0365 329.889C79.1255 329.889 77.6435 331.293 77.6435 333.516C77.6435 335.583 78.8655 337.169 81.0755 337.169C82.7785 337.169 83.8965 336.168 84.2085 334.972H82.9865C82.6875 335.661 82.1155 336.129 81.0755 336.129C80.0485 336.129 78.9565 335.401 78.9175 333.893H84.2995ZM81.0365 330.903C82.2975 330.903 83.0125 331.891 83.0515 332.879H78.9305C79.0345 331.475 79.9965 330.903 81.0365 330.903ZM91.2809 330.006H86.6139L86.5099 332.398C86.3669 335.297 85.7689 335.973 85.1449 335.973H85.0149V337H85.2359C86.8609 337 87.4719 335.544 87.6409 332.723L87.7449 331.033H90.0979V337H91.2809V330.006ZM94.4672 332.476V330.006H93.2842V337H96.1182C97.7302 337 98.7442 336.415 98.7442 334.686C98.7442 333.191 97.9642 332.476 96.1312 332.476H94.4672ZM94.4672 335.973V333.503H95.9882C97.0412 333.503 97.5872 333.763 97.5872 334.686C97.5872 335.622 97.0542 335.973 96.0142 335.973H94.4672ZM105.9 337V330.006H104.717V332.918H101.259V330.006H100.076V337H101.259V333.945H104.717V337H105.9ZM108.638 333.529C108.638 331.618 109.652 330.929 110.731 330.929C111.81 330.929 112.824 331.657 112.824 333.529C112.824 335.323 111.81 336.129 110.731 336.129C109.652 336.129 108.638 335.401 108.638 333.529ZM110.731 329.889C109.106 329.889 107.377 330.994 107.377 333.529C107.377 336.064 109.106 337.169 110.731 337.169C112.356 337.169 114.085 336.064 114.085 333.529C114.085 330.994 112.356 329.889 110.731 329.889ZM121.776 333.893C121.919 331.67 120.658 329.889 118.513 329.889C116.602 329.889 115.12 331.293 115.12 333.516C115.12 335.583 116.342 337.169 118.552 337.169C120.255 337.169 121.373 336.168 121.685 334.972H120.463C120.164 335.661 119.592 336.129 118.552 336.129C117.525 336.129 116.433 335.401 116.394 333.893H121.776ZM118.513 330.903C119.774 330.903 120.489 331.891 120.528 332.879H116.407C116.511 331.475 117.473 330.903 118.513 330.903ZM126.317 330.006V337H129.567C131.062 337 132.193 336.415 132.193 334.959C132.193 334.023 131.66 333.529 130.932 333.321C131.582 333.048 131.907 332.528 131.907 331.787C131.907 330.37 130.763 330.006 129.359 330.006H126.317ZM127.5 332.944V331.033H129.242C130.126 331.033 130.672 331.189 130.672 331.917C130.672 332.71 130.152 332.944 129.281 332.944H127.5ZM127.5 333.919H129.346C130.438 333.919 130.958 334.166 130.958 334.946C130.958 335.674 130.425 335.973 129.385 335.973H127.5V333.919ZM139.026 330.006H137.7L135.984 332.411L134.281 330.006H132.864L135.282 333.399L132.708 337H134.06L135.945 334.335L137.843 337H139.26L136.647 333.347L139.026 330.006ZM140.884 333.529C140.884 331.618 141.898 330.929 142.977 330.929C144.056 330.929 145.07 331.657 145.07 333.529C145.07 335.323 144.056 336.129 142.977 336.129C141.898 336.129 140.884 335.401 140.884 333.529ZM142.977 329.889C141.352 329.889 139.623 330.994 139.623 333.529C139.623 336.064 141.352 337.169 142.977 337.169C144.602 337.169 146.331 336.064 146.331 333.529C146.331 330.994 144.602 329.889 142.977 329.889ZM154.223 335.973H153.248V330.006H148.529L148.438 332.255C148.334 334.933 147.918 335.973 147.125 335.973H146.813V338.547H147.957V337H153.079V338.547H154.223V335.973ZM152.065 335.973H148.659C149.205 335.453 149.504 334.439 149.608 332.372L149.673 331.033H152.065V335.973ZM160.212 337H161.395V330.006H160.212L156.598 335.284V330.006H155.415V337H156.598L160.212 331.722V337ZM168.561 331.033V330.006H162.594V331.033H164.986V337H166.169V331.033H168.561ZM18.001 345.006V352H21.251C22.746 352 23.877 351.415 23.877 349.959C23.877 349.023 23.344 348.529 22.616 348.321C23.266 348.048 23.591 347.528 23.591 346.787C23.591 345.37 22.447 345.006 21.043 345.006H18.001ZM19.184 347.944V346.033H20.926C21.81 346.033 22.356 346.189 22.356 346.917C22.356 347.71 21.836 347.944 20.965 347.944H19.184ZM19.184 348.919H21.03C22.122 348.919 22.642 349.166 22.642 349.946C22.642 350.674 22.109 350.973 21.069 350.973H19.184V348.919ZM33.4957 352V345.006H32.3127V348.191C31.6627 348.347 31.1167 348.425 30.6617 348.425C29.6737 348.425 29.1797 348.074 29.1797 347.034V345.006H27.9967V347.281C27.9967 348.802 28.7637 349.452 30.2327 349.452C30.8697 349.452 31.4937 349.361 32.3127 349.166V352H33.4957ZM41.6051 348.893C41.7481 346.67 40.4871 344.889 38.3421 344.889C36.4311 344.889 34.9491 346.293 34.9491 348.516C34.9491 350.583 36.1711 352.169 38.3811 352.169C40.0841 352.169 41.2021 351.168 41.5141 349.972H40.2921C39.9931 350.661 39.4211 351.129 38.3811 351.129C37.3541 351.129 36.2621 350.401 36.2231 348.893H41.6051ZM38.3421 345.903C39.6031 345.903 40.3181 346.891 40.3571 347.879H36.2361C36.3401 346.475 37.3021 345.903 38.3421 345.903ZM47.5595 352H49.0285L46.1165 348.308L48.7555 345.006H47.3515L45.1285 347.866H44.2575V345.006H43.0615V352H44.2575V348.893H45.1545L47.5595 352ZM53.2432 345.006V352H56.4932C57.9882 352 59.1192 351.415 59.1192 349.959C59.1192 349.023 58.5862 348.529 57.8582 348.321C58.5082 348.048 58.8332 347.528 58.8332 346.787C58.8332 345.37 57.6892 345.006 56.2852 345.006H53.2432ZM54.4262 347.944V346.033H56.1682C57.0522 346.033 57.5982 346.189 57.5982 346.917C57.5982 347.71 57.0782 347.944 56.2072 347.944H54.4262ZM54.4262 348.919H56.2722C57.3642 348.919 57.8842 349.166 57.8842 349.946C57.8842 350.674 57.3512 350.973 56.3112 350.973H54.4262V348.919ZM63.0269 352C64.6259 352 65.6529 351.415 65.6529 349.686C65.6529 348.191 64.8599 347.476 63.0399 347.476H61.6879V345.006H60.5049V352H63.0269ZM61.6879 348.503H62.8839C63.9759 348.503 64.4959 348.75 64.4959 349.686C64.4959 350.635 63.9629 350.973 62.9229 350.973H61.6879V348.503ZM67.9929 352V345.006H66.8099V352H67.9929ZM75.76 345.006H70.001V352H71.184V346.033H74.577V352H75.76V345.006ZM78.4988 348.529C78.4988 346.618 79.5128 345.929 80.5918 345.929C81.6708 345.929 82.6848 346.657 82.6848 348.529C82.6848 350.323 81.6708 351.129 80.5918 351.129C79.5128 351.129 78.4988 350.401 78.4988 348.529ZM80.5918 344.889C78.9668 344.889 77.2378 345.994 77.2378 348.529C77.2378 351.064 78.9668 352.169 80.5918 352.169C82.2168 352.169 83.9458 351.064 83.9458 348.529C83.9458 345.994 82.2168 344.889 80.5918 344.889ZM90.8492 345.006H86.1822L86.0782 347.398C85.9352 350.297 85.3372 350.973 84.7132 350.973H84.5832V352H84.8042C86.4292 352 87.0402 350.544 87.2092 347.723L87.3132 346.033H89.6662V352H90.8492V345.006ZM98.6766 352V345.006H97.4936V347.918H94.0356V345.006H92.8526V352H94.0356V348.945H97.4936V352H98.6766ZM106.783 348.893C106.926 346.67 105.665 344.889 103.52 344.889C101.609 344.889 100.127 346.293 100.127 348.516C100.127 350.583 101.349 352.169 103.559 352.169C105.262 352.169 106.38 351.168 106.692 349.972H105.47C105.171 350.661 104.599 351.129 103.559 351.129C102.532 351.129 101.44 350.401 101.401 348.893H106.783ZM103.52 345.903C104.781 345.903 105.496 346.891 105.535 347.879H101.414C101.518 346.475 102.48 345.903 103.52 345.903ZM114.063 352V345.006H112.88V347.918H109.422V345.006H108.239V352H109.422V348.945H112.88V352H114.063ZM121.884 352V345.006H120.701V347.918H117.243V345.006H116.06V352H117.243V348.945H120.701V352H121.884ZM124.621 348.529C124.621 346.618 125.635 345.929 126.714 345.929C127.793 345.929 128.807 346.657 128.807 348.529C128.807 350.323 127.793 351.129 126.714 351.129C125.635 351.129 124.621 350.401 124.621 348.529ZM126.714 344.889C125.089 344.889 123.36 345.994 123.36 348.529C123.36 351.064 125.089 352.169 126.714 352.169C128.339 352.169 130.068 351.064 130.068 348.529C130.068 345.994 128.339 344.889 126.714 344.889ZM135.734 342.575C135.682 342.991 135.357 343.368 134.59 343.368C133.823 343.368 133.511 342.991 133.459 342.575H132.536C132.601 343.355 133.147 344.148 134.577 344.148C136.059 344.148 136.553 343.355 136.657 342.575H135.734ZM136.345 352H137.528V345.006H136.345L132.731 350.284V345.006H131.548V352H132.731L136.345 346.722V352ZM18.001 360.006V369.275H19.184V365.947C19.613 366.688 20.341 367.169 21.472 367.169C23.084 367.169 24.462 365.856 24.462 363.529C24.462 361.241 23.084 359.889 21.472 359.889C20.341 359.889 19.613 360.37 19.184 361.111V360.006H18.001ZM19.132 363.529C19.132 361.683 20.12 360.903 21.173 360.903C22.382 360.903 23.175 361.852 23.175 363.529C23.175 365.206 22.382 366.155 21.173 366.155C20.12 366.155 19.132 365.375 19.132 363.529ZM30.2649 364.075C30.2649 365.726 29.2119 366.233 28.1069 366.233C27.2619 366.233 26.7549 365.791 26.7549 365.128C26.7549 364.166 28.1199 363.841 30.2649 363.633V364.075ZM27.8469 367.169C29.0949 367.169 29.8099 366.766 30.2389 366.038C30.2519 366.454 30.2909 366.74 30.3299 367H31.5259C31.3829 366.337 31.3309 365.544 31.3439 364.361L31.3569 362.749C31.3699 360.773 30.5119 359.863 28.5749 359.863C27.2229 359.863 25.8709 360.708 25.7669 362.216H26.9889C27.0409 361.345 27.5999 360.825 28.5879 360.825C29.4719 360.825 30.1739 361.241 30.1739 362.528V362.697C27.3139 363.009 25.4419 363.503 25.4419 365.154C25.4419 366.441 26.5339 367.169 27.8469 367.169ZM36.3306 360.409C35.2906 360.409 34.3546 360.864 33.8866 361.839C34.0556 360.097 34.8746 359.46 36.5776 359.083L38.8136 358.602V357.549L36.5126 358.004C33.7046 358.563 32.8726 360.032 32.8336 362.554V363.36C32.8336 365.908 34.3156 367.169 36.1226 367.169C37.8386 367.169 39.2816 365.973 39.2816 363.724C39.2816 361.514 37.9166 360.409 36.3306 360.409ZM36.1226 366.142C34.9396 366.142 34.1076 365.219 34.1076 363.737C34.1076 362.164 35.0696 361.436 36.1356 361.436C37.2146 361.436 38.0206 362.216 38.0206 363.75C38.0206 365.271 37.2666 366.142 36.1226 366.142ZM41.4158 363.529C41.4158 361.618 42.4298 360.929 43.5088 360.929C44.5878 360.929 45.6018 361.657 45.6018 363.529C45.6018 365.323 44.5878 366.129 43.5088 366.129C42.4298 366.129 41.4158 365.401 41.4158 363.529ZM43.5088 359.889C41.8838 359.889 40.1548 360.994 40.1548 363.529C40.1548 366.064 41.8838 367.169 43.5088 367.169C45.1338 367.169 46.8628 366.064 46.8628 363.529C46.8628 360.994 45.1338 359.889 43.5088 359.889ZM53.2753 361.033V360.006H47.3083V361.033H49.7003V367H50.8833V361.033H53.2753ZM56.9966 367C58.5956 367 59.6226 366.415 59.6226 364.686C59.6226 363.191 58.8296 362.476 57.0096 362.476H55.6576V360.006H54.4746V367H56.9966ZM55.6576 363.503H56.8536C57.9456 363.503 58.4656 363.75 58.4656 364.686C58.4656 365.635 57.9326 365.973 56.8926 365.973H55.6576V363.503ZM61.9626 367V360.006H60.7796V367H61.9626Z" fill="#999999"/>
<line x1="17" y1="275.5" x2="381" y2="275.5" stroke="#747476"/>
<path d="M20.4 40V69H25.48V58.04H30.04C36.88 58.04 42.28 56.44 42.28 49.12C42.28 41 36.32 40 29.96 40H20.4ZM29.96 44.08C33.52 44.08 37 44.48 37 49.16C37 53.32 34.04 53.88 30.2 53.88H25.48V44.08H29.96ZM58.5078 60.52C58.5078 64.2 56.4278 65.96 52.9078 65.96C50.5078 65.96 48.9478 64.84 48.9478 62.96C48.9478 60.52 51.7078 59.52 58.5078 58.88V60.52ZM51.8678 69.52C55.0678 69.52 57.5478 68.44 58.9478 66.08C59.0678 67.56 59.1878 68.08 59.3478 69H63.7078C63.2678 67.2 63.0678 64.36 63.0678 61.64C63.0678 59.68 63.1478 57.12 63.1478 56.08C63.2678 49.2 59.2278 46.84 54.0678 46.84C48.8678 46.84 45.2278 49.88 44.9078 54.24H49.5878C49.7078 51.64 51.5078 50.36 53.9078 50.36C56.3078 50.36 58.3878 51.48 58.3878 55.16V55.56C50.5478 56.4 43.9078 57.68 43.9078 63.08C43.9078 67 47.1878 69.52 51.8678 69.52ZM78.3213 48.76C75.2812 48.76 72.4813 50 70.9213 52.72C71.6813 47.4 74.8013 45.52 78.6813 44.88L85.9613 43.68V39.52L78.4413 40.68C70.8013 41.84 67.1613 47.48 67.0413 55.28V57.2C67.0413 65.48 71.7613 69.52 77.4413 69.52C82.8413 69.52 87.6813 65.88 87.6813 58.96C87.6813 52.2 83.3213 48.76 78.3213 48.76ZM77.4413 65.68C74.2013 65.68 71.8413 63.16 71.8413 58.96C71.8413 54.64 74.4813 52.52 77.4813 52.52C80.3613 52.52 82.7613 54.68 82.7613 58.96C82.7613 63.32 80.6013 65.68 77.4413 65.68ZM94.9178 58.28C94.9178 53.32 97.5578 50.88 100.598 50.88C103.638 50.88 106.278 53.32 106.278 58.28C106.278 63.24 103.638 65.64 100.598 65.64C97.5578 65.64 94.9178 63.24 94.9178 58.28ZM100.598 47C95.3578 47 89.9978 50.52 89.9978 58.28C89.9978 66.08 95.3578 69.52 100.598 69.52C105.838 69.52 111.198 66.08 111.198 58.28C111.198 50.52 105.838 47 100.598 47ZM131.767 51.24V47.48H112.327V51.24H119.687V69H124.447V51.24H131.767ZM147.57 60.52C147.57 64.2 145.49 65.96 141.97 65.96C139.57 65.96 138.01 64.84 138.01 62.96C138.01 60.52 140.77 59.52 147.57 58.88V60.52ZM140.93 69.52C144.13 69.52 146.61 68.44 148.01 66.08C148.13 67.56 148.25 68.08 148.41 69H152.77C152.33 67.2 152.13 64.36 152.13 61.64C152.13 59.68 152.21 57.12 152.21 56.08C152.33 49.2 148.29 46.84 143.13 46.84C137.93 46.84 134.29 49.88 133.97 54.24H138.65C138.77 51.64 140.57 50.36 142.97 50.36C145.37 50.36 147.45 51.48 147.45 55.16V55.56C139.61 56.4 132.97 57.68 132.97 63.08C132.97 67 136.25 69.52 140.93 69.52ZM176.464 59.6C176.904 52.4 172.744 47 166.144 47C160.024 47 155.584 51.6 155.584 58.08C155.584 64.28 159.544 69.52 166.464 69.52C171.984 69.52 175.264 66 176.224 62.56H171.544C170.704 64.6 168.784 65.56 166.264 65.56C163.544 65.56 160.744 63.6 160.424 59.6H176.464ZM166.144 50.72C168.944 50.72 171.504 52.76 171.624 56.12H160.424C160.864 52.08 163.904 50.72 166.144 50.72ZM197.079 51.24V47.48H177.639V51.24H184.999V69H189.759V51.24H197.079Z" fill="white"/>
<path d="M54.595 151.501C54.595 166.32 49.485 173.401 41.09 173.401C32.695 173.401 27.585 166.32 27.585 151.501C27.585 136.828 32.695 129.674 41.09 129.674C49.339 129.674 54.595 136.828 54.595 151.501ZM61.676 151.501C61.676 134.784 55.179 124.126 41.09 124.126C27.001 124.126 20.504 134.784 20.504 151.501C20.504 168.218 27.001 178.949 41.09 178.949C55.179 178.949 61.676 168.218 61.676 151.501ZM102.858 151.501C102.858 166.32 97.7477 173.401 89.3527 173.401C80.9577 173.401 75.8477 166.32 75.8477 151.501C75.8477 136.828 80.9577 129.674 89.3527 129.674C97.6017 129.674 102.858 136.828 102.858 151.501ZM109.939 151.501C109.939 134.784 103.442 124.126 89.3527 124.126C75.2637 124.126 68.7667 134.784 68.7667 151.501C68.7667 168.218 75.2637 178.949 89.3527 178.949C103.442 178.949 109.939 168.218 109.939 151.501ZM126.665 147.121V138.726H118.27V147.121H126.665ZM126.665 178V169.605H118.27V178H126.665ZM153.465 124.126C142.15 124.126 134.85 131.061 135.069 141.573H141.931C142.15 132.813 147.625 129.674 153.319 129.674C159.67 129.674 163.247 133.324 163.247 138.872C163.247 148.289 152.297 158.217 133.609 172.014V178H171.715V171.795H142.661C157.48 161.064 170.255 150.26 170.255 137.996C170.255 129.017 163.247 124.126 153.465 124.126ZM207.693 142.011C207.693 149.238 203.094 154.494 196.159 154.494C189.37 154.494 184.625 149.238 184.625 142.011C184.625 134.784 189.37 129.674 196.232 129.674C203.24 129.674 207.693 134.711 207.693 142.011ZM195.502 173.401C190.027 173.401 186.523 170.481 185.647 165.736H178.42C179.588 172.452 184.406 178.949 194.772 178.949C209.956 178.949 215.431 164.568 215.431 149.676C215.431 133.324 209.372 124.126 196.159 124.126C184.844 124.126 177.544 132.521 177.544 142.303C177.544 153.034 184.771 160.334 194.553 160.334C201.561 160.334 206.16 157.122 208.569 152.961C208.204 165.225 203.678 173.401 195.502 173.401ZM232.173 147.121V138.726H223.778V147.121H232.173ZM232.173 178V169.605H223.778V178H232.173ZM274.522 151.501C274.522 166.32 269.412 173.401 261.017 173.401C252.622 173.401 247.512 166.32 247.512 151.501C247.512 136.828 252.622 129.674 261.017 129.674C269.266 129.674 274.522 136.828 274.522 151.501ZM281.603 151.501C281.603 134.784 275.106 124.126 261.017 124.126C246.928 124.126 240.431 134.784 240.431 151.501C240.431 168.218 246.928 178.949 261.017 178.949C275.106 178.949 281.603 168.218 281.603 151.501ZM285.992 131.28H314.9C301.687 142.741 293.365 158.947 292.197 178H300.227C301.468 158.144 309.498 141.865 322.638 131.28V125.075H285.992V131.28Z" fill="white"/>
<path d="M32.52 97.592H31.112V87.4H23.8L23.752 90.792C23.704 94.488 23.24 97.592 21.896 97.592H21.4V101.416H22.904V99H31.016V101.416H32.52V97.592ZM29.48 97.592H23.976C24.696 96.616 25.288 94.52 25.336 91.32L25.368 88.808H29.48V97.592ZM41.627 95.176C41.803 92.44 40.251 90.248 37.611 90.248C35.259 90.248 33.435 91.976 33.435 94.712C33.435 97.256 34.939 99.208 37.659 99.208C39.755 99.208 41.131 97.976 41.515 96.504H40.011C39.643 97.352 38.939 97.928 37.659 97.928C36.395 97.928 35.051 97.032 35.003 95.176H41.627ZM37.611 91.496C39.163 91.496 40.043 92.712 40.091 93.928H35.019C35.147 92.2 36.331 91.496 37.611 91.496ZM50.5875 99V90.392H49.1315V93.976H44.8755V90.392H43.4195V99H44.8755V95.24H49.1315V99H50.5875ZM58.9485 99H60.4045V90.392H58.9485L54.5005 96.888V90.392H53.0445V99H54.5005L58.9485 92.504V99ZM66.3606 90.248C63.8166 90.248 62.2006 92.152 62.2006 94.712C62.2006 97.336 63.7366 99.208 66.2166 99.208C68.2326 99.208 69.7526 97.816 70.0566 96.2H68.5526C68.3446 97.096 67.4966 97.928 66.2646 97.928C64.9846 97.928 63.7846 96.872 63.7846 94.696C63.7846 92.536 64.9846 91.528 66.2646 91.528C67.4006 91.528 68.2806 92.248 68.4886 93.272H69.9606C69.7526 91.8 68.4726 90.248 66.3606 90.248ZM82.4398 99L85.6398 88.888V99H87.2718V87.4H84.5358L81.5758 97.064L78.6158 87.4H75.8798V99H77.5118V88.888L80.7118 99H82.4398ZM90.9565 94.728C90.9565 92.376 92.2045 91.528 93.5325 91.528C94.8605 91.528 96.1085 92.424 96.1085 94.728C96.1085 96.936 94.8605 97.928 93.5325 97.928C92.2045 97.928 90.9565 97.032 90.9565 94.728ZM93.5325 90.248C91.5325 90.248 89.4045 91.608 89.4045 94.728C89.4045 97.848 91.5325 99.208 93.5325 99.208C95.5325 99.208 97.6605 97.848 97.6605 94.728C97.6605 91.608 95.5325 90.248 93.5325 90.248ZM99.482 90.392V101.8H100.938V97.704C101.466 98.616 102.362 99.208 103.754 99.208C105.738 99.208 107.434 97.592 107.434 94.728C107.434 91.912 105.738 90.248 103.754 90.248C102.362 90.248 101.466 90.84 100.938 91.752V90.392H99.482ZM100.874 94.728C100.874 92.456 102.09 91.496 103.386 91.496C104.874 91.496 105.85 92.664 105.85 94.728C105.85 96.792 104.874 97.96 103.386 97.96C102.09 97.96 100.874 97 100.874 94.728ZM110.269 94.728C110.269 92.376 111.517 91.528 112.845 91.528C114.173 91.528 115.421 92.424 115.421 94.728C115.421 96.936 114.173 97.928 112.845 97.928C111.517 97.928 110.269 97.032 110.269 94.728ZM112.845 90.248C110.845 90.248 108.717 91.608 108.717 94.728C108.717 97.848 110.845 99.208 112.845 99.208C114.845 99.208 116.973 97.848 116.973 94.728C116.973 91.608 114.845 90.248 112.845 90.248ZM123.403 94.488C124.171 94.12 124.763 93.512 124.763 92.632C124.763 91.016 123.195 90.2 121.499 90.2C119.691 90.2 118.299 91.176 117.995 93.048H119.499C119.691 91.88 120.507 91.48 121.579 91.48C122.523 91.48 123.259 91.848 123.259 92.664C123.259 93.56 122.651 94.008 121.643 94.008H120.347V95.208H121.723C122.939 95.208 123.595 95.608 123.595 96.616C123.595 97.432 122.827 97.992 121.611 97.992C120.379 97.992 119.562 97.48 119.323 96.376H117.851C118.155 98.344 119.674 99.208 121.515 99.208C123.435 99.208 125.147 98.408 125.147 96.552C125.147 95.4 124.315 94.744 123.403 94.488ZM127.785 94.728C127.785 92.376 129.033 91.528 130.361 91.528C131.689 91.528 132.937 92.424 132.937 94.728C132.937 96.936 131.689 97.928 130.361 97.928C129.033 97.928 127.785 97.032 127.785 94.728ZM130.361 90.248C128.361 90.248 126.233 91.608 126.233 94.728C126.233 97.848 128.361 99.208 130.361 99.208C132.361 99.208 134.489 97.848 134.489 94.728C134.489 91.608 132.361 90.248 130.361 90.248ZM136.31 90.392V99H140.31C142.15 99 143.542 98.28 143.542 96.488C143.542 95.336 142.886 94.728 141.99 94.472C142.79 94.136 143.19 93.496 143.19 92.584C143.19 90.84 141.782 90.392 140.054 90.392H136.31ZM137.766 94.008V91.656H139.91C140.998 91.656 141.67 91.848 141.67 92.744C141.67 93.72 141.03 94.008 139.958 94.008H137.766ZM137.766 95.208H140.038C141.382 95.208 142.022 95.512 142.022 96.472C142.022 97.368 141.366 97.736 140.086 97.736H137.766V95.208ZM145.056 99H145.84L144.992 101.224H145.92L146.896 99.128V97.16H145.056V99ZM158.502 99H160.31L156.726 94.456L159.974 90.392H158.246L155.51 93.912H154.438V90.392H152.966V99H154.438V95.176H155.542L158.502 99ZM168.501 90.392H162.757L162.629 93.336C162.453 96.904 161.717 97.736 160.949 97.736H160.789V99H161.061C163.061 99 163.813 97.208 164.021 93.736L164.149 91.656H167.045V99H168.501V90.392ZM176.87 99H178.326V90.392H176.87L172.422 96.888V90.392H170.966V99H172.422L176.87 92.504V99ZM187.963 99V90.392H186.507V93.976H182.251V90.392H180.795V99H182.251V95.24H186.507V99H187.963ZM196.324 99H197.78V90.392H196.324L191.876 96.888V90.392H190.42V99H191.876L196.324 92.504V99ZM207.416 99V90.392H205.96V93.976H201.704V90.392H200.248V99H201.704V95.24H205.96V99H207.416ZM215.361 91.656V90.392H209.873V99H211.329V91.656H215.361Z" fill="white"/>
<path d="M21 100.76H215.521V101.88H21V100.76Z" fill="white"/>
<path d="M237.066 223.192C234.586 223.192 232.986 224.712 233.034 227.016H234.538C234.586 225.096 235.786 224.408 237.034 224.408C238.426 224.408 239.21 225.208 239.21 226.424C239.21 228.488 236.81 230.664 232.714 233.688V235H241.066V233.64H234.698C237.946 231.288 240.746 228.92 240.746 226.232C240.746 224.264 239.21 223.192 237.066 223.192ZM249.912 229.192C249.912 232.44 248.792 233.992 246.952 233.992C245.112 233.992 243.992 232.44 243.992 229.192C243.992 225.976 245.112 224.408 246.952 224.408C248.76 224.408 249.912 225.976 249.912 229.192ZM251.464 229.192C251.464 225.528 250.04 223.192 246.952 223.192C243.864 223.192 242.44 225.528 242.44 229.192C242.44 232.856 243.864 235.208 246.952 235.208C250.04 235.208 251.464 232.856 251.464 229.192ZM260.49 229.192C260.49 232.44 259.37 233.992 257.53 233.992C255.69 233.992 254.57 232.44 254.57 229.192C254.57 225.976 255.69 224.408 257.53 224.408C259.338 224.408 260.49 225.976 260.49 229.192ZM262.042 229.192C262.042 225.528 260.618 223.192 257.53 223.192C254.442 223.192 253.018 225.528 253.018 229.192C253.018 232.856 254.442 235.208 257.53 235.208C260.618 235.208 262.042 232.856 262.042 229.192ZM271.068 229.192C271.068 232.44 269.948 233.992 268.108 233.992C266.268 233.992 265.148 232.44 265.148 229.192C265.148 225.976 266.268 224.408 268.108 224.408C269.916 224.408 271.068 225.976 271.068 229.192ZM272.62 229.192C272.62 225.528 271.196 223.192 268.108 223.192C265.02 223.192 263.596 225.528 263.596 229.192C263.596 232.856 265.02 235.208 268.108 235.208C271.196 235.208 272.62 232.856 272.62 229.192ZM276.814 230.44H278.622C281.502 230.44 283.518 229.64 283.518 226.92C283.518 224.104 281.502 223.4 278.622 223.4H275.182V229.032H273.726V230.44H275.182V231.672H273.726V232.872H275.182V235H276.814V232.872H280.51V231.672H276.814V230.44ZM276.814 229.032V224.808H278.702C280.446 224.808 281.854 225.16 281.854 226.92C281.854 228.68 280.446 229.032 278.702 229.032H276.814ZM285.331 235L289.907 223.4H288.435L283.875 235H285.331ZM294.418 233.992C292.77 233.992 291.954 233 291.778 231.576H290.274C290.45 233.512 291.65 235.208 294.402 235.208C296.626 235.208 298.594 234.072 298.594 231.736C298.594 230.504 298.114 229.384 296.386 228.824C297.602 228.328 298.274 227.336 298.274 226.136C298.274 224.008 296.514 223.192 294.514 223.192C292.082 223.192 290.626 224.616 290.45 226.664H291.954C292.082 225.336 292.93 224.408 294.482 224.408C295.714 224.408 296.738 225.064 296.738 226.296C296.738 227.656 295.682 228.216 293.65 228.216H293.458V229.544H293.698C295.554 229.544 297.042 230.088 297.042 231.752C297.042 233.208 295.954 233.992 294.418 233.992ZM307.537 229.192C307.537 232.44 306.417 233.992 304.577 233.992C302.737 233.992 301.617 232.44 301.617 229.192C301.617 225.976 302.737 224.408 304.577 224.408C306.385 224.408 307.537 225.976 307.537 229.192ZM309.089 229.192C309.089 225.528 307.665 223.192 304.577 223.192C301.489 223.192 300.065 225.528 300.065 229.192C300.065 232.856 301.489 235.208 304.577 235.208C307.665 235.208 309.089 232.856 309.089 229.192ZM324.312 226.392H322.232L319.656 233.016L316.984 226.392H314.904V235H316.328V228.184L319.08 235H320.12L322.888 228.088V235H324.312V226.392ZM332.683 235H334.139V226.392H332.683L328.235 232.888V226.392H326.779V235H328.235L332.683 228.504V235ZM343.775 235V226.392H342.319V229.976H338.063V226.392H336.607V235H338.063V231.24H342.319V235H343.775Z" fill="#333333"/>
<path d="M273.082 254V250.384H276.698V249.008H273.082V245.488H271.626V249.008H268.01V250.384H271.626V254H273.082ZM282.598 252.992C280.982 252.992 280.214 252.112 279.974 250.64H278.47C278.678 252.512 279.926 254.208 282.598 254.208C284.758 254.208 286.726 252.832 286.726 250.176C286.726 247.616 284.95 246.176 282.918 246.176C281.958 246.176 281.046 246.464 280.422 247.056L280.822 243.76H286.294V242.4H279.638L278.886 248.64L280.342 248.72C280.598 248.144 281.382 247.44 282.582 247.44C283.846 247.44 285.19 248.272 285.19 250.192C285.19 251.984 283.99 252.992 282.598 252.992ZM290.892 249.44H292.7C295.58 249.44 297.596 248.64 297.596 245.92C297.596 243.104 295.58 242.4 292.7 242.4H289.26V248.032H287.804V249.44H289.26V250.672H287.804V251.872H289.26V254H290.892V251.872H294.588V250.672H290.892V249.44ZM290.892 248.032V243.808H292.78C294.524 243.808 295.932 244.16 295.932 245.92C295.932 247.68 294.524 248.032 292.78 248.032H290.892ZM299.409 254L303.985 242.4H302.513L297.953 254H299.409ZM308.32 254V242.4H307.328C306.704 243.648 305.824 243.888 304.176 243.936V244.928H306.864V254H308.32ZM324.312 245.392H322.232L319.656 252.016L316.984 245.392H314.904V254H316.328V247.184L319.08 254H320.12L322.888 247.088V254H324.312V245.392ZM332.683 254H334.139V245.392H332.683L328.235 251.888V245.392H326.779V254H328.235L332.683 247.504V254ZM343.775 254V245.392H342.319V248.976H338.063V245.392H336.607V254H338.063V250.24H342.319V254H343.775Z" fill="#999999"/>
<rect x="17" y="623" width="337" height="56" rx="28" fill="#DBDBDB"/>
<path d="M93.7859 653.192C93.4019 654.776 92.2819 655.384 90.9059 655.384C89.2419 655.384 87.8819 653.912 87.8819 651.144C87.8819 648.456 89.2419 647.016 90.9859 647.016C92.2659 647.016 93.3539 647.544 93.7859 649.16H95.9619C95.5779 646.744 93.7219 645.192 91.0019 645.192C87.6259 645.192 85.5139 647.48 85.5139 651.144C85.5139 654.856 87.4819 657.208 90.9379 657.208C93.7059 657.208 95.6579 655.544 95.9619 653.192H93.7859ZM101.958 657C103.958 657 105.414 656.264 105.414 654.376C105.414 653.288 104.806 652.68 103.974 652.408C104.694 652.072 105.062 651.48 105.062 650.632C105.062 648.84 103.606 648.392 101.766 648.392H97.5259V657H101.958ZM99.7339 653.304H101.718C102.742 653.304 103.27 653.592 103.27 654.28C103.27 654.936 102.758 655.272 101.734 655.272H99.7339V653.304ZM99.7339 650.12H101.59C102.438 650.12 102.934 650.296 102.934 650.952C102.934 651.592 102.438 651.864 101.606 651.864H99.7339V650.12ZM108.645 657L110.517 654.104H111.973V657H114.181V648.392H110.325C108.069 648.392 106.885 649.384 106.885 651.096C106.885 652.264 107.525 652.936 108.485 653.48L106.117 657H108.645ZM110.485 652.376C109.541 652.376 109.029 652.008 109.029 651.256C109.029 650.568 109.477 650.12 110.437 650.12H111.973V652.376H110.485ZM119.777 657.208C122.017 657.208 123.697 656.344 123.697 654.424C123.697 653.288 123.137 652.696 122.177 652.424C122.993 652.056 123.409 651.464 123.409 650.648C123.409 648.904 121.809 648.152 119.841 648.152C117.937 648.152 116.161 649.128 115.857 651.272H117.985C118.097 650.312 118.753 649.752 119.713 649.752C120.737 649.752 121.249 650.248 121.249 650.872C121.249 651.512 120.689 651.832 119.873 651.832H118.689V653.352H119.969C120.977 653.352 121.553 653.656 121.553 654.472C121.553 655.176 120.913 655.608 119.841 655.608C118.625 655.608 117.953 654.984 117.841 654.088H115.713C116.049 656.392 117.809 657.208 119.777 657.208ZM130.556 653.704C130.556 654.968 129.98 655.704 128.588 655.704C127.58 655.704 127.1 655.192 127.1 654.568C127.1 653.608 128.076 653.32 130.556 653.064V653.704ZM130.748 655.928C130.796 656.36 130.828 656.728 130.892 657H132.924C132.748 656.28 132.668 655.512 132.668 654.152C132.668 653.384 132.7 652.216 132.7 651.96C132.7 649.064 131.02 648.168 128.988 648.168C126.764 648.168 125.388 649.416 125.212 651.112H127.276C127.324 650.152 128.028 649.72 128.876 649.72C129.772 649.72 130.492 650.184 130.492 651.512V651.656C127.1 652.04 124.828 652.648 124.828 654.68C124.828 656.248 126.284 657.208 127.932 657.208C129.228 657.208 130.124 656.824 130.748 655.928ZM138.607 657V650.136H141.407V648.392H133.599V650.136H136.399V657H138.607ZM146.809 657C149.065 657 150.185 656.264 150.185 654.056C150.185 652.12 149.161 651.192 146.729 651.192H144.953V648.392H142.745V657H146.809ZM144.953 652.92H146.521C147.545 652.92 148.057 653.208 148.057 654.024C148.057 654.936 147.561 655.272 146.537 655.272H144.953V652.92ZM155.377 648.2C152.801 648.2 151.057 650.088 151.057 652.712C151.057 655.32 152.705 657.208 155.281 657.208C157.073 657.208 158.849 656.424 159.361 654.072H157.249C156.945 655.096 156.161 655.496 155.393 655.496C154.177 655.496 153.313 654.488 153.313 652.68C153.313 650.888 154.225 649.912 155.377 649.912C156.225 649.912 156.993 650.504 157.169 651.336H159.281C158.977 649.208 157.185 648.2 155.377 648.2ZM162.098 657L163.97 654.104H165.426V657H167.634V648.392H163.778C161.522 648.392 160.338 649.384 160.338 651.096C160.338 652.264 160.978 652.936 161.938 653.48L159.57 657H162.098ZM163.938 652.376C162.994 652.376 162.482 652.008 162.482 651.256C162.482 650.568 162.93 650.12 163.89 650.12H165.426V652.376H163.938ZM177.096 648.2C174.52 648.2 172.776 650.088 172.776 652.712C172.776 655.32 174.424 657.208 177 657.208C178.792 657.208 180.568 656.424 181.08 654.072H178.968C178.664 655.096 177.88 655.496 177.112 655.496C175.896 655.496 175.032 654.488 175.032 652.68C175.032 650.888 175.944 649.912 177.096 649.912C177.944 649.912 178.712 650.504 178.888 651.336H181C180.696 649.208 178.904 648.2 177.096 648.2ZM188.078 657V650.136H191.358V657H193.566V648.392H185.87V657H188.078ZM199.408 649.928C200.624 649.928 201.488 650.904 201.488 652.712C201.488 654.52 200.624 655.48 199.408 655.48C198.192 655.48 197.328 654.52 197.328 652.712C197.328 650.904 198.192 649.928 199.408 649.928ZM199.408 657.208C201.584 657.208 203.728 655.72 203.728 652.712C203.728 649.688 201.584 648.2 199.408 648.2C197.232 648.2 195.088 649.688 195.088 652.712C195.088 655.72 197.232 657.208 199.408 657.208ZM206.304 659V657H212.16V659H214.208V655.256H212.88V648.392H206.272L206.16 650.952C205.984 654.536 205.568 655.256 204.736 655.256H204.256V659H206.304ZM207.312 655.256C207.92 654.296 208.032 653.496 208.16 651.704L208.256 650.136H210.672V655.256H207.312ZM216.976 659V657H222.832V659H224.88V655.256H223.552V648.392H216.944L216.832 650.952C216.656 654.536 216.24 655.256 215.408 655.256H214.928V659H216.976ZM217.984 655.256C218.592 654.296 218.704 653.496 218.832 651.704L218.928 650.136H221.344V655.256H217.984ZM234.054 653.304C234.134 650.264 232.486 648.2 229.83 648.2C227.286 648.2 225.51 650.104 225.51 652.664C225.51 655.144 227.126 657.208 229.894 657.208C232.246 657.208 233.494 655.784 233.958 654.504H231.686C231.238 655.256 230.566 655.496 229.878 655.496C228.822 655.496 227.83 654.776 227.702 653.304H234.054ZM229.814 649.816C230.742 649.816 231.766 650.328 231.814 651.784H227.734C227.91 650.328 228.982 649.816 229.814 649.816ZM239.732 655.512C238.516 655.512 237.716 654.472 237.716 652.696C237.716 650.968 238.516 649.896 239.732 649.896C240.884 649.896 241.7 651.032 241.7 652.712C241.7 654.392 240.884 655.512 239.732 655.512ZM237.796 659.8V655.912C238.356 656.872 239.364 657.208 240.26 657.208C242.308 657.208 244.02 655.448 244.02 652.696C244.02 649.992 242.356 648.2 240.276 648.2C239.188 648.2 238.26 648.68 237.796 649.496V648.392H235.588V659.8H237.796ZM246.718 657L249.614 652.632H249.63V657H251.838V652.632H251.854L254.75 657H257.342L254.174 652.456L257.182 648.392H254.638L251.854 652.424H251.838V648.392H249.63V652.424H249.614L246.862 648.392H244.398L247.342 652.456L244.174 657H246.718ZM260.75 657V652.776H260.766L263.886 657H266.43L263.038 652.632L266.286 648.392H263.79L260.766 652.568H260.75V648.392H258.526V657H260.75ZM270.97 649.928C272.186 649.928 273.05 650.904 273.05 652.712C273.05 654.52 272.186 655.48 270.97 655.48C269.754 655.48 268.89 654.52 268.89 652.712C268.89 650.904 269.754 649.928 270.97 649.928ZM270.97 657.208C273.146 657.208 275.29 655.72 275.29 652.712C275.29 649.688 273.146 648.2 270.97 648.2C268.794 648.2 266.65 649.688 266.65 652.712C266.65 655.72 268.794 657.208 270.97 657.208ZM280.967 647.384C282.807 647.384 283.575 646.536 283.703 645.4H282.151C282.087 645.912 281.735 646.232 280.983 646.232C280.231 646.232 279.895 645.912 279.831 645.4H278.279C278.359 646.536 279.191 647.384 280.967 647.384ZM279.015 657L282.807 651.336V657H284.967V648.392H282.759L278.967 654.264V648.392H276.807V657H279.015Z" fill="#353535"/>
<defs>
<filter id="filter0_b_130_713" x="-42" y="-42" width="459" height="357" filterUnits="userSpaceOnUse" color-interpolation-filters="sRGB">
<feFlood flood-opacity="0" result="BackgroundImageFix"/>
<feGaussianBlur in="BackgroundImage" stdDeviation="21"/>
<feComposite in2="SourceAlpha" operator="in" result="effect1_backgroundBlur_130_713"/>
<feBlend mode="normal" in="SourceGraphic" in2="effect1_backgroundBlur_130_713" result="shape"/>
</filter>
<filter id="filter1_b_130_713" x="-42" y="163" width="459" height="613" filterUnits="userSpaceOnUse" color-interpolation-filters="sRGB">
<feFlood flood-opacity="0" result="BackgroundImageFix"/>
<feGaussianBlur in="BackgroundImage" stdDeviation="21"/>
<feComposite in2="SourceAlpha" operator="in" result="effect1_backgroundBlur_130_713"/>
<feBlend mode="normal" in="SourceGraphic" in2="effect1_backgroundBlur_130_713" result="shape"/>
</filter>
</defs>
</svg>
