<svg width="378" height="734" viewBox="0 0 378 734" fill="none" xmlns="http://www.w3.org/2000/svg">
<g filter="url(#filter0_b_156_1716)">
<path d="M3 40C3 17.9086 20.9086 0 43 0H338C360.091 0 378 17.9086 378 40V694C378 716.091 360.091 734 338 734H43C20.9086 734 3 716.091 3 694V40Z" fill="#FAFAFA"/>
</g>
<line x1="177.5" y1="10.5" x2="213.5" y2="10.5" stroke="#353535" stroke-width="3" stroke-linecap="round"/>
<g filter="url(#filter1_dd_156_1716)">
<rect x="23" y="367" width="141" height="41" rx="15" fill="white"/>
</g>
<path d="M50.52 391.592H49.112V381.4H41.8L41.752 384.792C41.704 388.488 41.24 391.592 39.896 391.592H39.4V395.416H40.904V393H49.016V395.416H50.52V391.592ZM47.48 391.592H41.976C42.696 390.616 43.288 388.52 43.336 385.32L43.368 382.808H47.48V391.592ZM53.019 388.728C53.019 386.376 54.267 385.528 55.595 385.528C56.923 385.528 58.171 386.424 58.171 388.728C58.171 390.936 56.923 391.928 55.595 391.928C54.267 391.928 53.019 391.032 53.019 388.728ZM55.595 384.248C53.595 384.248 51.467 385.608 51.467 388.728C51.467 391.848 53.595 393.208 55.595 393.208C57.595 393.208 59.723 391.848 59.723 388.728C59.723 385.608 57.595 384.248 55.595 384.248ZM65.4165 384.888C64.1365 384.888 62.9845 385.448 62.4085 386.648C62.6165 384.504 63.6245 383.72 65.7205 383.256L68.4725 382.664V381.368L65.6405 381.928C62.1845 382.616 61.1605 384.424 61.1125 387.528V388.52C61.1125 391.656 62.9365 393.208 65.1605 393.208C67.2725 393.208 69.0485 391.736 69.0485 388.968C69.0485 386.248 67.3685 384.888 65.4165 384.888ZM65.1605 391.944C63.7045 391.944 62.6805 390.808 62.6805 388.984C62.6805 387.048 63.8645 386.152 65.1765 386.152C66.5045 386.152 67.4965 387.112 67.4965 389C67.4965 390.872 66.5685 391.944 65.1605 391.944ZM70.7633 384.392V395.8H72.2193V391.704C72.7473 392.616 73.6432 393.208 75.0353 393.208C77.0193 393.208 78.7153 391.592 78.7153 388.728C78.7153 385.912 77.0193 384.248 75.0353 384.248C73.6432 384.248 72.7473 384.84 72.2193 385.752V384.392H70.7633ZM72.1553 388.728C72.1553 386.456 73.3713 385.496 74.6673 385.496C76.1553 385.496 77.1313 386.664 77.1313 388.728C77.1313 390.792 76.1553 391.96 74.6673 391.96C73.3713 391.96 72.1553 391 72.1553 388.728ZM83.6173 393C85.5853 393 86.8493 392.28 86.8493 390.152C86.8493 388.312 85.8733 387.432 83.6333 387.432H81.9693V384.392H80.5133V393H83.6173ZM81.9693 388.696H83.4413C84.7853 388.696 85.4253 389 85.4253 390.152C85.4253 391.32 84.7693 391.736 83.4893 391.736H81.9693V388.696ZM89.7293 393V384.392H88.2733V393H89.7293ZM97.3528 381.4C97.2888 381.912 96.8888 382.376 95.9448 382.376C95.0008 382.376 94.6168 381.912 94.5528 381.4H93.4168C93.4968 382.36 94.1688 383.336 95.9288 383.336C97.7528 383.336 98.3608 382.36 98.4888 381.4H97.3528ZM98.1048 393H99.5608V384.392H98.1048L93.6568 390.888V384.392H92.2008V393H93.6568L98.1048 386.504V393ZM113.874 391.736H112.674V384.392H106.866L106.754 387.16C106.626 390.456 106.114 391.736 105.138 391.736H104.754V394.904H106.162V393H112.466V394.904H113.874V391.736ZM111.218 391.736H107.026C107.698 391.096 108.066 389.848 108.194 387.304L108.274 385.656H111.218V391.736ZM122.861 389.176C123.037 386.44 121.485 384.248 118.845 384.248C116.493 384.248 114.669 385.976 114.669 388.712C114.669 391.256 116.173 393.208 118.893 393.208C120.989 393.208 122.365 391.976 122.749 390.504H121.245C120.877 391.352 120.173 391.928 118.893 391.928C117.629 391.928 116.285 391.032 116.237 389.176H122.861ZM118.845 385.496C120.397 385.496 121.277 386.712 121.325 387.928H116.253C116.381 386.2 117.565 385.496 118.845 385.496ZM131.822 393V384.392H130.366V387.976H126.11V384.392H124.654V393H126.11V389.24H130.366V393H131.822ZM135.735 387.432V384.392H134.279V393H137.767C139.751 393 140.999 392.28 140.999 390.152C140.999 388.312 140.039 387.432 137.783 387.432H135.735ZM135.735 391.736V388.696H137.607C138.903 388.696 139.575 389.016 139.575 390.152C139.575 391.304 138.919 391.736 137.639 391.736H135.735ZM143.822 389.608L144.142 384.904V381.4H142.59V384.904L142.91 389.608H143.822ZM144.286 393V391.16H142.446V393H144.286Z" fill="#333333"/>
<g filter="url(#filter2_dd_156_1716)">
<rect x="23" y="116" width="326" height="214" rx="15" fill="white"/>
</g>
<rect width="307" height="56" rx="28" transform="matrix(-1 0 0 1 340 191)" fill="#E6E6E6"/>
<path d="M103.944 218.192C103.944 215.472 105.448 214.016 107.256 214.016C109.064 214.016 110.568 215.472 110.568 218.192C110.568 220.928 109.064 222.384 107.256 222.384C105.448 222.384 103.944 220.928 103.944 218.192ZM112.936 218.192C112.936 214.592 110.712 212.192 107.256 212.192C103.8 212.192 101.576 214.592 101.576 218.192C101.576 221.792 103.8 224.208 107.256 224.208C110.712 224.208 112.936 221.792 112.936 218.192ZM118.764 224V217.136H121.564V215.392H113.756V217.136H116.556V224H118.764ZM125.125 224V219.776H125.141L128.261 224H130.805L127.413 219.632L130.661 215.392H128.165L125.141 219.568H125.125V215.392H122.901V224H125.125ZM136.806 220.704C136.806 221.968 136.23 222.704 134.838 222.704C133.83 222.704 133.35 222.192 133.35 221.568C133.35 220.608 134.326 220.32 136.806 220.064V220.704ZM136.998 222.928C137.046 223.36 137.078 223.728 137.142 224H139.174C138.998 223.28 138.918 222.512 138.918 221.152C138.918 220.384 138.95 219.216 138.95 218.96C138.95 216.064 137.27 215.168 135.238 215.168C133.014 215.168 131.638 216.416 131.462 218.112H133.526C133.574 217.152 134.278 216.72 135.126 216.72C136.022 216.72 136.742 217.184 136.742 218.512V218.656C133.35 219.04 131.078 219.648 131.078 221.68C131.078 223.248 132.534 224.208 134.182 224.208C135.478 224.208 136.374 223.824 136.998 222.928ZM144.012 224.208C146.252 224.208 147.932 223.344 147.932 221.424C147.932 220.288 147.372 219.696 146.412 219.424C147.228 219.056 147.644 218.464 147.644 217.648C147.644 215.904 146.044 215.152 144.076 215.152C142.172 215.152 140.396 216.128 140.092 218.272H142.22C142.332 217.312 142.988 216.752 143.948 216.752C144.972 216.752 145.484 217.248 145.484 217.872C145.484 218.512 144.924 218.832 144.108 218.832H142.924V220.352H144.204C145.212 220.352 145.788 220.656 145.788 221.472C145.788 222.176 145.148 222.608 144.076 222.608C142.86 222.608 142.188 221.984 142.076 221.088H139.948C140.284 223.392 142.044 224.208 144.012 224.208ZM154.79 220.704C154.79 221.968 154.214 222.704 152.822 222.704C151.814 222.704 151.334 222.192 151.334 221.568C151.334 220.608 152.31 220.32 154.79 220.064V220.704ZM154.982 222.928C155.03 223.36 155.062 223.728 155.126 224H157.158C156.982 223.28 156.902 222.512 156.902 221.152C156.902 220.384 156.934 219.216 156.934 218.96C156.934 216.064 155.254 215.168 153.222 215.168C150.998 215.168 149.622 216.416 149.446 218.112H151.51C151.558 217.152 152.262 216.72 153.11 216.72C154.006 216.72 154.726 217.184 154.726 218.512V218.656C151.334 219.04 149.062 219.648 149.062 221.68C149.062 223.248 150.518 224.208 152.166 224.208C153.462 224.208 154.358 223.824 154.982 222.928ZM162.842 224V217.136H165.642V215.392H157.834V217.136H160.634V224H162.842ZM171.043 224C173.299 224 174.419 223.264 174.419 221.056C174.419 219.12 173.395 218.192 170.963 218.192H169.187V215.392H166.979V224H171.043ZM169.187 219.92H170.755C171.779 219.92 172.291 220.208 172.291 221.024C172.291 221.936 171.795 222.272 170.771 222.272H169.187V219.92ZM179.611 215.2C177.035 215.2 175.291 217.088 175.291 219.712C175.291 222.32 176.939 224.208 179.515 224.208C181.307 224.208 183.083 223.424 183.595 221.072H181.483C181.179 222.096 180.395 222.496 179.627 222.496C178.411 222.496 177.547 221.488 177.547 219.68C177.547 217.888 178.459 216.912 179.611 216.912C180.459 216.912 181.227 217.504 181.403 218.336H183.515C183.211 216.208 181.419 215.2 179.611 215.2ZM186.332 224L188.204 221.104H189.66V224H191.868V215.392H188.012C185.756 215.392 184.572 216.384 184.572 218.096C184.572 219.264 185.212 219.936 186.172 220.48L183.804 224H186.332ZM188.172 219.376C187.228 219.376 186.716 219.008 186.716 218.256C186.716 217.568 187.164 217.12 188.124 217.12H189.66V219.376H188.172ZM201.314 216.928C202.53 216.928 203.394 217.904 203.394 219.712C203.394 221.52 202.53 222.48 201.314 222.48C200.098 222.48 199.234 221.52 199.234 219.712C199.234 217.904 200.098 216.928 201.314 216.928ZM201.314 224.208C203.49 224.208 205.634 222.72 205.634 219.712C205.634 216.688 203.49 215.2 201.314 215.2C199.138 215.2 196.994 216.688 196.994 219.712C196.994 222.72 199.138 224.208 201.314 224.208ZM211.107 224V217.136H213.907V215.392H206.099V217.136H208.899V224H211.107ZM222.246 224.208C224.486 224.208 226.166 223.344 226.166 221.424C226.166 220.288 225.606 219.696 224.646 219.424C225.462 219.056 225.878 218.464 225.878 217.648C225.878 215.904 224.278 215.152 222.31 215.152C220.406 215.152 218.63 216.128 218.326 218.272H220.454C220.566 217.312 221.222 216.752 222.182 216.752C223.206 216.752 223.718 217.248 223.718 217.872C223.718 218.512 223.158 218.832 222.342 218.832H221.158V220.352H222.438C223.446 220.352 224.022 220.656 224.022 221.472C224.022 222.176 223.382 222.608 222.31 222.608C221.094 222.608 220.422 221.984 220.31 221.088H218.182C218.518 223.392 220.278 224.208 222.246 224.208ZM233.024 220.704C233.024 221.968 232.448 222.704 231.056 222.704C230.048 222.704 229.568 222.192 229.568 221.568C229.568 220.608 230.544 220.32 233.024 220.064V220.704ZM233.216 222.928C233.264 223.36 233.296 223.728 233.36 224H235.392C235.216 223.28 235.136 222.512 235.136 221.152C235.136 220.384 235.168 219.216 235.168 218.96C235.168 216.064 233.488 215.168 231.456 215.168C229.232 215.168 227.856 216.416 227.68 218.112H229.744C229.792 217.152 230.496 216.72 231.344 216.72C232.24 216.72 232.96 217.184 232.96 218.512V218.656C229.568 219.04 227.296 219.648 227.296 221.68C227.296 223.248 228.752 224.208 230.4 224.208C231.696 224.208 232.592 223.824 233.216 222.928ZM239.344 224V219.776H239.36L242.48 224H245.024L241.632 219.632L244.88 215.392H242.384L239.36 219.568H239.344V215.392H237.12V224H239.344ZM251.024 220.704C251.024 221.968 250.448 222.704 249.056 222.704C248.048 222.704 247.568 222.192 247.568 221.568C247.568 220.608 248.544 220.32 251.024 220.064V220.704ZM251.216 222.928C251.264 223.36 251.296 223.728 251.36 224H253.392C253.216 223.28 253.136 222.512 253.136 221.152C253.136 220.384 253.168 219.216 253.168 218.96C253.168 216.064 251.488 215.168 249.456 215.168C247.232 215.168 245.856 216.416 245.68 218.112H247.744C247.792 217.152 248.496 216.72 249.344 216.72C250.24 216.72 250.96 217.184 250.96 218.512V218.656C247.568 219.04 245.296 219.648 245.296 221.68C245.296 223.248 246.752 224.208 248.4 224.208C249.696 224.208 250.592 223.824 251.216 222.928ZM258.23 224.208C260.47 224.208 262.15 223.344 262.15 221.424C262.15 220.288 261.59 219.696 260.63 219.424C261.446 219.056 261.862 218.464 261.862 217.648C261.862 215.904 260.262 215.152 258.294 215.152C256.39 215.152 254.614 216.128 254.31 218.272H256.438C256.55 217.312 257.206 216.752 258.166 216.752C259.19 216.752 259.702 217.248 259.702 217.872C259.702 218.512 259.142 218.832 258.326 218.832H257.142V220.352H258.422C259.43 220.352 260.006 220.656 260.006 221.472C260.006 222.176 259.366 222.608 258.294 222.608C257.078 222.608 256.406 221.984 256.294 221.088H254.166C254.502 223.392 256.262 224.208 258.23 224.208ZM269.009 220.704C269.009 221.968 268.433 222.704 267.041 222.704C266.033 222.704 265.553 222.192 265.553 221.568C265.553 220.608 266.529 220.32 269.009 220.064V220.704ZM269.201 222.928C269.249 223.36 269.281 223.728 269.345 224H271.377C271.201 223.28 271.121 222.512 271.121 221.152C271.121 220.384 271.153 219.216 271.153 218.96C271.153 216.064 269.473 215.168 267.441 215.168C265.217 215.168 263.841 216.416 263.665 218.112H265.729C265.777 217.152 266.481 216.72 267.329 216.72C268.225 216.72 268.945 217.184 268.945 218.512V218.656C265.553 219.04 263.281 219.648 263.281 221.68C263.281 223.248 264.737 224.208 266.385 224.208C267.681 224.208 268.577 223.824 269.201 222.928Z" fill="#1E1E1E"/>
<path d="M40.675 75V56.875H37.1V65.525C36.025 65.8 34.675 65.9 33.7 65.9C30.975 65.9 29.95 64.875 29.95 62.075V56.875H26.375V63.025C26.375 66.85 28.425 68.85 32.45 68.85C33.95 68.85 35.725 68.575 37.1 68.275V75H40.675ZM52.5525 69.85C52.5525 71.825 51.6525 72.975 49.4775 72.975C47.9025 72.975 47.1525 72.175 47.1525 71.2C47.1525 69.7 48.6775 69.25 52.5525 68.85V69.85ZM52.8525 73.325C52.9275 74 52.9775 74.575 53.0775 75H56.2525C55.9775 73.875 55.8525 72.675 55.8525 70.55C55.8525 69.35 55.9025 67.525 55.9025 67.125C55.9025 62.6 53.2775 61.2 50.1025 61.2C46.6275 61.2 44.4775 63.15 44.2025 65.8H47.4275C47.5025 64.3 48.6025 63.625 49.9275 63.625C51.3275 63.625 52.4525 64.35 52.4525 66.425V66.65C47.1525 67.25 43.6025 68.2 43.6025 71.375C43.6025 73.825 45.8775 75.325 48.4525 75.325C50.4775 75.325 51.8775 74.725 52.8525 73.325ZM65.1336 75V64.275H69.5086V61.55H57.3086V64.275H61.6836V75H65.1336Z" fill="#333333"/>
<path d="M3 592C3 577.088 15.0883 565 30 565H351C365.912 565 378 577.088 378 592V694C378 716.091 360.091 734 338 734H43C20.9086 734 3 716.091 3 694L3 592Z" fill="#1E1E1E"/>
<g filter="url(#filter3_d_156_1716)">
<rect width="56" height="56" rx="28" transform="matrix(-1 0 0 1 67 577)" fill="#353535"/>
</g>
<rect width="158" height="56" rx="28" transform="matrix(-1 0 0 1 368 577)" fill="#EFFA35"/>
<path d="M248.335 604.192C248.335 601.472 249.839 600.016 251.647 600.016C253.455 600.016 254.959 601.472 254.959 604.192C254.959 606.928 253.455 608.384 251.647 608.384C249.839 608.384 248.335 606.928 248.335 604.192ZM257.327 604.192C257.327 600.592 255.103 598.192 251.647 598.192C248.191 598.192 245.967 600.592 245.967 604.192C245.967 607.792 248.191 610.208 251.647 610.208C255.103 610.208 257.327 607.792 257.327 604.192ZM263.154 610V603.136H265.954V601.392H258.146V603.136H260.946V610H263.154ZM269.5 610V603.136H272.78V610H274.988V601.392H267.292V610H269.5ZM281.342 608.512C280.126 608.512 279.326 607.472 279.326 605.696C279.326 603.968 280.126 602.896 281.342 602.896C282.494 602.896 283.31 604.032 283.31 605.712C283.31 607.392 282.494 608.512 281.342 608.512ZM279.406 612.8V608.912C279.966 609.872 280.974 610.208 281.87 610.208C283.918 610.208 285.63 608.448 285.63 605.696C285.63 602.992 283.966 601.2 281.886 601.2C280.798 601.2 279.87 601.68 279.406 602.496V601.392H277.198V612.8H279.406ZM292.352 606.704C292.352 607.968 291.776 608.704 290.384 608.704C289.376 608.704 288.896 608.192 288.896 607.568C288.896 606.608 289.872 606.32 292.352 606.064V606.704ZM292.544 608.928C292.592 609.36 292.624 609.728 292.688 610H294.72C294.544 609.28 294.464 608.512 294.464 607.152C294.464 606.384 294.496 605.216 294.496 604.96C294.496 602.064 292.816 601.168 290.784 601.168C288.56 601.168 287.184 602.416 287.008 604.112H289.072C289.12 603.152 289.824 602.72 290.672 602.72C291.568 602.72 292.288 603.184 292.288 604.512V604.656C288.896 605.04 286.624 605.648 286.624 607.68C286.624 609.248 288.08 610.208 289.728 610.208C291.024 610.208 291.92 609.824 292.544 608.928ZM300.88 610C302.88 610 304.336 609.264 304.336 607.376C304.336 606.288 303.728 605.68 302.896 605.408C303.616 605.072 303.984 604.48 303.984 603.632C303.984 601.84 302.528 601.392 300.688 601.392H296.448V610H300.88ZM298.656 606.304H300.64C301.664 606.304 302.192 606.592 302.192 607.28C302.192 607.936 301.68 608.272 300.656 608.272H298.656V606.304ZM298.656 603.12H300.512C301.36 603.12 301.856 603.296 301.856 603.952C301.856 604.592 301.36 604.864 300.528 604.864H298.656V603.12ZM308.281 610L312.073 604.336V610H314.233V601.392H312.025L308.233 607.264V601.392H306.073V610H308.281ZM320.592 610V603.136H323.392V601.392H315.584V603.136H318.384V610H320.592ZM328.793 610C331.049 610 332.169 609.264 332.169 607.056C332.169 605.12 331.145 604.192 328.713 604.192H326.937V601.392H324.729V610H328.793ZM326.937 605.92H328.505C329.529 605.92 330.041 606.208 330.041 607.024C330.041 607.936 329.545 608.272 328.521 608.272H326.937V605.92Z" fill="#333333"/>
<path d="M32.52 681.304C32.152 682.792 31.032 683.832 29.176 683.832C27.016 683.832 25.48 682.12 25.48 679.176C25.48 676.168 27.08 674.568 29.128 674.568C30.968 674.568 32.12 675.64 32.456 677.096H34.04C33.528 674.616 31.608 673.192 29.208 673.192C25.944 673.192 23.816 675.592 23.816 679.176C23.816 682.696 25.752 685.208 29.08 685.208C31.592 685.208 33.592 683.864 34.104 681.304H32.52ZM36.9096 680.728C36.9096 678.376 38.1576 677.528 39.4856 677.528C40.8136 677.528 42.0616 678.424 42.0616 680.728C42.0616 682.936 40.8136 683.928 39.4856 683.928C38.1576 683.928 36.9096 683.032 36.9096 680.728ZM39.4856 676.248C37.4856 676.248 35.3576 677.608 35.3576 680.728C35.3576 683.848 37.4856 685.208 39.4856 685.208C41.4856 685.208 43.6136 683.848 43.6136 680.728C43.6136 677.608 41.4856 676.248 39.4856 676.248ZM46.4721 680.728C46.4721 678.376 47.7201 677.528 49.0481 677.528C50.3761 677.528 51.6241 678.424 51.6241 680.728C51.6241 682.936 50.3761 683.928 49.0481 683.928C47.7201 683.928 46.4721 683.032 46.4721 680.728ZM49.0481 676.248C47.0481 676.248 44.9201 677.608 44.9201 680.728C44.9201 683.848 47.0481 685.208 49.0481 685.208C51.0481 685.208 53.1761 683.848 53.1761 680.728C53.1761 677.608 51.0481 676.248 49.0481 676.248ZM58.8696 676.888C57.5896 676.888 56.4376 677.448 55.8616 678.648C56.0696 676.504 57.0776 675.72 59.1736 675.256L61.9256 674.664V673.368L59.0936 673.928C55.6376 674.616 54.6136 676.424 54.5656 679.528V680.52C54.5656 683.656 56.3896 685.208 58.6136 685.208C60.7256 685.208 62.5016 683.736 62.5016 680.968C62.5016 678.248 60.8216 676.888 58.8696 676.888ZM58.6136 683.944C57.1576 683.944 56.1336 682.808 56.1336 680.984C56.1336 679.048 57.3176 678.152 58.6296 678.152C59.9576 678.152 60.9496 679.112 60.9496 681C60.9496 682.872 60.0216 683.944 58.6136 683.944ZM76.0244 683.736H74.8244V676.392H73.3684V683.736H70.2484V676.392H68.7924V683.736H65.6724V676.392H64.2164V685H74.6484V687.064H76.0244V683.736ZM85.0176 681.176C85.1936 678.44 83.6416 676.248 81.0016 676.248C78.6496 676.248 76.8256 677.976 76.8256 680.712C76.8256 683.256 78.3296 685.208 81.0496 685.208C83.1456 685.208 84.5216 683.976 84.9056 682.504H83.4016C83.0336 683.352 82.3296 683.928 81.0496 683.928C79.7856 683.928 78.4416 683.032 78.3936 681.176H85.0176ZM81.0016 677.496C82.5536 677.496 83.4336 678.712 83.4816 679.928H78.4096C78.5376 678.2 79.7216 677.496 81.0016 677.496ZM93.9781 685V676.392H92.5221V679.976H88.2661V676.392H86.8101V685H88.2661V681.24H92.5221V685H93.9781ZM102.339 685H103.795V676.392H102.339L97.8911 682.888V676.392H96.4351V685H97.8911L102.339 678.504V685ZM113.783 681.176C113.959 678.44 112.407 676.248 109.767 676.248C107.415 676.248 105.591 677.976 105.591 680.712C105.591 683.256 107.095 685.208 109.815 685.208C111.911 685.208 113.287 683.976 113.671 682.504H112.167C111.799 683.352 111.095 683.928 109.815 683.928C108.551 683.928 107.207 683.032 107.159 681.176H113.783ZM109.767 677.496C111.319 677.496 112.199 678.712 112.247 679.928H107.175C107.303 678.2 108.487 677.496 109.767 677.496ZM116.989 685V683.16H115.149V685H116.989ZM120.911 685V683.16H119.071V685H120.911ZM124.833 685V683.16H122.993V685H124.833Z" fill="#999999"/>
<path d="M50 612C50 612.53 49.7893 613.039 49.4142 613.414C49.0391 613.789 48.5304 614 48 614H30C29.4696 614 28.9609 613.789 28.5858 613.414C28.2107 613.039 28 612.53 28 612V601C28 600.47 28.2107 599.961 28.5858 599.586C28.9609 599.211 29.4696 599 30 599H34L36 596H42L44 599H48C48.5304 599 49.0391 599.211 49.4142 599.586C49.7893 599.961 50 600.47 50 601V612Z" stroke="white" stroke-linecap="round" stroke-linejoin="round"/>
<path d="M39 610C41.2091 610 43 608.209 43 606C43 603.791 41.2091 602 39 602C36.7909 602 35 603.791 35 606C35 608.209 36.7909 610 39 610Z" stroke="white" stroke-linecap="round" stroke-linejoin="round"/>
<path d="M47.568 266.4H45.936V272.08C45.104 272.272 44.176 272.384 43.424 272.384C41.568 272.384 40.592 271.808 40.592 269.872V266.4H38.96V270.288C38.96 272.64 40.288 273.824 42.944 273.824C43.888 273.824 44.96 273.664 45.936 273.456V278H47.568V266.4ZM57.8614 274.176C58.0374 271.44 56.4854 269.248 53.8454 269.248C51.4934 269.248 49.6694 270.976 49.6694 273.712C49.6694 276.256 51.1734 278.208 53.8934 278.208C55.9894 278.208 57.3654 276.976 57.7494 275.504H56.2454C55.8774 276.352 55.1734 276.928 53.8934 276.928C52.6294 276.928 51.2854 276.032 51.2374 274.176H57.8614ZM53.8454 270.496C55.3974 270.496 56.2774 271.712 56.3254 272.928H51.2534C51.3814 271.2 52.5654 270.496 53.8454 270.496ZM59.6539 269.392V280.8H61.1099V276.704C61.6379 277.616 62.5339 278.208 63.9259 278.208C65.9099 278.208 67.6059 276.592 67.6059 273.728C67.6059 270.912 65.9099 269.248 63.9259 269.248C62.5339 269.248 61.6379 269.84 61.1099 270.752V269.392H59.6539ZM61.0459 273.728C61.0459 271.456 62.2619 270.496 63.5579 270.496C65.0459 270.496 66.0219 271.664 66.0219 273.728C66.0219 275.792 65.0459 276.96 63.5579 276.96C62.2619 276.96 61.0459 276 61.0459 273.728ZM77.0489 274.176C77.2249 271.44 75.6729 269.248 73.0329 269.248C70.6809 269.248 68.8569 270.976 68.8569 273.712C68.8569 276.256 70.3609 278.208 73.0809 278.208C75.1769 278.208 76.5529 276.976 76.9369 275.504H75.4329C75.0649 276.352 74.3609 276.928 73.0809 276.928C71.8169 276.928 70.4729 276.032 70.4249 274.176H77.0489ZM73.0329 270.496C74.5849 270.496 75.4649 271.712 75.5129 272.928H70.4409C70.5689 271.2 71.7529 270.496 73.0329 270.496ZM83.5275 273.488C84.2955 273.12 84.8875 272.512 84.8875 271.632C84.8875 270.016 83.3195 269.2 81.6235 269.2C79.8155 269.2 78.4235 270.176 78.1195 272.048H79.6235C79.8155 270.88 80.6315 270.48 81.7035 270.48C82.6475 270.48 83.3835 270.848 83.3835 271.664C83.3835 272.56 82.7755 273.008 81.7675 273.008H80.4715V274.208H81.8475C83.0635 274.208 83.7195 274.608 83.7195 275.616C83.7195 276.432 82.9515 276.992 81.7355 276.992C80.5035 276.992 79.6875 276.48 79.4475 275.376H77.9755C78.2795 277.344 79.7995 278.208 81.6395 278.208C83.5595 278.208 85.2715 277.408 85.2715 275.552C85.2715 274.4 84.4395 273.744 83.5275 273.488ZM97.8025 272.192C97.8025 275.44 96.6825 276.992 94.8425 276.992C93.0025 276.992 91.8825 275.44 91.8825 272.192C91.8825 268.976 93.0025 267.408 94.8425 267.408C96.6505 267.408 97.8025 268.976 97.8025 272.192ZM99.3545 272.192C99.3545 268.528 97.9305 266.192 94.8425 266.192C91.7545 266.192 90.3305 268.528 90.3305 272.192C90.3305 275.856 91.7545 278.208 94.8425 278.208C97.9305 278.208 99.3545 275.856 99.3545 272.192ZM104.973 276.992C103.357 276.992 102.589 276.112 102.349 274.64H100.845C101.053 276.512 102.301 278.208 104.973 278.208C107.133 278.208 109.101 276.832 109.101 274.176C109.101 271.616 107.325 270.176 105.293 270.176C104.333 270.176 103.421 270.464 102.797 271.056L103.197 267.76H108.669V266.4H102.013L101.261 272.64L102.717 272.72C102.973 272.144 103.757 271.44 104.957 271.44C106.221 271.44 107.565 272.272 107.565 274.192C107.565 275.984 106.365 276.992 104.973 276.992ZM112.739 271.232V269.392H110.899V271.232H112.739ZM112.739 278V276.16H110.899V278H112.739ZM119.813 268.4V273.76H115.669L119.813 268.4ZM123.413 273.76H121.285V266.4H119.797L114.053 273.76V275.136H119.813V278H121.285V275.136H123.413V273.76ZM128.278 276.992C126.63 276.992 125.814 276 125.638 274.576H124.134C124.31 276.512 125.51 278.208 128.262 278.208C130.486 278.208 132.454 277.072 132.454 274.736C132.454 273.504 131.974 272.384 130.246 271.824C131.462 271.328 132.134 270.336 132.134 269.136C132.134 267.008 130.374 266.192 128.374 266.192C125.942 266.192 124.486 267.616 124.31 269.664H125.814C125.942 268.336 126.79 267.408 128.342 267.408C129.574 267.408 130.598 268.064 130.598 269.296C130.598 270.656 129.542 271.216 127.51 271.216H127.318V272.544H127.558C129.414 272.544 130.902 273.088 130.902 274.752C130.902 276.208 129.814 276.992 128.278 276.992ZM145.273 269.392H138.185V278H139.641V270.656H143.817V278H145.273V269.392ZM147.732 269.392V280.8H149.188V276.704C149.716 277.616 150.612 278.208 152.004 278.208C153.988 278.208 155.684 276.592 155.684 273.728C155.684 270.912 153.988 269.248 152.004 269.248C150.612 269.248 149.716 269.84 149.188 270.752V269.392H147.732ZM149.124 273.728C149.124 271.456 150.34 270.496 151.636 270.496C153.124 270.496 154.1 271.664 154.1 273.728C154.1 275.792 153.124 276.96 151.636 276.96C150.34 276.96 149.124 276 149.124 273.728ZM163.386 278H164.842V269.392H163.386L158.938 275.888V269.392H157.482V278H158.938L163.386 271.504V278ZM175.358 276.736H174.158V269.392H168.35L168.238 272.16C168.11 275.456 167.598 276.736 166.622 276.736H166.238V279.904H167.646V278H173.95V279.904H175.358V276.736ZM172.702 276.736H168.51C169.182 276.096 169.55 274.848 169.678 272.304L169.758 270.656H172.702V276.736ZM184.346 274.176C184.522 271.44 182.97 269.248 180.33 269.248C177.978 269.248 176.154 270.976 176.154 273.712C176.154 276.256 177.658 278.208 180.378 278.208C182.474 278.208 183.85 276.976 184.234 275.504H182.73C182.362 276.352 181.658 276.928 180.378 276.928C179.114 276.928 177.77 276.032 177.722 274.176H184.346ZM180.33 270.496C181.882 270.496 182.762 271.712 182.81 272.928H177.738C177.866 271.2 179.05 270.496 180.33 270.496ZM192.131 270.656V269.392H184.787V270.656H187.731V278H189.187V270.656H192.131ZM196.892 280.8H197.644C199.58 280.8 199.996 280.224 200.636 278.368L203.708 269.392H202.188L200.06 276.032L197.868 269.392H196.252L199.356 278L199.292 278.176C198.908 279.52 198.444 279.584 197.484 279.584H196.892V280.8ZM205.013 269.392V278H209.013C210.853 278 212.245 277.28 212.245 275.488C212.245 274.336 211.589 273.728 210.693 273.472C211.493 273.136 211.893 272.496 211.893 271.584C211.893 269.84 210.485 269.392 208.757 269.392H205.013ZM206.469 273.008V270.656H208.613C209.701 270.656 210.373 270.848 210.373 271.744C210.373 272.72 209.733 273.008 208.661 273.008H206.469ZM206.469 274.208H208.741C210.085 274.208 210.725 274.512 210.725 275.472C210.725 276.368 210.069 276.736 208.789 276.736H206.469V274.208ZM221.471 274.176C221.647 271.44 220.095 269.248 217.455 269.248C215.103 269.248 213.279 270.976 213.279 273.712C213.279 276.256 214.783 278.208 217.503 278.208C219.599 278.208 220.975 276.976 221.359 275.504H219.855C219.487 276.352 218.783 276.928 217.503 276.928C216.239 276.928 214.895 276.032 214.847 274.176H221.471ZM217.455 270.496C219.007 270.496 219.887 271.712 219.935 272.928H214.863C214.991 271.2 216.175 270.496 217.455 270.496ZM231.155 276.736H229.955V269.392H224.147L224.035 272.16C223.907 275.456 223.395 276.736 222.419 276.736H222.035V279.904H223.443V278H229.747V279.904H231.155V276.736ZM228.499 276.736H224.307C224.979 276.096 225.347 274.848 225.475 272.304L225.555 270.656H228.499V276.736ZM233.535 273.728C233.535 271.376 234.783 270.528 236.111 270.528C237.439 270.528 238.687 271.424 238.687 273.728C238.687 275.936 237.439 276.928 236.111 276.928C234.783 276.928 233.535 276.032 233.535 273.728ZM236.111 269.248C234.111 269.248 231.983 270.608 231.983 273.728C231.983 276.848 234.111 278.208 236.111 278.208C238.111 278.208 240.239 276.848 240.239 273.728C240.239 270.608 238.111 269.248 236.111 269.248ZM251.468 269.392H249.388L246.812 276.016L244.14 269.392H242.06V278H243.484V271.184L246.236 278H247.276L250.044 271.088V278H251.468V269.392ZM260.735 269.392H254.991L254.863 272.336C254.687 275.904 253.951 276.736 253.183 276.736H253.023V278H253.295C255.295 278 256.047 276.208 256.255 272.736L256.383 270.656H259.279V278H260.735V269.392ZM270.721 274.176C270.897 271.44 269.345 269.248 266.705 269.248C264.353 269.248 262.529 270.976 262.529 273.712C262.529 276.256 264.033 278.208 266.753 278.208C268.849 278.208 270.225 276.976 270.609 275.504H269.105C268.737 276.352 268.033 276.928 266.753 276.928C265.489 276.928 264.145 276.032 264.097 274.176H270.721ZM266.705 270.496C268.257 270.496 269.137 271.712 269.185 272.928H264.113C264.241 271.2 265.425 270.496 266.705 270.496ZM279.681 278V269.392H278.225V272.976H273.969V269.392H272.513V278H273.969V274.24H278.225V278H279.681ZM288.042 278H289.498V269.392H288.042L283.594 275.888V269.392H282.138V278H283.594L288.042 271.504V278ZM299.486 274.176C299.662 271.44 298.11 269.248 295.47 269.248C293.118 269.248 291.294 270.976 291.294 273.712C291.294 276.256 292.798 278.208 295.518 278.208C297.614 278.208 298.99 276.976 299.374 275.504H297.87C297.502 276.352 296.798 276.928 295.518 276.928C294.254 276.928 292.91 276.032 292.862 274.176H299.486ZM295.47 270.496C297.022 270.496 297.902 271.712 297.95 272.928H292.878C293.006 271.2 294.19 270.496 295.47 270.496ZM40.144 292.728C40.144 290.376 41.392 289.528 42.72 289.528C44.048 289.528 45.296 290.424 45.296 292.728C45.296 294.936 44.048 295.928 42.72 295.928C41.392 295.928 40.144 295.032 40.144 292.728ZM42.72 288.248C40.72 288.248 38.592 289.608 38.592 292.728C38.592 295.848 40.72 297.208 42.72 297.208C44.72 297.208 46.848 295.848 46.848 292.728C46.848 289.608 44.72 288.248 42.72 288.248ZM59.5544 288.392H52.4664V297H53.9224V289.656H58.0984V297H59.5544V288.392ZM62.9253 292.728C62.9253 290.376 64.1733 289.528 65.5013 289.528C66.8293 289.528 68.0773 290.424 68.0773 292.728C68.0773 294.936 66.8293 295.928 65.5013 295.928C64.1733 295.928 62.9253 295.032 62.9253 292.728ZM65.5013 288.248C63.5013 288.248 61.3733 289.608 61.3733 292.728C61.3733 295.848 63.5013 297.208 65.5013 297.208C67.5013 297.208 69.6293 295.848 69.6293 292.728C69.6293 289.608 67.5013 288.248 65.5013 288.248ZM79.3425 295.736H78.1425V288.392H72.3345L72.2225 291.16C72.0945 294.456 71.5825 295.736 70.6065 295.736H70.2225V298.904H71.6305V297H77.9345V298.904H79.3425V295.736ZM76.6865 295.736H72.4945C73.1665 295.096 73.5345 293.848 73.6625 291.304L73.7425 289.656H76.6865V295.736ZM87.0371 289.656V288.392H79.6931V289.656H82.6371V297H84.0931V289.656H87.0371ZM88.5133 288.392V297H92.5133C94.3533 297 95.7453 296.28 95.7453 294.488C95.7453 293.336 95.0893 292.728 94.1933 292.472C94.9933 292.136 95.3933 291.496 95.3933 290.584C95.3933 288.84 93.9853 288.392 92.2573 288.392H88.5133ZM89.9693 292.008V289.656H92.1133C93.2013 289.656 93.8733 289.848 93.8733 290.744C93.8733 291.72 93.2333 292.008 92.1613 292.008H89.9693ZM89.9693 293.208H92.2413C93.5853 293.208 94.2253 293.512 94.2253 294.472C94.2253 295.368 93.5693 295.736 92.2893 295.736H89.9693V293.208ZM104.971 293.176C105.147 290.44 103.595 288.248 100.955 288.248C98.6028 288.248 96.7788 289.976 96.7788 292.712C96.7788 295.256 98.2828 297.208 101.003 297.208C103.099 297.208 104.475 295.976 104.859 294.504H103.355C102.987 295.352 102.283 295.928 101.003 295.928C99.7388 295.928 98.3948 295.032 98.3468 293.176H104.971ZM100.955 289.496C102.507 289.496 103.387 290.712 103.435 291.928H98.3628C98.4908 290.2 99.6748 289.496 100.955 289.496ZM106.763 288.392V299.8H108.219V295.704C108.747 296.616 109.643 297.208 111.035 297.208C113.019 297.208 114.715 295.592 114.715 292.728C114.715 289.912 113.019 288.248 111.035 288.248C109.643 288.248 108.747 288.84 108.219 289.752V288.392H106.763ZM108.155 292.728C108.155 290.456 109.371 289.496 110.667 289.496C112.155 289.496 113.131 290.664 113.131 292.728C113.131 294.792 112.155 295.96 110.667 295.96C109.371 295.96 108.155 295 108.155 292.728ZM124.633 292.456L127.497 288.392H125.817L123.401 291.928H122.185V288.392H120.729V291.928H119.513L117.113 288.392H115.417L118.297 292.504L115.129 297H116.905L119.513 293.192H120.729V297H122.185V293.192H123.449L126.041 297H127.785L124.633 292.456ZM137.296 295.736H136.096V288.392H130.288L130.176 291.16C130.048 294.456 129.536 295.736 128.56 295.736H128.176V298.904H129.584V297H135.888V298.904H137.296V295.736ZM134.64 295.736H130.448C131.12 295.096 131.488 293.848 131.616 291.304L131.696 289.656H134.64V295.736ZM146.283 293.176C146.459 290.44 144.907 288.248 142.267 288.248C139.915 288.248 138.091 289.976 138.091 292.712C138.091 295.256 139.595 297.208 142.315 297.208C144.411 297.208 145.787 295.976 146.171 294.504H144.667C144.299 295.352 143.595 295.928 142.315 295.928C141.051 295.928 139.707 295.032 139.659 293.176H146.283ZM142.267 289.496C143.819 289.496 144.699 290.712 144.747 291.928H139.675C139.803 290.2 140.987 289.496 142.267 289.496ZM155.244 297V288.392H153.788V291.976H149.532V288.392H148.076V297H149.532V293.24H153.788V297H155.244ZM163.605 297H165.061V288.392H163.605L159.157 294.888V288.392H157.701V297H159.157L163.605 290.504V297ZM173.433 297H174.889V288.392H173.433L168.985 294.888V288.392H167.529V297H168.985L173.433 290.504V297ZM177.165 297H177.949L177.101 299.224H178.029L179.005 297.128V295.16H177.165V297ZM185.988 292.728C185.988 290.376 187.236 289.528 188.564 289.528C189.892 289.528 191.14 290.424 191.14 292.728C191.14 294.936 189.892 295.928 188.564 295.928C187.236 295.928 185.988 295.032 185.988 292.728ZM188.564 288.248C186.564 288.248 184.436 289.608 184.436 292.728C184.436 295.848 186.564 297.208 188.564 297.208C190.564 297.208 192.692 295.848 192.692 292.728C192.692 289.608 190.564 288.248 188.564 288.248ZM198.385 288.888C197.105 288.888 195.953 289.448 195.377 290.648C195.585 288.504 196.593 287.72 198.689 287.256L201.441 286.664V285.368L198.609 285.928C195.153 286.616 194.129 288.424 194.081 291.528V292.52C194.081 295.656 195.905 297.208 198.129 297.208C200.241 297.208 202.017 295.736 202.017 292.968C202.017 290.248 200.337 288.888 198.385 288.888ZM198.129 295.944C196.673 295.944 195.649 294.808 195.649 292.984C195.649 291.048 196.833 290.152 198.145 290.152C199.473 290.152 200.465 291.112 200.465 293C200.465 294.872 199.537 295.944 198.129 295.944ZM207.22 288.248C204.676 288.248 203.06 290.152 203.06 292.712C203.06 295.336 204.596 297.208 207.076 297.208C209.092 297.208 210.612 295.816 210.916 294.2H209.412C209.204 295.096 208.356 295.928 207.124 295.928C205.844 295.928 204.644 294.872 204.644 292.696C204.644 290.536 205.844 289.528 207.124 289.528C208.26 289.528 209.14 290.248 209.348 291.272H210.82C210.612 289.8 209.332 288.248 207.22 288.248ZM212.048 299.8H212.8C214.736 299.8 215.152 299.224 215.792 297.368L218.864 288.392H217.344L215.216 295.032L213.024 288.392H211.408L214.512 297L214.448 297.176C214.064 298.52 213.6 298.584 212.64 298.584H212.048V299.8ZM227.733 295.736H226.533V288.392H220.725L220.613 291.16C220.485 294.456 219.973 295.736 218.997 295.736H218.613V298.904H220.021V297H226.325V298.904H227.733V295.736ZM225.077 295.736H220.885C221.557 295.096 221.925 293.848 222.053 291.304L222.133 289.656H225.077V295.736ZM235.105 297H236.561V288.392H235.105L230.657 294.888V288.392H229.201V297H230.657L235.105 290.504V297ZM245.381 289.656V288.392H238.037V289.656H240.981V297H242.437V289.656H245.381ZM254.096 293.176C254.272 290.44 252.72 288.248 250.08 288.248C247.728 288.248 245.904 289.976 245.904 292.712C245.904 295.256 247.408 297.208 250.128 297.208C252.224 297.208 253.6 295.976 253.984 294.504H252.48C252.112 295.352 251.408 295.928 250.128 295.928C248.864 295.928 247.52 295.032 247.472 293.176H254.096ZM250.08 289.496C251.632 289.496 252.512 290.712 252.56 291.928H247.488C247.616 290.2 248.8 289.496 250.08 289.496ZM42.72 307.248C40.176 307.248 38.56 309.152 38.56 311.712C38.56 314.336 40.096 316.208 42.576 316.208C44.592 316.208 46.112 314.816 46.416 313.2H44.912C44.704 314.096 43.856 314.928 42.624 314.928C41.344 314.928 40.144 313.872 40.144 311.696C40.144 309.536 41.344 308.528 42.624 308.528C43.76 308.528 44.64 309.248 44.848 310.272H46.32C46.112 308.8 44.832 307.248 42.72 307.248ZM57.8391 316H59.2951V307.392H57.8391L53.3911 313.888V307.392H51.9351V316H53.3911L57.8391 309.504V316ZM65.2513 307.248C62.7073 307.248 61.0913 309.152 61.0913 311.712C61.0913 314.336 62.6273 316.208 65.1073 316.208C67.1233 316.208 68.6433 314.816 68.9473 313.2H67.4433C67.2353 314.096 66.3873 314.928 65.1553 314.928C63.8753 314.928 62.6753 313.872 62.6753 311.696C62.6753 309.536 63.8753 308.528 65.1553 308.528C66.2913 308.528 67.1713 309.248 67.3793 310.272H68.8513C68.6433 308.8 67.3633 307.248 65.2513 307.248ZM77.7575 307.392H70.6695V316H72.1255V308.656H76.3015V316H77.7575V307.392ZM81.1284 311.728C81.1284 309.376 82.3764 308.528 83.7044 308.528C85.0324 308.528 86.2804 309.424 86.2804 311.728C86.2804 313.936 85.0324 314.928 83.7044 314.928C82.3764 314.928 81.1284 314.032 81.1284 311.728ZM83.7044 307.248C81.7044 307.248 79.5764 308.608 79.5764 311.728C79.5764 314.848 81.7044 316.208 83.7044 316.208C85.7044 316.208 87.8324 314.848 87.8324 311.728C87.8324 308.608 85.7044 307.248 83.7044 307.248ZM96.3289 307.392H90.5849L90.4569 310.336C90.2809 313.904 89.5449 314.736 88.7769 314.736H88.6169V316H88.8889C90.8889 316 91.6409 314.208 91.8489 310.736L91.9769 308.656H94.8729V316H96.3289V307.392ZM105.963 316V307.392H104.507V310.976H100.251V307.392H98.7945V316H100.251V312.24H104.507V316H105.963ZM114.324 316H115.78V307.392H114.324L109.876 313.888V307.392H108.42V316H109.876L114.324 309.504V316ZM124.6 308.656V307.392H117.256V308.656H120.2V316H121.656V308.656H124.6ZM133.315 312.176C133.491 309.44 131.939 307.248 129.299 307.248C126.947 307.248 125.123 308.976 125.123 311.712C125.123 314.256 126.627 316.208 129.347 316.208C131.443 316.208 132.819 314.976 133.203 313.504H131.699C131.331 314.352 130.627 314.928 129.347 314.928C128.083 314.928 126.739 314.032 126.691 312.176H133.315ZM129.299 308.496C130.851 308.496 131.731 309.712 131.779 310.928H126.707C126.835 309.2 128.019 308.496 129.299 308.496ZM141.907 307.392H136.163L136.035 310.336C135.859 313.904 135.123 314.736 134.355 314.736H134.195V316H134.467C136.467 316 137.219 314.208 137.427 310.736L137.555 308.656H140.451V316H141.907V307.392ZM151.893 312.176C152.069 309.44 150.517 307.248 147.877 307.248C145.525 307.248 143.701 308.976 143.701 311.712C143.701 314.256 145.205 316.208 147.925 316.208C150.021 316.208 151.397 314.976 151.781 313.504H150.277C149.909 314.352 149.205 314.928 147.925 314.928C146.661 314.928 145.317 314.032 145.269 312.176H151.893ZM147.877 308.496C149.429 308.496 150.309 309.712 150.357 310.928H145.285C145.413 309.2 146.597 308.496 147.877 308.496ZM163.093 307.392H161.013L158.437 314.016L155.765 307.392H153.685V316H155.109V309.184L157.861 316H158.901L161.669 309.088V316H163.093V307.392ZM177.405 314.736H176.205V307.392H170.397L170.285 310.16C170.157 313.456 169.645 314.736 168.669 314.736H168.285V317.904H169.693V316H175.997V317.904H177.405V314.736ZM174.749 314.736H170.557C171.229 314.096 171.597 312.848 171.725 310.304L171.805 308.656H174.749V314.736ZM186.393 312.176C186.569 309.44 185.017 307.248 182.377 307.248C180.025 307.248 178.201 308.976 178.201 311.712C178.201 314.256 179.705 316.208 182.425 316.208C184.521 316.208 185.897 314.976 186.281 313.504H184.777C184.409 314.352 183.705 314.928 182.425 314.928C181.161 314.928 179.817 314.032 179.769 312.176H186.393ZM182.377 308.496C183.929 308.496 184.809 309.712 184.857 310.928H179.785C179.913 309.2 181.097 308.496 182.377 308.496ZM194.178 308.656V307.392H186.834V308.656H189.778V316H191.234V308.656H194.178ZM200.545 312.4C200.545 314.432 199.249 315.056 197.889 315.056C196.849 315.056 196.225 314.512 196.225 313.696C196.225 312.512 197.905 312.112 200.545 311.856V312.4ZM197.569 316.208C199.105 316.208 199.985 315.712 200.513 314.816C200.529 315.328 200.577 315.68 200.625 316H202.097C201.921 315.184 201.857 314.208 201.873 312.752L201.889 310.768C201.905 308.336 200.849 307.216 198.465 307.216C196.801 307.216 195.137 308.256 195.009 310.112H196.513C196.577 309.04 197.265 308.4 198.481 308.4C199.569 308.4 200.433 308.912 200.433 310.496V310.704C196.913 311.088 194.609 311.696 194.609 313.728C194.609 315.312 195.953 316.208 197.569 316.208ZM210.938 307.392H205.194L205.066 310.336C204.89 313.904 204.154 314.736 203.386 314.736H203.226V316H203.498C205.498 316 206.25 314.208 206.458 310.736L206.586 308.656H209.482V316H210.938V307.392ZM219.308 316H220.764V307.392H219.308L214.86 313.888V307.392H213.404V316H214.86L219.308 309.504V316ZM231.637 311.488C232.405 311.12 232.997 310.512 232.997 309.632C232.997 308.016 231.429 307.2 229.733 307.2C227.925 307.2 226.533 308.176 226.229 310.048H227.733C227.925 308.88 228.741 308.48 229.813 308.48C230.757 308.48 231.493 308.848 231.493 309.664C231.493 310.56 230.885 311.008 229.877 311.008H228.581V312.208H229.957C231.173 312.208 231.829 312.608 231.829 313.616C231.829 314.432 231.061 314.992 229.845 314.992C228.613 314.992 227.797 314.48 227.557 313.376H226.085C226.389 315.344 227.909 316.208 229.749 316.208C231.669 316.208 233.381 315.408 233.381 313.552C233.381 312.4 232.549 311.744 231.637 311.488ZM240.451 312.4C240.451 314.432 239.155 315.056 237.795 315.056C236.755 315.056 236.131 314.512 236.131 313.696C236.131 312.512 237.811 312.112 240.451 311.856V312.4ZM237.475 316.208C239.011 316.208 239.891 315.712 240.419 314.816C240.435 315.328 240.483 315.68 240.531 316H242.003C241.827 315.184 241.763 314.208 241.779 312.752L241.795 310.768C241.811 308.336 240.755 307.216 238.371 307.216C236.707 307.216 235.043 308.256 234.915 310.112H236.419C236.483 309.04 237.171 308.4 238.387 308.4C239.475 308.4 240.339 308.912 240.339 310.496V310.704C236.819 311.088 234.515 311.696 234.515 313.728C234.515 315.312 235.859 316.208 237.475 316.208ZM249.581 316H251.389L247.805 311.456L251.053 307.392H249.325L246.589 310.912H245.517V307.392H244.045V316H245.517V312.176H246.621L249.581 316ZM257.92 312.4C257.92 314.432 256.624 315.056 255.264 315.056C254.224 315.056 253.6 314.512 253.6 313.696C253.6 312.512 255.28 312.112 257.92 311.856V312.4ZM254.944 316.208C256.48 316.208 257.36 315.712 257.888 314.816C257.904 315.328 257.952 315.68 258 316H259.472C259.296 315.184 259.232 314.208 259.248 312.752L259.264 310.768C259.28 308.336 258.224 307.216 255.84 307.216C254.176 307.216 252.512 308.256 252.384 310.112H253.888C253.952 309.04 254.64 308.4 255.856 308.4C256.944 308.4 257.808 308.912 257.808 310.496V310.704C254.288 311.088 251.984 311.696 251.984 313.728C251.984 315.312 253.328 316.208 254.944 316.208ZM266.121 311.488C266.889 311.12 267.481 310.512 267.481 309.632C267.481 308.016 265.913 307.2 264.217 307.2C262.409 307.2 261.017 308.176 260.713 310.048H262.217C262.409 308.88 263.225 308.48 264.297 308.48C265.241 308.48 265.977 308.848 265.977 309.664C265.977 310.56 265.369 311.008 264.361 311.008H263.065V312.208H264.441C265.657 312.208 266.313 312.608 266.313 313.616C266.313 314.432 265.545 314.992 264.329 314.992C263.097 314.992 262.281 314.48 262.041 313.376H260.569C260.873 315.344 262.393 316.208 264.233 316.208C266.153 316.208 267.865 315.408 267.865 313.552C267.865 312.4 267.033 311.744 266.121 311.488ZM274.935 312.4C274.935 314.432 273.639 315.056 272.279 315.056C271.239 315.056 270.615 314.512 270.615 313.696C270.615 312.512 272.295 312.112 274.935 311.856V312.4ZM271.959 316.208C273.495 316.208 274.375 315.712 274.903 314.816C274.919 315.328 274.967 315.68 275.015 316H276.487C276.311 315.184 276.247 314.208 276.263 312.752L276.279 310.768C276.295 308.336 275.239 307.216 272.855 307.216C271.191 307.216 269.527 308.256 269.399 310.112H270.903C270.967 309.04 271.655 308.4 272.871 308.4C273.959 308.4 274.823 308.912 274.823 310.496V310.704C271.303 311.088 268.999 311.696 268.999 313.728C268.999 315.312 270.343 316.208 271.959 316.208Z" fill="#999999"/>
<path d="M27.08 106H28.744L29.64 103.488H34.968L35.88 106H37.64L33.272 94.4H31.384L27.08 106ZM32.28 96.048L34.456 102.096H30.136L32.28 96.048ZM38.9508 97.392V106H42.9508C44.7908 106 46.1828 105.28 46.1828 103.488C46.1828 102.336 45.5268 101.728 44.6308 101.472C45.4308 101.136 45.8308 100.496 45.8308 99.584C45.8308 97.84 44.4228 97.392 42.6948 97.392H38.9508ZM40.4068 101.008V98.656H42.5508C43.6388 98.656 44.3108 98.848 44.3108 99.744C44.3108 100.72 43.6708 101.008 42.5988 101.008H40.4068ZM40.4068 102.208H42.6788C44.0228 102.208 44.6628 102.512 44.6628 103.472C44.6628 104.368 44.0068 104.736 42.7268 104.736H40.4068V102.208ZM54.2403 98.656V97.392H46.8963V98.656H49.8403V106H51.2963V98.656H54.2403ZM56.3471 101.728C56.3471 99.376 57.5951 98.528 58.9231 98.528C60.2511 98.528 61.4991 99.424 61.4991 101.728C61.4991 103.936 60.2511 104.928 58.9231 104.928C57.5951 104.928 56.3471 104.032 56.3471 101.728ZM58.9231 97.248C56.9231 97.248 54.7951 98.608 54.7951 101.728C54.7951 104.848 56.9231 106.208 58.9231 106.208C60.9231 106.208 63.0511 104.848 63.0511 101.728C63.0511 98.608 60.9231 97.248 58.9231 97.248ZM74.2806 97.392H72.2006L69.6246 104.016L66.9526 97.392H64.8726V106H66.2966V99.184L69.0486 106H70.0886L72.8566 99.088V106H74.2806V97.392ZM82.0916 102.4C82.0916 104.432 80.7956 105.056 79.4356 105.056C78.3956 105.056 77.7716 104.512 77.7716 103.696C77.7716 102.512 79.4516 102.112 82.0916 101.856V102.4ZM79.1156 106.208C80.6516 106.208 81.5316 105.712 82.0596 104.816C82.0756 105.328 82.1236 105.68 82.1716 106H83.6436C83.4676 105.184 83.4036 104.208 83.4196 102.752L83.4356 100.768C83.4516 98.336 82.3956 97.216 80.0116 97.216C78.3476 97.216 76.6836 98.256 76.5556 100.112H78.0596C78.1236 99.04 78.8116 98.4 80.0276 98.4C81.1156 98.4 81.9796 98.912 81.9796 100.496V100.704C78.4596 101.088 76.1556 101.696 76.1556 103.728C76.1556 105.312 77.4996 106.208 79.1156 106.208ZM91.584 98.656V97.392H84.24V98.656H87.184V106H88.64V98.656H91.584ZM98.9641 106H100.42V97.392H98.9641L94.5161 103.888V97.392H93.0601V106H94.5161L98.9641 99.504V106ZM109.224 106V97.392H107.768V101.312C106.968 101.504 106.296 101.6 105.736 101.6C104.52 101.6 103.912 101.168 103.912 99.888V97.392H102.456V100.192C102.456 102.064 103.4 102.864 105.208 102.864C105.992 102.864 106.76 102.752 107.768 102.512V106H109.224ZM119.205 102.176C119.381 99.44 117.829 97.248 115.189 97.248C112.837 97.248 111.013 98.976 111.013 101.712C111.013 104.256 112.517 106.208 115.237 106.208C117.333 106.208 118.709 104.976 119.093 103.504H117.589C117.221 104.352 116.517 104.928 115.237 104.928C113.973 104.928 112.629 104.032 112.581 102.176H119.205ZM115.189 98.496C116.741 98.496 117.621 99.712 117.669 100.928H112.597C112.725 99.2 113.909 98.496 115.189 98.496ZM124.564 97.248C122.02 97.248 120.404 99.152 120.404 101.712C120.404 104.336 121.94 106.208 124.42 106.208C126.436 106.208 127.956 104.816 128.26 103.2H126.756C126.548 104.096 125.7 104.928 124.468 104.928C123.188 104.928 121.988 103.872 121.988 101.696C121.988 99.536 123.188 98.528 124.468 98.528C125.604 98.528 126.484 99.248 126.692 100.272H128.164C127.956 98.8 126.676 97.248 124.564 97.248ZM135.518 106H137.326L133.742 101.456L136.99 97.392H135.262L132.526 100.912H131.454V97.392H129.982V106H131.454V102.176H132.558L135.518 106ZM144.62 106H146.076V97.392H144.62L140.172 103.888V97.392H138.716V106H140.172L144.62 99.504V106ZM153.697 94.4C153.633 94.912 153.233 95.376 152.289 95.376C151.345 95.376 150.961 94.912 150.897 94.4H149.761C149.841 95.36 150.513 96.336 152.273 96.336C154.097 96.336 154.705 95.36 154.833 94.4H153.697ZM154.449 106H155.905V97.392H154.449L150.001 103.888V97.392H148.545V106H150.001L154.449 99.504V106ZM169.258 97.392H162.17V106H163.626V98.656H167.802V106H169.258V97.392ZM172.628 101.728C172.628 99.376 173.876 98.528 175.204 98.528C176.532 98.528 177.78 99.424 177.78 101.728C177.78 103.936 176.532 104.928 175.204 104.928C173.876 104.928 172.628 104.032 172.628 101.728ZM175.204 97.248C173.204 97.248 171.076 98.608 171.076 101.728C171.076 104.848 173.204 106.208 175.204 106.208C177.204 106.208 179.332 104.848 179.332 101.728C179.332 98.608 177.204 97.248 175.204 97.248ZM190.562 97.392H188.482L185.906 104.016L183.234 97.392H181.154V106H182.578V99.184L185.33 106H186.37L189.138 99.088V106H190.562V97.392ZM193.941 101.728C193.941 99.376 195.189 98.528 196.517 98.528C197.845 98.528 199.093 99.424 199.093 101.728C199.093 103.936 197.845 104.928 196.517 104.928C195.189 104.928 193.941 104.032 193.941 101.728ZM196.517 97.248C194.517 97.248 192.389 98.608 192.389 101.728C192.389 104.848 194.517 106.208 196.517 106.208C198.517 106.208 200.645 104.848 200.645 101.728C200.645 98.608 198.517 97.248 196.517 97.248ZM214.274 104.736H213.074V97.392H211.618V104.736H208.498V97.392H207.042V104.736H203.922V97.392H202.466V106H212.898V108.064H214.274V104.736ZM222.916 106V97.392H221.46V100.976H217.204V97.392H215.748V106H217.204V102.24H221.46V106H222.916ZM231.277 106H232.733V97.392H231.277L226.829 103.888V97.392H225.373V106H226.829L231.277 99.504V106ZM240.737 106H242.545L238.961 101.456L242.209 97.392H240.481L237.745 100.912H236.673V97.392H235.201V106H236.673V102.176H237.777L240.737 106Z" fill="#1E1E1E"/>
<path d="M35.52 355.592H34.112V345.4H26.8L26.752 348.792C26.704 352.488 26.24 355.592 24.896 355.592H24.4V359.416H25.904V357H34.016V359.416H35.52V355.592ZM32.48 355.592H26.976C27.696 354.616 28.288 352.52 28.336 349.32L28.368 346.808H32.48V355.592ZM44.627 353.176C44.803 350.44 43.251 348.248 40.611 348.248C38.259 348.248 36.435 349.976 36.435 352.712C36.435 355.256 37.939 357.208 40.659 357.208C42.755 357.208 44.131 355.976 44.515 354.504H43.011C42.643 355.352 41.939 355.928 40.659 355.928C39.395 355.928 38.051 355.032 38.003 353.176H44.627ZM40.611 349.496C42.163 349.496 43.043 350.712 43.091 351.928H38.019C38.147 350.2 39.331 349.496 40.611 349.496ZM53.5875 357V348.392H52.1315V351.976H47.8755V348.392H46.4195V357H47.8755V353.24H52.1315V357H53.5875ZM61.9485 357H63.4045V348.392H61.9485L57.5005 354.888V348.392H56.0445V357H57.5005L61.9485 350.504V357ZM69.3606 348.248C66.8166 348.248 65.2006 350.152 65.2006 352.712C65.2006 355.336 66.7366 357.208 69.2166 357.208C71.2326 357.208 72.7526 355.816 73.0566 354.2H71.5526C71.3446 355.096 70.4966 355.928 69.2646 355.928C67.9846 355.928 66.7846 354.872 66.7846 352.696C66.7846 350.536 67.9846 349.528 69.2646 349.528C70.4006 349.528 71.2806 350.248 71.4886 351.272H72.9606C72.7526 349.8 71.4726 348.248 69.3606 348.248ZM85.4398 357L88.6398 346.888V357H90.2718V345.4H87.5358L84.5758 355.064L81.6158 345.4H78.8798V357H80.5118V346.888L83.7118 357H85.4398ZM93.9565 352.728C93.9565 350.376 95.2045 349.528 96.5325 349.528C97.8605 349.528 99.1085 350.424 99.1085 352.728C99.1085 354.936 97.8605 355.928 96.5325 355.928C95.2045 355.928 93.9565 355.032 93.9565 352.728ZM96.5325 348.248C94.5325 348.248 92.4045 349.608 92.4045 352.728C92.4045 355.848 94.5325 357.208 96.5325 357.208C98.5325 357.208 100.661 355.848 100.661 352.728C100.661 349.608 98.5325 348.248 96.5325 348.248ZM102.482 348.392V359.8H103.938V355.704C104.466 356.616 105.362 357.208 106.754 357.208C108.738 357.208 110.434 355.592 110.434 352.728C110.434 349.912 108.738 348.248 106.754 348.248C105.362 348.248 104.466 348.84 103.938 349.752V348.392H102.482ZM103.874 352.728C103.874 350.456 105.09 349.496 106.386 349.496C107.874 349.496 108.85 350.664 108.85 352.728C108.85 354.792 107.874 355.96 106.386 355.96C105.09 355.96 103.874 355 103.874 352.728ZM113.269 352.728C113.269 350.376 114.517 349.528 115.845 349.528C117.173 349.528 118.421 350.424 118.421 352.728C118.421 354.936 117.173 355.928 115.845 355.928C114.517 355.928 113.269 355.032 113.269 352.728ZM115.845 348.248C113.845 348.248 111.717 349.608 111.717 352.728C111.717 355.848 113.845 357.208 115.845 357.208C117.845 357.208 119.973 355.848 119.973 352.728C119.973 349.608 117.845 348.248 115.845 348.248ZM126.403 352.488C127.171 352.12 127.763 351.512 127.763 350.632C127.763 349.016 126.195 348.2 124.499 348.2C122.691 348.2 121.299 349.176 120.995 351.048H122.499C122.691 349.88 123.507 349.48 124.579 349.48C125.523 349.48 126.259 349.848 126.259 350.664C126.259 351.56 125.651 352.008 124.643 352.008H123.347V353.208H124.723C125.939 353.208 126.595 353.608 126.595 354.616C126.595 355.432 125.827 355.992 124.611 355.992C123.379 355.992 122.562 355.48 122.323 354.376H120.851C121.155 356.344 122.674 357.208 124.515 357.208C126.435 357.208 128.147 356.408 128.147 354.552C128.147 353.4 127.315 352.744 126.403 352.488ZM130.785 352.728C130.785 350.376 132.033 349.528 133.361 349.528C134.689 349.528 135.937 350.424 135.937 352.728C135.937 354.936 134.689 355.928 133.361 355.928C132.033 355.928 130.785 355.032 130.785 352.728ZM133.361 348.248C131.361 348.248 129.233 349.608 129.233 352.728C129.233 355.848 131.361 357.208 133.361 357.208C135.361 357.208 137.489 355.848 137.489 352.728C137.489 349.608 135.361 348.248 133.361 348.248ZM139.31 348.392V357H143.31C145.15 357 146.542 356.28 146.542 354.488C146.542 353.336 145.886 352.728 144.99 352.472C145.79 352.136 146.19 351.496 146.19 350.584C146.19 348.84 144.782 348.392 143.054 348.392H139.31ZM140.766 352.008V349.656H142.91C143.998 349.656 144.67 349.848 144.67 350.744C144.67 351.72 144.03 352.008 142.958 352.008H140.766ZM140.766 353.208H143.038C144.382 353.208 145.022 353.512 145.022 354.472C145.022 355.368 144.366 355.736 143.086 355.736H140.766V353.208Z" fill="#1E1E1E"/>
<rect width="307" height="56" rx="28" transform="matrix(-1 0 0 1 338 124)" fill="#EFFA35"/>
<path d="M62.8169 158V148.256H67.7929V158H70.0809V146.4H60.5289V158H62.8169ZM76.5605 156.512C75.3445 156.512 74.5445 155.472 74.5445 153.696C74.5445 151.968 75.3445 150.896 76.5605 150.896C77.7125 150.896 78.5285 152.032 78.5285 153.712C78.5285 155.392 77.7125 156.512 76.5605 156.512ZM74.6245 160.8V156.912C75.1845 157.872 76.1925 158.208 77.0885 158.208C79.1365 158.208 80.8485 156.448 80.8485 153.696C80.8485 150.992 79.1845 149.2 77.1045 149.2C76.0165 149.2 75.0885 149.68 74.6245 150.496V149.392H72.4165V160.8H74.6245ZM84.5933 158L88.3853 152.336V158H90.5453V149.392H88.3373L84.5453 155.264V149.392H82.3853V158H84.5933ZM94.9683 158V154.464H98.5523V158H100.76V149.392H98.5523V152.72H94.9683V149.392H92.7603V158H94.9683ZM105.171 158L108.963 152.336V158H111.123V149.392H108.915L105.123 155.264V149.392H102.963V158H105.171ZM115.45 158V151.184L117.77 158H119.322L121.642 151.184V158H123.754V149.392H120.506L118.554 155.568L116.586 149.392H113.338V158H115.45ZM131.227 154.704C131.227 155.968 130.651 156.704 129.259 156.704C128.251 156.704 127.771 156.192 127.771 155.568C127.771 154.608 128.747 154.32 131.227 154.064V154.704ZM131.419 156.928C131.467 157.36 131.499 157.728 131.563 158H133.595C133.419 157.28 133.339 156.512 133.339 155.152C133.339 154.384 133.371 153.216 133.371 152.96C133.371 150.064 131.691 149.168 129.659 149.168C127.435 149.168 126.059 150.416 125.883 152.112H127.947C127.995 151.152 128.699 150.72 129.547 150.72C130.443 150.72 131.163 151.184 131.163 152.512V152.656C127.771 153.04 125.499 153.648 125.499 155.68C125.499 157.248 126.955 158.208 128.603 158.208C129.899 158.208 130.795 157.824 131.419 156.928ZM143.131 158.208C145.467 158.208 147.483 156.784 147.483 153.68C147.483 150.576 145.467 149.152 143.131 149.152C141.259 149.152 139.611 150.24 139.179 152.544H137.531V149.392H135.323V158H137.531V154.288H139.099C139.307 156.928 141.083 158.208 143.131 158.208ZM143.131 156.48C142.027 156.48 141.291 155.664 141.291 153.68C141.291 151.68 142.043 150.88 143.131 150.88C144.379 150.88 145.243 151.664 145.243 153.68C145.243 155.648 144.395 156.48 143.131 156.48ZM154.828 158L158.62 152.336V158H160.78V149.392H158.572L154.78 155.264V149.392H152.62V158H154.828ZM166.643 149.2C164.067 149.2 162.323 151.088 162.323 153.712C162.323 156.32 163.971 158.208 166.547 158.208C168.339 158.208 170.115 157.424 170.627 155.072H168.515C168.211 156.096 167.427 156.496 166.659 156.496C165.443 156.496 164.579 155.488 164.579 153.68C164.579 151.888 165.491 150.912 166.643 150.912C167.491 150.912 168.259 151.504 168.435 152.336H170.547C170.243 150.208 168.451 149.2 166.643 149.2ZM174.015 158V151.136H177.295V158H179.503V149.392H171.807V158H174.015ZM185.345 150.928C186.561 150.928 187.425 151.904 187.425 153.712C187.425 155.52 186.561 156.48 185.345 156.48C184.129 156.48 183.265 155.52 183.265 153.712C183.265 151.904 184.129 150.928 185.345 150.928ZM185.345 158.208C187.521 158.208 189.665 156.72 189.665 153.712C189.665 150.688 187.521 149.2 185.345 149.2C183.169 149.2 181.025 150.688 181.025 153.712C181.025 156.72 183.169 158.208 185.345 158.208ZM190.627 158C192.755 158 193.747 156.432 193.939 153.184L194.067 151.136H196.291V158H198.499V149.392H192.003L191.843 152.096C191.667 155.2 191.315 156.256 190.419 156.256H190.211V158H190.627ZM202.921 158V154.464H206.505V158H208.713V149.392H206.505V152.72H202.921V149.392H200.713V158H202.921ZM213.125 158L216.917 152.336V158H219.077V149.392H216.869L213.077 155.264V149.392H210.917V158H213.125ZM225.436 158V151.136H228.236V149.392H220.428V151.136H223.228V158H225.436ZM237.257 154.304C237.337 151.264 235.689 149.2 233.033 149.2C230.489 149.2 228.713 151.104 228.713 153.664C228.713 156.144 230.329 158.208 233.097 158.208C235.449 158.208 236.697 156.784 237.161 155.504H234.889C234.441 156.256 233.769 156.496 233.081 156.496C232.025 156.496 231.033 155.776 230.905 154.304H237.257ZM233.017 150.816C233.945 150.816 234.969 151.328 235.017 152.784H230.937C231.113 151.328 232.185 150.816 233.017 150.816ZM238.424 158C240.552 158 241.544 156.432 241.736 153.184L241.864 151.136H244.088V158H246.296V149.392H239.799L239.64 152.096C239.464 155.2 239.112 156.256 238.215 156.256H238.008V158H238.424ZM250.254 158L252.126 155.104H253.582V158H255.79V149.392H251.934C249.678 149.392 248.494 150.384 248.494 152.096C248.494 153.264 249.134 153.936 250.094 154.48L247.726 158H250.254ZM252.094 153.376C251.15 153.376 250.638 153.008 250.638 152.256C250.638 151.568 251.086 151.12 252.046 151.12H253.582V153.376H252.094ZM265.252 149.2C262.676 149.2 260.932 151.088 260.932 153.712C260.932 156.32 262.58 158.208 265.156 158.208C266.948 158.208 268.724 157.424 269.236 155.072H267.124C266.82 156.096 266.036 156.496 265.268 156.496C264.052 156.496 263.188 155.488 263.188 153.68C263.188 151.888 264.1 150.912 265.252 150.912C266.1 150.912 266.868 151.504 267.044 152.336H269.156C268.852 150.208 267.06 149.2 265.252 149.2ZM274.561 156.512C273.345 156.512 272.545 155.472 272.545 153.696C272.545 151.968 273.345 150.896 274.561 150.896C275.713 150.896 276.529 152.032 276.529 153.712C276.529 155.392 275.713 156.512 274.561 156.512ZM272.625 160.8V156.912C273.185 157.872 274.193 158.208 275.089 158.208C277.137 158.208 278.849 156.448 278.849 153.696C278.849 150.992 277.185 149.2 275.105 149.2C274.016 149.2 273.089 149.68 272.625 150.496V149.392H270.417V160.8H272.625ZM285.571 154.704C285.571 155.968 284.995 156.704 283.603 156.704C282.595 156.704 282.115 156.192 282.115 155.568C282.115 154.608 283.091 154.32 285.571 154.064V154.704ZM285.763 156.928C285.811 157.36 285.843 157.728 285.907 158H287.939C287.763 157.28 287.683 156.512 287.683 155.152C287.683 154.384 287.715 153.216 287.715 152.96C287.715 150.064 286.035 149.168 284.003 149.168C281.779 149.168 280.403 150.416 280.227 152.112H282.291C282.339 151.152 283.043 150.72 283.891 150.72C284.787 150.72 285.507 151.184 285.507 152.512V152.656C282.115 153.04 279.843 153.648 279.843 155.68C279.843 157.248 281.299 158.208 282.947 158.208C284.243 158.208 285.139 157.824 285.763 156.928ZM292.777 158.208C295.017 158.208 296.697 157.344 296.697 155.424C296.697 154.288 296.137 153.696 295.177 153.424C295.993 153.056 296.409 152.464 296.409 151.648C296.409 149.904 294.809 149.152 292.841 149.152C290.937 149.152 289.161 150.128 288.857 152.272H290.985C291.097 151.312 291.753 150.752 292.713 150.752C293.737 150.752 294.249 151.248 294.249 151.872C294.249 152.512 293.689 152.832 292.873 152.832H291.689V154.352H292.969C293.977 154.352 294.553 154.656 294.553 155.472C294.553 156.176 293.913 156.608 292.841 156.608C291.625 156.608 290.953 155.984 290.841 155.088H288.713C289.049 157.392 290.809 158.208 292.777 158.208ZM298.919 160.8C301.063 160.8 301.495 160.416 302.519 157.744L305.671 149.392H303.431L301.431 155.6L299.479 149.392H297.063L300.359 157.968L300.263 158.208C299.879 159.12 299.559 159.104 298.823 159.104H297.991V160.8H298.919ZM308.455 154.576L308.807 149.376V146.4H306.599V149.376L306.999 154.576H308.455ZM308.887 158V155.6H306.519V158H308.887Z" fill="#1E1E1E"/>
<defs>
<filter id="filter0_b_156_1716" x="-39" y="-42" width="459" height="818" filterUnits="userSpaceOnUse" color-interpolation-filters="sRGB">
<feFlood flood-opacity="0" result="BackgroundImageFix"/>
<feGaussianBlur in="BackgroundImage" stdDeviation="21"/>
<feComposite in2="SourceAlpha" operator="in" result="effect1_backgroundBlur_156_1716"/>
<feBlend mode="normal" in="SourceGraphic" in2="effect1_backgroundBlur_156_1716" result="shape"/>
</filter>
<filter id="filter1_dd_156_1716" x="13" y="357" width="168" height="68" filterUnits="userSpaceOnUse" color-interpolation-filters="sRGB">
<feFlood flood-opacity="0" result="BackgroundImageFix"/>
<feColorMatrix in="SourceAlpha" type="matrix" values="0 0 0 0 0 0 0 0 0 0 0 0 0 0 0 0 0 0 127 0" result="hardAlpha"/>
<feOffset dx="6" dy="6"/>
<feGaussianBlur stdDeviation="5.5"/>
<feComposite in2="hardAlpha" operator="out"/>
<feColorMatrix type="matrix" values="0 0 0 0 0.2 0 0 0 0 0.2 0 0 0 0 0.2 0 0 0 0.08 0"/>
<feBlend mode="normal" in2="BackgroundImageFix" result="effect1_dropShadow_156_1716"/>
<feColorMatrix in="SourceAlpha" type="matrix" values="0 0 0 0 0 0 0 0 0 0 0 0 0 0 0 0 0 0 127 0" result="hardAlpha"/>
<feOffset dx="-6" dy="-6"/>
<feGaussianBlur stdDeviation="2"/>
<feComposite in2="hardAlpha" operator="out"/>
<feColorMatrix type="matrix" values="0 0 0 0 1 0 0 0 0 1 0 0 0 0 1 0 0 0 0.16 0"/>
<feBlend mode="normal" in2="effect1_dropShadow_156_1716" result="effect2_dropShadow_156_1716"/>
<feBlend mode="normal" in="SourceGraphic" in2="effect2_dropShadow_156_1716" result="shape"/>
</filter>
<filter id="filter2_dd_156_1716" x="13" y="106" width="353" height="241" filterUnits="userSpaceOnUse" color-interpolation-filters="sRGB">
<feFlood flood-opacity="0" result="BackgroundImageFix"/>
<feColorMatrix in="SourceAlpha" type="matrix" values="0 0 0 0 0 0 0 0 0 0 0 0 0 0 0 0 0 0 127 0" result="hardAlpha"/>
<feOffset dx="6" dy="6"/>
<feGaussianBlur stdDeviation="5.5"/>
<feComposite in2="hardAlpha" operator="out"/>
<feColorMatrix type="matrix" values="0 0 0 0 0.2 0 0 0 0 0.2 0 0 0 0 0.2 0 0 0 0.08 0"/>
<feBlend mode="normal" in2="BackgroundImageFix" result="effect1_dropShadow_156_1716"/>
<feColorMatrix in="SourceAlpha" type="matrix" values="0 0 0 0 0 0 0 0 0 0 0 0 0 0 0 0 0 0 127 0" result="hardAlpha"/>
<feOffset dx="-6" dy="-6"/>
<feGaussianBlur stdDeviation="2"/>
<feComposite in2="hardAlpha" operator="out"/>
<feColorMatrix type="matrix" values="0 0 0 0 1 0 0 0 0 1 0 0 0 0 1 0 0 0 0.16 0"/>
<feBlend mode="normal" in2="effect1_dropShadow_156_1716" result="effect2_dropShadow_156_1716"/>
<feBlend mode="normal" in="SourceGraphic" in2="effect2_dropShadow_156_1716" result="shape"/>
</filter>
<filter id="filter3_d_156_1716" x="0" y="566" width="78" height="78" filterUnits="userSpaceOnUse" color-interpolation-filters="sRGB">
<feFlood flood-opacity="0" result="BackgroundImageFix"/>
<feColorMatrix in="SourceAlpha" type="matrix" values="0 0 0 0 0 0 0 0 0 0 0 0 0 0 0 0 0 0 127 0" result="hardAlpha"/>
<feOffset/>
<feGaussianBlur stdDeviation="5.5"/>
<feComposite in2="hardAlpha" operator="out"/>
<feColorMatrix type="matrix" values="0 0 0 0 0 0 0 0 0 0 0 0 0 0 0 0 0 0 0.08 0"/>
<feBlend mode="normal" in2="BackgroundImageFix" result="effect1_dropShadow_156_1716"/>
<feBlend mode="normal" in="SourceGraphic" in2="effect1_dropShadow_156_1716" result="shape"/>
</filter>
</defs>
</svg>
