<svg width="322" height="78" viewBox="0 0 322 78" fill="none" xmlns="http://www.w3.org/2000/svg">
<path d="M283.553 36.3924C282.562 37.3025 281.47 38.1958 280.294 39.0384C273.139 44.1619 265.447 45.6618 263.129 42.3923C260.811 39.1227 264.725 32.3307 271.88 27.2073" stroke="#333333" stroke-width="2" stroke-miterlimit="10" stroke-linecap="round" stroke-linejoin="round"/>
<path d="M283.536 36.3922C285.383 34.7237 286.307 32.9373 285.954 31.2688C285.114 27.3419 277.472 25.6566 268.89 27.4936L259.652 29.398" stroke="#333333" stroke-width="2" stroke-miterlimit="10" stroke-linecap="round" stroke-linejoin="round"/>
<path d="M271.88 27.1903L275.776 24.5949" stroke="#333333" stroke-width="2" stroke-miterlimit="10" stroke-linecap="round" stroke-linejoin="round"/>
<path d="M299.643 22.067C299.324 23.0445 299.021 24.0389 298.753 25.0838C296.25 35.1285 298.081 44.2462 302.834 45.4428C307.016 46.4877 312.072 41.1115 314.944 32.9881L293.5 32.9882" stroke="#333333" stroke-width="2" stroke-miterlimit="10" stroke-linecap="round" stroke-linejoin="round"/>
<path d="M305.051 1C305.891 1.30336 306.714 1.62358 307.503 1.9438C315.582 5.24708 320.654 9.49416 319.932 13.0165C319.126 16.9603 311.265 18.8478 300.919 18.1063" stroke="#333333" stroke-width="2" stroke-miterlimit="10" stroke-linecap="round" stroke-linejoin="round"/>
<path d="M306.025 5.17963C303.254 11.3649 301.104 17.1962 299.727 21.9151" stroke="#333333" stroke-width="2" stroke-miterlimit="10" stroke-linecap="round" stroke-linejoin="round"/>
<path d="M20.3992 27.9738C20.1808 28.9682 19.9289 29.9962 19.6098 31.0243C16.6202 40.9341 10.389 47.8104 5.68623 46.3947C1.55451 45.1475 -0.0242732 37.9174 1.67208 29.4738L24.2118 27.5356" stroke="#333333" stroke-width="2" stroke-miterlimit="10" stroke-linecap="round" stroke-linejoin="round"/>
<path d="M21.1717 24.4175C20.903 25.5973 20.6678 26.7265 20.3823 27.7882" stroke="#333333" stroke-width="2" stroke-miterlimit="10" stroke-linecap="round" stroke-linejoin="round"/>
<path d="M231.301 26.5178C242.185 25.4223 251.372 28.22 251.826 32.7536C252.279 37.3041 243.831 41.8713 232.947 42.9668L218.1 44.1129" stroke="#333333" stroke-width="2" stroke-miterlimit="10" stroke-linecap="round" stroke-linejoin="round"/>
<path d="M239.414 31.1696C232.175 35.1976 220.787 50.5343 210.945 70.3877" stroke="#333333" stroke-width="2" stroke-miterlimit="10" stroke-linecap="round" stroke-linejoin="round"/>
<path d="M157.972 28.8251C156.191 35.8867 154.226 42.6619 152.144 49.083" stroke="#333333" stroke-width="2" stroke-miterlimit="10" stroke-linecap="round" stroke-linejoin="round"/>
<path d="M171.056 27.9656C169.275 35.0272 167.31 41.8023 165.227 48.2235" stroke="#333333" stroke-width="2" stroke-miterlimit="10" stroke-linecap="round" stroke-linejoin="round"/>
<path d="M140.404 44.2801C156.981 37.387 171.895 35.3814 173.726 39.8139" stroke="#333333" stroke-width="2" stroke-miterlimit="10" stroke-linecap="round" stroke-linejoin="round"/>
<path d="M217.193 49.3527C197.055 49.3527 180.713 45.4595 180.713 40.6394C180.713 37.353 188.321 34.5047 199.558 33.0216" stroke="#333333" stroke-width="2" stroke-miterlimit="10" stroke-linecap="round" stroke-linejoin="round"/>
<path d="M199.524 33.0216C195.846 35.9879 191.58 39.0383 186.927 42.0045C185.063 43.1843 183.216 44.3135 181.385 45.3584" stroke="#333333" stroke-width="2" stroke-miterlimit="10" stroke-linecap="round" stroke-linejoin="round"/>
<path d="M141.076 22.387C139.296 29.4486 137.331 36.2237 135.248 42.6449" stroke="#333333" stroke-width="2" stroke-miterlimit="10" stroke-linecap="round" stroke-linejoin="round"/>
<path d="M135.97 35.145C127.942 41.0606 121.425 43.8077 119.292 41.6505C117.075 39.4258 120.098 32.4822 126.447 24.0049" stroke="#333333" stroke-width="2" stroke-miterlimit="10" stroke-linecap="round" stroke-linejoin="round"/>
<path d="M53.7387 24.5949C51.9584 31.6565 49.9933 38.4316 47.9106 44.8528" stroke="#333333" stroke-width="2" stroke-miterlimit="10" stroke-linecap="round" stroke-linejoin="round"/>
<path d="M48.6329 37.3533C40.6046 43.2689 34.0879 46.016 31.9549 43.8588C29.7378 41.6341 32.761 34.6905 39.1098 26.2132" stroke="#333333" stroke-width="2" stroke-miterlimit="10" stroke-linecap="round" stroke-linejoin="round"/>
<path d="M148.315 14.4828C140.085 19.2355 133.232 20.8534 130.814 18.0389" stroke="#333333" stroke-width="2" stroke-miterlimit="10" stroke-linecap="round" stroke-linejoin="round"/>
<path d="M93.5438 27.4873C95.3073 25.3637 97.1884 24.2851 98.8848 24.6727C102.882 25.566 104.36 34.2118 102.193 43.97C102.042 44.6104 101.891 45.2508 101.723 45.8744" stroke="#333333" stroke-width="2" stroke-miterlimit="10" stroke-linecap="round" stroke-linejoin="round"/>
<path d="M99.7582 32.813C90.3694 33.5883 83.2985 37.0264 83.2985 41.1386C83.2985 45.8239 92.4857 49.6328 103.823 49.6328H116.285" stroke="#333333" stroke-width="2" stroke-miterlimit="10" stroke-linecap="round" stroke-linejoin="round"/>
<path d="M64.0675 33.4598L75.5389 31.3363L56.3919 49.6223L66.6204 47.2965" stroke="#333333" stroke-width="2" stroke-miterlimit="10" stroke-linecap="round" stroke-linejoin="round"/>
<path d="M67.796 47.3916C68.2663 50.6949 67.9304 54.9925 66.7043 59.4924C64.2522 68.509 59.1127 74.9471 55.2329 73.8853C52.8143 73.228 51.4539 69.773 51.3867 65.0878" stroke="#333333" stroke-width="2" stroke-miterlimit="10" stroke-linecap="round" stroke-linejoin="round"/>
<path d="M7.70166 21.3672C10.2042 10.227 15.2597 1.90141 18.9715 2.74408C22.6833 3.58676 23.6743 13.2944 21.1717 24.4345" stroke="#333333" stroke-width="2" stroke-miterlimit="10" stroke-linecap="round" stroke-linejoin="round"/>
</svg>
