<svg width="428" height="69" viewBox="0 0 428 69" fill="none" xmlns="http://www.w3.org/2000/svg">
<path d="M22 26C20.3389 33.3203 18.5053 40.3436 16.5621 47" stroke="#333333" stroke-width="2" stroke-miterlimit="10" stroke-linecap="round" stroke-linejoin="round"/>
<path d="M17.236 39.2258C9.74508 45.3581 3.66462 48.2058 1.67436 45.9696C-0.39425 43.6634 2.42658 36.4654 8.35033 27.6776" stroke="#333333" stroke-width="2" stroke-miterlimit="10" stroke-linecap="round" stroke-linejoin="round"/>
<path d="M390.488 35.1745C389.522 36.0533 388.458 36.9158 387.313 37.7294C380.342 42.6766 372.847 44.1249 370.588 40.9679C368.33 37.8108 372.143 31.2526 379.114 26.3054" stroke="#333333" stroke-width="2" stroke-miterlimit="10" stroke-linecap="round" stroke-linejoin="round"/>
<path d="M390.471 35.1744C392.271 33.5633 393.171 31.8383 392.828 30.2272C392.01 26.4355 384.564 24.8081 376.201 26.5819L367.201 28.4208" stroke="#333333" stroke-width="2" stroke-miterlimit="10" stroke-linecap="round" stroke-linejoin="round"/>
<path d="M379.114 26.2891L382.911 23.783" stroke="#333333" stroke-width="2" stroke-miterlimit="10" stroke-linecap="round" stroke-linejoin="round"/>
<path d="M406.165 21.3421C405.854 22.286 405.56 23.2461 405.298 24.2551C402.859 33.9541 404.643 42.7581 409.274 43.9135C413.349 44.9225 418.275 39.7312 421.073 31.8874L399 32.4998" stroke="#333333" stroke-width="2" stroke-miterlimit="10" stroke-linecap="round" stroke-linejoin="round"/>
<path d="M411.434 1C412.253 1.29292 413.055 1.60212 413.824 1.91132C421.695 5.10093 426.637 9.20186 425.934 12.603C425.148 16.411 417.489 18.2337 407.409 17.5176" stroke="#333333" stroke-width="2" stroke-miterlimit="10" stroke-linecap="round" stroke-linejoin="round"/>
<path d="M412.384 5.03583C409.683 11.0082 407.589 16.6389 406.247 21.1955" stroke="#333333" stroke-width="2" stroke-miterlimit="10" stroke-linecap="round" stroke-linejoin="round"/>
<path d="M339.577 25.6397C350.181 24.5819 359.133 27.2833 359.575 31.6609C360.017 36.0547 351.785 40.4649 341.181 41.5227L326.714 42.6293" stroke="#333333" stroke-width="2" stroke-miterlimit="10" stroke-linecap="round" stroke-linejoin="round"/>
<path d="M347.481 30.1315C340.428 34.0208 329.333 48.8298 319.743 68" stroke="#333333" stroke-width="2" stroke-miterlimit="10" stroke-linecap="round" stroke-linejoin="round"/>
<path d="M325.831 47.6888C306.21 47.6888 290.287 43.9296 290.287 39.2754C290.287 36.102 297.7 33.3518 308.648 31.9197" stroke="#333333" stroke-width="2" stroke-miterlimit="10" stroke-linecap="round" stroke-linejoin="round"/>
<path d="M308.615 31.9197C305.031 34.7839 300.875 37.7294 296.342 40.5935C294.525 41.7327 292.725 42.823 290.941 43.832" stroke="#333333" stroke-width="2" stroke-miterlimit="10" stroke-linecap="round" stroke-linejoin="round"/>
<path d="M102.093 36.8018C100.537 40.7261 98.9064 44.5278 97.1835 48.1932" stroke="#333333" stroke-width="2" stroke-miterlimit="10" stroke-linecap="round" stroke-linejoin="round"/>
<path d="M161.464 25.6133C159.729 32.432 157.815 38.9739 155.785 45.1741" stroke="#333333" stroke-width="2" stroke-miterlimit="10" stroke-linecap="round" stroke-linejoin="round"/>
<path d="M174.212 24.7834C172.477 31.602 170.563 38.144 168.534 44.3442" stroke="#333333" stroke-width="2" stroke-miterlimit="10" stroke-linecap="round" stroke-linejoin="round"/>
<path d="M144.33 40.5361C160.482 33.8802 175.014 31.9436 176.798 36.2236" stroke="#333333" stroke-width="2" stroke-miterlimit="10" stroke-linecap="round" stroke-linejoin="round"/>
<path d="M217.824 47.6725C198.186 47.6725 182.28 43.9133 182.28 39.2754C182.28 36.102 189.693 33.3518 200.641 31.9197" stroke="#333333" stroke-width="2" stroke-miterlimit="10" stroke-linecap="round" stroke-linejoin="round"/>
<path d="M200.625 31.9197C197.041 34.7839 192.884 37.7294 188.351 40.5935C186.535 41.7327 184.735 42.823 182.951 43.832" stroke="#333333" stroke-width="2" stroke-miterlimit="10" stroke-linecap="round" stroke-linejoin="round"/>
<path d="M145.312 44.3768C125.691 44.3768 109.768 40.6177 109.768 35.9634C109.768 32.7901 117.181 30.0399 128.129 28.6078" stroke="#333333" stroke-width="2" stroke-miterlimit="10" stroke-linecap="round" stroke-linejoin="round"/>
<path d="M128.096 28.6241C124.513 31.4882 120.356 34.4337 115.823 37.2979C114.006 38.437 112.206 39.5274 110.423 40.5363" stroke="#333333" stroke-width="2" stroke-miterlimit="10" stroke-linecap="round" stroke-linejoin="round"/>
<path d="M239.245 25.4016C239.033 26.3617 238.787 27.3544 238.476 28.3471C235.563 37.9159 229.492 44.5555 224.91 43.1885C220.884 41.9843 219.346 35.003 220.999 26.8499L242.96 24.9785" stroke="#333333" stroke-width="2" stroke-miterlimit="10" stroke-linecap="round" stroke-linejoin="round"/>
<path d="M226.89 21.039C229.328 10.2822 234.254 2.24302 237.871 3.0567C241.487 3.87038 242.453 13.2439 240.014 24.0007" stroke="#333333" stroke-width="2" stroke-miterlimit="10" stroke-linecap="round" stroke-linejoin="round"/>
<path d="M102.797 27.5825C101.913 30.0724 100.669 32.725 99.1146 35.4101C93.7469 44.6535 86.6283 50.5445 83.2081 48.5754C79.7879 46.6063 81.3589 37.5257 86.7265 28.2823C86.9883 27.8266 87.2502 27.3873 87.5284 26.9479" stroke="#333333" stroke-width="2" stroke-miterlimit="10" stroke-linecap="round" stroke-linejoin="round"/>
<path d="M87.5284 26.9642C86.3174 28.9007 84.9591 30.8698 83.4372 32.8389C74.9112 43.9049 64.9451 50.5608 61.1812 47.6967" stroke="#333333" stroke-width="2" stroke-miterlimit="10" stroke-linecap="round" stroke-linejoin="round"/>
<path d="M271.615 28.0869C269.88 34.9055 267.965 41.4475 265.936 47.6477" stroke="#333333" stroke-width="2" stroke-miterlimit="10" stroke-linecap="round" stroke-linejoin="round"/>
<path d="M248.393 20.1453L288.061 49.6817" stroke="#333333" stroke-width="2" stroke-miterlimit="10" stroke-linecap="round" stroke-linejoin="round"/>
<path d="M234.401 50.0237C235.972 52.4973 249.015 47.241 266.362 37.6233C267.393 37.0537 268.456 36.4516 269.52 35.8495" stroke="#333333" stroke-width="2" stroke-miterlimit="10" stroke-linecap="round" stroke-linejoin="round"/>
<path d="M269.504 35.8657L284.216 28.0869" stroke="#333333" stroke-width="2" stroke-miterlimit="10" stroke-linecap="round" stroke-linejoin="round"/>
</svg>
