<svg width="100" height="100" viewBox="0 0 100 100" fill="none" xmlns="http://www.w3.org/2000/svg">
<path d="M0 43.28C0 7.63892 7.63892 0 43.28 0H56.72C92.3611 0 100 7.63892 100 43.28V56.72C100 92.3611 92.3611 100 56.72 100H43.28C7.63892 100 0 92.3611 0 56.72V43.28Z" fill="#EFFA35"/>
<path d="M22.5122 50.797C22.5122 46.87 23.7302 43.552 25.3472 41.032H22.4282C20.4542 43.006 18.2072 46.366 18.2072 50.797C18.2072 55.312 20.4752 58.693 22.4282 60.751H25.3472C23.8352 58.126 22.5122 54.745 22.5122 50.797ZM35.8095 51.175C35.8095 48.571 33.9615 46.744 31.2315 46.744C28.5225 46.744 26.6955 48.571 26.6955 51.175C26.6955 53.758 28.5225 55.585 31.2315 55.585C33.9615 55.585 35.8095 53.758 35.8095 51.175ZM44.4841 58.546C44.8481 59.288 45.2891 59.89 45.8071 60.352C46.3391 60.814 46.9201 61.15 47.5501 61.36C48.1941 61.57 48.8591 61.675 49.5451 61.675C50.2171 61.675 50.8681 61.57 51.4981 61.36C52.1281 61.15 52.7091 60.814 53.2411 60.352C53.7731 59.89 54.2141 59.288 54.5641 58.546L55.5091 59.092C55.0611 59.974 54.5361 60.702 53.9341 61.276C53.3461 61.864 52.6881 62.305 51.9601 62.599C51.2321 62.893 50.4271 63.04 49.5451 63.04C48.6771 63.04 47.8721 62.893 47.1301 62.599C46.4021 62.305 45.7371 61.864 45.1351 61.276C44.5471 60.702 44.0221 59.974 43.5601 59.092L44.4841 58.546ZM73.3619 49.474V55.459H71.1149V51.721H63.1769V49.474H73.3619ZM77.4835 50.797C77.4835 54.745 76.1605 58.126 74.6485 60.751H77.5675C79.4785 58.672 81.8095 55.333 81.8095 50.797C81.8095 46.366 79.5835 42.985 77.5675 41.032H74.6485C76.2655 43.552 77.4835 46.87 77.4835 50.797Z" fill="#333333"/>
</svg>
