<svg width="188" height="417" viewBox="0 0 188 417" fill="none" xmlns="http://www.w3.org/2000/svg">
<path d="M100.811 179.62C128.861 179.62 151.601 173.222 151.601 165.33C151.601 157.438 128.861 151.04 100.811 151.04C72.76 151.04 50.0205 157.438 50.0205 165.33C50.0205 173.222 72.76 179.62 100.811 179.62Z" fill="#333333"/>
<path d="M81.6094 243.62L124.109 278.76C124.689 279.25 124.869 280.07 124.549 280.76L102.639 327.7C98.9794 335.54 102.039 344.87 109.619 349.02C117.929 353.57 139.869 351.62 143.869 343.04L158.669 260.66L88.5494 232.95L81.6094 243.62Z" fill="#4180DF"/>
<path d="M104.84 243.62L147.34 278.76C147.92 279.25 148.1 280.07 147.78 280.76L125.87 327.7C122.21 335.54 125.27 344.87 132.85 349.02C141.16 353.57 151.59 350.16 155.59 341.57L184.3 280.05C187.42 273.36 185.69 265.41 180.07 260.63L116.84 206.75L104.73 202.56L93.4902 207.88V219.87" fill="#4180DF"/>
<path d="M126.041 280.8L138.851 280.77C140.921 280.77 142.731 282.18 143.231 284.18L144.461 289.05L148.941 279.3L102.971 242.16L95.291 253.04L119.211 274.99L126.041 280.8Z" fill="#333333"/>
<path d="M100.81 186.91C137.018 186.91 166.37 177.159 166.37 165.13C166.37 153.101 137.018 143.35 100.81 143.35C64.6022 143.35 35.25 153.101 35.25 165.13C35.25 177.159 64.6022 186.91 100.81 186.91Z" stroke="#333333" stroke-width="2.8258" stroke-miterlimit="10"/>
<path d="M35.25 139.43C35.25 127.4 64.6 117.65 100.81 117.65C137.02 117.65 166.37 127.4 166.37 139.43" stroke="#333333" stroke-width="2.8258" stroke-miterlimit="10"/>
<path d="M35 165L35 48" stroke="#333333" stroke-width="2.8258" stroke-miterlimit="10"/>
<path d="M166.412 167L166.412 43.5" stroke="#333333" stroke-width="2.8258" stroke-miterlimit="10"/>
<path d="M47.29 126.85C46.15 127.44 44.87 127.77 43.5 127.77C38.94 127.77 35.25 124.08 35.25 119.52V135.35L38.94 130.79L47.29 126.85Z" fill="#333333" stroke="#333333" stroke-width="2.8258" stroke-miterlimit="10"/>
<path d="M154.33 126.85C155.47 127.44 156.75 127.77 158.12 127.77C162.68 127.77 166.37 124.08 166.37 119.52V135.35L162.68 130.79L154.33 126.85Z" fill="#333333" stroke="#333333" stroke-width="2.8258" stroke-miterlimit="10"/>
<path d="M154.33 86.4799C155.47 87.0699 156.75 87.3999 158.12 87.3999C162.68 87.3999 166.37 83.7099 166.37 79.1499V94.9799L162.68 90.4199L154.33 86.4799Z" fill="#333333" stroke="#333333" stroke-width="2.8258" stroke-miterlimit="10"/>
<path d="M55.3706 135H51.6293C50.7241 135 50 134.528 50 133.953V114.047C50 113.465 50.7342 113 51.6293 113H55.3706C56.2758 113 56.9999 113.472 56.9999 114.047V133.946C57.01 134.528 56.2758 135 55.3706 135Z" fill="white"/>
<path d="M107.141 202.61H94.0312V169.31C94.0312 167 95.9013 165.13 98.2113 165.13H102.961C105.271 165.13 107.141 167 107.141 169.31V202.61Z" fill="#4180DF" stroke="#333333" stroke-width="2.8258" stroke-miterlimit="10"/>
<path d="M104.281 241.64L147.891 278.77C148.471 279.26 148.651 280.08 148.331 280.77L126.421 327.71C122.761 335.55 125.821 344.88 133.401 349.03C141.711 353.58 152.141 350.17 156.141 341.58L184.851 280.06C187.971 273.37 186.241 265.42 180.621 260.64L117.391 206.75" stroke="#333333" stroke-width="2.8258" stroke-miterlimit="10"/>
<path d="M94.3516 253.82L123.652 278.77C124.232 279.26 124.412 280.08 124.092 280.77L102.182 327.71C98.5216 335.55 101.582 344.88 109.162 349.03C111.492 350.3 113.982 350.95 116.452 351.04" stroke="#333333" stroke-width="2.8258" stroke-miterlimit="10"/>
<path d="M140.781 351.06L116.451 351.05" stroke="#333333" stroke-width="2.8258" stroke-miterlimit="10"/>
<path d="M24 360.28C24 324.639 31.6389 317 67.28 317H80.72C116.361 317 124 324.639 124 360.28V373.72C124 409.361 116.361 417 80.72 417H67.28C31.6389 417 24 409.361 24 373.72V360.28Z" fill="#333333"/>
<path d="M87.5503 243.5L42.1003 279.07C41.4803 279.57 41.2903 280.4 41.6303 281.1L65.0603 328.61C68.9703 336.54 69.6105 345.79 61.5005 350C52.6105 354.61 37.5503 351.34 33.2703 342.65L2.56026 280.38C-0.779738 273.61 1.07026 265.56 7.08026 260.72L74.7103 206.19" fill="#4180DF"/>
<path d="M69.3298 351.05L45.0098 351.04" stroke="#333333" stroke-width="2.8258" stroke-miterlimit="10"/>
<path d="M106.051 244.99L64.1508 279.64C63.5808 280.13 63.4008 280.93 63.7208 281.62L85.3208 327.91C88.9308 335.64 85.9108 344.84 78.4308 348.93C70.2408 353.42 59.9508 350.05 56.0008 341.59L27.6908 280.92C24.6108 274.32 26.3208 266.49 31.8608 261.77L94.2108 208.64" fill="#4180DF"/>
<path d="M26.6106 267.67C25.5806 272.73 21.1006 276.53 15.7406 276.53C9.61063 276.53 4.64062 271.56 4.64062 265.43C4.64062 264.66 4.72063 263.92 4.87063 263.19L70.4206 206.75L75.3406 203.79L79.0106 202.79L103.941 202.62L96.4906 205.4L82.8406 216.77L56.0906 239.57L32.0206 258.74" fill="white"/>
<path d="M106.61 243.62L64.1102 278.76C63.5302 279.25 63.3502 280.07 63.6702 280.76L85.5802 327.7C89.2402 335.54 86.1802 344.87 78.6002 349.02C70.2902 353.57 59.8602 350.16 55.8602 341.57L27.1502 280.05C24.0302 273.36 25.7602 265.41 31.3802 260.63L94.6102 206.75" stroke="#333333" stroke-width="2.8258" stroke-miterlimit="10"/>
<path d="M46.291 351.06C40.231 350.96 34.431 347.5 31.671 341.59L2.95101 280.07C-0.168994 273.38 1.56101 265.43 7.18101 260.65L70.411 206.76" stroke="#333333" stroke-width="2.8258" stroke-miterlimit="10"/>
<path d="M117.39 206.75C110.37 200.76 99.9101 201.26 93.4901 207.87C86.4501 215.12 87.0001 226.81 94.6901 233.37L107 244" stroke="#333333" stroke-width="2.8258" stroke-miterlimit="10"/>
<path d="M70.4102 206.75C73.5902 204.04 77.4802 202.66 81.3702 202.57" stroke="#333333" stroke-width="2.8258" stroke-miterlimit="10"/>
<path d="M81.3809 202.56H104.731" stroke="#333333" stroke-width="2.8258" stroke-miterlimit="10" stroke-linecap="round" stroke-linejoin="round"/>
<path d="M106.131 230.89C112.118 230.89 116.971 226.037 116.971 220.05C116.971 214.063 112.118 209.21 106.131 209.21C100.144 209.21 95.291 214.063 95.291 220.05C95.291 226.037 100.144 230.89 106.131 230.89Z" fill="#333333"/>
<path d="M108.771 225.27L100.501 217.78C100.181 217.49 100.161 217 100.451 216.68L102.411 214.51C102.701 214.19 103.191 214.17 103.511 214.46L111.781 221.95C112.101 222.24 112.121 222.73 111.831 223.05L109.871 225.22C109.571 225.53 109.081 225.56 108.771 225.27Z" fill="#3E76BB"/>
</svg>
