<svg width="100" height="100" viewBox="0 0 100 100" fill="none" xmlns="http://www.w3.org/2000/svg">
<path d="M0 43.28C0 7.63892 7.63892 0 43.28 0H56.72C92.3611 0 100 7.63892 100 43.28V56.72C100 92.3611 92.3611 100 56.72 100H43.28C7.63892 100 0 92.3611 0 56.72V43.28Z" fill="white"/>
<path d="M33.1985 49.5H31.7013C31.6128 49.0694 31.4578 48.6911 31.2365 48.3651C31.0191 48.0391 30.7535 47.7654 30.4396 47.544C30.1297 47.3187 29.7856 47.1496 29.4073 47.0369C29.029 46.9242 28.6345 46.8679 28.224 46.8679C27.4755 46.8679 26.7973 47.0571 26.1896 47.4354C25.5859 47.8137 25.105 48.3711 24.7468 49.1076C24.3926 49.8441 24.2155 50.7476 24.2155 51.8182C24.2155 52.8887 24.3926 53.7923 24.7468 54.5288C25.105 55.2653 25.5859 55.8227 26.1896 56.201C26.7973 56.5793 27.4755 56.7685 28.224 56.7685C28.6345 56.7685 29.029 56.7121 29.4073 56.5994C29.7856 56.4867 30.1297 56.3197 30.4396 56.0984C30.7535 55.873 31.0191 55.5973 31.2365 55.2713C31.4578 54.9413 31.6128 54.563 31.7013 54.1364H33.1985C33.0858 54.7682 32.8805 55.3337 32.5827 55.8327C32.2849 56.3318 31.9146 56.7564 31.4719 57.1065C31.0292 57.4527 30.5322 57.7163 29.9808 57.8974C29.4334 58.0785 28.8478 58.169 28.224 58.169C27.1696 58.169 26.2318 57.9115 25.4108 57.3963C24.5898 56.8812 23.9438 56.1487 23.473 55.1989C23.0021 54.2491 22.7666 53.1222 22.7666 51.8182C22.7666 50.5142 23.0021 49.3873 23.473 48.4375C23.9438 47.4877 24.5898 46.7552 25.4108 46.2401C26.2318 45.7249 27.1696 45.4673 28.224 45.4673C28.8478 45.4673 29.4334 45.5579 29.9808 45.739C30.5322 45.9201 31.0292 46.1857 31.4719 46.5359C31.9146 46.882 32.2849 47.3046 32.5827 47.8036C32.8805 48.2987 33.0858 48.8641 33.1985 49.5ZM35.4246 58V48.7273H36.8493V52.7599H37.7911L41.1234 48.7273H42.9587L39.2158 53.1946L43.007 58H41.1717L38.1291 54.0881H36.8493V58H35.4246ZM47.9407 58.1932C47.1035 58.1932 46.369 57.994 45.7372 57.5955C45.1093 57.1971 44.6183 56.6397 44.2642 55.9233C43.914 55.2069 43.7389 54.3698 43.7389 53.4119C43.7389 52.446 43.914 51.6029 44.2642 50.8825C44.6183 50.162 45.1093 49.6026 45.7372 49.2042C46.369 48.8058 47.1035 48.6065 47.9407 48.6065C48.7778 48.6065 49.5103 48.8058 50.1381 49.2042C50.77 49.6026 51.261 50.162 51.6111 50.8825C51.9653 51.6029 52.1424 52.446 52.1424 53.4119C52.1424 54.3698 51.9653 55.2069 51.6111 55.9233C51.261 56.6397 50.77 57.1971 50.1381 57.5955C49.5103 57.994 48.7778 58.1932 47.9407 58.1932ZM47.9407 56.9134C48.5765 56.9134 49.0997 56.7504 49.5103 56.4244C49.9208 56.0984 50.2246 55.6697 50.4218 55.1385C50.619 54.6072 50.7176 54.0317 50.7176 53.4119C50.7176 52.7921 50.619 52.2146 50.4218 51.6793C50.2246 51.1441 49.9208 50.7114 49.5103 50.3814C49.0997 50.0514 48.5765 49.8864 47.9407 49.8864C47.3048 49.8864 46.7816 50.0514 46.371 50.3814C45.9605 50.7114 45.6567 51.1441 45.4595 51.6793C45.2623 52.2146 45.1637 52.7921 45.1637 53.4119C45.1637 54.0317 45.2623 54.6072 45.4595 55.1385C45.6567 55.6697 45.9605 56.0984 46.371 56.4244C46.7816 56.7504 47.3048 56.9134 47.9407 56.9134ZM54.3172 61.4773V48.7273H55.6936V50.2003H55.8626C55.9673 50.0393 56.1121 49.834 56.2973 49.5845C56.4864 49.331 56.7561 49.1056 57.1062 48.9084C57.4604 48.7071 57.9393 48.6065 58.543 48.6065C59.3238 48.6065 60.012 48.8017 60.6076 49.1921C61.2033 49.5825 61.6681 50.1359 62.0022 50.8523C62.3362 51.5687 62.5032 52.4138 62.5032 53.3878C62.5032 54.3698 62.3362 55.221 62.0022 55.9414C61.6681 56.6578 61.2053 57.2132 60.6137 57.6076C60.0221 57.998 59.3399 58.1932 58.5672 58.1932C57.9715 58.1932 57.4946 58.0946 57.1364 57.8974C56.7782 57.6961 56.5025 57.4687 56.3093 57.2152C56.1162 56.9576 55.9673 56.7443 55.8626 56.5753H55.7419V61.4773H54.3172ZM55.7177 53.3636C55.7177 54.0639 55.8204 54.6817 56.0256 55.217C56.2309 55.7482 56.5307 56.1648 56.9251 56.4666C57.3195 56.7644 57.8025 56.9134 58.374 56.9134C58.9696 56.9134 59.4667 56.7564 59.8651 56.4425C60.2676 56.1245 60.5694 55.6979 60.7706 55.1626C60.9759 54.6233 61.0785 54.0237 61.0785 53.3636C61.0785 52.7116 60.9779 52.1241 60.7767 51.6009C60.5795 51.0736 60.2796 50.6571 59.8772 50.3512C59.4787 50.0413 58.9777 49.8864 58.374 49.8864C57.7944 49.8864 57.3075 50.0333 56.913 50.3271C56.5186 50.6168 56.2208 51.0233 56.0196 51.5465C55.8183 52.0657 55.7177 52.6714 55.7177 53.3636ZM68.4436 58.1932C67.6065 58.1932 66.872 57.994 66.2401 57.5955C65.6123 57.1971 65.1213 56.6397 64.7671 55.9233C64.4169 55.2069 64.2419 54.3698 64.2419 53.4119C64.2419 52.446 64.4169 51.6029 64.7671 50.8825C65.1213 50.162 65.6123 49.6026 66.2401 49.2042C66.872 48.8058 67.6065 48.6065 68.4436 48.6065C69.2807 48.6065 70.0132 48.8058 70.641 49.2042C71.2729 49.6026 71.7639 50.162 72.114 50.8825C72.4682 51.6029 72.6453 52.446 72.6453 53.4119C72.6453 54.3698 72.4682 55.2069 72.114 55.9233C71.7639 56.6397 71.2729 57.1971 70.641 57.5955C70.0132 57.994 69.2807 58.1932 68.4436 58.1932ZM68.4436 56.9134C69.0795 56.9134 69.6027 56.7504 70.0132 56.4244C70.4237 56.0984 70.7276 55.6697 70.9248 55.1385C71.122 54.6072 71.2206 54.0317 71.2206 53.4119C71.2206 52.7921 71.122 52.2146 70.9248 51.6793C70.7276 51.1441 70.4237 50.7114 70.0132 50.3814C69.6027 50.0514 69.0795 49.8864 68.4436 49.8864C67.8077 49.8864 67.2845 50.0514 66.874 50.3814C66.4635 50.7114 66.1596 51.1441 65.9624 51.6793C65.7652 52.2146 65.6666 52.7921 65.6666 53.4119C65.6666 54.0317 65.7652 54.6072 65.9624 55.1385C66.1596 55.6697 66.4635 56.0984 66.874 56.4244C67.2845 56.7504 67.8077 56.9134 68.4436 56.9134ZM76.7036 45.6364L76.5829 54.5227H75.1823L75.0616 45.6364H76.7036ZM75.8826 58.0966C75.5848 58.0966 75.3292 57.9899 75.1159 57.7766C74.9026 57.5633 74.7959 57.3078 74.7959 57.0099C74.7959 56.7121 74.9026 56.4566 75.1159 56.2433C75.3292 56.0299 75.5848 55.9233 75.8826 55.9233C76.1804 55.9233 76.436 56.0299 76.6493 56.2433C76.8626 56.4566 76.9692 56.7121 76.9692 57.0099C76.9692 57.2071 76.9189 57.3883 76.8183 57.5533C76.7217 57.7183 76.5909 57.8511 76.4259 57.9517C76.2649 58.0483 76.0838 58.0966 75.8826 58.0966Z" fill="#333333"/>
</svg>
