<svg width="150" height="60" viewBox="0 0 150 60" fill="none" xmlns="http://www.w3.org/2000/svg">
<path d="M48.6804 8.76001H68.9204C73.5404 8.76001 77.2904 12.51 77.2904 17.13C77.2904 21.75 73.5404 25.5 68.9204 25.5H43.4004" stroke="white" stroke-width="2" stroke-miterlimit="10"/>
<path d="M7.94913 17.4999C6.82913 13.0199 9.54913 8.46992 14.0291 7.34992L38.2991 1.25992C42.7791 0.139923 47.3291 2.85992 48.4491 7.33992C49.5691 11.8199 46.8491 16.3699 42.3691 17.4899L29.7091 20.6599" stroke="white" stroke-width="2" stroke-miterlimit="10"/>
<path d="M46.6394 42.22H32.7294C28.1094 42.22 24.3594 38.47 24.3594 33.85C24.3594 29.23 28.1094 25.48 32.7294 25.48H46.6394C51.2594 25.48 55.0094 29.23 55.0094 33.85C55.0094 38.48 51.2594 42.22 46.6394 42.22Z" stroke="white" stroke-width="2" stroke-miterlimit="10"/>
<path d="M46.6394 58.96H32.7294C28.1094 58.96 24.3594 55.21 24.3594 50.59C24.3594 45.97 28.1094 42.22 32.7294 42.22H46.6394C51.2594 42.22 55.0094 45.97 55.0094 50.59C55.0094 55.21 51.2594 58.96 46.6394 58.96Z" stroke="white" stroke-width="2" stroke-miterlimit="10"/>
<path d="M32.4105 58.9601C19.9305 58.9601 9.81055 49.5101 9.81055 37.8401" stroke="white" stroke-width="2" stroke-miterlimit="10"/>
<path d="M7.7 15.3999H0" stroke="white" stroke-width="2" stroke-miterlimit="10"/>
<path d="M19.12 54.9102H0" stroke="white" stroke-width="2" stroke-miterlimit="10"/>
<path d="M109.51 37.7C99.3802 37.7 91.1602 29.49 91.1602 19.35C91.1602 9.22 99.3702 1 109.51 1C119.64 1 127.86 9.21 127.86 19.35C127.86 29.49 119.64 37.7 109.51 37.7Z" stroke="white" stroke-width="2" stroke-miterlimit="10"/>
<path d="M107.07 58.8301H91.4501C91.2901 58.8301 91.1602 58.7001 91.1602 58.5401V42.9301C91.1602 42.7701 91.2901 42.6401 91.4501 42.6401H107.07C107.23 42.6401 107.36 42.7701 107.36 42.9301V58.5501C107.36 58.7001 107.23 58.8301 107.07 58.8301Z" stroke="white" stroke-width="2" stroke-miterlimit="10"/>
<path d="M127.56 58.8301H111.94C111.78 58.8301 111.65 58.7001 111.65 58.5401V42.9301C111.65 42.7701 111.78 42.6401 111.94 42.6401H127.56C127.72 42.6401 127.85 42.7701 127.85 42.9301V58.5501C127.86 58.7001 127.73 58.8301 127.56 58.8301Z" stroke="white" stroke-width="2" stroke-miterlimit="10"/>
<path d="M148.461 17.21H132.841C132.681 17.21 132.551 17.08 132.551 16.92V1.30001C132.551 1.14001 132.681 1.01001 132.841 1.01001H148.461C148.621 1.01001 148.751 1.14001 148.751 1.30001V16.92C148.751 17.08 148.621 17.21 148.461 17.21Z" stroke="white" stroke-width="2" stroke-miterlimit="10"/>
<path d="M148.461 38.0201H132.841C132.681 38.0201 132.551 37.8901 132.551 37.7301V22.1101C132.551 21.9501 132.681 21.8201 132.841 21.8201H148.461C148.621 21.8201 148.751 21.9501 148.751 22.1101V37.7301C148.751 37.8901 148.621 38.0201 148.461 38.0201Z" stroke="white" stroke-width="2" stroke-miterlimit="10"/>
<path d="M148.461 58.8301H132.841C132.681 58.8301 132.551 58.7001 132.551 58.5401V42.9301C132.551 42.7701 132.681 42.6401 132.841 42.6401H148.461C148.621 42.6401 148.751 42.7701 148.751 42.9301V58.5501C148.751 58.7001 148.621 58.8301 148.461 58.8301Z" stroke="white" stroke-width="2" stroke-miterlimit="10"/>
</svg>
