<svg width="115" height="169" viewBox="0 0 115 169" fill="none" xmlns="http://www.w3.org/2000/svg">
<path d="M30.1451 140.328H32.2871C32.0831 141.507 31.5448 142.453 30.6721 143.167C29.7995 143.87 28.6888 144.221 27.3401 144.221C25.5495 144.221 24.1498 143.643 23.1411 142.487C22.1325 141.32 21.6281 139.801 21.6281 137.931C21.6281 136.061 22.1325 134.548 23.1411 133.392C24.1611 132.225 25.5665 131.641 27.3571 131.641C28.6378 131.641 29.6975 131.964 30.5361 132.61C31.3861 133.256 31.9245 134.129 32.1511 135.228H30.0091C29.6238 134.072 28.7398 133.494 27.3571 133.494C26.1671 133.494 25.2605 133.913 24.6371 134.752C24.0138 135.591 23.7021 136.65 23.7021 137.931C23.7021 139.212 24.0081 140.271 24.6201 141.11C25.2435 141.949 26.1501 142.368 27.3401 142.368C28.0881 142.368 28.7001 142.192 29.1761 141.841C29.6635 141.478 29.9865 140.974 30.1451 140.328ZM34.4383 144V135.347H37.1753L39.1133 139.138H39.5213L41.4423 135.347H44.1623V144H42.2923V137.778H41.8843L40.2013 141.025H38.3993L36.7163 137.778H36.3083V144H34.4383ZM54.5925 139.189V139.835H48.2005C48.2571 141.671 49.0675 142.589 50.6315 142.589C51.6175 142.589 52.2465 142.221 52.5185 141.484H54.4735C54.3035 142.323 53.8898 142.991 53.2325 143.49C52.5751 143.977 51.7025 144.221 50.6145 144.221C49.2771 144.221 48.2231 143.796 47.4525 142.946C46.6818 142.096 46.2965 140.985 46.2965 139.614C46.2965 138.254 46.6761 137.166 47.4355 136.35C48.2061 135.534 49.2488 135.126 50.5635 135.126C51.8101 135.126 52.7848 135.511 53.4875 136.282C54.2015 137.041 54.5698 138.01 54.5925 139.189ZM50.5465 136.656C49.2998 136.656 48.5461 137.24 48.2855 138.407H52.6205C52.5525 137.897 52.3428 137.478 51.9915 137.149C51.6401 136.82 51.1585 136.656 50.5465 136.656ZM55.6194 136.979V135.347H63.3714V136.979H60.4644V144H58.5434V136.979H55.6194ZM73.225 144H71.304V140.379H67.122V144H65.201V135.347H67.122V138.747H71.304V135.347H73.225V144ZM81.2818 144V143.201H80.8738C80.3298 143.881 79.4798 144.221 78.3238 144.221C77.3718 144.221 76.6181 143.949 76.0628 143.405C75.5075 142.85 75.2298 142.175 75.2298 141.382C75.2298 140.6 75.5131 139.92 76.0798 139.342C76.6465 138.764 77.5078 138.475 78.6638 138.475H81.2138V138.22C81.2138 137.166 80.6075 136.639 79.3948 136.639C78.3181 136.639 77.7401 137.007 77.6608 137.744H75.7568C75.8021 136.939 76.1478 136.305 76.7938 135.84C77.4511 135.364 78.2955 135.126 79.3268 135.126C80.4941 135.126 81.4065 135.387 82.0638 135.908C82.7325 136.429 83.0668 137.211 83.0668 138.254V144H81.2818ZM78.9188 142.657C79.5648 142.657 80.1088 142.447 80.5508 142.028C80.9928 141.609 81.2138 141.099 81.2138 140.498V139.835H79.0038C77.7798 139.835 77.1678 140.311 77.1678 141.263C77.1678 141.705 77.3208 142.051 77.6268 142.3C77.9328 142.538 78.3635 142.657 78.9188 142.657ZM88.5963 135.347H92.9483V144H91.0273V140.855H88.9873C88.7153 140.855 88.5113 140.849 88.3753 140.838L87.1683 144H85.2303L86.6243 140.43C85.7517 139.965 85.3153 139.195 85.3153 138.118C85.3153 137.245 85.5987 136.565 86.1653 136.078C86.732 135.591 87.5423 135.347 88.5963 135.347ZM91.0273 139.359V136.911H88.7493C87.7293 136.911 87.2193 137.319 87.2193 138.135C87.2193 138.951 87.7293 139.359 88.7493 139.359H91.0273ZM1.85243 165V163.181H2.15843C2.75909 163.181 3.18409 162.943 3.43343 162.467C3.68276 161.991 3.80743 161.118 3.80743 159.849V156.347H10.8114V165H8.89043V157.979H5.57543V159.9C5.57543 161.77 5.30343 163.09 4.75943 163.861C4.22676 164.62 3.35976 165 2.15843 165H1.85243ZM18.8682 165V164.201H18.4602C17.9162 164.881 17.0662 165.221 15.9102 165.221C14.9582 165.221 14.2046 164.949 13.6492 164.405C13.0939 163.85 12.8162 163.175 12.8162 162.382C12.8162 161.6 13.0996 160.92 13.6662 160.342C14.2329 159.764 15.0942 159.475 16.2502 159.475H18.8002V159.22C18.8002 158.166 18.1939 157.639 16.9812 157.639C15.9046 157.639 15.3266 158.007 15.2472 158.744H13.3432C13.3886 157.939 13.7342 157.305 14.3802 156.84C15.0376 156.364 15.8819 156.126 16.9132 156.126C18.0806 156.126 18.9929 156.387 19.6502 156.908C20.3189 157.429 20.6532 158.211 20.6532 159.254V165H18.8682ZM16.5052 163.657C17.1512 163.657 17.6952 163.447 18.1372 163.028C18.5792 162.609 18.8002 162.099 18.8002 161.498V160.835H16.5902C15.3662 160.835 14.7542 161.311 14.7542 162.263C14.7542 162.705 14.9072 163.051 15.2132 163.3C15.5192 163.538 15.9499 163.657 16.5052 163.657ZM27.3897 156.534C28.6364 156.534 29.6281 156.942 30.3647 157.758C31.1127 158.574 31.4867 159.617 31.4867 160.886C31.4867 162.144 31.0844 163.181 30.2797 163.997C29.4864 164.813 28.4267 165.221 27.1007 165.221C25.6954 165.221 24.6074 164.768 23.8367 163.861C23.0661 162.954 22.6807 161.645 22.6807 159.934C22.6807 159.141 22.7204 158.432 22.7997 157.809C22.8904 157.186 23.0491 156.568 23.2757 155.956C23.5137 155.333 23.8651 154.823 24.3297 154.426C24.8057 154.029 25.3951 153.774 26.0977 153.661L28.3587 153.287C28.6761 153.242 28.8914 153.179 29.0047 153.1C29.1181 153.021 29.1861 152.868 29.2087 152.641H30.8577C30.8237 153.242 30.6877 153.723 30.4497 154.086C30.2231 154.449 29.7811 154.681 29.1237 154.783L26.3697 155.225C25.7237 155.327 25.2364 155.588 24.9077 156.007C24.5791 156.415 24.3581 156.987 24.2447 157.724H24.6527C25.2647 156.931 26.1771 156.534 27.3897 156.534ZM27.0837 163.589C27.8771 163.589 28.4834 163.323 28.9027 162.79C29.3221 162.257 29.5317 161.606 29.5317 160.835C29.5317 160.064 29.3221 159.418 28.9027 158.897C28.4834 158.376 27.8771 158.115 27.0837 158.115C26.2791 158.115 25.6671 158.376 25.2477 158.897C24.8284 159.418 24.6187 160.064 24.6187 160.835C24.6187 161.606 24.8284 162.257 25.2477 162.79C25.6671 163.323 26.2791 163.589 27.0837 163.589ZM34.2961 157.401C35.0895 156.551 36.1548 156.126 37.4921 156.126C38.8295 156.126 39.8891 156.551 40.6711 157.401C41.4645 158.24 41.8611 159.328 41.8611 160.665C41.8611 162.014 41.4645 163.113 40.6711 163.963C39.8891 164.802 38.8295 165.221 37.4921 165.221C36.1548 165.221 35.0895 164.802 34.2961 163.963C33.5141 163.113 33.1231 162.014 33.1231 160.665C33.1231 159.328 33.5141 158.24 34.2961 157.401ZM35.6731 162.756C36.0925 163.311 36.6988 163.589 37.4921 163.589C38.2855 163.589 38.8918 163.311 39.3111 162.756C39.7305 162.189 39.9401 161.492 39.9401 160.665C39.9401 159.849 39.7305 159.163 39.3111 158.608C38.8918 158.041 38.2855 157.758 37.4921 157.758C36.6988 157.758 36.0925 158.041 35.6731 158.608C35.2538 159.163 35.0441 159.849 35.0441 160.665C35.0441 161.492 35.2538 162.189 35.6731 162.756ZM48.2761 157.758C47.4828 157.758 46.8821 158.036 46.4741 158.591C46.0774 159.146 45.8791 159.838 45.8791 160.665C45.8791 161.504 46.0774 162.201 46.4741 162.756C46.8821 163.311 47.4828 163.589 48.2761 163.589C49.0354 163.589 49.6191 163.323 50.0271 162.79C50.4351 162.246 50.6391 161.538 50.6391 160.665C50.6391 159.792 50.4351 159.09 50.0271 158.557C49.6191 158.024 49.0354 157.758 48.2761 157.758ZM44.0091 156.347H45.8621V157.18H46.2701C46.8368 156.477 47.6868 156.126 48.8201 156.126C49.9648 156.126 50.8714 156.551 51.5401 157.401C52.2201 158.251 52.5601 159.339 52.5601 160.665C52.5601 162.002 52.2201 163.096 51.5401 163.946C50.8714 164.796 49.9648 165.221 48.8201 165.221C47.6981 165.221 46.8708 164.87 46.3381 164.167H45.9301V168.4H44.0091V156.347ZM60.1065 165V164.201H59.6985C59.1545 164.881 58.3045 165.221 57.1485 165.221C56.1965 165.221 55.4428 164.949 54.8875 164.405C54.3322 163.85 54.0545 163.175 54.0545 162.382C54.0545 161.6 54.3378 160.92 54.9045 160.342C55.4712 159.764 56.3325 159.475 57.4885 159.475H60.0385V159.22C60.0385 158.166 59.4322 157.639 58.2195 157.639C57.1428 157.639 56.5648 158.007 56.4855 158.744H54.5815C54.6268 157.939 54.9725 157.305 55.6185 156.84C56.2758 156.364 57.1202 156.126 58.1515 156.126C59.3188 156.126 60.2312 156.387 60.8885 156.908C61.5572 157.429 61.8915 158.211 61.8915 159.254V165H60.1065ZM57.7435 163.657C58.3895 163.657 58.9335 163.447 59.3755 163.028C59.8175 162.609 60.0385 162.099 60.0385 161.498V160.835H57.8285C56.6045 160.835 55.9925 161.311 55.9925 162.263C55.9925 162.705 56.1455 163.051 56.4515 163.3C56.7575 163.538 57.1882 163.657 57.7435 163.657ZM63.613 157.979V156.347H71.365V157.979H68.458V165H66.537V157.979H63.613ZM73.7746 157.401C74.568 156.551 75.6333 156.126 76.9706 156.126C78.308 156.126 79.3676 156.551 80.1496 157.401C80.943 158.24 81.3396 159.328 81.3396 160.665C81.3396 162.014 80.943 163.113 80.1496 163.963C79.3676 164.802 78.308 165.221 76.9706 165.221C75.6333 165.221 74.568 164.802 73.7746 163.963C72.9926 163.113 72.6016 162.014 72.6016 160.665C72.6016 159.328 72.9926 158.24 73.7746 157.401ZM75.1516 162.756C75.571 163.311 76.1773 163.589 76.9706 163.589C77.764 163.589 78.3703 163.311 78.7896 162.756C79.209 162.189 79.4186 161.492 79.4186 160.665C79.4186 159.849 79.209 159.163 78.7896 158.608C78.3703 158.041 77.764 157.758 76.9706 157.758C76.1773 157.758 75.571 158.041 75.1516 158.608C74.7323 159.163 74.5226 159.849 74.5226 160.665C74.5226 161.492 74.7323 162.189 75.1516 162.756ZM87.7546 157.758C86.9613 157.758 86.3606 158.036 85.9526 158.591C85.556 159.146 85.3576 159.838 85.3576 160.665C85.3576 161.504 85.556 162.201 85.9526 162.756C86.3606 163.311 86.9613 163.589 87.7546 163.589C88.514 163.589 89.0976 163.323 89.5056 162.79C89.9136 162.246 90.1176 161.538 90.1176 160.665C90.1176 159.792 89.9136 159.09 89.5056 158.557C89.0976 158.024 88.514 157.758 87.7546 157.758ZM83.4876 156.347H85.3406V157.18H85.7486C86.3153 156.477 87.1653 156.126 88.2986 156.126C89.4433 156.126 90.35 156.551 91.0186 157.401C91.6986 158.251 92.0386 159.339 92.0386 160.665C92.0386 162.002 91.6986 163.096 91.0186 163.946C90.35 164.796 89.4433 165.221 88.2986 165.221C87.1766 165.221 86.3493 164.87 85.8166 164.167H85.4086V168.4H83.4876V156.347ZM96.355 165H94.179V156.347H96.049V162.059H96.457L100.01 156.347H102.237V165H100.367V159.288H99.959L96.355 165ZM107.879 156.347H112.231V165H110.31V161.855H108.27C107.998 161.855 107.794 161.849 107.658 161.838L106.451 165H104.513L105.907 161.43C105.034 160.965 104.598 160.195 104.598 159.118C104.598 158.245 104.881 157.565 105.448 157.078C106.015 156.591 106.825 156.347 107.879 156.347ZM110.31 160.359V157.911H108.032C107.012 157.911 106.502 158.319 106.502 159.135C106.502 159.951 107.012 160.359 108.032 160.359H110.31Z" fill="white"/>
<g clip-path="url(#clip0_630_1103)">
<path d="M73.4774 105.452C69.3108 109.661 63.5376 112.257 57.1621 112.257" stroke="white" stroke-miterlimit="10" stroke-linecap="round" stroke-linejoin="round"/>
<path d="M44.8379 7.39703C49.0046 3.21324 54.7651 0.629883 61.1156 0.629883" stroke="white" stroke-miterlimit="10" stroke-linecap="round"/>
<path d="M61.1152 0.629883V37.3892" stroke="white" stroke-miterlimit="10" stroke-linecap="round"/>
<path d="M51.5273 83.5244L80.2549 112.37H103.247" stroke="white" stroke-miterlimit="10" stroke-linecap="round" stroke-linejoin="round"/>
<path d="M28.4355 83.4111L57.1505 112.257" stroke="white" stroke-miterlimit="10" stroke-linecap="round" stroke-linejoin="round"/>
<path d="M74.645 37.6035L103.373 66.4363L103.247 112.332L74.5195 83.4865" stroke="white" stroke-miterlimit="10" stroke-linecap="round" stroke-linejoin="round"/>
<path d="M24.6582 37.2508L61.0414 0.718262" stroke="white" stroke-miterlimit="10" stroke-linecap="round" stroke-linejoin="round"/>
<path d="M24.6328 83.474L28.5108 79.5801" stroke="white" stroke-miterlimit="10" stroke-linecap="round" stroke-linejoin="round"/>
<path d="M8.66797 43.7156L45.0512 7.18311" stroke="white" stroke-miterlimit="10" stroke-linecap="round" stroke-linejoin="round"/>
<path d="M51.5024 60.3623C51.5024 73.1279 41.1986 83.4865 28.4727 83.4865V60.3623" fill="white"/>
<path d="M51.5024 60.3623C51.5024 73.1279 41.1986 83.4865 28.4727 83.4865V60.3623" stroke="white" stroke-miterlimit="10" stroke-linecap="round" stroke-linejoin="round"/>
<path d="M51.5024 37.4648C38.789 37.4648 28.4727 47.8109 28.4727 60.5891H54.0626L51.5024 37.4648Z" fill="white" stroke="white" stroke-miterlimit="10"/>
<path d="M51.502 60.9167V83.4865H74.5191V37.4648H51.502" fill="white"/>
<path d="M51.502 60.9167V83.4865H74.5191V37.4648H51.502" stroke="white" stroke-miterlimit="10" stroke-linecap="round" stroke-linejoin="round"/>
<path d="M24.6567 37.251V83.4868C11.9307 83.4868 1.62695 73.1408 1.62695 60.3626C1.62695 47.597 11.9307 37.251 24.6567 37.251Z" fill="white" stroke="white" stroke-miterlimit="10" stroke-linecap="round" stroke-linejoin="round"/>
</g>
<defs>
<clipPath id="clip0_630_1103">
<rect width="103" height="113" fill="white" transform="translate(1)"/>
</clipPath>
</defs>
</svg>
