<svg width="311" height="125" viewBox="0 0 311 125" fill="none" xmlns="http://www.w3.org/2000/svg">
<path d="M29.3836 113.6H32.5336C32.2336 115.333 31.4419 116.725 30.1586 117.775C28.8753 118.808 27.2419 119.325 25.2586 119.325C22.6253 119.325 20.5669 118.475 19.0836 116.775C17.6003 115.058 16.8586 112.825 16.8586 110.075C16.8586 107.325 17.6003 105.1 19.0836 103.4C20.5836 101.683 22.6503 100.825 25.2836 100.825C27.1669 100.825 28.7253 101.3 29.9586 102.25C31.2086 103.2 32.0003 104.483 32.3336 106.1H29.1836C28.6169 104.4 27.3169 103.55 25.2836 103.55C23.5336 103.55 22.2003 104.167 21.2836 105.4C20.3669 106.633 19.9086 108.192 19.9086 110.075C19.9086 111.958 20.3586 113.517 21.2586 114.75C22.1753 115.983 23.5086 116.6 25.2586 116.6C26.3586 116.6 27.2586 116.342 27.9586 115.825C28.6753 115.292 29.1503 114.55 29.3836 113.6ZM35.6971 119V106.275H39.7221L42.5721 111.85H43.1721L45.9971 106.275H49.9971V119H47.2471V109.85H46.6471L44.1721 114.625H41.5221L39.0471 109.85H38.4471V119H35.6971ZM65.3355 111.925V112.875H55.9355C56.0189 115.575 57.2105 116.925 59.5105 116.925C60.9605 116.925 61.8855 116.383 62.2855 115.3H65.1605C64.9105 116.533 64.3022 117.517 63.3355 118.25C62.3689 118.967 61.0855 119.325 59.4855 119.325C57.5189 119.325 55.9689 118.7 54.8355 117.45C53.7022 116.2 53.1355 114.567 53.1355 112.55C53.1355 110.55 53.6939 108.95 54.8105 107.75C55.9439 106.55 57.4772 105.95 59.4105 105.95C61.2439 105.95 62.6772 106.517 63.7105 107.65C64.7605 108.767 65.3022 110.192 65.3355 111.925ZM59.3855 108.2C57.5522 108.2 56.4439 109.058 56.0605 110.775H62.4355C62.3355 110.025 62.0272 109.408 61.5105 108.925C60.9939 108.442 60.2855 108.2 59.3855 108.2ZM66.8457 108.675V106.275H78.2457V108.675H73.9707V119H71.1457V108.675H66.8457ZM92.7363 119H89.9113V113.675H83.7613V119H80.9363V106.275H83.7613V111.275H89.9113V106.275H92.7363V119ZM104.585 119V117.825H103.985C103.185 118.825 101.935 119.325 100.235 119.325C98.8346 119.325 97.7262 118.925 96.9096 118.125C96.0929 117.308 95.6846 116.317 95.6846 115.15C95.6846 114 96.1012 113 96.9346 112.15C97.7679 111.3 99.0346 110.875 100.735 110.875H104.485V110.5C104.485 108.95 103.593 108.175 101.81 108.175C100.226 108.175 99.3762 108.717 99.2596 109.8H96.4596C96.5262 108.617 97.0346 107.683 97.9846 107C98.9512 106.3 100.193 105.95 101.71 105.95C103.426 105.95 104.768 106.333 105.735 107.1C106.718 107.867 107.21 109.017 107.21 110.55V119H104.585ZM101.11 117.025C102.06 117.025 102.86 116.717 103.51 116.1C104.16 115.483 104.485 114.733 104.485 113.85V112.875H101.235C99.4346 112.875 98.5346 113.575 98.5346 114.975C98.5346 115.625 98.7596 116.133 99.2096 116.5C99.6596 116.85 100.293 117.025 101.11 117.025ZM115.341 106.275H121.741V119H118.916V114.375H115.916C115.516 114.375 115.216 114.367 115.016 114.35L113.241 119H110.391L112.441 113.75C111.158 113.067 110.516 111.933 110.516 110.35C110.516 109.067 110.933 108.067 111.766 107.35C112.6 106.633 113.791 106.275 115.341 106.275ZM118.916 112.175V108.575H115.566C114.066 108.575 113.316 109.175 113.316 110.375C113.316 111.575 114.066 112.175 115.566 112.175H118.916ZM131.197 119V116.325H131.647C132.53 116.325 133.155 115.975 133.522 115.275C133.889 114.575 134.072 113.292 134.072 111.425V106.275H144.372V119H141.547V108.675H136.672V111.5C136.672 114.25 136.272 116.192 135.472 117.325C134.689 118.442 133.414 119 131.647 119H131.197ZM156.22 119V117.825H155.62C154.82 118.825 153.57 119.325 151.87 119.325C150.47 119.325 149.362 118.925 148.545 118.125C147.729 117.308 147.32 116.317 147.32 115.15C147.32 114 147.737 113 148.57 112.15C149.404 111.3 150.67 110.875 152.37 110.875H156.12V110.5C156.12 108.95 155.229 108.175 153.445 108.175C151.862 108.175 151.012 108.717 150.895 109.8H148.095C148.162 108.617 148.67 107.683 149.62 107C150.587 106.3 151.829 105.95 153.345 105.95C155.062 105.95 156.404 106.333 157.37 107.1C158.354 107.867 158.845 109.017 158.845 110.55V119H156.22ZM152.745 117.025C153.695 117.025 154.495 116.717 155.145 116.1C155.795 115.483 156.12 114.733 156.12 113.85V112.875H152.87C151.07 112.875 150.17 113.575 150.17 114.975C150.17 115.625 150.395 116.133 150.845 116.5C151.295 116.85 151.929 117.025 152.745 117.025ZM168.752 106.55C170.585 106.55 172.044 107.15 173.127 108.35C174.227 109.55 174.777 111.083 174.777 112.95C174.777 114.8 174.185 116.325 173.002 117.525C171.835 118.725 170.277 119.325 168.327 119.325C166.26 119.325 164.66 118.658 163.527 117.325C162.394 115.992 161.827 114.067 161.827 111.55C161.827 110.383 161.885 109.342 162.002 108.425C162.135 107.508 162.369 106.6 162.702 105.7C163.052 104.783 163.569 104.033 164.252 103.45C164.952 102.867 165.819 102.492 166.852 102.325L170.177 101.775C170.644 101.708 170.96 101.617 171.127 101.5C171.294 101.383 171.394 101.158 171.427 100.825H173.852C173.802 101.708 173.602 102.417 173.252 102.95C172.919 103.483 172.269 103.825 171.302 103.975L167.252 104.625C166.302 104.775 165.585 105.158 165.102 105.775C164.619 106.375 164.294 107.217 164.127 108.3H164.727C165.627 107.133 166.969 106.55 168.752 106.55ZM168.302 116.925C169.469 116.925 170.36 116.533 170.977 115.75C171.594 114.967 171.902 114.008 171.902 112.875C171.902 111.742 171.594 110.792 170.977 110.025C170.36 109.258 169.469 108.875 168.302 108.875C167.119 108.875 166.219 109.258 165.602 110.025C164.985 110.792 164.677 111.742 164.677 112.875C164.677 114.008 164.985 114.967 165.602 115.75C166.219 116.533 167.119 116.925 168.302 116.925ZM178.908 107.825C180.075 106.575 181.642 105.95 183.608 105.95C185.575 105.95 187.133 106.575 188.283 107.825C189.45 109.058 190.033 110.658 190.033 112.625C190.033 114.608 189.45 116.225 188.283 117.475C187.133 118.708 185.575 119.325 183.608 119.325C181.642 119.325 180.075 118.708 178.908 117.475C177.758 116.225 177.183 114.608 177.183 112.625C177.183 110.658 177.758 109.058 178.908 107.825ZM180.933 115.7C181.55 116.517 182.442 116.925 183.608 116.925C184.775 116.925 185.667 116.517 186.283 115.7C186.9 114.867 187.208 113.842 187.208 112.625C187.208 111.425 186.9 110.417 186.283 109.6C185.667 108.767 184.775 108.35 183.608 108.35C182.442 108.35 181.55 108.767 180.933 109.6C180.317 110.417 180.008 111.425 180.008 112.625C180.008 113.842 180.317 114.867 180.933 115.7ZM199.467 108.35C198.301 108.35 197.417 108.758 196.817 109.575C196.234 110.392 195.942 111.408 195.942 112.625C195.942 113.858 196.234 114.883 196.817 115.7C197.417 116.517 198.301 116.925 199.467 116.925C200.584 116.925 201.442 116.533 202.042 115.75C202.642 114.95 202.942 113.908 202.942 112.625C202.942 111.342 202.642 110.308 202.042 109.525C201.442 108.742 200.584 108.35 199.467 108.35ZM193.192 106.275H195.917V107.5H196.517C197.351 106.467 198.601 105.95 200.267 105.95C201.951 105.95 203.284 106.575 204.267 107.825C205.267 109.075 205.767 110.675 205.767 112.625C205.767 114.592 205.267 116.2 204.267 117.45C203.284 118.7 201.951 119.325 200.267 119.325C198.617 119.325 197.401 118.808 196.617 117.775H196.017V124H193.192V106.275ZM216.865 119V117.825H216.265C215.465 118.825 214.215 119.325 212.515 119.325C211.115 119.325 210.007 118.925 209.19 118.125C208.373 117.308 207.965 116.317 207.965 115.15C207.965 114 208.382 113 209.215 112.15C210.048 111.3 211.315 110.875 213.015 110.875H216.765V110.5C216.765 108.95 215.873 108.175 214.09 108.175C212.507 108.175 211.657 108.717 211.54 109.8H208.74C208.807 108.617 209.315 107.683 210.265 107C211.232 106.3 212.473 105.95 213.99 105.95C215.707 105.95 217.048 106.333 218.015 107.1C218.998 107.867 219.49 109.017 219.49 110.55V119H216.865ZM213.39 117.025C214.34 117.025 215.14 116.717 215.79 116.1C216.44 115.483 216.765 114.733 216.765 113.85V112.875H213.515C211.715 112.875 210.815 113.575 210.815 114.975C210.815 115.625 211.04 116.133 211.49 116.5C211.94 116.85 212.573 117.025 213.39 117.025ZM222.021 108.675V106.275H233.421V108.675H229.146V119H226.321V108.675H222.021ZM236.965 107.825C238.132 106.575 239.698 105.95 241.665 105.95C243.632 105.95 245.19 106.575 246.34 107.825C247.507 109.058 248.09 110.658 248.09 112.625C248.09 114.608 247.507 116.225 246.34 117.475C245.19 118.708 243.632 119.325 241.665 119.325C239.698 119.325 238.132 118.708 236.965 117.475C235.815 116.225 235.24 114.608 235.24 112.625C235.24 110.658 235.815 109.058 236.965 107.825ZM238.99 115.7C239.607 116.517 240.498 116.925 241.665 116.925C242.832 116.925 243.723 116.517 244.34 115.7C244.957 114.867 245.265 113.842 245.265 112.625C245.265 111.425 244.957 110.417 244.34 109.6C243.723 108.767 242.832 108.35 241.665 108.35C240.498 108.35 239.607 108.767 238.99 109.6C238.373 110.417 238.065 111.425 238.065 112.625C238.065 113.842 238.373 114.867 238.99 115.7ZM257.524 108.35C256.357 108.35 255.474 108.758 254.874 109.575C254.29 110.392 253.999 111.408 253.999 112.625C253.999 113.858 254.29 114.883 254.874 115.7C255.474 116.517 256.357 116.925 257.524 116.925C258.64 116.925 259.499 116.533 260.099 115.75C260.699 114.95 260.999 113.908 260.999 112.625C260.999 111.342 260.699 110.308 260.099 109.525C259.499 108.742 258.64 108.35 257.524 108.35ZM251.249 106.275H253.974V107.5H254.574C255.407 106.467 256.657 105.95 258.324 105.95C260.007 105.95 261.34 106.575 262.324 107.825C263.324 109.075 263.824 110.675 263.824 112.625C263.824 114.592 263.324 116.2 262.324 117.45C261.34 118.7 260.007 119.325 258.324 119.325C256.674 119.325 255.457 118.808 254.674 117.775H254.074V124H251.249V106.275ZM270.171 119H266.971V106.275H269.721V114.675H270.321L275.546 106.275H278.821V119H276.071V110.6H275.471L270.171 119ZM287.119 106.275H293.519V119H290.694V114.375H287.694C287.294 114.375 286.994 114.367 286.794 114.35L285.019 119H282.169L284.219 113.75C282.935 113.067 282.294 111.933 282.294 110.35C282.294 109.067 282.71 108.067 283.544 107.35C284.377 106.633 285.569 106.275 287.119 106.275ZM290.694 112.175V108.575H287.344C285.844 108.575 285.094 109.175 285.094 110.375C285.094 111.575 285.844 112.175 287.344 112.175H290.694Z" fill="white"/>
<g clip-path="url(#clip0_630_865)">
<path d="M142.025 77.0776C126 77.0776 113 63.9917 113 47.8597V29.2178C113 13.0858 126 0 142.025 0" fill="white"/>
<path d="M142.025 77.0776C126 77.0776 113 63.9917 113 47.8597V29.2178C113 13.0858 126 0 142.025 0" stroke="white"/>
<path d="M127.842 52.4722H152.776V24.8525H127.842C120.266 24.8525 114.129 31.0308 114.129 38.657C114.118 46.294 120.266 52.4722 127.842 52.4722Z" fill="#828282"/>
<path d="M173.565 52.5579C173.523 66.652 162.132 78.0431 148.131 78.0001L148.205 52.4185L173.565 52.5579Z" fill="white" stroke="white"/>
<path d="M173.7 26.2419L163.471 26.188L163.331 53.0139L173.56 53.0678L173.7 26.2419Z" fill="white" stroke="white"/>
<path d="M188.771 0.804688C174.77 0.847592 163.454 12.303 163.496 26.3971L188.814 26.322L188.771 0.804688Z" fill="white" stroke="white"/>
<path d="M198.989 0.804688H188.76V78.0002H198.989V0.804688Z" fill="white" stroke="white"/>
</g>
<defs>
<clipPath id="clip0_630_865">
<rect width="86" height="78" fill="white" transform="translate(113)"/>
</clipPath>
</defs>
</svg>
