<svg width="311" height="60" viewBox="0 0 311 60" fill="none" xmlns="http://www.w3.org/2000/svg">
<path d="M13.825 48.6H16.975C16.675 50.3333 15.8833 51.725 14.6 52.775C13.3167 53.8083 11.6833 54.325 9.7 54.325C7.06667 54.325 5.00833 53.475 3.525 51.775C2.04167 50.0583 1.3 47.825 1.3 45.075C1.3 42.325 2.04167 40.1 3.525 38.4C5.025 36.6833 7.09167 35.825 9.725 35.825C11.6083 35.825 13.1667 36.3 14.4 37.25C15.65 38.2 16.4417 39.4833 16.775 41.1H13.625C13.0583 39.4 11.7583 38.55 9.725 38.55C7.975 38.55 6.64167 39.1667 5.725 40.4C4.80833 41.6333 4.35 43.1917 4.35 45.075C4.35 46.9583 4.8 48.5167 5.7 49.75C6.61667 50.9833 7.95 51.6 9.7 51.6C10.8 51.6 11.7 51.3417 12.4 50.825C13.1167 50.2917 13.5917 49.55 13.825 48.6ZM20.1385 54V41.275H24.1635L27.0135 46.85H27.6135L30.4385 41.275H34.4385V54H31.6885V44.85H31.0885L28.6135 49.625H25.9635L23.4885 44.85H22.8885V54H20.1385ZM49.777 46.925V47.875H40.377C40.4603 50.575 41.652 51.925 43.952 51.925C45.402 51.925 46.327 51.3833 46.727 50.3H49.602C49.352 51.5333 48.7436 52.5167 47.777 53.25C46.8103 53.9667 45.527 54.325 43.927 54.325C41.9603 54.325 40.4103 53.7 39.277 52.45C38.1436 51.2 37.577 49.5667 37.577 47.55C37.577 45.55 38.1353 43.95 39.252 42.75C40.3853 41.55 41.9186 40.95 43.852 40.95C45.6853 40.95 47.1186 41.5167 48.152 42.65C49.202 43.7667 49.7436 45.1917 49.777 46.925ZM43.827 43.2C41.9936 43.2 40.8853 44.0583 40.502 45.775H46.877C46.777 45.025 46.4686 44.4083 45.952 43.925C45.4353 43.4417 44.727 43.2 43.827 43.2ZM51.2871 43.675V41.275H62.6871V43.675H58.4121V54H55.5871V43.675H51.2871ZM77.1777 54H74.3527V48.675H68.2027V54H65.3777V41.275H68.2027V46.275H74.3527V41.275H77.1777V54ZM89.026 54V52.825H88.426C87.626 53.825 86.376 54.325 84.676 54.325C83.276 54.325 82.1676 53.925 81.351 53.125C80.5343 52.3083 80.126 51.3167 80.126 50.15C80.126 49 80.5426 48 81.376 47.15C82.2093 46.3 83.476 45.875 85.176 45.875H88.926V45.5C88.926 43.95 88.0343 43.175 86.251 43.175C84.6676 43.175 83.8176 43.7167 83.701 44.8H80.901C80.9676 43.6167 81.476 42.6833 82.426 42C83.3926 41.3 84.6343 40.95 86.151 40.95C87.8676 40.95 89.2093 41.3333 90.176 42.1C91.1593 42.8667 91.651 44.0167 91.651 45.55V54H89.026ZM85.551 52.025C86.501 52.025 87.301 51.7167 87.951 51.1C88.601 50.4833 88.926 49.7333 88.926 48.85V47.875H85.676C83.876 47.875 82.976 48.575 82.976 49.975C82.976 50.625 83.201 51.1333 83.651 51.5C84.101 51.85 84.7343 52.025 85.551 52.025ZM99.7826 41.275H106.183V54H103.358V49.375H100.358C99.9576 49.375 99.6576 49.3667 99.4576 49.35L97.6826 54H94.8326L96.8826 48.75C95.5993 48.0667 94.9576 46.9333 94.9576 45.35C94.9576 44.0667 95.3743 43.0667 96.2076 42.35C97.041 41.6333 98.2326 41.275 99.7826 41.275ZM103.358 47.175V43.575H100.008C98.5076 43.575 97.7576 44.175 97.7576 45.375C97.7576 46.575 98.5076 47.175 100.008 47.175H103.358ZM115.638 54V51.325H116.088C116.972 51.325 117.597 50.975 117.963 50.275C118.33 49.575 118.513 48.2917 118.513 46.425V41.275H128.813V54H125.988V43.675H121.113V46.5C121.113 49.25 120.713 51.1917 119.913 52.325C119.13 53.4417 117.855 54 116.088 54H115.638ZM140.662 54V52.825H140.062C139.262 53.825 138.012 54.325 136.312 54.325C134.912 54.325 133.803 53.925 132.987 53.125C132.17 52.3083 131.762 51.3167 131.762 50.15C131.762 49 132.178 48 133.012 47.15C133.845 46.3 135.112 45.875 136.812 45.875H140.562V45.5C140.562 43.95 139.67 43.175 137.887 43.175C136.303 43.175 135.453 43.7167 135.337 44.8H132.537C132.603 43.6167 133.112 42.6833 134.062 42C135.028 41.3 136.27 40.95 137.787 40.95C139.503 40.95 140.845 41.3333 141.812 42.1C142.795 42.8667 143.287 44.0167 143.287 45.55V54H140.662ZM137.187 52.025C138.137 52.025 138.937 51.7167 139.587 51.1C140.237 50.4833 140.562 49.7333 140.562 48.85V47.875H137.312C135.512 47.875 134.612 48.575 134.612 49.975C134.612 50.625 134.837 51.1333 135.287 51.5C135.737 51.85 136.37 52.025 137.187 52.025ZM153.193 41.55C155.027 41.55 156.485 42.15 157.568 43.35C158.668 44.55 159.218 46.0833 159.218 47.95C159.218 49.8 158.627 51.325 157.443 52.525C156.277 53.725 154.718 54.325 152.768 54.325C150.702 54.325 149.102 53.6583 147.968 52.325C146.835 50.9917 146.268 49.0667 146.268 46.55C146.268 45.3833 146.327 44.3417 146.443 43.425C146.577 42.5083 146.81 41.6 147.143 40.7C147.493 39.7833 148.01 39.0333 148.693 38.45C149.393 37.8667 150.26 37.4917 151.293 37.325L154.618 36.775C155.085 36.7083 155.402 36.6167 155.568 36.5C155.735 36.3833 155.835 36.1583 155.868 35.825H158.293C158.243 36.7083 158.043 37.4167 157.693 37.95C157.36 38.4833 156.71 38.825 155.743 38.975L151.693 39.625C150.743 39.775 150.027 40.1583 149.543 40.775C149.06 41.375 148.735 42.2167 148.568 43.3H149.168C150.068 42.1333 151.41 41.55 153.193 41.55ZM152.743 51.925C153.91 51.925 154.802 51.5333 155.418 50.75C156.035 49.9667 156.343 49.0083 156.343 47.875C156.343 46.7417 156.035 45.7917 155.418 45.025C154.802 44.2583 153.91 43.875 152.743 43.875C151.56 43.875 150.66 44.2583 150.043 45.025C149.427 45.7917 149.118 46.7417 149.118 47.875C149.118 49.0083 149.427 49.9667 150.043 50.75C150.66 51.5333 151.56 51.925 152.743 51.925ZM163.35 42.825C164.516 41.575 166.083 40.95 168.05 40.95C170.016 40.95 171.575 41.575 172.725 42.825C173.891 44.0583 174.475 45.6583 174.475 47.625C174.475 49.6083 173.891 51.225 172.725 52.475C171.575 53.7083 170.016 54.325 168.05 54.325C166.083 54.325 164.516 53.7083 163.35 52.475C162.2 51.225 161.625 49.6083 161.625 47.625C161.625 45.6583 162.2 44.0583 163.35 42.825ZM165.375 50.7C165.991 51.5167 166.883 51.925 168.05 51.925C169.216 51.925 170.108 51.5167 170.725 50.7C171.341 49.8667 171.65 48.8417 171.65 47.625C171.65 46.425 171.341 45.4167 170.725 44.6C170.108 43.7667 169.216 43.35 168.05 43.35C166.883 43.35 165.991 43.7667 165.375 44.6C164.758 45.4167 164.45 46.425 164.45 47.625C164.45 48.8417 164.758 49.8667 165.375 50.7ZM183.909 43.35C182.742 43.35 181.859 43.7583 181.259 44.575C180.675 45.3917 180.384 46.4083 180.384 47.625C180.384 48.8583 180.675 49.8833 181.259 50.7C181.859 51.5167 182.742 51.925 183.909 51.925C185.025 51.925 185.884 51.5333 186.484 50.75C187.084 49.95 187.384 48.9083 187.384 47.625C187.384 46.3417 187.084 45.3083 186.484 44.525C185.884 43.7417 185.025 43.35 183.909 43.35ZM177.634 41.275H180.359V42.5H180.959C181.792 41.4667 183.042 40.95 184.709 40.95C186.392 40.95 187.725 41.575 188.709 42.825C189.709 44.075 190.209 45.675 190.209 47.625C190.209 49.5917 189.709 51.2 188.709 52.45C187.725 53.7 186.392 54.325 184.709 54.325C183.059 54.325 181.842 53.8083 181.059 52.775H180.459V59H177.634V41.275ZM201.306 54V52.825H200.706C199.906 53.825 198.656 54.325 196.956 54.325C195.556 54.325 194.448 53.925 193.631 53.125C192.815 52.3083 192.406 51.3167 192.406 50.15C192.406 49 192.823 48 193.656 47.15C194.49 46.3 195.756 45.875 197.456 45.875H201.206V45.5C201.206 43.95 200.315 43.175 198.531 43.175C196.948 43.175 196.098 43.7167 195.981 44.8H193.181C193.248 43.6167 193.756 42.6833 194.706 42C195.673 41.3 196.915 40.95 198.431 40.95C200.148 40.95 201.49 41.3333 202.456 42.1C203.44 42.8667 203.931 44.0167 203.931 45.55V54H201.306ZM197.831 52.025C198.781 52.025 199.581 51.7167 200.231 51.1C200.881 50.4833 201.206 49.7333 201.206 48.85V47.875H197.956C196.156 47.875 195.256 48.575 195.256 49.975C195.256 50.625 195.481 51.1333 195.931 51.5C196.381 51.85 197.015 52.025 197.831 52.025ZM206.463 43.675V41.275H217.863V43.675H213.588V54H210.763V43.675H206.463ZM221.406 42.825C222.573 41.575 224.14 40.95 226.106 40.95C228.073 40.95 229.631 41.575 230.781 42.825C231.948 44.0583 232.531 45.6583 232.531 47.625C232.531 49.6083 231.948 51.225 230.781 52.475C229.631 53.7083 228.073 54.325 226.106 54.325C224.14 54.325 222.573 53.7083 221.406 52.475C220.256 51.225 219.681 49.6083 219.681 47.625C219.681 45.6583 220.256 44.0583 221.406 42.825ZM223.431 50.7C224.048 51.5167 224.94 51.925 226.106 51.925C227.273 51.925 228.165 51.5167 228.781 50.7C229.398 49.8667 229.706 48.8417 229.706 47.625C229.706 46.425 229.398 45.4167 228.781 44.6C228.165 43.7667 227.273 43.35 226.106 43.35C224.94 43.35 224.048 43.7667 223.431 44.6C222.815 45.4167 222.506 46.425 222.506 47.625C222.506 48.8417 222.815 49.8667 223.431 50.7ZM241.965 43.35C240.799 43.35 239.915 43.7583 239.315 44.575C238.732 45.3917 238.44 46.4083 238.44 47.625C238.44 48.8583 238.732 49.8833 239.315 50.7C239.915 51.5167 240.799 51.925 241.965 51.925C243.082 51.925 243.94 51.5333 244.54 50.75C245.14 49.95 245.44 48.9083 245.44 47.625C245.44 46.3417 245.14 45.3083 244.54 44.525C243.94 43.7417 243.082 43.35 241.965 43.35ZM235.69 41.275H238.415V42.5H239.015C239.849 41.4667 241.099 40.95 242.765 40.95C244.449 40.95 245.782 41.575 246.765 42.825C247.765 44.075 248.265 45.675 248.265 47.625C248.265 49.5917 247.765 51.2 246.765 52.45C245.782 53.7 244.449 54.325 242.765 54.325C241.115 54.325 239.899 53.8083 239.115 52.775H238.515V59H235.69V41.275ZM254.613 54H251.413V41.275H254.163V49.675H254.763L259.988 41.275H263.263V54H260.513V45.6H259.913L254.613 54ZM271.56 41.275H277.96V54H275.135V49.375H272.135C271.735 49.375 271.435 49.3667 271.235 49.35L269.46 54H266.61L268.66 48.75C267.377 48.0667 266.735 46.9333 266.735 45.35C266.735 44.0667 267.152 43.0667 267.985 42.35C268.818 41.6333 270.01 41.275 271.56 41.275ZM275.135 47.175V43.575H271.785C270.285 43.575 269.535 44.175 269.535 45.375C269.535 46.575 270.285 47.175 271.785 47.175H275.135Z" fill="white"/>
<g clip-path="url(#clip0_630_959)">
<path d="M81 0.478516H95.0845C95.0845 8.35361 101.388 14.7393 109.169 14.7393V29C93.6103 29 81 16.2319 81 0.478516Z" fill="white"/>
<path d="M144.831 0H130.747C130.747 7.8751 124.443 14.2607 116.662 14.2607V28.5215C132.221 28.5215 144.831 15.7534 144.831 0Z" fill="white"/>
<path d="M172.999 28.5215V14.2607C165.221 14.2607 158.915 7.87826 158.915 0H144.83C144.83 15.7534 157.44 28.5215 172.999 28.5215Z" fill="white"/>
</g>
<defs>
<clipPath id="clip0_630_959">
<rect width="92" height="29" fill="white" transform="translate(81)"/>
</clipPath>
</defs>
</svg>
