<svg width="258" height="73" viewBox="0 0 258 73" fill="none" xmlns="http://www.w3.org/2000/svg">
<path d="M84.825 24.6H87.975C87.675 26.3333 86.8833 27.725 85.6 28.775C84.3167 29.8083 82.6833 30.325 80.7 30.325C78.0667 30.325 76.0083 29.475 74.525 27.775C73.0417 26.0583 72.3 23.825 72.3 21.075C72.3 18.325 73.0417 16.1 74.525 14.4C76.025 12.6833 78.0917 11.825 80.725 11.825C82.6083 11.825 84.1667 12.3 85.4 13.25C86.65 14.2 87.4417 15.4833 87.775 17.1H84.625C84.0583 15.4 82.7583 14.55 80.725 14.55C78.975 14.55 77.6417 15.1667 76.725 16.4C75.8083 17.6333 75.35 19.1917 75.35 21.075C75.35 22.9583 75.8 24.5167 76.7 25.75C77.6167 26.9833 78.95 27.6 80.7 27.6C81.8 27.6 82.7 27.3417 83.4 26.825C84.1167 26.2917 84.5917 25.55 84.825 24.6ZM91.1385 30V17.275H95.1635L98.0135 22.85H98.6135L101.438 17.275H105.438V30H102.688V20.85H102.088L99.6135 25.625H96.9635L94.4885 20.85H93.8885V30H91.1385ZM120.777 22.925V23.875H111.377C111.46 26.575 112.652 27.925 114.952 27.925C116.402 27.925 117.327 27.3833 117.727 26.3H120.602C120.352 27.5333 119.744 28.5167 118.777 29.25C117.81 29.9667 116.527 30.325 114.927 30.325C112.96 30.325 111.41 29.7 110.277 28.45C109.144 27.2 108.577 25.5667 108.577 23.55C108.577 21.55 109.135 19.95 110.252 18.75C111.385 17.55 112.919 16.95 114.852 16.95C116.685 16.95 118.119 17.5167 119.152 18.65C120.202 19.7667 120.744 21.1917 120.777 22.925ZM114.827 19.2C112.994 19.2 111.885 20.0583 111.502 21.775H117.877C117.777 21.025 117.469 20.4083 116.952 19.925C116.435 19.4417 115.727 19.2 114.827 19.2ZM122.287 19.675V17.275H133.687V19.675H129.412V30H126.587V19.675H122.287ZM148.178 30H145.353V24.675H139.203V30H136.378V17.275H139.203V22.275H145.353V17.275H148.178V30ZM160.026 30V28.825H159.426C158.626 29.825 157.376 30.325 155.676 30.325C154.276 30.325 153.168 29.925 152.351 29.125C151.534 28.3083 151.126 27.3167 151.126 26.15C151.126 25 151.543 24 152.376 23.15C153.209 22.3 154.476 21.875 156.176 21.875H159.926V21.5C159.926 19.95 159.034 19.175 157.251 19.175C155.668 19.175 154.818 19.7167 154.701 20.8H151.901C151.968 19.6167 152.476 18.6833 153.426 18C154.393 17.3 155.634 16.95 157.151 16.95C158.868 16.95 160.209 17.3333 161.176 18.1C162.159 18.8667 162.651 20.0167 162.651 21.55V30H160.026ZM156.551 28.025C157.501 28.025 158.301 27.7167 158.951 27.1C159.601 26.4833 159.926 25.7333 159.926 24.85V23.875H156.676C154.876 23.875 153.976 24.575 153.976 25.975C153.976 26.625 154.201 27.1333 154.651 27.5C155.101 27.85 155.734 28.025 156.551 28.025ZM170.783 17.275H177.183V30H174.358V25.375H171.358C170.958 25.375 170.658 25.3667 170.458 25.35L168.683 30H165.833L167.883 24.75C166.599 24.0667 165.958 22.9333 165.958 21.35C165.958 20.0667 166.374 19.0667 167.208 18.35C168.041 17.6333 169.233 17.275 170.783 17.275ZM174.358 23.175V19.575H171.008C169.508 19.575 168.758 20.175 168.758 21.375C168.758 22.575 169.508 23.175 171.008 23.175H174.358ZM71.575 61V58.325H72.025C72.9083 58.325 73.5333 57.975 73.9 57.275C74.2667 56.575 74.45 55.2917 74.45 53.425V48.275H84.75V61H81.925V50.675H77.05V53.5C77.05 56.25 76.65 58.1917 75.85 59.325C75.0667 60.4417 73.7917 61 72.025 61H71.575ZM96.5982 61V59.825H95.9982C95.1982 60.825 93.9482 61.325 92.2482 61.325C90.8482 61.325 89.7399 60.925 88.9232 60.125C88.1066 59.3083 87.6982 58.3167 87.6982 57.15C87.6982 56 88.1149 55 88.9482 54.15C89.7816 53.3 91.0482 52.875 92.7482 52.875H96.4982V52.5C96.4982 50.95 95.6066 50.175 93.8232 50.175C92.2399 50.175 91.3899 50.7167 91.2732 51.8H88.4732C88.5399 50.6167 89.0482 49.6833 89.9982 49C90.9649 48.3 92.2066 47.95 93.7232 47.95C95.4399 47.95 96.7816 48.3333 97.7482 49.1C98.7316 49.8667 99.2232 51.0167 99.2232 52.55V61H96.5982ZM93.1232 59.025C94.0732 59.025 94.8732 58.7167 95.5232 58.1C96.1732 57.4833 96.4982 56.7333 96.4982 55.85V54.875H93.2482C91.4482 54.875 90.5482 55.575 90.5482 56.975C90.5482 57.625 90.7732 58.1333 91.2232 58.5C91.6732 58.85 92.3066 59.025 93.1232 59.025ZM109.13 48.55C110.963 48.55 112.422 49.15 113.505 50.35C114.605 51.55 115.155 53.0833 115.155 54.95C115.155 56.8 114.563 58.325 113.38 59.525C112.213 60.725 110.655 61.325 108.705 61.325C106.638 61.325 105.038 60.6583 103.905 59.325C102.772 57.9917 102.205 56.0667 102.205 53.55C102.205 52.3833 102.263 51.3417 102.38 50.425C102.513 49.5083 102.747 48.6 103.08 47.7C103.43 46.7833 103.947 46.0333 104.63 45.45C105.33 44.8667 106.197 44.4917 107.23 44.325L110.555 43.775C111.022 43.7083 111.338 43.6167 111.505 43.5C111.672 43.3833 111.772 43.1583 111.805 42.825H114.23C114.18 43.7083 113.98 44.4167 113.63 44.95C113.297 45.4833 112.647 45.825 111.68 45.975L107.63 46.625C106.68 46.775 105.963 47.1583 105.48 47.775C104.997 48.375 104.672 49.2167 104.505 50.3H105.105C106.005 49.1333 107.347 48.55 109.13 48.55ZM108.68 58.925C109.847 58.925 110.738 58.5333 111.355 57.75C111.972 56.9667 112.28 56.0083 112.28 54.875C112.28 53.7417 111.972 52.7917 111.355 52.025C110.738 51.2583 109.847 50.875 108.68 50.875C107.497 50.875 106.597 51.2583 105.98 52.025C105.363 52.7917 105.055 53.7417 105.055 54.875C105.055 56.0083 105.363 56.9667 105.98 57.75C106.597 58.5333 107.497 58.925 108.68 58.925ZM119.286 49.825C120.453 48.575 122.02 47.95 123.986 47.95C125.953 47.95 127.511 48.575 128.661 49.825C129.828 51.0583 130.411 52.6583 130.411 54.625C130.411 56.6083 129.828 58.225 128.661 59.475C127.511 60.7083 125.953 61.325 123.986 61.325C122.02 61.325 120.453 60.7083 119.286 59.475C118.136 58.225 117.561 56.6083 117.561 54.625C117.561 52.6583 118.136 51.0583 119.286 49.825ZM121.311 57.7C121.928 58.5167 122.82 58.925 123.986 58.925C125.153 58.925 126.045 58.5167 126.661 57.7C127.278 56.8667 127.586 55.8417 127.586 54.625C127.586 53.425 127.278 52.4167 126.661 51.6C126.045 50.7667 125.153 50.35 123.986 50.35C122.82 50.35 121.928 50.7667 121.311 51.6C120.695 52.4167 120.386 53.425 120.386 54.625C120.386 55.8417 120.695 56.8667 121.311 57.7ZM139.845 50.35C138.678 50.35 137.795 50.7583 137.195 51.575C136.612 52.3917 136.32 53.4083 136.32 54.625C136.32 55.8583 136.612 56.8833 137.195 57.7C137.795 58.5167 138.678 58.925 139.845 58.925C140.962 58.925 141.82 58.5333 142.42 57.75C143.02 56.95 143.32 55.9083 143.32 54.625C143.32 53.3417 143.02 52.3083 142.42 51.525C141.82 50.7417 140.962 50.35 139.845 50.35ZM133.57 48.275H136.295V49.5H136.895C137.728 48.4667 138.978 47.95 140.645 47.95C142.328 47.95 143.662 48.575 144.645 49.825C145.645 51.075 146.145 52.675 146.145 54.625C146.145 56.5917 145.645 58.2 144.645 59.45C143.662 60.7 142.328 61.325 140.645 61.325C138.995 61.325 137.778 60.8083 136.995 59.775H136.395V66H133.57V48.275ZM157.243 61V59.825H156.643C155.843 60.825 154.593 61.325 152.893 61.325C151.493 61.325 150.384 60.925 149.568 60.125C148.751 59.3083 148.343 58.3167 148.343 57.15C148.343 56 148.759 55 149.593 54.15C150.426 53.3 151.693 52.875 153.393 52.875H157.143V52.5C157.143 50.95 156.251 50.175 154.468 50.175C152.884 50.175 152.034 50.7167 151.918 51.8H149.118C149.184 50.6167 149.693 49.6833 150.643 49C151.609 48.3 152.851 47.95 154.368 47.95C156.084 47.95 157.426 48.3333 158.393 49.1C159.376 49.8667 159.868 51.0167 159.868 52.55V61H157.243ZM153.768 59.025C154.718 59.025 155.518 58.7167 156.168 58.1C156.818 57.4833 157.143 56.7333 157.143 55.85V54.875H153.893C152.093 54.875 151.193 55.575 151.193 56.975C151.193 57.625 151.418 58.1333 151.868 58.5C152.318 58.85 152.951 59.025 153.768 59.025ZM162.399 50.675V48.275H173.799V50.675H169.524V61H166.699V50.675H162.399ZM177.343 49.825C178.51 48.575 180.076 47.95 182.043 47.95C184.01 47.95 185.568 48.575 186.718 49.825C187.885 51.0583 188.468 52.6583 188.468 54.625C188.468 56.6083 187.885 58.225 186.718 59.475C185.568 60.7083 184.01 61.325 182.043 61.325C180.076 61.325 178.51 60.7083 177.343 59.475C176.193 58.225 175.618 56.6083 175.618 54.625C175.618 52.6583 176.193 51.0583 177.343 49.825ZM179.368 57.7C179.985 58.5167 180.876 58.925 182.043 58.925C183.21 58.925 184.101 58.5167 184.718 57.7C185.335 56.8667 185.643 55.8417 185.643 54.625C185.643 53.425 185.335 52.4167 184.718 51.6C184.101 50.7667 183.21 50.35 182.043 50.35C180.876 50.35 179.985 50.7667 179.368 51.6C178.751 52.4167 178.443 53.425 178.443 54.625C178.443 55.8417 178.751 56.8667 179.368 57.7ZM197.902 50.35C196.735 50.35 195.852 50.7583 195.252 51.575C194.668 52.3917 194.377 53.4083 194.377 54.625C194.377 55.8583 194.668 56.8833 195.252 57.7C195.852 58.5167 196.735 58.925 197.902 58.925C199.018 58.925 199.877 58.5333 200.477 57.75C201.077 56.95 201.377 55.9083 201.377 54.625C201.377 53.3417 201.077 52.3083 200.477 51.525C199.877 50.7417 199.018 50.35 197.902 50.35ZM191.627 48.275H194.352V49.5H194.952C195.785 48.4667 197.035 47.95 198.702 47.95C200.385 47.95 201.718 48.575 202.702 49.825C203.702 51.075 204.202 52.675 204.202 54.625C204.202 56.5917 203.702 58.2 202.702 59.45C201.718 60.7 200.385 61.325 198.702 61.325C197.052 61.325 195.835 60.8083 195.052 59.775H194.452V66H191.627V48.275ZM210.549 61H207.349V48.275H210.099V56.675H210.699L215.924 48.275H219.199V61H216.449V52.6H215.849L210.549 61ZM227.496 48.275H233.896V61H231.071V56.375H228.071C227.671 56.375 227.371 56.3667 227.171 56.35L225.396 61H222.546L224.596 55.75C223.313 55.0667 222.671 53.9333 222.671 52.35C222.671 51.0667 223.088 50.0667 223.921 49.35C224.755 48.6333 225.946 48.275 227.496 48.275ZM231.071 54.175V50.575H227.721C226.221 50.575 225.471 51.175 225.471 52.375C225.471 53.575 226.221 54.175 227.721 54.175H231.071Z" fill="white"/>
<g clip-path="url(#clip0_630_915)">
<path d="M35.5496 68.3032C21.7791 68.3032 10.6191 57.16 10.6191 43.4101C10.6191 29.6602 21.7791 18.5171 35.5496 18.5171" stroke="white" stroke-width="8" stroke-miterlimit="10" stroke-linecap="round" stroke-linejoin="round"/>
<path d="M35.5496 68.3032C21.7791 68.3032 10.6191 57.16 10.6191 43.4101C10.6191 29.6602 21.7791 18.5171 35.5496 18.5171" stroke="#4180DF" stroke-miterlimit="10" stroke-linecap="round" stroke-linejoin="round"/>
<path d="M4.70312 4.69678H50.2954V55.7158" stroke="white" stroke-width="8" stroke-miterlimit="10" stroke-linecap="round" stroke-linejoin="round"/>
<path d="M4.70312 4.69678H50.2954V55.7158" stroke="#4080DF" stroke-miterlimit="10" stroke-linecap="round" stroke-linejoin="round"/>
</g>
<defs>
<clipPath id="clip0_630_915">
<rect width="55" height="73" fill="white"/>
</clipPath>
</defs>
</svg>
