<svg width="86" height="113" viewBox="0 0 86 113" fill="none" xmlns="http://www.w3.org/2000/svg">
<g clip-path="url(#clip0_630_874)">
<path d="M29.0254 77.0776C12.9996 77.0776 0 63.9917 0 47.8597V29.2178C0 13.0858 12.9996 0 29.0254 0" fill="white"/>
<path d="M29.0254 77.0776C12.9996 77.0776 0 63.9917 0 47.8597V29.2178C0 13.0858 12.9996 0 29.0254 0" stroke="white"/>
<path d="M14.8425 52.4722H39.7762V24.8525H14.8425C7.26645 24.8525 1.12892 31.0308 1.12892 38.657C1.11826 46.294 7.26645 52.4722 14.8425 52.4722Z" fill="#828282"/>
<path d="M60.5654 52.5579C60.5228 66.652 49.1321 78.0431 35.1309 78.0001L35.2054 52.4185L60.5654 52.5579Z" fill="white" stroke="white"/>
<path d="M60.6999 26.2419L50.4707 26.188L50.3312 53.0139L60.5604 53.0678L60.6999 26.2419Z" fill="white" stroke="white"/>
<path d="M75.7709 0.804688C61.7697 0.847592 50.4536 12.303 50.4962 26.3971L75.8135 26.322L75.7709 0.804688Z" fill="white" stroke="white"/>
<path d="M85.989 0.804688H75.7598V78.0002H85.989V0.804688Z" fill="white" stroke="white"/>
</g>
<g clip-path="url(#clip1_630_874)">
<path d="M24.569 95.2294C24.569 90.2309 20.5676 86.1763 15.6347 86.1763H9.93432C5.00142 86.1763 1 90.2309 1 95.2294" fill="white"/>
<path d="M24.569 95.2294C24.569 90.2309 20.5676 86.1763 15.6347 86.1763H9.93432C5.00142 86.1763 1 90.2309 1 95.2294" stroke="white"/>
<path d="M17.0452 90.8056V98.5826H8.59961V90.8056C8.59961 88.4426 10.4888 86.5283 12.8208 86.5283C15.156 86.5283 17.0452 88.4426 17.0452 90.8056Z" fill="#828282"/>
<path d="M17.0719 105.067C21.3817 105.054 24.8649 101.504 24.8518 97.1372L17.0293 97.1605L17.0719 105.067Z" fill="white" stroke="white"/>
<path d="M17.2274 105.067L17.2109 101.876L9.00802 101.919L9.02451 105.11L17.2274 105.067Z" fill="white" stroke="white"/>
<path d="M1.24609 109.813C1.25921 105.445 4.7621 101.916 9.07183 101.929L9.04887 109.826L1.24609 109.813Z" fill="white" stroke="white"/>
<path d="M24.8516 112.998L24.8516 109.808L1.24645 109.808L1.24645 112.998L24.8516 112.998Z" fill="white" stroke="white"/>
<path d="M68.6433 95.2294C68.6433 90.2309 64.6418 86.1763 59.7089 86.1763H54.0085C49.0756 86.1763 45.0742 90.2309 45.0742 95.2294" fill="white"/>
<path d="M68.6433 95.2294C68.6433 90.2309 64.6418 86.1763 59.7089 86.1763H54.0085C49.0756 86.1763 45.0742 90.2309 45.0742 95.2294" stroke="white"/>
<path d="M61.1234 90.8056V98.5826H52.6777V90.8056C52.6777 88.4426 54.5669 86.5283 56.8989 86.5283C59.2309 86.5283 61.1234 88.4426 61.1234 90.8056Z" fill="#828282"/>
<path d="M61.1501 105.067C65.4598 105.054 68.943 101.504 68.9299 97.1372L61.1074 97.1605L61.1501 105.067Z" fill="white" stroke="white"/>
<path d="M61.3036 105.068L61.2871 101.878L53.0842 101.921L53.1007 105.112L61.3036 105.068Z" fill="white" stroke="white"/>
<path d="M45.3203 109.813C45.3334 105.445 48.8363 101.916 53.146 101.929L53.1231 109.826L45.3203 109.813Z" fill="white" stroke="white"/>
<path d="M68.9297 112.999L68.9297 109.809L45.3246 109.809L45.3246 112.999L68.9297 112.999Z" fill="white" stroke="white"/>
<path d="M73.0922 86C77.9562 86.0133 81.8887 90.0214 81.8723 94.9501L73.043 94.9236L73.0922 86Z" fill="white" stroke="white"/>
<path d="M83.9993 94.937H80.4473V112.688H83.9993V94.937Z" fill="white" stroke="white"/>
<path d="M35.7891 112.963H34.3493C30.9743 112.963 28.2422 110.191 28.2422 106.775V92.454C28.2422 89.0341 30.9776 86.2656 34.3493 86.2656H35.7891C39.1641 86.2656 41.8962 89.0374 41.8962 92.454V106.775C41.8995 110.191 39.1641 112.963 35.7891 112.963Z" fill="white" stroke="white"/>
<path d="M34.9927 104.572C37.708 104.572 39.9092 102.341 39.9092 99.5898C39.9092 96.8384 37.708 94.6079 34.9927 94.6079C32.2774 94.6079 30.0762 96.8384 30.0762 99.5898C30.0762 102.341 32.2774 104.572 34.9927 104.572Z" fill="#828282" stroke="white"/>
</g>
<defs>
<clipPath id="clip0_630_874">
<rect width="86" height="78" fill="white"/>
</clipPath>
<clipPath id="clip1_630_874">
<rect width="83" height="27" fill="white" transform="translate(1 86)"/>
</clipPath>
</defs>
</svg>
