<svg width="150" height="180" viewBox="0 0 150 180" fill="none" xmlns="http://www.w3.org/2000/svg">
<g clip-path="url(#clip0_630_899)">
<path d="M109.056 53.9064C114.335 53.9064 118.614 49.6466 118.614 44.3919C118.614 39.1372 114.335 34.8774 109.056 34.8774C103.777 34.8774 99.498 39.1372 99.498 44.3919C99.498 49.6466 103.777 53.9064 109.056 53.9064Z" stroke="white" stroke-width="2" stroke-miterlimit="10"/>
<path d="M65.8314 111.448C67.1201 114.735 66.7711 118.584 64.5427 121.657C61.0793 126.441 54.3673 127.51 49.5615 124.062C44.7557 120.615 43.6818 113.933 47.1452 109.149C50.6086 104.365 57.3206 103.296 62.1264 106.744L49.5347 124.062" stroke="white" stroke-width="2" stroke-miterlimit="10"/>
<path d="M39.7075 152.792C39.5195 154.583 38.8752 156.32 37.7475 157.897C34.2842 162.654 27.6258 163.723 22.8469 160.276C18.0679 156.828 16.994 150.2 20.4574 145.443C21.585 143.893 23.0617 142.717 24.6994 141.995" stroke="white" stroke-width="2" stroke-miterlimit="10"/>
<path d="M95.1228 79.5902L77.5642 66.9487L71.2012 75.6882L84.5715 85.3095C86.8267 86.9398 87.3368 90.0668 85.6991 92.285" stroke="white" stroke-width="2" stroke-miterlimit="10"/>
<path d="M61.4023 89.9331L78.6119 102.414" stroke="white" stroke-width="2" stroke-miterlimit="10"/>
<path d="M55.9512 97.1223L66.4756 82.6367" stroke="white" stroke-width="2" stroke-miterlimit="10"/>
<path d="M99.687 27.2607L95.5255 33.0068C92.0084 37.8443 93.0824 44.606 97.9418 48.1071L102.989 51.7685" stroke="white" stroke-width="2" stroke-miterlimit="10"/>
<path d="M102.291 8.39209L6.01376 140.152C-1.93326 151.029 0.509915 166.263 11.4908 174.12C22.3642 181.898 37.5065 179.492 45.3998 168.695L141.865 36.7217" stroke="white" stroke-width="2" stroke-miterlimit="10"/>
<path d="M98.532 70.5301C101.898 70.5301 104.627 67.8139 104.627 64.4633C104.627 61.1127 101.898 58.3965 98.532 58.3965C95.1661 58.3965 92.4375 61.1127 92.4375 64.4633C92.4375 67.8139 95.1661 70.5301 98.532 70.5301Z" stroke="white" stroke-width="2" stroke-miterlimit="10"/>
<path d="M87.4702 63.9553C84.7585 62.0043 84.141 58.2092 86.1009 55.4832C88.0608 52.7838 91.8733 52.1691 94.6118 54.1201" stroke="white" stroke-width="2" stroke-miterlimit="10"/>
<path d="M94.1016 53.7729L107.015 62.9934" stroke="white" stroke-width="2" stroke-miterlimit="10"/>
<path d="M43.9779 149.345L27.6543 137.585L28.2986 136.677L47.844 141.862L48.3541 141.167" stroke="white" stroke-width="2" stroke-miterlimit="10"/>
<path d="M54.528 134.833L38.2044 123.074L37.5332 123.982L48.5946 140.82L48.0845 141.515" stroke="white" stroke-width="2" stroke-miterlimit="10"/>
<path d="M101.404 1.04248C103.686 2.83313 104.089 6.12043 102.29 8.39215" stroke="white" stroke-width="2" stroke-miterlimit="10"/>
<path d="M149.222 35.5723C146.886 33.8618 143.584 34.3696 141.865 36.7215" stroke="white" stroke-width="2" stroke-miterlimit="10"/>
</g>
<defs>
<clipPath id="clip0_630_899">
<rect width="150" height="180" fill="white"/>
</clipPath>
</defs>
</svg>
