<svg width="311" height="94" viewBox="0 0 311 94" fill="none" xmlns="http://www.w3.org/2000/svg">
<g clip-path="url(#clip0_630_1033)">
<path d="M69.9255 79.7748C76.8408 79.7748 82.4468 74.1551 82.4468 67.2228C82.4468 60.2906 76.8408 54.6709 69.9255 54.6709C63.0102 54.6709 57.4043 60.2906 57.4043 67.2228C57.4043 74.1551 63.0102 79.7748 69.9255 79.7748Z" stroke="white" stroke-width="3" stroke-miterlimit="10"/>
<path d="M83.4771 20.9476C81.2511 24.4342 77.3556 26.7494 72.9314 26.7494C66.0308 26.7494 60.4102 21.1428 60.4102 14.1974C60.4102 7.25204 66.003 1.64551 72.9314 1.64551C79.8598 1.64551 85.4526 7.25204 85.4526 14.1974H60.438" stroke="white" stroke-width="3" stroke-miterlimit="10"/>
<path d="M101.867 79.7748C108.782 79.7748 114.388 74.1551 114.388 67.2228C114.388 60.2906 108.782 54.6709 101.867 54.6709C94.9517 54.6709 89.3457 60.2906 89.3457 67.2228C89.3457 74.1551 94.9517 79.7748 101.867 79.7748Z" stroke="white" stroke-width="3" stroke-miterlimit="10"/>
<path d="M214.197 79.7748C221.112 79.7748 226.718 74.1551 226.718 67.2228C226.718 60.2906 221.112 54.6709 214.197 54.6709C207.282 54.6709 201.676 60.2906 201.676 67.2228C201.676 74.1551 207.282 79.7748 214.197 79.7748Z" stroke="white" stroke-width="3" stroke-miterlimit="10"/>
<path d="M20.1168 25.0758C18.2804 26.1357 16.1657 26.7494 13.9119 26.7494C7.01127 26.7494 1.39062 21.1428 1.39062 14.1974C1.39062 7.27993 6.98345 1.64551 13.9119 1.64551C16.1657 1.64551 18.2804 2.25916 20.1168 3.2912" stroke="white" stroke-width="3" stroke-miterlimit="10"/>
<path d="M133.701 79.2723C140.616 79.2723 146.222 73.6526 146.222 66.7204C146.222 59.7881 140.616 54.1685 133.701 54.1685C126.786 54.1685 121.18 59.7881 121.18 66.7204C121.18 73.6526 126.786 79.2723 133.701 79.2723Z" stroke="white" stroke-width="3" stroke-miterlimit="10"/>
<path d="M162.915 78.7977C167.31 78.7977 170.873 75.226 170.873 70.8202C170.873 66.4144 167.31 62.8428 162.915 62.8428C158.52 62.8428 154.957 66.4144 154.957 70.8202C154.957 75.226 158.52 78.7977 162.915 78.7977Z" stroke="white" stroke-width="3" stroke-miterlimit="10"/>
<path d="M154.957 62.0067C154.957 57.5996 158.519 54.0293 162.915 54.0293C167.311 54.0293 170.873 57.5996 170.873 62.0067" stroke="white" stroke-width="3" stroke-miterlimit="10"/>
<path d="M57.6811 50.1238C57.5698 49.5659 57.4863 49.008 57.4863 48.4223C57.4863 43.7641 61.6601 39.9985 66.8077 39.9985C69.145 39.9985 71.3153 40.7795 72.9292 42.0905" stroke="white" stroke-width="3" stroke-miterlimit="10"/>
<path d="M82.3643 34.8105C82.3643 39.4687 79.554 43.2343 76.1037 43.2343C74.935 43.2343 73.8499 42.8159 72.9316 42.0628" stroke="white" stroke-width="3" stroke-miterlimit="10"/>
<path d="M121.207 53.583V94.0002" stroke="white" stroke-width="3" stroke-miterlimit="10"/>
<path d="M245.724 79.2723C252.64 79.2723 258.246 73.6526 258.246 66.7204C258.246 59.7881 252.64 54.1685 245.724 54.1685C238.809 54.1685 233.203 59.7881 233.203 66.7204C233.203 73.6526 238.809 79.2723 245.724 79.2723Z" stroke="white" stroke-width="3" stroke-miterlimit="10"/>
<path d="M233.203 53.583V94.0002" stroke="white" stroke-width="3" stroke-miterlimit="10"/>
<path d="M187.455 53.583V80.221" stroke="white" stroke-width="3" stroke-miterlimit="10"/>
<path d="M22.1481 82.7034V54.3081H7.95732V74.3633C7.95732 77.9894 5.00787 80.9461 1.39062 80.9461" stroke="white" stroke-width="3" stroke-miterlimit="10"/>
<path d="M266.033 52.5503V80.053L283.368 53.415V80.9177" stroke="white" stroke-width="3" stroke-miterlimit="10" stroke-linejoin="bevel"/>
<path d="M175.4 54.1006H198.885" stroke="white" stroke-width="3" stroke-miterlimit="10"/>
<path d="M101.865 0.864746V27.5027" stroke="white" stroke-width="3" stroke-miterlimit="10"/>
<path d="M90.127 1.95312H113.611" stroke="white" stroke-width="3" stroke-miterlimit="10"/>
<path d="M170.873 61.2261V80.2213" stroke="white" stroke-width="3" stroke-miterlimit="10"/>
<path d="M159.159 26.303C163.554 26.303 167.117 22.7314 167.117 18.3256C167.117 13.9198 163.554 10.3481 159.159 10.3481C154.764 10.3481 151.201 13.9198 151.201 18.3256C151.201 22.7314 154.764 26.303 159.159 26.303Z" stroke="white" stroke-width="3" stroke-miterlimit="10"/>
<path d="M151.201 9.51114C151.201 5.10402 154.763 1.53369 159.159 1.53369C163.555 1.53369 167.117 5.10402 167.117 9.51114" stroke="white" stroke-width="3" stroke-miterlimit="10"/>
<path d="M167.117 8.73047V27.7257" stroke="white" stroke-width="3" stroke-miterlimit="10"/>
<path d="M40.8759 79.2728C45.271 79.2728 48.8339 75.7011 48.8339 71.2953C48.8339 66.8895 45.271 63.3179 40.8759 63.3179C36.4809 63.3179 32.918 66.8895 32.918 71.2953C32.918 75.7011 36.4809 79.2728 40.8759 79.2728Z" stroke="white" stroke-width="3" stroke-miterlimit="10"/>
<path d="M32.918 62.5082C32.918 58.1011 36.4796 54.5308 40.8759 54.5308C45.2723 54.5308 48.8339 58.1011 48.8339 62.5082" stroke="white" stroke-width="3" stroke-miterlimit="10"/>
<path d="M48.834 61.6997V80.695" stroke="white" stroke-width="3" stroke-miterlimit="10"/>
<path d="M139.68 0.418457V27.9211" stroke="white" stroke-width="3" stroke-miterlimit="10" stroke-linejoin="bevel"/>
<path d="M122.348 0.418457V27.5027" stroke="white" stroke-width="3" stroke-miterlimit="10" stroke-linejoin="bevel"/>
<path d="M302.23 70.3311L296.158 79.7987" stroke="white" stroke-width="3" stroke-miterlimit="10" stroke-linecap="square" stroke-linejoin="round"/>
<path d="M309.609 80.9182V54.3081H302.04C298.006 54.3081 294.75 57.5716 294.75 61.6161C294.75 65.6606 298.006 68.9241 302.04 68.9241L309.609 69.0915" stroke="white" stroke-width="3" stroke-miterlimit="10"/>
<path d="M184.171 17.5825L178.1 27.0501" stroke="white" stroke-width="3" stroke-miterlimit="10" stroke-linecap="square"/>
<path d="M191.687 28.1438V1.53369H184.118C180.084 1.53369 176.828 4.79719 176.828 8.8417C176.828 12.8862 180.084 16.1497 184.118 16.1497L191.687 16.3171" stroke="white" stroke-width="3" stroke-miterlimit="10"/>
<path d="M29.1074 28.0882V1.64551H30.5821L40.0148 26.4146H41.1556" stroke="white" stroke-width="3" stroke-miterlimit="10"/>
<path d="M52.6444 28.0882V1.64551H51.1697L41.7092 26.4146H40.5684" stroke="white" stroke-width="3" stroke-miterlimit="10"/>
<path d="M140.025 13.5254H122.105V14.8779H140.025V13.5254Z" fill="white"/>
</g>
<defs>
<clipPath id="clip0_630_1033">
<rect width="311" height="94" fill="white"/>
</clipPath>
</defs>
</svg>
