<svg width="276" height="124" viewBox="0 0 276 124" fill="none" xmlns="http://www.w3.org/2000/svg">
<g clip-path="url(#clip0_630_682)">
<path d="M157.901 67.155H145.707V123.967H157.901V67.155Z" fill="white"/>
<path d="M145.77 67.1589V79.3494H186.61V67.1589H145.77Z" fill="white"/>
<path d="M29.1907 59.6658C45.3123 59.6658 58.3814 46.948 58.3814 31.2598C58.3814 15.5716 45.3123 2.85376 29.1907 2.85376C13.0691 2.85376 0 15.5716 0 31.2598C0 46.948 13.0691 59.6658 29.1907 59.6658Z" fill="white"/>
<path d="M29.1916 47.7888C38.5784 47.7888 46.1879 40.3886 46.1879 31.2599C46.1879 22.1312 38.5784 14.731 29.1916 14.731C19.8048 14.731 12.1953 22.1312 12.1953 31.2599C12.1953 40.3886 19.8048 47.7888 29.1916 47.7888Z" fill="#828282"/>
<path d="M91.8958 123.967C108.017 123.967 121.087 111.249 121.087 95.561C121.087 79.8728 108.017 67.155 91.8958 67.155C75.7742 67.155 62.7051 79.8728 62.7051 95.561C62.7051 111.249 75.7742 123.967 91.8958 123.967Z" fill="white"/>
<path d="M173.577 124.016C185.606 124.016 195.358 114.526 195.358 102.819C195.358 91.1122 185.606 81.6218 173.577 81.6218C161.547 81.6218 151.795 91.1122 151.795 102.819C151.795 114.526 161.547 124.016 173.577 124.016Z" fill="white"/>
<path d="M91.8947 112.09C101.282 112.09 108.891 104.69 108.891 95.5609C108.891 86.4322 101.282 79.032 91.8947 79.032C82.5079 79.032 74.8984 86.4322 74.8984 95.5609C74.8984 104.69 82.5079 112.09 91.8947 112.09Z" fill="#828282"/>
<path d="M173.577 114.548C180.23 114.548 185.623 109.297 185.623 102.819C185.623 96.3417 180.23 91.0906 173.577 91.0906C166.924 91.0906 161.531 96.3417 161.531 102.819C161.531 109.297 166.924 114.548 173.577 114.548Z" fill="#828282"/>
<path d="M59.4864 24.3811H16.1211V38.1387H59.4864V24.3811Z" fill="#828282"/>
<path d="M184.353 59.6658C200.474 59.6658 213.544 46.948 213.544 31.2598C213.544 15.5716 200.474 2.85376 184.353 2.85376C168.231 2.85376 155.162 15.5716 155.162 31.2598C155.162 46.948 168.231 59.6658 184.353 59.6658Z" fill="white"/>
<path d="M184.352 47.7888C193.739 47.7888 201.348 40.3886 201.348 31.2599C201.348 22.1312 193.739 14.731 184.352 14.731C174.965 14.731 167.355 22.1312 167.355 31.2599C167.355 40.3886 174.965 47.7888 184.352 47.7888Z" fill="#828282"/>
<path d="M214.648 24.48H171.283V38.2376H214.648V24.48Z" fill="#828282"/>
<path d="M85.7237 2.87036H73.5293V59.6824H85.7237V2.87036Z" fill="white"/>
<path d="M256.232 0H244.037V24.381H256.232V0Z" fill="white"/>
<path d="M256.232 36.5715H244.037V60.9525H256.232V36.5715Z" fill="white"/>
<path d="M223.949 24.3798V36.5703H244.031V24.3798H223.949Z" fill="white"/>
<path d="M256.238 24.391V36.5815H276.007V24.391H256.238Z" fill="white"/>
<path d="M85.7244 2.87691L75.1641 8.97217L104.479 59.7285L115.039 53.6332L85.7244 2.87691Z" fill="white"/>
<path d="M73.5289 49.6692H62.5391V59.6822H73.5289V49.6692Z" fill="white"/>
<path d="M146.705 113.938H135.715V123.951H146.705V113.938Z" fill="white"/>
<path d="M130.278 59.7175L142.473 59.7175L142.473 2.90549L130.278 2.90549L130.278 59.7175Z" fill="white"/>
<path d="M100.955 53.6777L104.486 59.7317L111.516 59.7647L140.839 9.00668L130.261 2.91968L100.955 53.6777Z" fill="white"/>
<path d="M14.2906 113.987H3.30078V124H14.2906V113.987Z" fill="white"/>
<path d="M39.9599 123.951L52.1543 123.951L52.1543 67.1386L39.9599 67.1386L39.9599 123.951Z" fill="white"/>
<path d="M111.245 123.951L123.439 123.951L123.439 67.1386L111.245 67.1386L111.245 123.951Z" fill="white"/>
<path d="M10.6426 117.913L14.1738 123.967L21.2034 124L50.5261 73.242L39.9653 67.155L10.6426 117.913Z" fill="white"/>
<path d="M212.652 24.3811H164.947V31.2599H212.652V24.3811Z" fill="white"/>
</g>
<defs>
<clipPath id="clip0_630_682">
<rect width="276" height="124" fill="white"/>
</clipPath>
</defs>
</svg>
