<svg width="812" height="888" viewBox="0 0 812 888" fill="none" xmlns="http://www.w3.org/2000/svg">
<path d="M544.686 818.028C555.913 845.182 543.015 876.315 515.834 887.552L495.498 838.364" fill="#4180DF"/>
<path d="M495.699 838.846C484.473 811.692 497.371 780.559 524.552 769.321L544.888 818.51" fill="#4180DF"/>
<path d="M573.739 748.986L524.551 769.322L565.023 867.216L614.212 846.88L573.739 748.986Z" fill="#4180DF"/>
<path d="M53.3333 106.628C23.891 106.628 0 82.7746 0 53.3139C0 23.8823 23.8619 0 53.3333 0" fill="#3B3B3B"/>
<path d="M811.333 106.628C781.891 106.628 758 82.7746 758 53.3139C758 23.8823 781.862 0 811.333 0" fill="#3B3B3B"/>
<path d="M139.13 106.628C109.688 106.628 85.7969 82.7746 85.7969 53.3139C85.7969 23.8823 109.659 0 139.13 0" fill="#3B3B3B"/>
<path d="M224.927 106.628C195.485 106.628 171.594 82.7746 171.594 53.3139C171.594 23.8823 195.456 0 224.927 0" fill="#3B3B3B"/>
<path d="M310.724 106.628C281.282 106.628 257.391 82.7746 257.391 53.3139C257.391 23.8823 281.253 0 310.724 0" fill="#3B3B3B"/>
<path d="M396.521 106.628C367.079 106.628 343.188 82.7746 343.188 53.3139C343.188 23.8823 367.049 0 396.521 0" fill="#3B3B3B"/>
<path d="M719.466 191.647C691.51 200.88 661.34 185.723 652.094 157.75C642.858 129.804 658.021 99.644 686.004 90.402" fill="#3B3B3B"/>
<path d="M503.619 225.599C476.499 214.142 463.782 182.873 475.254 155.737C486.715 128.626 517.995 115.913 545.142 127.382" fill="#3B3B3B"/>
<path d="M53.3333 245.708C23.891 245.708 0 221.854 0 192.394C0 162.962 23.8619 139.08 53.3333 139.08" fill="#3B3B3B"/>
<path d="M811.595 245.708C782.153 245.708 758.262 221.854 758.262 192.394C758.262 162.962 782.124 139.08 811.595 139.08" fill="#3B3B3B"/>
<path d="M139.13 245.708C109.688 245.708 85.7969 221.854 85.7969 192.394C85.7969 162.962 109.659 139.08 139.13 139.08" fill="#3B3B3B"/>
<path d="M224.927 245.708C195.485 245.708 171.594 221.854 171.594 192.394C171.594 162.962 195.456 139.08 224.927 139.08" fill="#3B3B3B"/>
<path d="M310.724 245.708C281.282 245.708 257.391 221.854 257.391 192.394C257.391 162.962 281.253 139.08 310.724 139.08" fill="#3B3B3B"/>
<path d="M396.521 245.708C367.079 245.708 343.188 221.854 343.188 192.394C343.188 162.962 367.049 139.08 396.521 139.08" fill="#3B3B3B"/>
<path d="M733.863 252.701C714.011 274.436 680.28 275.988 658.516 256.123C636.774 236.278 635.221 202.56 655.093 180.804" fill="#3B3B3B"/>
<path d="M485.225 293.654C457.264 302.875 427.101 287.704 417.868 259.726C408.645 231.776 423.821 201.623 451.809 192.394" fill="#3B3B3B"/>
<path d="M53.3333 384.788C23.891 384.788 0 360.934 0 331.474C0 302.042 23.8619 278.16 53.3333 278.16" fill="#3B3B3B"/>
<path d="M811.595 384.788C782.153 384.788 758.262 360.934 758.262 331.474C758.262 302.042 782.124 278.16 811.595 278.16" fill="#3B3B3B"/>
<path d="M139.13 384.788C109.688 384.788 85.7969 360.934 85.7969 331.474C85.7969 302.042 109.659 278.16 139.13 278.16" fill="#3B3B3B"/>
<path d="M224.927 384.788C195.485 384.788 171.594 360.934 171.594 331.474C171.594 302.042 195.456 278.16 224.927 278.16" fill="#3B3B3B"/>
<path d="M310.724 384.788C281.282 384.788 257.391 360.934 257.391 331.474C257.391 302.042 281.253 278.16 310.724 278.16" fill="#3B3B3B"/>
<path d="M396.521 384.788C367.079 384.788 343.188 360.934 343.188 331.474C343.188 302.042 367.049 278.16 396.521 278.16" fill="#3B3B3B"/>
<path d="M725.796 384.788C696.354 384.788 672.463 360.934 672.463 331.474C672.463 302.042 696.325 278.16 725.796 278.16" fill="#3B3B3B"/>
<path d="M523.793 404.788C497.789 418.59 465.497 408.722 451.677 382.701C437.87 356.707 447.741 324.427 473.771 310.612" fill="#3B3B3B"/>
<path d="M53.3333 523.867C23.891 523.867 0 500.014 0 470.553C0 441.122 23.8619 417.24 53.3333 417.24" fill="#3B3B3B"/>
<path d="M811.595 523.867C782.153 523.867 758.262 500.014 758.262 470.553C758.262 441.122 782.124 417.24 811.595 417.24" fill="#3B3B3B"/>
<path d="M139.13 523.867C109.688 523.867 85.7969 500.014 85.7969 470.553C85.7969 441.122 109.659 417.24 139.13 417.24" fill="#3B3B3B"/>
<path d="M224.927 523.867C195.485 523.867 171.594 500.014 171.594 470.553C171.594 441.122 195.456 417.24 224.927 417.24" fill="#3B3B3B"/>
<path d="M310.724 523.867C281.282 523.867 257.391 500.014 257.391 470.553C257.391 441.122 281.253 417.24 310.724 417.24" fill="#3B3B3B"/>
<path d="M396.521 523.867C367.079 523.867 343.188 500.014 343.188 470.553C343.188 441.122 367.049 417.24 396.521 417.24" fill="#3B3B3B"/>
<path d="M725.796 523.867C696.354 523.867 672.463 500.014 672.463 470.553C672.463 441.122 696.325 417.24 725.796 417.24" fill="#3B3B3B"/>
<path d="M460.749 542.67C431.693 537.915 411.971 510.517 416.733 481.443C421.49 452.398 448.898 432.683 477.982 437.443" fill="#3B3B3B"/>
<path d="M579.539 585.524C553.553 599.361 521.249 589.537 507.393 563.535C493.551 537.559 503.379 505.266 529.39 491.415" fill="#3B3B3B"/>
<path d="M628.98 579.383C600.21 585.636 571.795 567.401 565.533 538.613C559.279 509.853 577.52 481.448 606.319 475.189" fill="#3B3B3B"/>
<path d="M569.735 366.502C540.679 361.747 520.958 334.349 525.719 305.275C530.476 276.23 557.884 256.515 586.969 261.275" fill="#3B3B3B"/>
<path d="M605.885 368.542C581.77 351.657 575.893 318.418 592.802 294.288C609.693 270.182 642.944 264.307 667.083 281.209" fill="#3B3B3B"/>
<path d="M608.22 249.593C579.625 256.603 550.738 239.125 543.718 210.512C536.704 181.928 554.189 153.051 582.812 146.034" fill="#3B3B3B"/>
<path d="M53.3333 662.947C23.891 662.947 0 639.094 0 609.633C0 580.202 23.8619 556.319 53.3333 556.319" fill="#3B3B3B"/>
<path d="M725.796 662.947C696.354 662.947 672.463 639.094 672.463 609.633C672.463 580.202 696.325 556.319 725.796 556.319" fill="#3B3B3B"/>
<path d="M811.595 662.947C782.153 662.947 758.262 639.094 758.262 609.633C758.262 580.202 782.124 556.319 811.595 556.319" fill="#3B3B3B"/>
<path d="M139.13 662.947C109.688 662.947 85.7969 639.094 85.7969 609.633C85.7969 580.202 109.659 556.319 139.13 556.319" fill="#3B3B3B"/>
<path d="M811.595 662.947C782.153 662.947 758.262 639.094 758.262 609.633C758.262 580.202 782.124 556.319 811.595 556.319" fill="#3B3B3B"/>
<path d="M224.927 662.947C195.485 662.947 171.594 639.094 171.594 609.633C171.594 580.202 195.456 556.319 224.927 556.319" fill="#3B3B3B"/>
<path d="M310.724 662.947C281.282 662.947 257.391 639.094 257.391 609.633C257.391 580.202 281.253 556.319 310.724 556.319" fill="#3B3B3B"/>
<path d="M396.521 662.947C367.079 662.947 343.188 639.094 343.188 609.633C343.188 580.202 367.049 556.319 396.521 556.319" fill="#3B3B3B"/>
<path d="M725.796 662.947C696.354 662.947 672.463 639.094 672.463 609.633C672.463 580.202 696.325 556.319 725.796 556.319" fill="#3B3B3B"/>
<path d="M577.392 486.779C547.95 486.779 524.059 462.926 524.059 433.466C524.059 404.034 547.921 380.152 577.392 380.152" fill="#3B3B3B"/>
<path d="M654.919 477.493C626.761 486.09 596.942 470.254 588.333 442.078C579.733 413.93 595.575 384.121 623.761 375.516" fill="#3B3B3B"/>
<path d="M474.955 660.746C446.12 666.695 417.899 648.162 411.941 619.31C405.99 590.486 424.529 562.275 453.392 556.319" fill="#3B3B3B"/>
<path d="M603.077 694.481C574.816 686.228 558.574 656.635 566.838 628.356C575.094 600.106 604.698 583.87 632.987 592.131" fill="#3B3B3B"/>
<path d="M531.553 731C503.094 723.457 486.117 694.279 493.67 665.802C501.216 637.354 530.405 620.383 558.892 627.934" fill="#3B3B3B"/>
</svg>
