<svg width="196" height="154" viewBox="0 0 196 154" fill="none" xmlns="http://www.w3.org/2000/svg">
<g clip-path="url(#clip0_630_812)">
<path d="M74.0598 153.98C63.639 153.98 55.2031 145.551 55.2031 135.162V100.174C55.2031 89.7743 63.6491 81.3557 74.0598 81.3557C84.4806 81.3557 92.9165 89.7844 92.9165 100.174V135.152C92.9165 145.551 84.4705 153.98 74.0598 153.98Z" fill="white"/>
<path d="M137.223 117.83V135.172C137.223 145.571 128.777 153.99 118.366 153.99C107.946 153.99 99.5098 145.561 99.5098 135.172V117.971" fill="white"/>
<path d="M29.2874 73.0585C14.0562 73.0585 1.70117 60.7288 1.70117 45.5289V27.9642C1.70117 12.7643 14.0562 0.43457 29.2874 0.43457" fill="white"/>
<path d="M45.3895 0.485107C58.6965 0.515426 69.4515 11.3191 69.411 24.5988L45.2578 24.528L45.3895 0.485107Z" fill="white"/>
<path d="M24.1633 130.008C24.1329 143.287 13.307 154.02 0 153.98L0.0708897 129.876L24.1633 130.008Z" fill="white"/>
<path d="M95.59 0.525635C82.283 0.56606 71.528 11.3596 71.5685 24.6393L95.6305 24.5686L95.59 0.525635Z" fill="white"/>
<path d="M15.809 49.8747H31.7187V23.8611H15.809C8.60861 23.8611 2.7754 29.6823 2.7754 36.8679C2.76528 44.0535 8.60861 49.8747 15.809 49.8747Z" fill="#828282"/>
<path d="M139.299 72.8665C124.068 72.8665 111.713 60.5368 111.713 45.3369V27.7823C111.713 12.5824 124.068 0.252686 139.299 0.252686" fill="white"/>
<path d="M125.809 49.6927H141.719V23.6689H125.809C118.609 23.6689 112.775 29.4902 112.775 36.6758C112.775 43.8614 118.609 49.6927 125.809 49.6927Z" fill="#828282"/>
<path d="M24.3041 104.728L14.582 104.677L14.4469 130.428L24.169 130.479L24.3041 104.728Z" fill="white"/>
<path d="M104.302 0.525391H94.5801V73.2605H104.302V0.525391Z" fill="white"/>
<path d="M46.39 0.495117H36.668V73.2303H46.39V0.495117Z" fill="white"/>
<path d="M38.6251 81.2346C25.3181 81.275 14.5631 92.0686 14.6036 105.358L38.6656 105.288L38.6251 81.2346Z" fill="white"/>
<path d="M49.3433 81.2344H37.6133V153.97H49.3433V81.2344Z" fill="white"/>
<path d="M109.16 81.2346H99.4375V153.97H109.16V81.2346Z" fill="white"/>
<path d="M108.588 102.537V112.239H113.216V102.537H108.588Z" fill="white"/>
<path d="M92.9779 130.755H83.2559V154.01H92.9779V130.755Z" fill="white"/>
<path d="M75 24H66V72H75V24Z" fill="white"/>
<path d="M145.768 1C159.075 1.04043 169.83 11.834 169.79 25.1137L145.637 25.0429L145.768 1Z" fill="white"/>
<path d="M195.971 1.04053C182.664 1.08095 171.909 11.8745 171.949 25.1542L196.011 25.0834L195.971 1.04053Z" fill="white"/>
<path d="M112.211 105.267C125.518 105.227 136.313 94.4233 136.273 81.1436L112.211 81.2143V105.267Z" fill="white"/>
<path d="M175.615 24.0833H165.893V71.9164H175.615V24.0833Z" fill="white"/>
<path d="M112.264 31.5062V41.2083H139.546V31.5062H112.264Z" fill="white"/>
<path d="M73.8461 131.15C81.3464 131.15 87.4265 125.082 87.4265 117.597C87.4265 110.112 81.3464 104.044 73.8461 104.044C66.3458 104.044 60.2656 110.112 60.2656 117.597C60.2656 125.082 66.3458 131.15 73.8461 131.15Z" fill="#828282"/>
<path d="M118.366 149.472C125.866 149.472 131.946 143.405 131.946 135.92C131.946 128.435 125.866 122.367 118.366 122.367C110.865 122.367 104.785 128.435 104.785 135.92C104.785 143.405 110.865 149.472 118.366 149.472Z" fill="#828282"/>
</g>
<defs>
<clipPath id="clip0_630_812">
<rect width="196" height="154" fill="white"/>
</clipPath>
</defs>
</svg>
