<svg width="284" height="56" viewBox="0 0 284 56" fill="none" xmlns="http://www.w3.org/2000/svg">
<path d="M85.8537 9.68066H44.0215V48.8028H85.8537V9.68066Z" fill="white"/>
<path d="M53.1055 31.3433L63.9777 49.4303" stroke="#828282" stroke-width="3" stroke-miterlimit="10" stroke-linecap="round"/>
<path d="M76.6957 31.3433L63.9766 49.4303" stroke="#828282" stroke-width="3" stroke-miterlimit="10" stroke-linecap="round"/>
<path d="M63.9391 27.7868L53.0859 9.69971H74.8303L63.9581 27.7868" fill="#828282"/>
<path d="M63.9391 27.7868L53.0859 9.69971H74.8303L63.9581 27.7868" stroke="#828282" stroke-miterlimit="10" stroke-linecap="round"/>
<path d="M165.722 48.4102L207.555 48.4102V9.28803L165.722 9.28803V48.4102Z" fill="white"/>
<path d="M187.626 30.2974L198.498 48.3654H176.754L187.607 30.2974" fill="#828282"/>
<path d="M187.626 30.2974L198.498 48.3654H176.754L187.607 30.2974" stroke="#828282" stroke-miterlimit="10" stroke-linecap="round"/>
<path d="M19.8213 48.0039C30.7683 48.0039 39.6426 39.1396 39.6426 28.2051C39.6426 17.2705 30.7683 8.40625 19.8213 8.40625C8.87429 8.40625 0 17.2705 0 28.2051C0 39.1396 8.87429 48.0039 19.8213 48.0039Z" fill="white"/>
<path d="M39.5665 27.4448H16.2988" stroke="#828282" stroke-width="3" stroke-miterlimit="10" stroke-linecap="round"/>
<path d="M110.665 49.2402C121.612 49.2402 130.486 40.3759 130.486 29.4414C130.486 18.5068 121.612 9.64258 110.665 9.64258C99.718 9.64258 90.8438 18.5068 90.8438 29.4414C90.8438 40.3759 99.718 49.2402 110.665 49.2402Z" fill="white"/>
<path d="M130.411 28.6997H108.152" stroke="#828282" stroke-width="3" stroke-miterlimit="10"/>
<path d="M107.426 24.63C107.426 22.7471 108.949 21.2256 110.834 21.2256C112.719 21.2256 114.242 22.7471 114.242 24.63" fill="white"/>
<path d="M153.963 9.73779H144.1V48.5366H153.963V9.73779Z" fill="white"/>
<path d="M259.429 8.61523H249.566V47.414H259.429V8.61523Z" fill="white"/>
<path d="M283.145 18.4876V8.63574L249.633 8.63574V18.4876L283.145 18.4876Z" fill="white"/>
<path d="M244.976 28.3765H235.113V47.7759H244.976V28.3765Z" fill="white"/>
<path d="M165.883 47.6999L179.726 9.37656L162.113 5.57275L162.285 53.6148L165.883 47.6999Z" fill="#828282" stroke="#828282" stroke-miterlimit="10"/>
<path d="M207.143 47.6808L193.301 9.37653L210.913 5.55371L210.723 53.5958L207.143 47.6808Z" fill="#828282" stroke="#828282" stroke-miterlimit="10"/>
<path d="M168.168 18.5452V8.69336L129.325 8.69336V18.5452L168.168 18.5452Z" fill="white"/>
<path d="M129.326 18.0871L118.473 0H140.198L129.345 18.0871" fill="#828282"/>
<path d="M225.251 48.4794C236.198 48.4794 245.072 39.6152 245.072 28.6806C245.072 17.7461 236.198 8.88184 225.251 8.88184C214.304 8.88184 205.43 17.7461 205.43 28.6806C205.43 39.6152 214.304 48.4794 225.251 48.4794Z" fill="white"/>
<path d="M270.5 48C277.956 48 284 41.9558 284 34.5C284 27.0442 277.956 21 270.5 21C263.044 21 257 27.0442 257 34.5C257 41.9558 263.044 48 270.5 48Z" fill="white"/>
<path d="M220 30C220 27.2346 222.458 25 225.5 25C228.542 25 231 27.2346 231 30" fill="#828282"/>
<path d="M106 25C106 22.2346 108.458 20 111.5 20C114.542 20 117 22.2346 117 25" fill="#828282"/>
<path d="M266 37C266 34.2346 268.235 32 271 32C273.765 32 276 34.2346 276 37" fill="#828282"/>
</svg>
