<svg width="345" height="60" viewBox="0 0 345 60" fill="none" xmlns="http://www.w3.org/2000/svg">
<path d="M305.484 0.00585938H298.873V58.5696H305.484V0.00585938Z" fill="white"/>
<path d="M343.695 7.47052V0L299.013 0V7.47052L343.695 7.47052Z" fill="white"/>
<path d="M324.543 59.8383C335.3 59.8383 344.021 48.5798 344.021 34.6918C344.021 20.8038 335.3 9.54541 324.543 9.54541C313.785 9.54541 305.064 20.8038 305.064 34.6918C305.064 48.5798 313.785 59.8383 324.543 59.8383Z" fill="white"/>
<path d="M41.4568 14.2124H34.5508V22.0164H41.4568V14.2124Z" fill="white"/>
<path d="M37.3298 9.54541H30.4238V17.3494H37.3298V9.54541Z" fill="white"/>
<path d="M4.23075 21.9902L11.1367 21.9902L11.1367 14.1862L4.23075 14.1862L4.23075 21.9902Z" fill="white"/>
<path d="M8.36942 17.3589L15.2754 17.3589L15.2754 9.55487L8.36942 9.55487L8.36942 17.3589Z" fill="white"/>
<path d="M33.1921 4.875H12.5332V12.679H33.1921V4.875Z" fill="white"/>
<path d="M6.98633 42.2117L6.98633 18.8662H0.0803585L0.0803585 42.2117H6.98633Z" fill="white"/>
<path d="M41.4568 39.0918H34.5508V46.8959H41.4568V39.0918Z" fill="white"/>
<path d="M37.2712 43.7627H30.3652V51.5667H37.2712V43.7627Z" fill="white"/>
<path d="M4.17215 46.9673H11.0781V39.1632H4.17215L4.17215 46.9673Z" fill="white"/>
<path d="M8.35965 51.5986H15.2656V43.7946H8.35965V51.5986Z" fill="white"/>
<path d="M33.1335 48.4297H12.4746V56.2337H33.1335V48.4297Z" fill="white"/>
<path d="M9.23275e-10 18.8537L0 42.1992L6.90597 42.1992L6.90597 18.8537L9.23275e-10 18.8537Z" fill="white"/>
<path d="M48.2461 56.769V39.7602H55.034V23.0849H61.8219V5.54248H68.6099V56.8358H73.568L73.509 39.8269H80.2969V23.0849H87.0848V5.60918H93.8727V56.8358" stroke="white" stroke-width="2.5" stroke-miterlimit="10" stroke-linecap="round" stroke-linejoin="round"/>
<path d="M132.65 5.54248H102.547V56.9025H132.65V5.54248Z" fill="white"/>
<path d="M123.92 55.9675C135.884 55.9675 145.582 45.0077 145.582 31.4882C145.582 17.9686 135.884 7.00879 123.92 7.00879C111.956 7.00879 102.258 17.9686 102.258 31.4882C102.258 45.0077 111.956 55.9675 123.92 55.9675Z" fill="#828282"/>
<path d="M115.237 36.359C117.616 36.359 119.545 34.179 119.545 31.4898C119.545 28.8006 117.616 26.6206 115.237 26.6206C112.857 26.6206 110.928 28.8006 110.928 31.4898C110.928 34.179 112.857 36.359 115.237 36.359Z" fill="white"/>
<path d="M164.995 58.0363C167.701 58.0363 169.894 55.5577 169.894 52.5001C169.894 49.4425 167.701 46.9639 164.995 46.9639C162.289 46.9639 160.096 49.4425 160.096 52.5001C160.096 55.5577 162.289 58.0363 164.995 58.0363Z" fill="white"/>
<path d="M164.995 46.963C167.701 46.963 169.894 44.4843 169.894 41.4268C169.894 38.3692 167.701 35.8906 164.995 35.8906C162.289 35.8906 160.096 38.3692 160.096 41.4268C160.096 44.4843 162.289 46.963 164.995 46.963Z" fill="white"/>
<path d="M164.995 35.8244C167.701 35.8244 169.894 33.3457 169.894 30.2882C169.894 27.2306 167.701 24.752 164.995 24.752C162.289 24.752 160.096 27.2306 160.096 30.2882C160.096 33.3457 162.289 35.8244 164.995 35.8244Z" fill="white"/>
<path d="M164.995 24.9523C167.701 24.9523 169.894 22.4737 169.894 19.4161C169.894 16.3585 167.701 13.8799 164.995 13.8799C162.289 13.8799 160.096 16.3585 160.096 19.4161C160.096 22.4737 162.289 24.9523 164.995 24.9523Z" fill="white"/>
<path d="M164.88 13.9474C167.585 13.9474 169.779 11.4688 169.779 8.41119C169.779 5.35364 167.585 2.875 164.88 2.875C162.174 2.875 159.98 5.35364 159.98 8.41119C159.98 11.4688 162.174 13.9474 164.88 13.9474Z" fill="white"/>
<path d="M145.223 13.9474C147.929 13.9474 150.122 11.4688 150.122 8.41119C150.122 5.35364 147.929 2.875 145.223 2.875C142.518 2.875 140.324 5.35364 140.324 8.41119C140.324 11.4688 142.518 13.9474 145.223 13.9474Z" fill="white"/>
<path d="M155.081 13.9474C157.786 13.9474 159.98 11.4688 159.98 8.41119C159.98 5.35364 157.786 2.875 155.081 2.875C152.375 2.875 150.182 5.35364 150.182 8.41119C150.182 11.4688 152.375 13.9474 155.081 13.9474Z" fill="white"/>
<path d="M164.88 13.9474C167.585 13.9474 169.779 11.4688 169.779 8.41119C169.779 5.35364 167.585 2.875 164.88 2.875C162.174 2.875 159.98 5.35364 159.98 8.41119C159.98 11.4688 162.174 13.9474 164.88 13.9474Z" fill="white"/>
<path d="M174.505 13.9474C177.21 13.9474 179.404 11.4688 179.404 8.41119C179.404 5.35364 177.21 2.875 174.505 2.875C171.799 2.875 169.605 5.35364 169.605 8.41119C169.605 11.4688 171.799 13.9474 174.505 13.9474Z" fill="white"/>
<path d="M184.303 13.8795C187.009 13.8795 189.202 11.4009 189.202 8.34332C189.202 5.28577 187.009 2.80713 184.303 2.80713C181.598 2.80713 179.404 5.28577 179.404 8.34332C179.404 11.4009 181.598 13.8795 184.303 13.8795Z" fill="white"/>
<path d="M325 49.671C327.761 49.671 330 43.1005 330 34.9954C330 26.8903 327.761 20.3198 325 20.3198C322.239 20.3198 320 26.8903 320 34.9954C320 43.1005 322.239 49.671 325 49.671Z" fill="#828282"/>
<path d="M237.008 57.501H228.213L212.158 11.3436V3.53955H217.53L237.008 57.501Z" fill="white"/>
<path d="M187.486 57.501H196.281L212.336 11.3436V3.53955H206.965L187.486 57.501Z" fill="white"/>
<path d="M290.375 37.158C290.375 48.8307 287.777 58.3023 284.531 58.3023C281.285 58.3023 278.688 48.8307 278.688 37.158C278.688 25.4853 284.531 16.0137 284.531 16.0137C284.531 16.0137 290.375 25.4853 290.375 37.158Z" fill="white"/>
<path d="M258.26 22.7527C250.941 31.0237 243.209 35.6261 240.907 33.0247C238.605 30.4234 242.678 21.6855 249.997 13.4146C257.316 5.14361 267.35 3.14258 267.35 3.14258C267.35 3.14258 265.579 14.4818 258.26 22.7527Z" fill="white"/>
<path d="M264.339 52.6321C255.013 57.7014 246.337 59.1022 244.92 55.7671C243.504 52.432 249.937 45.6952 259.263 40.6926C268.589 35.69 278.683 37.5576 278.683 37.5576C278.683 37.5576 273.666 47.5628 264.339 52.6321Z" fill="white"/>
<path d="M267.412 3.94043H272.901C279.276 3.94043 284.47 9.74342 284.47 16.9471V17.2806" stroke="white" stroke-width="1.25" stroke-miterlimit="10" stroke-linecap="round"/>
</svg>
