<svg width="68" height="18" viewBox="0 0 68 18" fill="none" xmlns="http://www.w3.org/2000/svg">
<path d="M11.47 4.02002C10.41 8.21002 9.24 12.23 8 16.04" stroke="black" stroke-width="1.5" stroke-miterlimit="10" stroke-linecap="round" stroke-linejoin="round"/>
<path d="M19.25 3.50977C18.19 7.69977 17.02 11.7198 15.78 15.5298" stroke="black" stroke-width="1.5" stroke-miterlimit="10" stroke-linecap="round" stroke-linejoin="round"/>
<path d="M66.63 3.14014C65.57 7.33014 64.4 11.3501 63.16 15.1601" stroke="black" stroke-width="1.5" stroke-miterlimit="10" stroke-linecap="round" stroke-linejoin="round"/>
<path d="M1 13.19C10.87 9.10002 19.75 7.91002 20.84 10.55" stroke="black" stroke-width="1.5" stroke-miterlimit="10" stroke-linecap="round" stroke-linejoin="round"/>
<path d="M31.96 3.80995C33.01 2.54995 34.13 1.90995 35.14 2.13995C37.52 2.66995 38.4 7.79995 37.11 13.5899C37.02 13.9699 36.93 14.3499 36.83 14.7199" stroke="black" stroke-width="1.5" stroke-miterlimit="10" stroke-linecap="round" stroke-linejoin="round"/>
<path d="M35.66 6.97998C30.07 7.43998 25.86 9.47998 25.86 11.92C25.86 14.7 31.33 16.96 38.08 16.96H45.5" stroke="black" stroke-width="1.5" stroke-miterlimit="10" stroke-linecap="round" stroke-linejoin="round"/>
<path d="M60.16 1C59.79 1.9 59.38 2.82 58.93 3.74C55.28 11.11 50.18 16.02 47.53 14.71C45.27 13.59 45.53 8.32 47.91 2.22" stroke="black" stroke-width="1.5" stroke-miterlimit="10" stroke-linecap="round" stroke-linejoin="round"/>
<path d="M60.13 1.02002C59.09 1.89002 58.07 3.01002 57.17 4.32002C54.28 8.51002 53.66 13.1 55.8 14.57C57.93 16.04 62.01 13.84 64.9 9.65002" stroke="black" stroke-width="1.5" stroke-miterlimit="10" stroke-linecap="round" stroke-linejoin="round"/>
</svg>
