<svg width="46" height="84" viewBox="0 0 46 84" fill="none" xmlns="http://www.w3.org/2000/svg">
<path d="M7.02369 44.1252C12.2071 45.1878 17.5616 42.3465 19.6096 37.1129L25.0414 23.2246V23.1337C30.6222 25.4465 36.0982 24.8725 37.2795 21.8551C38.3835 19.0308 35.3309 15.0587 30.3517 12.6663H30.3628L14.1502 5.94381C13.0958 5.50625 12.0139 5.24485 10.9375 5.15393L5.89759 9.95004L3.38041 14.1836L1.62502 19.8207L1.35453 25.7931L2.65728 31.8394L5.63814 37.4936L7.63643 39.903L7.02369 44.1252Z" fill="white"/>
<path d="M24.7765 23.1508L19.3447 37.039C17.2967 42.2727 11.9477 45.1197 6.75879 44.0514" stroke="black" stroke-miterlimit="10"/>
<path d="M10.667 5.07434C11.7434 5.17094 12.8254 5.42666 13.8797 5.86422L30.0978 12.5924" stroke="black" stroke-miterlimit="10"/>
<path d="M20.835 1.13638C31.9635 2.38655 40.6246 12.0924 40.6246 23.8781C40.6246 30.0892 38.2178 35.7207 34.3151 39.8462L40.0781 79.6585C40.3651 81.6474 38.8692 83.4317 36.9151 83.4317L42.0653 83.4147L43.6054 82.8123L44.6046 81.5906L44.9303 80.1358L39.1397 39.8462L40.8067 37.8687L43.4012 33.4647L45.0904 27.9469L45.4436 24.2589L45.2228 20.605L44.2734 16.5249L42.3855 12.2856L39.1286 7.90435L35.7834 5.00623L31.555 2.67068L27.288 1.3921L23.2252 1L20.835 1.13638Z" fill="black" stroke="black" stroke-miterlimit="10"/>
<path d="M7.36031 39.9029L1.55314 79.6526C1.26058 81.6416 2.75653 83.4316 4.71065 83.4316H41.7396C43.6937 83.4316 45.1897 81.6472 44.9026 79.6583L39.1396 39.8461C43.0424 35.7262 45.4491 30.089 45.4491 23.878C45.4491 10.9444 35.0271 0.522506 22.3585 1.01689C10.987 1.46013 1.65803 10.8932 1.03425 22.588C0.675446 29.3333 3.1595 35.4932 7.36031 39.9029Z" stroke="black" stroke-miterlimit="10"/>
<path d="M24.7764 23.0599C30.3572 25.3727 35.8332 24.7987 37.0145 21.7813C38.1185 18.957 35.0659 14.9849 30.0867 12.5925" stroke="black" stroke-miterlimit="10" stroke-linecap="round" stroke-linejoin="round"/>
<path d="M13.0569 36.8628C12.0467 36.8799 11.0199 36.698 10.0263 36.2832C7.04545 35.0444 5.21277 32.1178 5.16309 29.0038" stroke="black" stroke-miterlimit="10"/>
<path d="M9.64512 19.3832L8.57422 21.9972" stroke="black" stroke-miterlimit="10"/>
</svg>
