<svg width="82" height="115" viewBox="0 0 82 115" fill="none" xmlns="http://www.w3.org/2000/svg">
<g clip-path="url(#clip0_156_843)">
<path d="M19.5126 39.3437L19.6034 54.9183L22.2249 56.6761L25.1644 57.6261L29.0058 57.9815L32.659 57.458L35.6374 56.3077L37.2532 55.2802L37.1883 51.5578C37.5516 51.5061 36.9028 51.3574 37.2532 51.267C41.8862 50.1037 45.3188 45.9225 45.3188 40.9464V14.0753C46.1494 13.8104 47.0189 13.4679 47.8949 13.0672C52.2165 11.0638 55.1235 8.16217 54.3903 6.58532C54.0853 5.92614 53.1963 5.60302 51.9505 5.59656H42.4118L36.0527 5.67411L13.1924 20.7123V34.8587C13.1924 37.5471 15.4959 39.6668 18.1823 39.4471L19.5126 39.3437Z" fill="white"/>
<path d="M41.9119 56.7535C41.7692 56.8892 41.6199 57.0314 41.4836 57.1865C38.051 60.8831 35.6372 69.5363 35.6372 79.6243C35.6372 93.0727 39.9198 103.975 45.2083 103.975L45.1823 114.677H10.7588V103.697C16.0407 103.697 20.3299 92.7948 20.3299 79.3464C20.3299 69.1421 17.8641 60.4113 14.3666 56.7858L19.4604 54.9957L29.0639 64.3663L37.2529 55.2801L41.9119 56.7535Z" fill="#202020"/>
<path d="M0.811208 78.9264L10.7587 85.4212V111.394L7.15085 107.523L5.58702 105.229L3.38729 100.944L1.5185 95.3217L0.843652 91.9677L0.421875 87.3535V82.4808L0.811208 78.9264Z" fill="white"/>
<path d="M61.0801 69.1422L53.5205 54.9958C53.5205 54.9958 60.0159 53.6451 64.1753 43.8609C65.7975 39.796 66.8876 33.8764 67.1666 27.1554L68.5293 27.2782L67.7701 27.1101C66.4009 26.7999 65.2913 25.8176 64.8241 24.4993L63.9417 21.9919C63.5588 20.9062 63.6626 19.7041 64.2207 18.696L65.1486 17.0287C65.6612 16.1045 66.8227 15.7685 67.7506 16.279C68.6785 16.7896 69.016 17.9463 68.5033 18.8705L67.3094 21.0225L67.8025 12.9121C67.7636 11.8587 68.5942 10.9733 69.6519 10.9345C70.7096 10.8958 71.5985 11.723 71.6375 12.7763L71.8386 18.3793L72.9288 13.6359C73.1624 12.6083 74.1876 11.9621 75.2193 12.1947C76.2511 12.4274 76.9 13.4484 76.6663 14.476L75.5568 19.3875L78.1523 14.4114C78.639 13.4743 79.8005 13.1124 80.7349 13.5971C81.6758 14.0818 82.0391 15.2386 81.5525 16.1692L78.9569 21.1453L78.9115 21.1323C79.0478 21.8238 79.0218 22.748 78.7947 23.7303C78.5871 24.6479 78.2431 25.4493 77.8603 26.0115L75.8228 28.4285C75.3945 38.6328 73.9605 47.5898 71.8711 53.8131C69.587 60.1981 65.7585 65.4456 61.1709 69.0775" fill="white"/>
<path d="M36.0459 5.6676H42.2687H51.8074C53.0533 5.67407 53.9422 6.00365 54.2472 6.65636C54.9805 8.23321 52.0734 11.1349 47.7518 13.1382C46.8758 13.5454 46.0063 13.8814 45.1758 14.1464" stroke="black" stroke-miterlimit="10" stroke-linecap="round" stroke-linejoin="round"/>
<path d="M19.46 54.9958L19.5119 39.3436" stroke="black" stroke-miterlimit="10" stroke-linecap="round" stroke-linejoin="round"/>
<path d="M45.1822 14.1528V41.0239C45.1822 46.3748 41.2111 50.8081 36.0459 51.5577" stroke="black" stroke-miterlimit="10" stroke-linecap="round" stroke-linejoin="round"/>
<path d="M14.3666 56.7859C17.8641 60.4113 20.3299 69.1486 20.3299 79.3464C20.3299 92.7949 16.0472 103.697 10.7588 103.697" stroke="black" stroke-miterlimit="10" stroke-linecap="round" stroke-linejoin="round"/>
<path d="M45.202 103.981C39.92 103.981 35.6309 93.0792 35.6309 79.6308C35.6309 69.5428 38.0382 60.8895 41.4773 57.193C41.6201 57.0379 41.7629 56.8957 41.9056 56.76" stroke="black" stroke-miterlimit="10" stroke-linecap="round" stroke-linejoin="round"/>
<path d="M37.2529 51.3057V55.2801" stroke="black" stroke-miterlimit="10" stroke-linecap="round" stroke-linejoin="round"/>
<path d="M19.4599 54.9957C8.66892 56.8892 0.324219 69.7496 0.324219 85.3307C0.324219 96.3492 4.49657 106.011 10.7583 111.394" stroke="black" stroke-miterlimit="10" stroke-linecap="round" stroke-linejoin="round"/>
<path d="M10.7588 74.687V114.677H45.1823V74.687" stroke="black" stroke-miterlimit="10" stroke-linecap="round" stroke-linejoin="round"/>
<path d="M0.811523 78.9264L10.759 85.4212" stroke="black" stroke-miterlimit="10" stroke-linecap="round" stroke-linejoin="round"/>
<path d="M64.0838 43.8545C59.9309 53.6452 48.9647 59.1835 39.6013 56.2237C38.7772 55.9652 37.9985 55.6485 37.2588 55.2802" stroke="black" stroke-miterlimit="10" stroke-linecap="round" stroke-linejoin="round"/>
<path d="M67.0754 27.1489C66.7963 33.8764 65.7062 39.7896 64.084 43.8545" stroke="black" stroke-miterlimit="10" stroke-linecap="round" stroke-linejoin="round"/>
<path d="M71.7796 53.8131C67.1141 66.848 56.0311 75.1264 45.1816 74.6676" stroke="black" stroke-miterlimit="10" stroke-linecap="round" stroke-linejoin="round"/>
<path d="M75.732 28.4285C75.3037 38.6327 73.8697 47.5897 71.7803 53.8131" stroke="black" stroke-miterlimit="10" stroke-linecap="round" stroke-linejoin="round"/>
<path d="M71.748 18.3794L72.8382 13.6359C73.0718 12.6083 74.097 11.9621 75.1287 12.1948C76.1605 12.4274 76.8094 13.4485 76.5758 14.476L75.4662 19.3875" stroke="black" stroke-miterlimit="10"/>
<path d="M75.4658 19.3874L78.0614 14.4113C78.548 13.4743 79.7095 13.1124 80.6439 13.597C81.5848 14.0817 81.9482 15.2385 81.4615 16.1691L78.866 21.1452" stroke="black" stroke-miterlimit="10"/>
<path d="M71.7479 18.3793L71.5468 12.7763C71.5079 11.7229 70.6189 10.9022 69.5612 10.9345C68.5035 10.9733 67.6794 11.8587 67.7119 12.912" stroke="black" stroke-miterlimit="10"/>
<path d="M78.8207 21.1323C78.957 21.8238 78.931 22.7479 78.7039 23.7302C78.4963 24.6479 78.1524 25.4493 77.7695 26.0115" stroke="black" stroke-miterlimit="10" stroke-linecap="round" stroke-linejoin="round"/>
<path d="M37.2525 55.2801L29.07 64.3663L19.46 54.9957" stroke="black" stroke-miterlimit="10" stroke-linecap="round" stroke-linejoin="round"/>
<path d="M19.5117 55.0216C21.7374 56.8376 24.9689 57.975 28.5572 57.975C31.9704 57.975 35.0526 56.941 37.2653 55.2801" stroke="black" stroke-miterlimit="10" stroke-linecap="round" stroke-linejoin="round"/>
<path d="M53.4297 54.9957L60.9957 69.1421" stroke="black" stroke-miterlimit="10" stroke-linecap="round" stroke-linejoin="round"/>
<path d="M41.4053 39.3437C38.2193 39.3437 35.6367 36.7716 35.6367 33.5985" stroke="black" stroke-miterlimit="10" stroke-linecap="round" stroke-linejoin="round"/>
<path d="M35.9876 5.67401L13.7437 20.9449C13.3025 21.2486 12.699 21.1387 12.3941 20.6993L10.1165 17.4034C9.20153 16.0786 9.53246 14.2627 10.8627 13.3514L29.0835 0.840068C30.4137 -0.0711429 32.2371 0.258444 33.152 1.58325L35.9876 5.67401Z" fill="#202020" stroke="black" stroke-miterlimit="10" stroke-linecap="round" stroke-linejoin="round"/>
<path d="M26.7471 12.0203L43.2353 0.704468" stroke="black" stroke-miterlimit="10" stroke-linecap="round" stroke-linejoin="round"/>
<path d="M26.7602 37.9089C26.1503 39.0786 25.1121 39.8477 23.9311 39.8477C22.0493 39.8477 20.5244 37.8766 20.5244 35.4467C20.5244 33.0168 22.0493 31.0458 23.9311 31.0458C24.872 31.0458 25.722 31.5369 26.3449 32.3318" stroke="black" stroke-miterlimit="10" stroke-linecap="round" stroke-linejoin="round"/>
<path d="M25.5146 31.5499V22.3538C25.5341 21.6235 25.9689 20.9643 26.6372 20.667C28.3308 19.9109 30.1088 18.9157 31.8802 17.7008C37.9409 13.5389 41.6655 8.32369 40.5948 5.67407" stroke="black" stroke-miterlimit="10" stroke-linecap="round" stroke-linejoin="round"/>
<path d="M13.1924 21.1582V35.2917C13.1924 37.5277 15.0158 39.3436 17.2609 39.3436H22.2249" stroke="black" stroke-miterlimit="10" stroke-linecap="round" stroke-linejoin="round"/>
<path d="M68.0162 19.5813L76.5296 29.1781C76.893 29.5917 77.5224 29.6305 77.9377 29.2621L78.7164 28.5771C79.1316 28.2152 79.1706 27.5884 78.8007 27.1748L67.5944 14.5406L67.9448 8.86652L62.4487 5.00195L60.9628 6.30738L64.5901 10.3917L59.5547 14.8185L65.3233 16.531L68.0162 19.5813Z" fill="#1F1F1F" stroke="black" stroke-miterlimit="10" stroke-linecap="round" stroke-linejoin="round"/>
<path d="M61.3074 11.1478L59.0038 8.54993L57.7969 10.5533L59.6332 12.6213L61.3074 11.1478Z" fill="#1F1F1F" stroke="black" stroke-miterlimit="10" stroke-linecap="round" stroke-linejoin="round"/>
<path d="M35.6367 22.9871V25.6264" stroke="black" stroke-miterlimit="10" stroke-linecap="round" stroke-linejoin="round"/>
<path d="M67.2243 21.0225L68.4183 18.8705C68.9309 17.9464 68.5935 16.7896 67.6656 16.2791C66.7376 15.7685 65.5761 16.1046 65.0635 17.0287L64.1356 18.696C63.5711 19.7042 63.4673 20.8997 63.8566 21.9919L64.7391 24.4994C65.2063 25.8177 66.3159 26.8065 67.685 27.1102L68.4442 27.2782" fill="white"/>
<path d="M67.2243 21.0225L68.4183 18.8705C68.9309 17.9464 68.5935 16.7896 67.6656 16.2791C66.7376 15.7685 65.5761 16.1046 65.0635 17.0287L64.1356 18.696C63.5711 19.7042 63.4673 20.8997 63.8566 21.9919L64.7391 24.4994C65.2063 25.8177 66.3159 26.8065 67.685 27.1102L68.4442 27.2782" stroke="black" stroke-miterlimit="10"/>
</g>
<defs>
<clipPath id="clip0_156_843">
<rect width="82" height="115" fill="white"/>
</clipPath>
</defs>
</svg>
