<svg width="88" height="88" viewBox="0 0 88 88" fill="none" xmlns="http://www.w3.org/2000/svg">
<path d="M7.00301 63.8031C7.00301 67.9276 10.3457 71.2748 14.4713 71.2748L24.0356 71.2748C26.246 71.2748 28.0378 73.0674 28.0378 75.2788L27.0801 84.2207C26.9988 84.992 28.0408 85.3083 28.4021 84.6214L34.4732 73.0674C35.0544 71.9647 36.1987 71.2718 37.4454 71.2718L41.5199 71.2718L71.5317 71.2718C75.6543 71.2718 79 67.9276 79 63.8001L79 38.4717C79 34.3442 75.6573 31 71.5317 31L14.4683 31C10.3457 31 6.99999 34.3442 6.99999 38.4717L7 63.8031L7.00301 63.8031Z" fill="#1E1E1E" stroke="black" stroke-miterlimit="10"/>
<path d="M77.5764 50.1007C76.7137 54.1375 72.756 56.7173 68.7355 55.8581L59.4149 53.8661C57.2608 53.4057 55.1397 54.7871 54.6772 56.9514L53.74 65.9027C53.6579 66.6745 52.5763 66.7671 52.3678 66.0195L48.8683 53.4467C48.5326 52.2465 47.5623 51.3299 46.3474 51.0703L42.3767 50.2217L13.1296 43.971C9.11203 43.1124 6.5511 39.1425 7.41447 35.1028L12.7125 10.3128C13.5759 6.27308 17.5329 3.69619 21.5534 4.55544L77.1628 16.4402C81.1804 17.2988 83.7414 21.2687 82.878 25.3084L77.5793 50.1013L77.5764 50.1007Z" fill="white" stroke="black" stroke-miterlimit="10"/>
<path d="M21.4834 24.5798L33.9984 27.3534C33.1904 31.1342 29.6897 33.5907 26.179 32.8404C23.9143 32.3564 22.1989 30.6562 21.4834 28.4954" stroke="black" stroke-miterlimit="10"/>
<line x1="22.6732" y1="20.5359" x2="23.2374" y2="17.8955" stroke="black"/>
<line x1="32.4524" y1="22.6258" x2="33.0167" y2="19.9855" stroke="black"/>
</svg>
