<svg width="95" height="98" viewBox="0 0 95 98" fill="none" xmlns="http://www.w3.org/2000/svg">
<path d="M39.3588 62.5192C35.0045 60.0052 32.8201 54.9883 33.9216 50.0364C34.1202 49.1413 35.0011 48.5719 35.8886 48.7647C36.7761 48.9576 37.3351 49.8363 37.1349 50.7306C36.3476 54.2661 37.9088 57.8474 41.0176 59.6423C41.8031 60.0958 42.0683 61.1075 41.6099 61.9016C41.1514 62.6956 40.1443 62.9727 39.3588 62.5192Z" fill="#1E1E1E" stroke="black" stroke-miterlimit="10"/>
<path d="M43.1761 34.6171L44.0516 40.9448C44.5121 40.8954 44.9742 40.8724 45.4376 40.8801C47.376 40.9063 49.2887 41.4333 50.9719 42.4051C54.2815 44.3159 56.4085 47.7531 56.6608 51.6013C56.8122 53.9086 56.276 56.1916 55.1127 58.2063C54.1967 59.7929 52.9639 61.1071 51.4501 62.112C50.9107 62.4696 50.2418 62.4711 49.7202 62.17C49.5053 62.0459 49.3158 61.8704 49.1702 61.6479C48.6742 60.8865 48.8903 59.8587 49.6524 59.3528C50.7311 58.6378 51.6104 57.6989 52.2644 56.5661C53.0955 55.1265 53.4783 53.4963 53.3694 51.8526C53.1897 49.1051 51.67 46.6492 49.3055 45.2841C48.1028 44.5896 46.7378 44.2127 45.3554 44.1943C44.5856 44.1845 43.8146 44.2825 43.0662 44.4874C42.6107 44.6121 42.1279 44.5358 41.734 44.2764C41.3416 44.0179 41.0808 43.601 41.0158 43.1332L39.9218 35.235" fill="#1E1E1E"/>
<path d="M43.1761 34.6171L44.0516 40.9448C44.5121 40.8954 44.9742 40.8724 45.4376 40.8801C47.376 40.9063 49.2887 41.4333 50.9719 42.4051C54.2815 44.3159 56.4085 47.7531 56.6608 51.6013C56.8122 53.9086 56.276 56.1916 55.1127 58.2063C54.1967 59.7929 52.9639 61.1071 51.4501 62.112C50.9107 62.4696 50.2418 62.4711 49.7202 62.17C49.5053 62.0458 49.3158 61.8704 49.1702 61.6479C48.6742 60.8865 48.8904 59.8587 49.6524 59.3528C50.7311 58.6378 51.6104 57.6989 52.2644 56.5661C53.0955 55.1265 53.4783 53.4963 53.3694 51.8526C53.1897 49.1051 51.67 46.6492 49.3055 45.2841C48.1028 44.5896 46.7378 44.2127 45.3554 44.1943C44.5856 44.1845 43.8146 44.2825 43.0662 44.4874C42.6107 44.6121 42.1279 44.5358 41.734 44.2764C41.3416 44.0179 41.0808 43.601 41.0158 43.1332L39.9218 35.235" stroke="black" stroke-miterlimit="10"/>
<path d="M39.4727 31.9316L39.0975 29.2161C38.9729 28.3112 39.6 27.4696 40.5021 27.3343C41.4033 27.2006 42.2361 27.8241 42.3606 28.729L42.7216 31.334" fill="#1E1E1E"/>
<path d="M39.4727 31.9316L39.0975 29.2161C38.9729 28.3112 39.6 27.4696 40.5021 27.3343C41.4033 27.2006 42.2361 27.8241 42.3606 28.729L42.7216 31.334" stroke="black" stroke-miterlimit="10"/>
<path d="M43.6156 74.9941C41.5217 74.9015 39.4482 74.5033 37.4525 73.8026C37.3563 73.7684 37.2632 73.7253 37.1778 73.676C36.5061 73.2882 36.1882 72.4592 36.4596 71.6934C36.7669 70.8291 37.71 70.3745 38.5668 70.6753C41.8986 71.8469 45.493 72.0197 48.9625 71.1788C51.3929 70.5901 53.6441 69.538 55.6534 68.0543C57.7324 66.5193 59.4498 64.5922 60.756 62.3298C62.8389 58.7221 63.6571 54.6441 63.1221 50.541C62.5963 46.5094 60.7449 42.7264 57.9066 39.8862C57.5678 39.5458 57.2088 39.2149 56.8413 38.9026C55.9982 38.1837 55.0785 37.5355 54.1097 36.9761C53.3242 36.5226 53.059 35.511 53.5174 34.7169C53.9759 33.9228 54.9846 33.6467 55.7701 34.1002C56.9097 34.7581 57.9908 35.5208 58.9854 36.3677C59.419 36.7373 59.8406 37.1277 60.2418 37.5277C63.586 40.8751 65.7702 45.3338 66.3893 50.0797C67.0204 54.9178 66.0556 59.7207 63.6009 63.9723C62.0622 66.6374 60.0401 68.9061 57.5868 70.7172C55.2187 72.4645 52.5686 73.7039 49.7069 74.3972C48.7811 74.6211 47.8476 74.7852 46.9125 74.8865" fill="#1E1E1E"/>
<path d="M43.6156 74.9941C41.5217 74.9015 39.4482 74.5032 37.4525 73.8026C37.3563 73.7684 37.2632 73.7253 37.1778 73.676C36.5061 73.2882 36.1882 72.4592 36.4596 71.6934C36.7669 70.8291 37.71 70.3745 38.5668 70.6753C41.8986 71.8469 45.493 72.0197 48.9625 71.1788C51.3929 70.5901 53.6441 69.538 55.6534 68.0543C57.7324 66.5193 59.4498 64.5922 60.756 62.3298C62.8389 58.7221 63.6571 54.6441 63.1221 50.541C62.5963 46.5094 60.7449 42.7264 57.9066 39.8862C57.5678 39.5458 57.2088 39.2149 56.8413 38.9026C55.9982 38.1837 55.0785 37.5355 54.1097 36.9761C53.3242 36.5226 53.059 35.511 53.5174 34.7169C53.9759 33.9228 54.9846 33.6467 55.7701 34.1002C56.9097 34.7581 57.9908 35.5208 58.9854 36.3677C59.419 36.7373 59.8406 37.1277 60.2418 37.5277C63.586 40.8751 65.7702 45.3338 66.3893 50.0797C67.0204 54.9178 66.0556 59.7207 63.6009 63.9723C62.0622 66.6374 60.0401 68.9061 57.5868 70.7172C55.2187 72.4645 52.5686 73.7039 49.7069 74.3972C48.7811 74.6211 47.8476 74.7852 46.9125 74.8865" stroke="black" stroke-miterlimit="10"/>
<path d="M31.3163 70.426C31.2451 70.385 31.1768 70.3391 31.1121 70.2869C30.2836 69.6232 29.4963 68.8917 28.7759 68.1136C27.3597 66.5844 26.1743 64.8562 25.2504 62.9742C24.8497 62.1571 25.1859 61.1624 26.0017 60.7494C26.8183 60.3389 27.8045 60.6675 28.206 61.4831C28.9893 63.0793 29.9958 64.5444 31.1957 65.8423C31.8073 66.5021 32.474 67.1214 33.177 67.6849C33.8864 68.2521 33.9981 69.2923 33.4273 70.0109C32.9106 70.6648 32.0085 70.8257 31.3163 70.426Z" fill="#1E1E1E" stroke="black" stroke-miterlimit="10"/>
<path d="M23.8253 54.7121C23.3353 54.4292 23.0072 53.8989 23.008 53.288C23.0108 49.4358 24.0384 45.6193 25.9802 42.256C28.1803 38.4454 31.414 35.4104 35.3315 33.4797C36.6308 32.8388 38.0008 32.3238 39.4017 31.9524C39.9354 31.809 40.4843 31.687 41.0302 31.5846C42.5714 31.2985 44.1414 31.1781 45.7021 31.227C46.6109 31.2553 47.3173 32.0211 47.2806 32.9351C47.2439 33.8491 46.4756 34.5666 45.5668 34.5383C44.2441 34.4968 42.9091 34.5973 41.6008 34.8412C41.1354 34.9282 40.6705 35.0326 40.2168 35.1542C39.0269 35.4705 37.8644 35.9071 36.7597 36.4517C33.4364 38.0906 30.6922 40.6647 28.8242 43.9002C27.1758 46.7553 26.3035 49.9926 26.3005 53.2609C26.2999 54.1745 25.5624 54.9226 24.6528 54.9321C24.3521 54.9311 24.0687 54.8526 23.8253 54.7121Z" fill="#1E1E1E" stroke="black" stroke-miterlimit="10"/>
<path d="M37.9683 61.5761L34.9995 64.6851C34.4617 65.248 33.6264 65.3516 32.9878 64.983C32.8756 64.9182 32.7692 64.8397 32.6704 64.7443C32.0168 64.1134 31.9998 63.0661 32.6334 62.403L35.7095 59.1812" fill="#1E1E1E"/>
<path d="M37.9683 61.5761L34.9995 64.6851C34.4617 65.248 33.6264 65.3516 32.9878 64.983C32.8756 64.9182 32.7692 64.8397 32.6704 64.7443C32.0168 64.1134 31.9998 63.0661 32.6334 62.403L35.7095 59.1812" stroke="black" stroke-miterlimit="10"/>
<path d="M23.0621 72.4287L25.5706 69.7994C26.2042 69.1363 27.246 69.1094 27.8997 69.7402C28.5533 70.3711 28.5703 71.4184 27.9367 72.0815L25.387 74.753" fill="#1E1E1E"/>
<path d="M23.0621 72.4287L25.5706 69.7994C26.2042 69.1363 27.246 69.1094 27.8997 69.7402C28.5533 70.3711 28.5703 71.4184 27.9367 72.0815L25.387 74.753" stroke="black" stroke-miterlimit="10"/>
<path d="M15.4136 66.4257C15.0975 66.2432 14.8363 65.9582 14.6828 65.5927C12.7604 60.9762 11.8968 55.891 12.1844 50.8888C12.4844 45.6424 13.9825 40.6532 16.6336 36.0612C17.1198 35.2192 18.1886 34.9266 19.0215 35.4075C19.8544 35.8884 20.1354 36.9603 19.6493 37.8023C17.2776 41.9101 15.9398 46.3699 15.6708 51.0589C15.4139 55.5335 16.1866 60.0826 17.9076 64.2121C18.278 65.1034 17.8576 66.1346 16.9676 66.5155C16.4392 66.7409 15.8688 66.6885 15.4136 66.4257Z" fill="#1E1E1E" stroke="black" stroke-miterlimit="10"/>
<path d="M28.4996 81.3264C27.4138 80.6995 26.3576 80.0066 25.3571 79.2649C22.9296 77.4651 20.7666 75.3386 18.93 72.9425C18.3448 72.1785 18.4903 71.076 19.2541 70.4795C20.0194 69.8838 21.1147 70.0198 21.6999 70.7838C23.3407 72.9241 25.2731 74.8259 27.4424 76.4341C28.3382 77.0982 29.2842 77.719 30.2562 78.2802C31.0892 78.7611 31.3701 79.8329 30.884 80.675C30.3979 81.517 29.3325 81.8073 28.4996 81.3264Z" fill="#1E1E1E" stroke="black" stroke-miterlimit="10"/>
<path d="M38.029 84.9001C37.4015 84.5379 37.0458 83.7999 37.1986 83.0424C37.3902 82.09 38.3113 81.4692 39.2568 81.653C44.0035 82.5784 48.9786 82.2979 53.6442 80.8417C60.8132 78.6046 66.8428 73.7711 70.6203 67.2283C76.0186 57.8782 75.976 46.3413 70.51 37.1204C68.981 34.5419 67.0744 32.2268 64.845 30.2409C64.1272 29.6007 64.0649 28.4932 64.7084 27.7654C65.3519 27.0377 66.4541 26.9647 67.1719 27.6049C69.6672 29.8274 71.8003 32.4181 73.5104 35.3035C79.6226 45.6133 79.6685 58.5134 73.6319 68.9691C69.4088 76.2837 62.667 81.6902 54.6473 84.1924C49.4323 85.8192 43.869 86.133 38.5581 85.097C38.3678 85.0616 38.1886 84.9923 38.029 84.9001Z" fill="#1E1E1E" stroke="black" stroke-miterlimit="10"/>
<path d="M52.2179 23.6452L51.8795 27.1331C51.7954 28.0453 50.9921 28.7213 50.0871 28.6462C49.7594 28.6189 49.4648 28.4978 49.2236 28.3095C48.7974 27.9783 48.5451 27.4406 48.599 26.8582L48.951 23.0585" fill="#1E1E1E"/>
<path d="M52.2179 23.6452L51.8795 27.1331C51.7954 28.0453 50.9921 28.7213 50.0871 28.6462C49.7594 28.6189 49.4648 28.4978 49.2236 28.3095C48.7974 27.9783 48.5451 27.4406 48.599 26.8582L48.951 23.0585" stroke="black" stroke-miterlimit="10"/>
<path d="M44.4524 79.3737C43.9672 79.0936 43.6388 78.5674 43.6343 77.9619L43.6035 73.3724C43.5985 72.4577 44.3305 71.7044 45.2388 71.6898C46.147 71.6753 46.8894 72.4042 46.897 73.3183L46.9278 77.9077C46.9328 78.8224 46.2008 79.5757 45.2925 79.5903C44.9856 79.5963 44.699 79.5161 44.4524 79.3737Z" fill="#1E1E1E" stroke="black" stroke-miterlimit="10"/>
<path d="M49.9241 38.6562C50.7573 38.9541 51.5749 39.3302 52.3683 39.7883C59.5406 43.9293 61.9616 53.1645 57.7755 60.4151C55.2092 64.8601 50.7541 67.5285 46.0389 67.9719" stroke="black" stroke-miterlimit="10" stroke-linecap="round"/>
<path d="M53.3428 29.1604C54.7322 29.6558 56.0933 30.284 57.4146 31.0469C57.7434 31.2367 58.0659 31.4336 58.3832 31.6359" stroke="#1E1E1E" stroke-miterlimit="10" stroke-linecap="round"/>
<path d="M49.9245 38.6562L53.3438 29.1605" stroke="black" stroke-miterlimit="10" stroke-linecap="round"/>
<path d="M58.3984 31.6145L66.8513 18.3826" stroke="black" stroke-miterlimit="10" stroke-linecap="round"/>
<path d="M29.4256 26.5126C29.1569 26.3574 28.9266 26.1286 28.7692 25.8354C28.3133 24.9863 28.6319 23.9197 29.4791 23.4524C33.8789 21.0331 38.8432 19.6216 43.836 19.3725C48.948 19.1178 54.1124 20.0863 58.7689 22.1718C59.6475 22.5662 60.0342 23.6011 59.6345 24.4867C59.2349 25.3723 58.2011 25.7723 57.324 25.3789C53.1624 23.513 48.547 22.6484 43.9777 22.8757C39.5104 23.0979 35.0688 24.3596 31.1337 26.5252C30.5771 26.8323 29.9329 26.8055 29.4256 26.5126Z" fill="#1E1E1E" stroke="black" stroke-miterlimit="10"/>
<path d="M46.0398 67.9744L44.8047 52.8708" stroke="black" stroke-miterlimit="10" stroke-linecap="round"/>
<path d="M44.1941 53.9285C44.7719 54.2621 45.5138 54.059 45.8511 53.4749C46.1883 52.8907 45.9933 52.1467 45.4154 51.8131C44.8376 51.4794 44.0957 51.6825 43.7585 52.2667C43.4212 52.8509 43.6162 53.5949 44.1941 53.9285Z" fill="#1E1E1E"/>
<path d="M66.24 19.4403C66.8179 19.774 67.5597 19.5709 67.897 18.9867C68.2342 18.4025 68.0392 17.6585 67.4613 17.3249C66.8835 16.9913 66.1416 17.1944 65.8044 17.7785C65.4671 18.3627 65.6621 19.1067 66.24 19.4403Z" fill="#1E1E1E"/>
</svg>
