<svg width="60" height="84" viewBox="0 0 60 84" fill="none" xmlns="http://www.w3.org/2000/svg">
<path d="M44.1128 7.35251L44.3821 6.64686C44.7598 5.65629 44.2212 4.56302 43.1756 4.20523L34.1736 1.11427C33.128 0.756472 31.9739 1.26666 31.5962 2.25723L31.3269 2.96288L31.2744 3.12853" stroke="black" stroke-miterlimit="10"/>
<path d="M56.4343 18.6066C52.7797 19.2327 44.4632 17.7154 35.2339 14.5482C26.0047 11.3811 18.5975 7.49504 16.2158 4.79501C19.8705 4.16887 28.1869 5.68618 37.4162 8.85334C46.2923 11.9012 53.4896 15.6117 56.144 18.2918C56.2664 18.4144 56.3784 18.537 56.4833 18.6563" fill="#1E1E1E"/>
<path d="M42.7254 78.7272C42.7254 81.0396 33.7515 82.9147 22.6791 82.9147C11.6068 82.9147 2.63281 81.0396 2.63281 78.7272" stroke="black" stroke-miterlimit="10"/>
<path d="M57.2004 20.494C58.1206 18.0891 49.2727 12.8452 37.4379 8.78154C25.6032 4.71783 15.2632 3.37313 14.343 5.77806C13.4228 8.18299 22.2707 13.4269 34.1055 17.4906C45.9402 21.5543 56.2802 22.899 57.2004 20.494Z" stroke="black" stroke-miterlimit="10"/>
<path d="M15.6426 2.38647C16.5624 -0.0187128 26.9038 1.32633 38.7385 5.38797C50.5732 9.44962 59.4213 14.694 58.5015 17.0992" stroke="black" stroke-miterlimit="10"/>
<path d="M44.359 39.5626C44.359 41.875 34.6541 43.7502 22.6795 43.7502C10.7049 43.7502 1 41.875 1 39.5626" stroke="black" stroke-miterlimit="10"/>
<path d="M22.6795 35.3751C34.6528 35.3751 44.359 33.5002 44.359 31.1875C44.359 28.8748 34.6528 27 22.6795 27C10.7063 27 1 28.8748 1 31.1875C1 33.5002 10.7063 35.3751 22.6795 35.3751Z" fill="#1E1E1E" stroke="black" stroke-miterlimit="10"/>
<path d="M42.7254 74.5397C42.7254 76.8521 33.7515 78.7272 22.6791 78.7272C11.6068 78.7272 2.63281 76.8521 2.63281 74.5397" stroke="black" stroke-miterlimit="10"/>
<path d="M1 31.1875V39.5626" stroke="black" stroke-miterlimit="10"/>
<path d="M44.3594 31.1875V39.5626" stroke="black" stroke-miterlimit="10"/>
<path d="M42.7256 78.9999V41.1594" stroke="black" stroke-miterlimit="10"/>
<path d="M2.63281 78.9999V41.1594" stroke="black" stroke-miterlimit="10"/>
<path d="M15.6418 2.38647L14.3408 5.78223" stroke="black" stroke-miterlimit="10"/>
<path d="M58.4977 17.1024L57.2002 20.4948" stroke="black" stroke-miterlimit="10"/>
<path d="M14.7998 69.8796V73.6807C14.7998 74.409 14.0865 75 13.2075 75C12.3286 75 11.6152 74.409 11.6152 73.6807V49" stroke="#1E1E1E" stroke-miterlimit="10"/>
<path d="M24.9978 75.3779C24.0885 75.3779 23.3506 74.6789 23.3506 73.8175V61.9573" stroke="#1E1E1E" stroke-miterlimit="10"/>
</svg>
