<svg width="90" height="71" viewBox="0 0 90 71" fill="none" xmlns="http://www.w3.org/2000/svg">
<path d="M37.5 63L34 62V59.5L75.5 50L78 51.5L83.5 54.5L87.5 58L88.5 60.5L44 70L42.5 67.5L40 65.5L37.5 63Z" fill="white"/>
<path d="M42 61L37 58.5L70.5 51L73.5 52L78 54L80 56L44.5 63.5L42 61Z" fill="#1E1E1E"/>
<path d="M7.5 33L15.5 21.5L12.5 42H11.5L2 37L6 35.5L7.5 33Z" fill="#1E1E1E"/>
<path d="M73.8097 6.26826L64.1918 1.14516C63.9367 1.00948 63.6406 0.966983 63.3576 1.02583L19.2775 10.2536C17.8054 10.5609 16.6866 11.7608 16.4821 13.25L12.599 41.5578C12.5123 42.1872 11.8171 42.5288 11.2659 42.215L2.02426 36.9447C1.5679 36.6848 1.00195 37.0134 1.00195 37.5381V50.4603" stroke="black" stroke-miterlimit="10" stroke-linecap="round"/>
<path d="M49.0235 37.2961L44.0068 34.6577" stroke="black" stroke-miterlimit="10"/>
<path d="M59.5662 17.1406L54.332 14.3943" stroke="black" stroke-miterlimit="10"/>
<path d="M40.3857 65.6841L32.6456 67.3041L1 50.4603" stroke="black" stroke-miterlimit="10" stroke-linecap="round"/>
<path d="M80.1608 56.0117L44.2051 63.5313" stroke="black" stroke-miterlimit="10" stroke-linecap="round"/>
<path d="M30.5785 50.7398L25.0385 44.6097C24.5216 44.0376 24.2354 43.2938 24.2354 42.5222V16.9836C24.2354 16.176 24.8062 15.4813 25.5995 15.326L72.6108 6.05898C73.656 5.85301 74.6293 6.65237 74.6293 7.71655V32.8269C74.6293 33.5969 74.9139 34.339 75.4308 34.9111L80.2855 40.2974C80.6666 40.7208 80.4458 41.3959 79.8896 41.5136L32.7213 51.4362C31.9313 51.6013 31.1167 51.3364 30.5785 50.7398Z" stroke="black" stroke-miterlimit="10"/>
<path d="M88.8245 60.4597L43.9805 69.8379" stroke="black" stroke-miterlimit="10" stroke-linecap="round"/>
<path d="M80.4717 40.8287L80.4733 52.2911" stroke="black" stroke-miterlimit="10"/>
<path d="M43.981 69.8395C41.7876 66.4018 38.2839 63.4969 33.9199 61.756V58.8822L78.7639 49.504V51.4836" stroke="black" stroke-miterlimit="10" stroke-linecap="round"/>
<path d="M62.6084 31.404C65.4359 25.7945 64.0229 19.3819 59.4524 17.0809C54.8819 14.7799 48.8846 17.4619 46.0571 23.0714C43.2296 28.6808 44.6426 35.0935 49.2131 37.3944C53.7836 39.6954 59.7809 37.0134 62.6084 31.404Z" stroke="black" stroke-miterlimit="10"/>
<path d="M75.3252 50.2593C81.4999 51.9005 86.3448 55.7829 88.8245 60.4613" stroke="black" stroke-miterlimit="10" stroke-linecap="round"/>
<path d="M35.9795 58.4523C37.0754 58.7547 38.1893 59.1846 39.2852 59.7469C41.2791 60.7686 42.9524 62.0878 44.2037 63.5312" stroke="black" stroke-miterlimit="10" stroke-linecap="round"/>
<path d="M70.4482 51.2433C72.2213 51.464 74.104 52.0361 75.9409 52.9761C77.5831 53.8179 79.0094 54.8625 80.161 56.0117" stroke="black" stroke-miterlimit="10" stroke-linecap="round"/>
<path d="M62.6084 31.404C65.4359 25.7945 64.0229 19.3819 59.4524 17.0809C54.8819 14.7799 48.8846 17.4619 46.0571 23.0714C43.2296 28.6808 44.6426 35.0935 49.2131 37.3944C53.7836 39.6954 59.7809 37.0134 62.6084 31.404Z" fill="#1E1E1E"/>
<path d="M52.0117 21.0022L50.0117 19.0022L48.5117 20.0022L47.0117 22.0022L45.5117 24.5022L45.0117 27.0022L46.0117 28.0022L48.5117 28.5022L50.5117 27.5022L51.5117 26.0022L52.5117 23.5022L52.0117 21.0022Z" fill="white"/>
<path d="M49.7212 19C50.0171 19.0588 50.3065 19.1569 50.5844 19.2959C52.6017 20.311 53.2245 23.1423 51.9772 25.6188C50.7299 28.0954 48.0832 29.2789 46.0675 28.2638C45.6506 28.0545 45.2943 27.7668 45 27.4203" stroke="black" stroke-miterlimit="10" stroke-linecap="round"/>
<path d="M62.6084 31.404C65.4359 25.7945 64.0229 19.3819 59.4524 17.0809C54.8819 14.7799 48.8846 17.4619 46.0571 23.0714C43.2296 28.6808 44.6426 35.0935 49.2131 37.3944C53.7836 39.6954 59.7809 37.0134 62.6084 31.404Z" stroke="black" stroke-miterlimit="10"/>
<path d="M44.1956 34.7542C39.6255 32.4542 38.2122 26.0414 41.0403 20.4328C43.8684 14.8242 49.8649 12.1416 54.435 14.4433C54.5609 14.507 54.6852 14.574 54.8079 14.6443" stroke="black" stroke-miterlimit="10"/>
<path d="M31.8756 38.38L30.5703 37.6656" stroke="black" stroke-miterlimit="10"/>
<path d="M37.1534 28.7549L35.5586 27.8755" stroke="black" stroke-miterlimit="10"/>
<path d="M30.66 37.7131C28.4518 36.6015 27.7697 33.5037 29.1355 30.7934C30.5013 28.0831 33.3997 26.7868 35.6079 27.8984C35.6684 27.9295 35.729 27.9622 35.7879 27.9949" fill="#1E1E1E"/>
<path d="M30.66 37.7131C28.4518 36.6015 27.7697 33.5037 29.1355 30.7934C30.5013 28.0831 33.3997 26.7868 35.6079 27.8984C35.6684 27.9295 35.729 27.9622 35.7879 27.9949" stroke="black" stroke-miterlimit="10"/>
<path d="M38.3488 35.4849C39.7148 32.775 39.0321 29.6769 36.8239 28.5652C34.6157 27.4535 31.7182 28.7492 30.3523 31.4591C28.9863 34.1691 29.669 37.2672 31.8772 38.3789C34.0854 39.4906 36.9829 38.1949 38.3488 35.4849Z" fill="#1E1E1E" stroke="black" stroke-miterlimit="10"/>
<path d="M15.4577 20.7205L6.56777 34.7755C6.22101 35.3231 5.68286 35.7252 5.05803 35.9001L1.35156 36.9431" stroke="black" stroke-miterlimit="10"/>
<path d="M78.5 49.5V51.5L76.5 50.5L78.5 49.5Z" fill="black"/>
</svg>
