<svg width="67" height="82" viewBox="0 0 67 82" fill="none" xmlns="http://www.w3.org/2000/svg">
<g clip-path="url(#clip0_156_774)">
<path d="M27.3542 25.9928V36.4012C27.3542 38.543 29.0944 40.2892 31.2481 40.2892L33.5001 40.2477C35.6452 40.2477 37.2642 38.5516 37.2642 36.4012L37.5715 29.6572V28.9089C37.5715 21.2101 33.5225 14.0791 26.9062 10.1308L15.8015 3.48154C10.7532 0.462257 5.83405 -0.200092 2.99973 2.24286C-1.38527 6.01911 0.845997 15.7651 7.97055 24.0144C9.62462 25.9326 11.4079 27.6014 13.2084 28.9863V73.6217H11.6405C7.00568 73.6217 3.01136 76.996 3.01136 81.6239H49.6855C58.6537 81.6239 66.6124 74.7717 66.6124 65.8257C66.6124 64.6128 66.8709 63.4112 66.6124 62.2758C63.6144 68.2799 57.9975 72.753 51.252 74.1981C42.6801 66.6714 36.3815 54.7162 35.3821 40.2477" fill="white"/>
<path d="M50.3852 81.5704H2.99805C2.99805 76.949 6.74366 73.2038 11.3655 73.2038H12.9291V28.6304" stroke="black" stroke-miterlimit="10" stroke-linecap="round" stroke-linejoin="round"/>
<path d="M28.7537 59.4941C27.2675 57.6215 26.374 55.2507 26.374 52.6651C26.374 47.1847 30.3945 42.6406 35.6435 41.8159L35.9442 44.118L36.5456 47.4853L37.6366 51.8662L39.4751 57.1748L38.8651 56.7281L38.1693 56.479L34.7071 56.4618L33.1608 56.7539L31.434 57.4067L30.1626 58.1884L29.3379 58.8842L28.7537 59.4941Z" fill="#353535"/>
<path d="M18.2207 81.5703C18.2207 76.9488 21.9663 73.2036 26.5882 73.2036" stroke="black" stroke-miterlimit="10" stroke-linecap="round" stroke-linejoin="round"/>
<path d="M65.2302 71.8468C65.0841 71.8553 64.9467 71.8639 64.8006 71.8639C62.9106 71.8639 61.2526 70.9104 60.2646 69.4501L60.9863 68.6513L62.9192 66.7185L64.6803 64.4508L66.1923 61.8738L66.4844 63.6347L66.5532 66.289L66.2868 68.4795L65.737 70.5583L65.2302 71.8468Z" fill="#353535"/>
<path d="M39.4667 57.3209C39.1317 56.8055 38.5561 56.4619 37.8946 56.4619H35.3947C30.5323 56.4619 26.5977 60.4047 26.5977 65.2581V73.2038" stroke="black" stroke-miterlimit="10" stroke-linecap="round" stroke-linejoin="round"/>
<path d="M35.4199 39.2906C36.4079 53.739 42.327 66.2546 50.8748 73.7708" stroke="black" stroke-miterlimit="10" stroke-linecap="round" stroke-linejoin="round"/>
<path d="M66.1925 61.8738C63.2029 67.8696 57.6016 72.3364 50.875 73.7795" stroke="black" stroke-miterlimit="10" stroke-linecap="round" stroke-linejoin="round"/>
<path d="M66.1921 61.8738C66.4413 63.0077 66.5787 64.1845 66.5787 65.3871C66.5787 74.3293 59.328 81.5706 50.3936 81.5706" stroke="black" stroke-miterlimit="10" stroke-linecap="round" stroke-linejoin="round"/>
<path d="M12.9383 28.6304C11.1342 27.2475 9.36453 25.581 7.71509 23.6654C0.60187 15.419 -1.61457 5.6866 2.75817 1.91559C5.59315 -0.523964 10.4899 0.137465 15.5242 3.14396" stroke="black" stroke-miterlimit="10" stroke-linecap="round" stroke-linejoin="round"/>
<path d="M15.5234 3.15259L26.5884 9.78406C33.1862 13.7269 37.2239 20.848 37.2239 28.536V29.2833" stroke="black" stroke-miterlimit="10" stroke-linecap="round" stroke-linejoin="round"/>
<path d="M37.2239 29.2834V36.0179C37.2239 38.1568 35.4885 39.9006 33.3408 39.9006H30.9182C28.7791 39.9006 27.0352 38.1654 27.0352 36.0179V25.624" stroke="black" stroke-miterlimit="10" stroke-linecap="round" stroke-linejoin="round"/>
<path d="M22.9974 22.8322C23.785 22.8322 24.4234 22.1938 24.4234 21.4063C24.4234 20.6188 23.785 19.9803 22.9974 19.9803C22.2098 19.9803 21.5713 20.6188 21.5713 21.4063C21.5713 22.1938 22.2098 22.8322 22.9974 22.8322Z" fill="#1E1E1E"/>
<path d="M9.93832 7.4297C10.3802 6.80659 9.48008 5.40945 7.92795 4.30911C6.37583 3.20876 4.75941 2.82189 4.31758 3.445C3.87575 4.06811 4.77583 5.46525 6.32795 6.56559C7.88008 7.66593 9.4965 8.05281 9.93832 7.4297Z" fill="#1E1E1E"/>
<path d="M10.6526 13.4262C10.904 13.4262 11.1079 13.2223 11.1079 12.9709C11.1079 12.7195 10.904 12.5156 10.6526 12.5156C10.4011 12.5156 10.1973 12.7195 10.1973 12.9709C10.1973 13.2223 10.4011 13.4262 10.6526 13.4262Z" fill="#1E1E1E"/>
<path d="M9.44945 14.981C9.70092 14.981 9.90477 14.7771 9.90477 14.5257C9.90477 14.2743 9.70092 14.0704 9.44945 14.0704C9.19799 14.0704 8.99414 14.2743 8.99414 14.5257C8.99414 14.7771 9.19799 14.981 9.44945 14.981Z" fill="#1E1E1E"/>
<path d="M11.5715 14.981C11.823 14.981 12.0268 14.7771 12.0268 14.5257C12.0268 14.2743 11.823 14.0704 11.5715 14.0704C11.3201 14.0704 11.1162 14.2743 11.1162 14.5257C11.1162 14.7771 11.3201 14.981 11.5715 14.981Z" fill="#1E1E1E"/>
</g>
<defs>
<clipPath id="clip0_156_774">
<rect width="67" height="82" fill="white"/>
</clipPath>
</defs>
</svg>
