<svg width="54" height="17" viewBox="0 0 54 17" fill="none" xmlns="http://www.w3.org/2000/svg">
<path d="M25.64 5.79004C24.8 8.67004 23.92 11.46 22.99 14.15" stroke="black" stroke-width="1.5" stroke-miterlimit="10" stroke-linecap="round" stroke-linejoin="round"/>
<path d="M26.4301 1.39C25.8901 2.92 25.1301 4.55 24.1801 6.2C20.9001 11.88 16.5501 15.5 14.4601 14.29C12.3701 13.08 13.3301 7.5 16.6101 1.82C16.7701 1.54 16.9301 1.27 17.1001 1" stroke="black" stroke-width="1.5" stroke-miterlimit="10" stroke-linecap="round" stroke-linejoin="round"/>
<path d="M17.1 1.00977C16.36 2.19977 15.53 3.40977 14.6 4.61977C9.39 11.4198 3.3 15.5098 1 13.7498" stroke="black" stroke-width="1.5" stroke-miterlimit="10" stroke-linecap="round" stroke-linejoin="round"/>
<path d="M53.1101 5.40014C51.4101 6.23014 49.3701 7.02014 47.1201 7.67014C40.5601 9.56014 36.5001 7.84014 35.9401 5.92014L45.8101 5.46014C44.9001 6.52014 43.8401 7.59014 42.6501 8.62014C37.6901 12.9101 32.3901 14.9101 30.8101 13.0801C29.2301 11.2501 31.9601 6.29014 36.9201 2.00014C37.1601 1.79014 37.4001 1.59014 37.6501 1.39014" stroke="black" stroke-width="1.5" stroke-miterlimit="10" stroke-linecap="round" stroke-linejoin="round"/>
<path d="M53.11 5.41016C52.03 9.06016 50.63 12.4102 49 15.3102" stroke="black" stroke-width="1.5" stroke-miterlimit="10" stroke-linecap="round" stroke-linejoin="round"/>
</svg>
